<?xml version="1.0" encoding="UTF-8" standalone="no" ?>
<!DOCTYPE svg PUBLIC "-//W3C//DTD SVG 1.1//EN" "http://www.w3.org/Graphics/SVG/1.1/DTD/svg11.dtd">
<svg xmlns="http://www.w3.org/2000/svg" xmlns:xlink="http://www.w3.org/1999/xlink" version="1.1" width="120" height="120" viewBox="0 0 120 120" xml:space="preserve">
<desc>Created with Fabric.js 3.6.6</desc>
<defs>
</defs>
<g transform="matrix(0.09 0 0 0.09 76.72 43.23)"  >
<g style=""   >
		<g transform="matrix(1 0 0 1 161.5 -221.65)" id="Layer_1"  >
<path style="stroke: rgb(0,0,0); stroke-width: 0.1; stroke-dasharray: none; stroke-linecap: butt; stroke-dashoffset: 0; stroke-linejoin: miter; stroke-miterlimit: 4; fill: none; fill-rule: nonzero; opacity: 1;"  transform=" translate(-661.5, -278.35)" d="M 661.6 278.2 c -0.1 0.1 -0.2 0.2 -0.2 0.3 C 661.4 278.4 661.5 278.3 661.6 278.2 z" stroke-linecap="round" />
</g>
		<g transform="matrix(1 0 0 1 145.15 -149)" id="Layer_1"  >
<path style="stroke: rgb(0,0,0); stroke-width: 0.1; stroke-dasharray: none; stroke-linecap: butt; stroke-dashoffset: 0; stroke-linejoin: miter; stroke-miterlimit: 4; fill: none; fill-rule: nonzero; opacity: 1;"  transform=" translate(-645.15, -351)" d="M 666.8 352.2 L 627.5 408 c 0 -0.1 0 -0.2 -0.1 -0.4 c -1.5 -7.6 -2.8 -25.3 -3.4 -45 c 0 -1.4 -0.1 -2.8 -0.1 -4.2 c -0.1 -4.3 -0.2 -8.6 -0.3 -13 l 0 0 c 0 -1.8 0 -3.6 -0.1 -5.4 c 0 -0.4 0 -0.7 0 -1.1 c 0 -1.8 0 -3.5 0 -5.2 c 0 0 0 0 0 -0.1 c 0 -3.9 0 -7.6 0.1 -11.3 l 0 0 c 0.2 -11.1 0.7 -20.8 1.6 -27.4 c 3 -0.1 5.8 -0.4 8.4 -0.9 c -4.1 0.9 -6.5 0.9 -6.5 0.9 L 666.8 352.2 z" stroke-linecap="round" />
</g>
		<g transform="matrix(1 0 0 1 165.1 -226.25)" id="Layer_1"  >
<path style="stroke: rgb(0,0,0); stroke-width: 0.1; stroke-dasharray: none; stroke-linecap: butt; stroke-dashoffset: 0; stroke-linejoin: miter; stroke-miterlimit: 4; fill: none; fill-rule: nonzero; opacity: 1;"  transform=" translate(-665.1, -273.75)" d="M 665.3 273.5 c -0.1 0.2 -0.2 0.3 -0.4 0.5 C 665.1 273.8 665.2 273.7 665.3 273.5 z" stroke-linecap="round" />
</g>
		<g transform="matrix(1 0 0 1 155.5 -216.5)" id="Layer_1"  >
<path style="stroke: rgb(0,0,0); stroke-width: 0.1; stroke-dasharray: none; stroke-linecap: butt; stroke-dashoffset: 0; stroke-linejoin: miter; stroke-miterlimit: 4; fill: none; fill-rule: nonzero; opacity: 1;"  transform=" translate(-655.5, -283.5)" d="M 650.2 287.9 c 4.3 -2.7 7.8 -5.8 10.6 -8.8 C 658.1 282.1 654.5 285.4 650.2 287.9 z" stroke-linecap="round" />
</g>
		<g transform="matrix(1 0 0 1 122.63 395.55)" id="Layer_1"  >
<path style="stroke: rgb(0,0,0); stroke-width: 0.1; stroke-dasharray: none; stroke-linecap: butt; stroke-dashoffset: 0; stroke-linejoin: miter; stroke-miterlimit: 4; fill: rgb(30,139,195); fill-rule: nonzero; opacity: 1;"  transform=" translate(-622.63, -895.55)" d="M 639.3 839.7 C 639.4 839.7 639.4 839.7 639.3 839.7 c 0 0 2.3 36.8 4.6 54.5 c 2.3 17.6 6.5 55.9 -21.9 57.2 c -16.6 -1.3 -24.2 -17.4 -21.9 -36.8 c 2.3 -19.4 1.2 -63.4 -0.4 -69.4 c 0 0 0 0 0 0 C 614.2 848.4 629.5 845.5 639.3 839.7 z" stroke-linecap="round" />
</g>
		<g transform="matrix(1 0 0 1 2.31 324.64)" id="Layer_1"  >
<path style="stroke: rgb(0,0,0); stroke-width: 0.1; stroke-dasharray: none; stroke-linecap: butt; stroke-dashoffset: 0; stroke-linejoin: miter; stroke-miterlimit: 4; fill: rgb(30,139,195); fill-rule: nonzero; opacity: 1;"  transform=" translate(-502.31, -824.64)" d="M 547.9 787.2 C 548 787.2 548 787.2 547.9 787.2 c 0 0 2.8 10.2 4.6 15.8 c 1.8 5.5 4 24.4 -2.3 28 c -6.3 3.5 -31.7 10.1 -35.8 12.6 c -4 2.5 -19.9 25.4 -58.7 16.4 c -11.1 -4 -4.3 -22.2 11.2 -30.7 c 15.5 -8.6 38.4 -22.6 38.6 -35.7 l 0 0 C 514.8 797.1 531 800.1 547.9 787.2 z" stroke-linecap="round" />
</g>
		<g transform="matrix(1 0 0 1 36.9 47.95)" id="Layer_1"  >
<path style="stroke: rgb(0,0,0); stroke-width: 0.1; stroke-dasharray: none; stroke-linecap: butt; stroke-dashoffset: 0; stroke-linejoin: miter; stroke-miterlimit: 4; fill: rgb(59,62,83); fill-rule: nonzero; opacity: 1;"  transform=" translate(-536.9, -547.95)" d="M 536.9 548.7 c 0 -0.5 0 -1 0 -1.5 C 536.9 547.7 536.9 548.2 536.9 548.7 z" stroke-linecap="round" />
</g>
		<g transform="matrix(1 0 0 1 36.7 54.78)" id="Layer_1"  >
<path style="stroke: rgb(0,0,0); stroke-width: 0.1; stroke-dasharray: none; stroke-linecap: butt; stroke-dashoffset: 0; stroke-linejoin: miter; stroke-miterlimit: 4; fill: rgb(59,62,83); fill-rule: nonzero; opacity: 1;"  transform=" translate(-536.7, -554.78)" d="M 536.7 554.8 C 536.7 554.8 536.7 554.7 536.7 554.8 C 536.7 554.7 536.7 554.8 536.7 554.8 z" stroke-linecap="round" />
</g>
		<g transform="matrix(1 0 0 1 37.2 41.4)" id="Layer_1"  >
<path style="stroke: rgb(0,0,0); stroke-width: 0.1; stroke-dasharray: none; stroke-linecap: butt; stroke-dashoffset: 0; stroke-linejoin: miter; stroke-miterlimit: 4; fill: rgb(59,62,83); fill-rule: nonzero; opacity: 1;"  transform=" translate(-537.2, -541.4)" d="M 537.2 541.4 C 537.2 541.4 537.2 541.4 537.2 541.4 C 537.2 541.4 537.2 541.4 537.2 541.4 z" stroke-linecap="round" />
</g>
		<g transform="matrix(1 0 0 1 36.6 61.65)" id="Layer_1"  >
<path style="stroke: rgb(0,0,0); stroke-width: 0.1; stroke-dasharray: none; stroke-linecap: butt; stroke-dashoffset: 0; stroke-linejoin: miter; stroke-miterlimit: 4; fill: rgb(59,62,83); fill-rule: nonzero; opacity: 1;"  transform=" translate(-536.6, -561.65)" d="M 536.6 562.4 c 0 -0.5 0 -1 0 -1.5 C 536.6 561.4 536.6 561.9 536.6 562.4 z" stroke-linecap="round" />
</g>
		<g transform="matrix(1 0 0 1 37.55 34.9)" id="Layer_1"  >
<path style="stroke: rgb(0,0,0); stroke-width: 0.1; stroke-dasharray: none; stroke-linecap: butt; stroke-dashoffset: 0; stroke-linejoin: miter; stroke-miterlimit: 4; fill: rgb(59,62,83); fill-rule: nonzero; opacity: 1;"  transform=" translate(-537.55, -534.9)" d="M 537.5 535.6 c 0 -0.5 0.1 -0.9 0.1 -1.4 C 537.5 534.7 537.5 535.2 537.5 535.6 z" stroke-linecap="round" />
</g>
		<g transform="matrix(1 0 0 1 36.8 90.6)" id="Layer_1"  >
<path style="stroke: rgb(0,0,0); stroke-width: 0.1; stroke-dasharray: none; stroke-linecap: butt; stroke-dashoffset: 0; stroke-linejoin: miter; stroke-miterlimit: 4; fill: rgb(59,62,83); fill-rule: nonzero; opacity: 1;"  transform=" translate(-536.8, -590.6)" d="M 536.8 591.4 c 0 -0.5 0 -1 0 -1.6 C 536.8 590.4 536.8 590.9 536.8 591.4 z" stroke-linecap="round" />
</g>
		<g transform="matrix(1 0 0 1 36.7 83.25)" id="Layer_1"  >
<path style="stroke: rgb(0,0,0); stroke-width: 0.1; stroke-dasharray: none; stroke-linecap: butt; stroke-dashoffset: 0; stroke-linejoin: miter; stroke-miterlimit: 4; fill: rgb(59,62,83); fill-rule: nonzero; opacity: 1;"  transform=" translate(-536.7, -583.25)" d="M 536.7 583.3 c 0 0 0 -0.1 0 -0.1 C 536.7 583.3 536.7 583.3 536.7 583.3 z" stroke-linecap="round" />
</g>
		<g transform="matrix(1 0 0 1 36.6 75.95)" id="Layer_1"  >
<path style="stroke: rgb(0,0,0); stroke-width: 0.1; stroke-dasharray: none; stroke-linecap: butt; stroke-dashoffset: 0; stroke-linejoin: miter; stroke-miterlimit: 4; fill: rgb(59,62,83); fill-rule: nonzero; opacity: 1;"  transform=" translate(-536.6, -575.95)" d="M 536.6 576.7 c 0 -0.5 0 -1 0 -1.5 C 536.6 575.7 536.6 576.2 536.6 576.7 z" stroke-linecap="round" />
</g>
		<g transform="matrix(1 0 0 1 41.2 0.85)" id="Layer_1"  >
<path style="stroke: rgb(0,0,0); stroke-width: 0.1; stroke-dasharray: none; stroke-linecap: butt; stroke-dashoffset: 0; stroke-linejoin: miter; stroke-miterlimit: 4; fill: rgb(59,62,83); fill-rule: nonzero; opacity: 1;"  transform=" translate(-541.2, -500.85)" d="M 541.1 501.4 c 0.1 -0.4 0.1 -0.7 0.2 -1.1 C 541.3 500.7 541.2 501.1 541.1 501.4 z" stroke-linecap="round" />
</g>
		<g transform="matrix(1 0 0 1 56.19 121.42)" id="Layer_1"  >
<path style="stroke: rgb(0,0,0); stroke-width: 0.1; stroke-dasharray: none; stroke-linecap: butt; stroke-dashoffset: 0; stroke-linejoin: miter; stroke-miterlimit: 4; fill: rgb(59,62,83); fill-rule: nonzero; opacity: 1;"  transform=" translate(-556.19, -621.42)" d="M 574.6 449.3 c 0.7 1.2 1.5 2.3 2.3 3.4 c 6 7.9 9.8 10.6 24.2 7.2 c 11.1 -2.6 21.6 -7.6 29.3 -15.2 c 2.5 47 -5.7 177.1 -3.6 210.9 c 2.5 39.3 13.1 120.4 18.6 179.3 c -1.6 1.7 -3.7 3.3 -6.1 4.7 c -9.8 5.9 -25.2 8.7 -39.6 5.5 c -2.4 -0.5 -4.8 -1.2 -7.2 -2.2 c -6 -18.1 -38.8 -223.7 -50.4 -346.9 l -28.7 -7.9 l 23.5 110 v 0 c 1.9 67 9.6 142.9 13.1 187.3 c -0.7 0.6 -1.4 1.2 -2.2 1.7 c -16.9 13 -33.1 9.9 -42.4 6.2 c -5 -2 -7.9 -4.2 -7.9 -4.2 S 477.2 654.4 471.5 606 c -5.7 -48.4 -4.4 -209.6 -4.4 -209.6 C 472.9 420.1 528.4 447.6 574.6 449.3 z" stroke-linecap="round" />
</g>
		<g transform="matrix(1 0 0 1 40.4 5.9)" id="Layer_1"  >
<path style="stroke: rgb(0,0,0); stroke-width: 0.1; stroke-dasharray: none; stroke-linecap: butt; stroke-dashoffset: 0; stroke-linejoin: miter; stroke-miterlimit: 4; fill: rgb(59,62,83); fill-rule: nonzero; opacity: 1;"  transform=" translate(-540.4, -505.9)" d="M 540.4 505.9 L 540.4 505.9 L 540.4 505.9 z" stroke-linecap="round" />
</g>
		<g transform="matrix(1 0 0 1 36.6 68.75)" id="Layer_1"  >
<path style="stroke: rgb(0,0,0); stroke-width: 0.1; stroke-dasharray: none; stroke-linecap: butt; stroke-dashoffset: 0; stroke-linejoin: miter; stroke-miterlimit: 4; fill: rgb(59,62,83); fill-rule: nonzero; opacity: 1;"  transform=" translate(-536.6, -568.75)" d="M 536.6 568.7 c 0 0 0 0.1 0 0.1 C 536.6 568.8 536.6 568.7 536.6 568.7 z" stroke-linecap="round" />
</g>
		<g transform="matrix(1 0 0 1 37.9 28.7)" id="Layer_1"  >
<path style="stroke: rgb(0,0,0); stroke-width: 0.1; stroke-dasharray: none; stroke-linecap: butt; stroke-dashoffset: 0; stroke-linejoin: miter; stroke-miterlimit: 4; fill: rgb(59,62,83); fill-rule: nonzero; opacity: 1;"  transform=" translate(-537.9, -528.7)" d="M 537.9 528.7 C 537.9 528.7 537.9 528.7 537.9 528.7 C 537.9 528.7 537.9 528.7 537.9 528.7 z" stroke-linecap="round" />
</g>
		<g transform="matrix(1 0 0 1 39 16.9)" id="Layer_1"  >
<path style="stroke: rgb(0,0,0); stroke-width: 0.1; stroke-dasharray: none; stroke-linecap: butt; stroke-dashoffset: 0; stroke-linejoin: miter; stroke-miterlimit: 4; fill: rgb(59,62,83); fill-rule: nonzero; opacity: 1;"  transform=" translate(-539, -516.9)" d="M 539 516.9 C 539 516.9 539 516.9 539 516.9 C 539 516.9 539 516.9 539 516.9 z" stroke-linecap="round" />
</g>
		<g transform="matrix(1 0 0 1 39.7 11.3)" id="Layer_1"  >
<path style="stroke: rgb(0,0,0); stroke-width: 0.1; stroke-dasharray: none; stroke-linecap: butt; stroke-dashoffset: 0; stroke-linejoin: miter; stroke-miterlimit: 4; fill: rgb(59,62,83); fill-rule: nonzero; opacity: 1;"  transform=" translate(-539.7, -511.3)" d="M 539.6 511.9 c 0.1 -0.4 0.1 -0.8 0.2 -1.2 C 539.7 511.1 539.6 511.5 539.6 511.9 z" stroke-linecap="round" />
</g>
		<g transform="matrix(1 0 0 1 38.35 22.65)" id="Layer_1"  >
<path style="stroke: rgb(0,0,0); stroke-width: 0.1; stroke-dasharray: none; stroke-linecap: butt; stroke-dashoffset: 0; stroke-linejoin: miter; stroke-miterlimit: 4; fill: rgb(59,62,83); fill-rule: nonzero; opacity: 1;"  transform=" translate(-538.35, -522.65)" d="M 538.3 523.3 c 0 -0.4 0.1 -0.9 0.1 -1.3 C 538.4 522.5 538.4 522.9 538.3 523.3 z" stroke-linecap="round" />
</g>
		<g transform="matrix(1 0 0 1 27.85 43.1)" id="Layer_1"  >
<path style="stroke: rgb(0,0,0); stroke-width: 0.1; stroke-dasharray: none; stroke-linecap: butt; stroke-dashoffset: 0; stroke-linejoin: miter; stroke-miterlimit: 4; fill: rgb(47,47,64); fill-rule: nonzero; opacity: 1;"  transform=" translate(-527.85, -543.1)" d="M 513.5 488.1 l 28.7 7.9 c -0.3 1.4 -0.6 2.8 -0.8 4.3 c -0.1 0.4 -0.1 0.7 -0.2 1.1 c -0.3 1.5 -0.5 3 -0.8 4.5 l 0 0 c -0.2 1.5 -0.5 3.1 -0.7 4.7 c -0.1 0.4 -0.1 0.8 -0.2 1.2 c -0.2 1.6 -0.4 3.3 -0.6 5 c 0 0 0 0 0 0 c -0.2 1.7 -0.3 3.4 -0.5 5.2 c 0 0.4 -0.1 0.9 -0.1 1.3 c -0.2 1.8 -0.3 3.5 -0.4 5.4 c 0 0 0 0 0 0.1 c -0.1 1.8 -0.2 3.6 -0.4 5.5 c 0 0.5 -0.1 0.9 -0.1 1.4 c -0.1 1.9 -0.2 3.8 -0.3 5.7 c 0 0 0 0 0 0.1 c -0.1 1.9 -0.2 3.9 -0.2 5.8 c 0 0.5 0 1 0 1.5 c -0.1 2 -0.1 4 -0.2 6 c 0 0 0 0.1 0 0.1 c 0 2 -0.1 4.1 -0.1 6.1 c 0 0.5 0 1 0 1.5 c 0 2.1 0 4.2 0 6.3 c 0 0 0 0.1 0 0.1 c 0 2.1 0 4.2 0 6.3 c 0 0.5 0 1 0 1.5 c 0 2.2 0 4.3 0.1 6.5 c 0 0 0 0.1 0 0.1 c 0 2.2 0.1 4.3 0.1 6.5 c 0 0.5 0 1 0 1.6 c 0 2.2 0.1 4.5 0.2 6.7 v 0 L 513.5 488.1 z" stroke-linecap="round" />
</g>
		<g transform="matrix(1 0 0 1 -121.24 -171.98)" id="Layer_1"  >
<path style="stroke: rgb(0,0,0); stroke-width: 0.1; stroke-dasharray: none; stroke-linecap: butt; stroke-dashoffset: 0; stroke-linejoin: miter; stroke-miterlimit: 4; fill: rgb(137,73,72); fill-rule: nonzero; opacity: 1;"  transform=" translate(-378.76, -328.02)" d="M 287.2 416.7 c 7.4 -8.7 18.5 -10.7 31.6 -22.5 c -22.2 -4.3 -15.9 -12.3 -10.1 -11.3 c 10.8 1.8 28.5 -2 38.3 -5.5 c 0 0 54.3 -64.1 61.5 -73.8 c 7.2 -9.7 33.2 -76.8 33.2 -76.8 c 9.4 11.6 27.6 16.2 27.6 16.2 s 2.4 16.6 3.4 33.4 l 0 0 c 0 0 -12.6 27.4 -24.1 47.6 c -11.6 20.1 -55.9 48.6 -85.3 72.8 c -10.3 20.6 -39.6 25.3 -47.3 30 c -7.7 4.7 -16.1 1.3 -22.5 0.6 C 287 426.5 281.5 424.3 287.2 416.7 z" stroke-linecap="round" />
</g>
		<g transform="matrix(1 0 0 1 -27.44 -198.15)" id="Layer_1"  >
<path style="stroke: rgb(0,0,0); stroke-width: 0.1; stroke-dasharray: none; stroke-linecap: butt; stroke-dashoffset: 0; stroke-linejoin: miter; stroke-miterlimit: 4; fill: rgb(245,245,245); fill-rule: nonzero; opacity: 1;"  transform=" translate(-472.56, -301.85)" d="M 472.6 301.5 c 0 0.2 0 0.4 0 0.7 C 472.5 301.9 472.5 301.7 472.6 301.5 z" stroke-linecap="round" />
</g>
		<g transform="matrix(1 0 0 1 37.4 -118.35)" id="Layer_1"  >
<path style="stroke: rgb(0,0,0); stroke-width: 0.1; stroke-dasharray: none; stroke-linecap: butt; stroke-dashoffset: 0; stroke-linejoin: miter; stroke-miterlimit: 4; fill: rgb(245,245,245); fill-rule: nonzero; opacity: 1;"  transform=" translate(-537.4, -381.65)" d="M 604.1 349.6 c 0.2 4.9 0.6 9.6 1 13.9 c 1.7 16.6 2.9 38.3 3.4 58.8 c -2.4 2.9 -4.5 5.7 -6.7 7 c -5.7 3.4 -25.3 6.8 -29.5 6 c -3.6 -0.7 -2.1 6.8 2.2 14 c -46.3 -1.7 -101.7 -29.2 -107.5 -52.9 c -0.3 -1 -0.4 -2.1 -0.5 -3.1 c -1.1 -19.2 2.7 -54.2 4.9 -79.3 v 0 C 494 325.9 554.3 354.7 604.1 349.6 z" stroke-linecap="round" />
</g>
		<g transform="matrix(1 0 0 1 -27.7 -195.4)" id="Layer_1"  >
<path style="stroke: rgb(0,0,0); stroke-width: 0.1; stroke-dasharray: none; stroke-linecap: butt; stroke-dashoffset: 0; stroke-linejoin: miter; stroke-miterlimit: 4; fill: rgb(245,245,245); fill-rule: nonzero; opacity: 1;"  transform=" translate(-472.3, -304.6)" d="M 472.3 304.3 c 0 0.2 0 0.4 0 0.6 C 472.3 304.8 472.3 304.5 472.3 304.3 z" stroke-linecap="round" />
</g>
		<g transform="matrix(1 0 0 1 -27.9 -192.35)" id="Layer_1"  >
<path style="stroke: rgb(0,0,0); stroke-width: 0.1; stroke-dasharray: none; stroke-linecap: butt; stroke-dashoffset: 0; stroke-linejoin: miter; stroke-miterlimit: 4; fill: rgb(245,245,245); fill-rule: nonzero; opacity: 1;"  transform=" translate(-472.1, -307.65)" d="M 472.1 307.4 c 0 0.2 0 0.3 0 0.5 C 472.1 307.7 472.1 307.5 472.1 307.4 z" stroke-linecap="round" />
</g>
		<g transform="matrix(1 0 0 1 -27.3 -200.85)" id="Layer_1"  >
<path style="stroke: rgb(0,0,0); stroke-width: 0.1; stroke-dasharray: none; stroke-linecap: butt; stroke-dashoffset: 0; stroke-linejoin: miter; stroke-miterlimit: 4; fill: rgb(245,245,245); fill-rule: nonzero; opacity: 1;"  transform=" translate(-472.7, -299.15)" d="M 472.7 298.8 c 0 0.2 0 0.5 0 0.7 C 472.7 299.3 472.7 299.1 472.7 298.8 z" stroke-linecap="round" />
</g>
		<g transform="matrix(1 0 0 1 -28.2 -189.25)" id="Layer_1"  >
<path style="stroke: rgb(0,0,0); stroke-width: 0.1; stroke-dasharray: none; stroke-linecap: butt; stroke-dashoffset: 0; stroke-linejoin: miter; stroke-miterlimit: 4; fill: rgb(245,245,245); fill-rule: nonzero; opacity: 1;"  transform=" translate(-471.8, -310.75)" d="M 471.8 310.6 c 0 0.1 0 0.2 0 0.3 C 471.8 310.8 471.8 310.7 471.8 310.6 z" stroke-linecap="round" />
</g>
		<g transform="matrix(1 0 0 1 -27 -205.6)" id="Layer_1"  >
<path style="stroke: rgb(0,0,0); stroke-width: 0.1; stroke-dasharray: none; stroke-linecap: butt; stroke-dashoffset: 0; stroke-linejoin: miter; stroke-miterlimit: 4; fill: rgb(245,245,245); fill-rule: nonzero; opacity: 1;"  transform=" translate(-473, -294.4)" d="M 473 294.1 c 0 0.2 0 0.4 0 0.6 C 473 294.5 473 294.3 473 294.1 z" stroke-linecap="round" />
</g>
		<g transform="matrix(1 0 0 1 -27.12 -203.25)" id="Layer_1"  >
<path style="stroke: rgb(0,0,0); stroke-width: 0.1; stroke-dasharray: none; stroke-linecap: butt; stroke-dashoffset: 0; stroke-linejoin: miter; stroke-miterlimit: 4; fill: rgb(245,245,245); fill-rule: nonzero; opacity: 1;"  transform=" translate(-472.88, -296.75)" d="M 472.9 296.4 c 0 0.2 0 0.5 0 0.7 C 472.8 296.8 472.9 296.6 472.9 296.4 z" stroke-linecap="round" />
</g>
		<g transform="matrix(1 0 0 1 54 -261.39)" id="Layer_1"  >
<path style="stroke: rgb(0,0,0); stroke-width: 0.1; stroke-dasharray: none; stroke-linecap: butt; stroke-dashoffset: 0; stroke-linejoin: miter; stroke-miterlimit: 4; fill: rgb(245,245,245); fill-rule: nonzero; opacity: 1;"  transform=" translate(-554, -238.61)" d="M 441.6 226.7 c -1.3 -1.6 -2.5 -3.4 -3.4 -5.3 c 12.8 -39.3 22.2 -78.9 56.4 -70.1 l 0 0 c 2.2 14.9 9.9 32.3 22.5 33.4 c 1.2 0.1 2.4 0.2 3.5 0.2 c 0 0 0 0 0 0 c -10.6 25.5 22.7 48.8 48.1 35.4 c 25.4 -13.3 14.1 -34.8 9.1 -39.3 c -0.9 -0.8 -1.5 -2.4 -1.9 -4.5 c 0 0 44 22.1 59.1 36.5 c 15.1 14.4 34.8 52.5 34.8 52.5 s -1.4 3.4 -4.5 7.8 c 0 0 0 0 0 0.1 c -0.1 0.2 -0.2 0.3 -0.4 0.5 c -0.9 1.2 -2 2.7 -3.4 4.2 c -0.1 0.1 -0.2 0.2 -0.2 0.3 c -0.2 0.2 -0.3 0.4 -0.5 0.5 c -2.8 3 -6.3 6.2 -10.6 8.8 c 0 0 0 0 0 0 c -6.7 3.6 -12.4 5.4 -16.5 6.3 c -2.6 0.5 -5.4 0.8 -8.4 0.9 l -20.1 -23.3 c 0 0 -1.7 27.2 -1.6 55.3 c -23 1.7 -63.6 -4.2 -130.5 -39.4 c 0 -3.6 -0.2 -7.4 -0.4 -11.3 c -1 -16.8 -3.4 -33.4 -3.4 -33.4 S 451 238.3 441.6 226.7 z" stroke-linecap="round" />
</g>
		<g transform="matrix(1 0 0 1 114.55 -200.75)" id="Layer_1"  >
<path style="stroke: rgb(0,0,0); stroke-width: 0.1; stroke-dasharray: none; stroke-linecap: butt; stroke-dashoffset: 0; stroke-linejoin: miter; stroke-miterlimit: 4; fill: rgb(216,215,223); fill-rule: nonzero; opacity: 1;"  transform=" translate(-614.55, -299.25)" d="M 622.2 323.1 c -0.2 0.1 -0.4 0.1 -0.5 0.2 c -0.4 0.1 -0.8 0.3 -1.2 0.4 c -0.2 0.1 -0.5 0.2 -0.7 0.2 c -0.4 0.1 -0.8 0.3 -1.3 0.4 c -0.3 0.1 -0.5 0.2 -0.8 0.2 c -0.5 0.1 -0.9 0.3 -1.4 0.4 c -0.3 0.1 -0.6 0.1 -0.9 0.2 c -0.6 0.1 -1.1 0.3 -1.7 0.4 c -0.2 0.1 -0.5 0.1 -0.7 0.2 c -0.9 0.2 -1.8 0.3 -2.7 0.5 c -0.2 0 -0.3 0 -0.5 0.1 c -0.8 0.1 -1.6 0.2 -2.5 0.3 c -0.4 0 -0.7 0.1 -1.1 0.1 c -0.7 0.1 -1.3 0.1 -2 0.2 c -0.2 0 -0.4 0 -0.5 0 c -0.1 -28.1 1.6 -55.3 1.6 -55.3 l 20.1 23.3 c -0.9 6.6 -1.4 16.3 -1.6 27.4 C 623.2 322.7 622.7 322.9 622.2 323.1 z" stroke-linecap="round" />
</g>
		<g transform="matrix(1 0 0 1 123.6 -166.28)" id="Layer_1"  >
<path style="stroke: rgb(0,0,0); stroke-width: 0.1; stroke-dasharray: none; stroke-linecap: butt; stroke-dashoffset: 0; stroke-linejoin: miter; stroke-miterlimit: 4; fill: rgb(216,215,223); fill-rule: nonzero; opacity: 1;"  transform=" translate(-623.6, -333.72)" d="M 623.6 333.7 C 623.6 333.7 623.6 333.8 623.6 333.7 C 623.6 333.8 623.6 333.7 623.6 333.7 z" stroke-linecap="round" />
</g>
		<g transform="matrix(1 0 0 1 123.6 -160.45)" id="Layer_1"  >
<path style="stroke: rgb(0,0,0); stroke-width: 0.1; stroke-dasharray: none; stroke-linecap: butt; stroke-dashoffset: 0; stroke-linejoin: miter; stroke-miterlimit: 4; fill: rgb(216,215,223); fill-rule: nonzero; opacity: 1;"  transform=" translate(-623.6, -339.55)" d="M 623.6 339 c 0 0.4 0 0.7 0 1.1 C 623.6 339.7 623.6 339.4 623.6 339 z" stroke-linecap="round" />
</g>
		<g transform="matrix(1 0 0 1 115.8 -116)" id="Layer_1"  >
<path style="stroke: rgb(0,0,0); stroke-width: 0.1; stroke-dasharray: none; stroke-linecap: butt; stroke-dashoffset: 0; stroke-linejoin: miter; stroke-miterlimit: 4; fill: rgb(216,215,223); fill-rule: nonzero; opacity: 1;"  transform=" translate(-615.8, -384)" d="M 606.2 349.3 c 0.9 -0.1 1.7 -0.2 2.6 -0.3 c 0.9 -0.1 1.8 -0.3 2.6 -0.5 c 0.8 -0.1 1.6 -0.3 2.4 -0.4 c 1 -0.2 2 -0.5 3.1 -0.7 c 0.6 -0.2 1.3 -0.3 1.9 -0.4 c 1.6 -0.4 3.3 -0.9 4.8 -1.4 c 0.1 4.3 0.1 8.7 0.3 13 c 0 1.4 0.1 2.8 0.1 4.2 c 0.7 19.6 1.9 37.4 3.4 45 c 0 0.1 0 0.2 0.1 0.4 l -4.5 6.4 c -6.1 -1.6 -10.6 3.1 -14.5 7.8 c -0.5 -20.5 -1.7 -42.2 -3.4 -58.8 c -0.4 -4.3 -0.8 -9 -1 -13.9 l 0 0 c 0 0 0 0 0 0 C 604.8 349.5 605.5 349.4 606.2 349.3 z" stroke-linecap="round" />
</g>
		<g transform="matrix(1 0 0 1 51.82 -314.36)" id="Layer_1"  >
<path style="stroke: rgb(0,0,0); stroke-width: 0.1; stroke-dasharray: none; stroke-linecap: butt; stroke-dashoffset: 0; stroke-linejoin: miter; stroke-miterlimit: 4; fill: rgb(128,67,67); fill-rule: nonzero; opacity: 1;"  transform=" translate(-551.82, -185.64)" d="M 568.9 220.4 c -25.4 13.3 -58.7 -9.9 -48.1 -35.4 c 0 0 0 0 0 0 c 29.3 0.7 52.2 -25.6 55.8 -38 c 0 0 -2.5 20 -0.5 29.6 c 0.4 2.1 1 3.7 1.9 4.5 C 583 185.6 594.3 207 568.9 220.4 z" stroke-linecap="round" />
</g>
		<g transform="matrix(1 0 0 1 56.72 -410.15)" id="Layer_1"  >
<path style="stroke: rgb(0,0,0); stroke-width: 0.1; stroke-dasharray: none; stroke-linecap: butt; stroke-dashoffset: 0; stroke-linejoin: miter; stroke-miterlimit: 4; fill: rgb(73,73,73); fill-rule: nonzero; opacity: 1;"  transform=" translate(-556.72, -89.85)" d="M 586 119.8 c -9.4 -0.8 -13.6 11 -13.6 11 s 0 0 -4.5 -0.8 c 3 -21.9 -6 -34.8 -17.4 -37 c -11.3 -2.3 -32.5 -3 -40.4 -12.8 c -4.4 -3.8 -6.2 -16.9 -1.4 -20.9 c 7.6 2.8 35 -14.6 59.9 -9.6 c 68.8 14.1 25.6 81.1 25.6 81.1 l -0.2 0.1 C 595 124.9 591 120.2 586 119.8 z" stroke-linecap="round" />
</g>
		<g transform="matrix(1 0 0 1 44.18 -367.54)" id="Layer_1"  >
<path style="stroke: rgb(0,0,0); stroke-width: 0.1; stroke-dasharray: none; stroke-linecap: butt; stroke-dashoffset: 0; stroke-linejoin: miter; stroke-miterlimit: 4; fill: rgb(137,73,72); fill-rule: nonzero; opacity: 1;"  transform=" translate(-544.18, -132.46)" d="M 520.8 184.9 c -1.2 0 -2.3 -0.1 -3.5 -0.2 c -12.7 -1.2 -20.3 -18.5 -22.5 -33.4 c -0.7 -4.7 -0.9 -9.1 -0.5 -12.7 c 1.5 -15.1 -3 -41.2 15.9 -58.6 c 7.9 9.8 29.1 10.6 40.4 12.8 c 11.3 2.3 20.4 15.1 17.4 37 c 4.5 0.8 4.5 0.8 4.5 0.8 s 4.2 -11.7 13.6 -11 c 5 0.4 9 5.1 8 11 c -0.9 5.2 -5.7 11.4 -17.5 16.2 C 572.9 159.3 550.1 185.6 520.8 184.9 z" stroke-linecap="round" />
</g>
		<g transform="matrix(1 0 0 1 37.8 -181.25)" id="Layer_1"  >
<path style="stroke: rgb(0,0,0); stroke-width: 0.1; stroke-dasharray: none; stroke-linecap: butt; stroke-dashoffset: 0; stroke-linejoin: miter; stroke-miterlimit: 4; fill: rgb(178,160,242); fill-rule: nonzero; opacity: 1;"  transform=" translate(-537.8, -318.75)" d="M 603.6 327 c 0.2 0 0.4 0 0.5 0 C 603.9 327 603.8 327 603.6 327 c 0 7.6 0.2 15.3 0.5 22.5 l 0 0 c -49.8 5.1 -110.2 -23.7 -132.6 -35.6 v 0 c 0.1 -1.1 0.2 -2.1 0.3 -3.1 c 0 -0.1 0 -0.2 0 -0.3 c 0.1 -0.9 0.2 -1.9 0.2 -2.8 c 0 -0.2 0 -0.3 0 -0.5 c 0.1 -0.8 0.1 -1.6 0.2 -2.4 c 0 -0.2 0 -0.4 0 -0.6 c 0.1 -0.7 0.1 -1.5 0.2 -2.2 c 0 -0.2 0 -0.4 0 -0.7 c 0 -0.7 0.1 -1.3 0.1 -2 c 0 -0.2 0 -0.5 0 -0.7 c 0 -0.6 0.1 -1.2 0.1 -1.8 c 0 -0.2 0 -0.5 0 -0.7 c 0 -0.6 0.1 -1.1 0.1 -1.6 c 0 -0.2 0 -0.4 0 -0.6 c 0 -0.7 0 -1.4 0.1 -2 c 0 -1.4 0 -2.9 0 -4.5 l 0 0 C 540 322.8 580.6 328.8 603.6 327 z" stroke-linecap="round" />
</g>
		<g transform="matrix(1 0 0 1 121.95 -176.8)" id="Layer_1"  >
<path style="stroke: rgb(0,0,0); stroke-width: 0.1; stroke-dasharray: none; stroke-linecap: butt; stroke-dashoffset: 0; stroke-linejoin: miter; stroke-miterlimit: 4; fill: rgb(178,160,242); fill-rule: nonzero; opacity: 1;"  transform=" translate(-621.95, -323.2)" d="M 622.2 323.1 c -0.2 0.1 -0.4 0.1 -0.5 0.2 C 621.8 323.2 622 323.2 622.2 323.1 z" stroke-linecap="round" />
</g>
		<g transform="matrix(1 0 0 1 117.85 -152.9)" id="Layer_1"  >
<path style="stroke: rgb(0,0,0); stroke-width: 0.1; stroke-dasharray: none; stroke-linecap: butt; stroke-dashoffset: 0; stroke-linejoin: miter; stroke-miterlimit: 4; fill: rgb(178,160,242); fill-rule: nonzero; opacity: 1;"  transform=" translate(-617.85, -347.1)" d="M 618.8 346.9 c -0.6 0.2 -1.3 0.3 -1.9 0.4 C 617.5 347.2 618.2 347.1 618.8 346.9 z" stroke-linecap="round" />
</g>
		<g transform="matrix(1 0 0 1 109.95 -173.65)" id="Layer_1"  >
<path style="stroke: rgb(0,0,0); stroke-width: 0.1; stroke-dasharray: none; stroke-linecap: butt; stroke-dashoffset: 0; stroke-linejoin: miter; stroke-miterlimit: 4; fill: rgb(178,160,242); fill-rule: nonzero; opacity: 1;"  transform=" translate(-609.95, -326.35)" d="M 610.2 326.3 c -0.2 0 -0.3 0 -0.5 0.1 C 609.9 326.3 610.1 326.3 610.2 326.3 z" stroke-linecap="round" />
</g>
		<g transform="matrix(1 0 0 1 106.75 -173.25)" id="Layer_1"  >
<path style="stroke: rgb(0,0,0); stroke-width: 0.1; stroke-dasharray: none; stroke-linecap: butt; stroke-dashoffset: 0; stroke-linejoin: miter; stroke-miterlimit: 4; fill: rgb(178,160,242); fill-rule: nonzero; opacity: 1;"  transform=" translate(-606.75, -326.75)" d="M 607.3 326.7 c -0.4 0 -0.7 0.1 -1.1 0.1 C 606.5 326.8 606.9 326.7 607.3 326.7 z" stroke-linecap="round" />
</g>
		<g transform="matrix(1 0 0 1 112.6 -151.7)" id="Layer_1"  >
<path style="stroke: rgb(0,0,0); stroke-width: 0.1; stroke-dasharray: none; stroke-linecap: butt; stroke-dashoffset: 0; stroke-linejoin: miter; stroke-miterlimit: 4; fill: rgb(178,160,242); fill-rule: nonzero; opacity: 1;"  transform=" translate(-612.6, -348.3)" d="M 613.8 348.1 c -0.8 0.2 -1.6 0.3 -2.4 0.4 C 612.3 348.4 613.1 348.3 613.8 348.1 z" stroke-linecap="round" />
</g>
		<g transform="matrix(1 0 0 1 118.1 -175.5)" id="Layer_1"  >
<path style="stroke: rgb(0,0,0); stroke-width: 0.1; stroke-dasharray: none; stroke-linecap: butt; stroke-dashoffset: 0; stroke-linejoin: miter; stroke-miterlimit: 4; fill: rgb(178,160,242); fill-rule: nonzero; opacity: 1;"  transform=" translate(-618.1, -324.5)" d="M 618.5 324.4 c -0.3 0.1 -0.5 0.2 -0.8 0.2 C 617.9 324.5 618.2 324.5 618.5 324.4 z" stroke-linecap="round" />
</g>
		<g transform="matrix(1 0 0 1 120.05 -176.2)" id="Layer_1"  >
<path style="stroke: rgb(0,0,0); stroke-width: 0.1; stroke-dasharray: none; stroke-linecap: butt; stroke-dashoffset: 0; stroke-linejoin: miter; stroke-miterlimit: 4; fill: rgb(178,160,242); fill-rule: nonzero; opacity: 1;"  transform=" translate(-620.05, -323.8)" d="M 620.4 323.7 c -0.2 0.1 -0.5 0.2 -0.7 0.2 C 619.9 323.9 620.2 323.8 620.4 323.7 z" stroke-linecap="round" />
</g>
		<g transform="matrix(1 0 0 1 115.75 -174.9)" id="Layer_1"  >
<path style="stroke: rgb(0,0,0); stroke-width: 0.1; stroke-dasharray: none; stroke-linecap: butt; stroke-dashoffset: 0; stroke-linejoin: miter; stroke-miterlimit: 4; fill: rgb(178,160,242); fill-rule: nonzero; opacity: 1;"  transform=" translate(-615.75, -325.1)" d="M 616.2 325 c -0.3 0.1 -0.6 0.1 -0.9 0.2 C 615.7 325.2 616 325.1 616.2 325 z" stroke-linecap="round" />
</g>
		<g transform="matrix(1 0 0 1 113.35 -174.3)" id="Layer_1"  >
<path style="stroke: rgb(0,0,0); stroke-width: 0.1; stroke-dasharray: none; stroke-linecap: butt; stroke-dashoffset: 0; stroke-linejoin: miter; stroke-miterlimit: 4; fill: rgb(178,160,242); fill-rule: nonzero; opacity: 1;"  transform=" translate(-613.35, -325.7)" d="M 613.7 325.6 c -0.3 0.1 -0.5 0.1 -0.7 0.2 C 613.2 325.7 613.4 325.7 613.7 325.6 z" stroke-linecap="round" />
</g>
		<g transform="matrix(1 0 0 1 107.5 -150.85)" id="Layer_1"  >
<path style="stroke: rgb(0,0,0); stroke-width: 0.1; stroke-dasharray: none; stroke-linecap: butt; stroke-dashoffset: 0; stroke-linejoin: miter; stroke-miterlimit: 4; fill: rgb(178,160,242); fill-rule: nonzero; opacity: 1;"  transform=" translate(-607.5, -349.15)" d="M 608.8 349 c -0.9 0.1 -1.7 0.2 -2.6 0.3 C 607.1 349.2 607.9 349.1 608.8 349 z" stroke-linecap="round" />
</g>
		<g transform="matrix(1 0 0 1 113.7 -163.85)" id="Layer_1"  >
<path style="stroke: rgb(0,0,0); stroke-width: 0.1; stroke-dasharray: none; stroke-linecap: butt; stroke-dashoffset: 0; stroke-linejoin: miter; stroke-miterlimit: 4; fill: rgb(141,117,228); fill-rule: nonzero; opacity: 1;"  transform=" translate(-613.7, -336.15)" d="M 607.3 326.7 c 0.8 -0.1 1.7 -0.2 2.5 -0.3 c 0.2 0 0.3 0 0.5 -0.1 c 0.9 -0.2 1.8 -0.3 2.7 -0.5 c 0.3 -0.1 0.5 -0.1 0.7 -0.2 c 0.6 -0.1 1.2 -0.3 1.7 -0.4 c 0.3 -0.1 0.6 -0.1 0.9 -0.2 c 0.5 -0.1 1 -0.3 1.4 -0.4 c 0.3 -0.1 0.5 -0.2 0.8 -0.2 c 0.4 -0.1 0.9 -0.3 1.3 -0.4 c 0.2 -0.1 0.5 -0.2 0.7 -0.2 c 0.4 -0.1 0.8 -0.3 1.2 -0.4 c 0.2 -0.1 0.4 -0.1 0.5 -0.2 c 0.5 -0.2 1.1 -0.4 1.5 -0.6 l 0 0 c -0.1 3.6 -0.1 7.4 -0.1 11.3 c 0 0 0 0 0 0.1 c 0 1.7 0 3.5 0 5.2 c 0 0.4 0 0.7 0 1.1 c 0 1.8 0 3.6 0.1 5.4 l 0 0 c -1.6 0.5 -3.2 1 -4.8 1.4 c -0.6 0.2 -1.3 0.3 -1.9 0.4 c -1 0.2 -2 0.5 -3.1 0.7 c -0.8 0.2 -1.6 0.3 -2.4 0.4 c -0.9 0.2 -1.8 0.3 -2.6 0.5 c -0.9 0.1 -1.7 0.2 -2.6 0.3 c -0.7 0.1 -1.4 0.2 -2.1 0.3 c 0 0 0 0 0 0 c -0.4 -7.2 -0.5 -14.9 -0.5 -22.5 c 0.2 0 0.4 0 0.5 -0.1 c 0.7 -0.1 1.4 -0.1 2 -0.2 C 606.5 326.8 606.9 326.7 607.3 326.7 z" stroke-linecap="round" />
</g>
		<g transform="matrix(1 0 0 1 142.74 -133.9)" id="Layer_1"  >
<path style="stroke: rgb(0,0,0); stroke-width: 0.1; stroke-dasharray: none; stroke-linecap: butt; stroke-dashoffset: 0; stroke-linejoin: miter; stroke-miterlimit: 4; fill: rgb(137,73,72); fill-rule: nonzero; opacity: 1;"  transform=" translate(-642.74, -366.1)" d="M 576.9 452.7 c -0.8 -1.1 -1.6 -2.2 -2.3 -3.4 c -4.3 -7.2 -5.8 -14.6 -2.2 -14 c 4.2 0.8 23.8 -2.6 29.5 -6 c 2.2 -1.3 4.3 -4.1 6.7 -7 c 3.9 -4.7 8.4 -9.5 14.5 -7.8 l 4.5 -6.4 l 39.3 -55.8 l -39.7 -57.2 c 0 0 2.4 0 6.5 -0.9 c 4.1 -0.9 9.8 -2.7 16.5 -6.3 c 0 0 0 0 0 0 c 4.3 -2.5 7.9 -5.8 10.6 -8.8 c 0.2 -0.2 0.3 -0.4 0.5 -0.5 c 0.1 -0.1 0.2 -0.2 0.2 -0.3 c 1.4 -1.6 2.5 -3 3.4 -4.2 c 0.1 -0.2 0.2 -0.3 0.4 -0.5 c 0 0 0 0 0 -0.1 c 1.1 -1.6 1.7 -2.6 1.7 -2.6 s 47.4 58.2 48.1 81.2 c 0.8 23 -54.4 65 -79 85.4 c -1.7 2.6 -3.7 5 -5.9 7.2 c -7.7 7.6 -18.1 12.5 -29.3 15.2 C 586.8 463.2 583 460.6 576.9 452.7 z" stroke-linecap="round" />
</g>
</g>
</g>
<g transform="matrix(-0.09 0 0 0.09 58.59 68.59)"  >
<g style=""   >
		<g transform="matrix(1 0 0 1 -320.81 188.86)" id="Layer_1"  >
<path style="stroke: rgb(0,0,0); stroke-width: 0.1; stroke-dasharray: none; stroke-linecap: butt; stroke-dashoffset: 0; stroke-linejoin: miter; stroke-miterlimit: 4; fill: rgb(73,84,94); fill-rule: nonzero; opacity: 1;"  transform=" translate(-179.19, -688.86)" d="M 120.6 706 c -7.9 4.8 -10.5 15.1 -5.7 23.1 c 4.8 7.9 15.1 10.5 23.1 5.7 c 0 0 52.4 -31.7 107.9 -65.1 c -5.6 -9.7 -11.2 -19.5 -16.7 -29.2 C 173.6 674.1 120.6 706 120.6 706 z" stroke-linecap="round" />
</g>
		<g transform="matrix(1 0 0 1 -191.85 117.35)" id="Layer_1"  >
<path style="stroke: rgb(0,0,0); stroke-width: 0.1; stroke-dasharray: none; stroke-linecap: butt; stroke-dashoffset: 0; stroke-linejoin: miter; stroke-miterlimit: 4; fill: rgb(73,84,94); fill-rule: nonzero; opacity: 1;"  transform=" translate(-308.15, -617.35)" d="M 256.6 623.9 c 5.6 9.6 11.3 19.3 16.9 29.1 c 35.3 -21.3 68.4 -41.3 86.2 -52.1 l -33.2 -19.2 C 308.2 592.8 283 608 256.6 623.9 z" stroke-linecap="round" />
</g>
		<g transform="matrix(1 0 0 1 322.39 -12.06)" id="Layer_1"  >
<path style="stroke: rgb(0,0,0); stroke-width: 0.1; stroke-dasharray: none; stroke-linecap: butt; stroke-dashoffset: 0; stroke-linejoin: miter; stroke-miterlimit: 4; fill: rgb(73,84,94); fill-rule: nonzero; opacity: 1;"  transform=" translate(-822.39, -487.94)" d="M 852.4 571.5 c 4.6 8 14.9 10.8 22.9 6.1 c 8 -4.6 10.8 -15 6.1 -23 c 0 0 -43.3 -74.5 -92.1 -158.6 l -28.2 16.3 C 810.2 497.9 852.4 571.5 852.4 571.5 z" stroke-linecap="round" />
</g>
		<g transform="matrix(1 0 0 1 -240.41 170.56)" id="Layer_1"  >
<path style="stroke: rgb(0,0,0); stroke-width: 0.1; stroke-dasharray: none; stroke-linecap: butt; stroke-dashoffset: 0; stroke-linejoin: miter; stroke-miterlimit: 4; fill: rgb(83,95,107); fill-rule: nonzero; opacity: 1;"  transform=" translate(-259.59, -670.56)" d="M 184.3 499.3 L 130.1 468 c 19.1 33.2 58.4 101.6 99.1 172.5 c 5.6 9.7 11.2 19.5 16.7 29.2 c 57.1 99.6 111.8 195 111.8 195 c 4.6 8 14.9 10.8 23 6.2 c 8 -4.6 10.8 -15 6.1 -23 c 0 0 -56.5 -97.2 -113.2 -194.8 c -5.7 -9.7 -11.3 -19.5 -16.9 -29.1 C 228.9 576.2 202.6 530.9 184.3 499.3 z" stroke-linecap="round" />
</g>
		<g transform="matrix(1 0 0 1 -253.5 20.15)" id="Layer_1"  >
<polygon style="stroke: rgb(0,0,0); stroke-width: 0.1; stroke-dasharray: none; stroke-linecap: butt; stroke-dashoffset: 0; stroke-linejoin: miter; stroke-miterlimit: 4; fill: rgb(68,49,45); fill-rule: nonzero; opacity: 1;"  points="150.7,72.15 -76.4,-59.25 -150.2,-101.95 -150.8,-72.15 -150.8,-72.05 -116.4,-52.15 -62.2,-20.85 80.1,61.55 113.3,80.75 150,101.95 150.8,101.45 150.8,72.05 " />
</g>
		<g transform="matrix(1 0 0 1 150.8 -38.9)" id="Layer_1"  >
<polygon style="stroke: rgb(0,0,0); stroke-width: 0.1; stroke-dasharray: none; stroke-linecap: butt; stroke-dashoffset: 0; stroke-linejoin: miter; stroke-miterlimit: 4; fill: rgb(112,84,77); fill-rule: nonzero; opacity: 1;"  points="253.5,-160.5 97.7,-70.8 -253.5,131.1 -253.5,160.5 110.4,-48.7 138.6,-65 252.8,-130.6 " />
</g>
		<g transform="matrix(1 0 0 1 0.3 -140.35)" id="Layer_1"  >
<polygon style="stroke: rgb(0,0,0); stroke-width: 0.1; stroke-dasharray: none; stroke-linecap: butt; stroke-dashoffset: 0; stroke-linejoin: miter; stroke-miterlimit: 4; fill: rgb(91,67,60); fill-rule: nonzero; opacity: 1;"  points="-103.1,232.65 -103,232.55 248.2,30.65 404,-59.05 100.5,-232.65 -404,58.55 -330.2,101.25 " />
</g>
</g>
</g>
<g transform="matrix(0.08 0 0 0.08 35 73.12)"  >
<g style=""   >
		<g transform="matrix(1 0 0 1 -192.28 329.78)"  >
<path style="stroke: rgb(0,0,0); stroke-width: 0.1; stroke-dasharray: none; stroke-linecap: butt; stroke-dashoffset: 0; stroke-linejoin: miter; stroke-miterlimit: 4; fill: rgb(128,128,128); fill-rule: nonzero; opacity: 1;"  transform=" translate(-307.72, -829.78)" d="M 233 826.7 c 33.2 -18.8 102.4 -34.2 151.5 -16.6 c -5.8 3 -11.6 6.6 -17.4 10.7 c -18.9 -4.2 -109.6 7.5 -109.6 7.5 c 0.2 0.2 0.4 0.5 0.7 0.7 c 2.9 2.9 -2.7 6.9 -2.7 11.3 c 0 9.4 -1 16.9 -11.3 16.9 c -10.2 0 -11.2 -7.6 -11.1 -17 C 233.1 834.6 228.3 829.3 233 826.7 z" stroke-linecap="round" />
</g>
		<g transform="matrix(1 0 0 1 -255.2 339.7)"  >
<path style="stroke: rgb(0,0,0); stroke-width: 0.1; stroke-dasharray: none; stroke-linecap: butt; stroke-dashoffset: 0; stroke-linejoin: miter; stroke-miterlimit: 4; fill: rgb(102,102,102); fill-rule: nonzero; opacity: 1;"  transform=" translate(-244.8, -839.7)" d="M 244.8 821.9 c 9.8 0 17.8 8 17.8 17.8 c 0 9.8 -8 17.8 -17.8 17.8 c -9.8 0 -17.8 -8 -17.8 -17.8 C 227 829.9 234.9 821.9 244.8 821.9 z" stroke-linecap="round" />
</g>
		<g transform="matrix(1 0 0 1 -193.1 309.54)"  >
<path style="stroke: rgb(0,0,0); stroke-width: 0.1; stroke-dasharray: none; stroke-linecap: butt; stroke-dashoffset: 0; stroke-linejoin: miter; stroke-miterlimit: 4; fill: rgb(204,204,204); fill-rule: nonzero; opacity: 1;"  transform=" translate(-306.9, -809.54)" d="M 384.6 790.1 l 0.3 0.5 c -6.9 4 -9.8 9.1 -6.7 14 c 1.3 2 3.5 3.8 6.4 5.4 c -85.5 -12.8 -136 11 -155.7 20.3 C 228.9 830.3 274.7 780.1 384.6 790.1 z" stroke-linecap="round" />
</g>
		<g transform="matrix(1 0 0 1 -150.85 384.1)"  >
<path style="stroke: rgb(0,0,0); stroke-width: 0.1; stroke-dasharray: none; stroke-linecap: butt; stroke-dashoffset: 0; stroke-linejoin: miter; stroke-miterlimit: 4; fill: rgb(128,128,128); fill-rule: nonzero; opacity: 1;"  transform=" translate(-349.15, -884.1)" d="M 382.7 815 c 0.8 0.3 31.3 1.3 32.2 1.7 v 13.5 c -59.5 38 -92 93.1 -92 93.2 c 1.5 2.3 2.6 4.9 3 7.7 c 0.1 0.8 0.2 1.7 0.2 2.6 c 0 10.8 -9.6 19.5 -21.4 19.5 c -11.9 0 -21.4 -8.8 -21.3 -19.6 c 0 -4.2 1.6 -7.8 3.3 -11.5 C 293.4 907.3 337.7 834.9 382.7 815 z" stroke-linecap="round" />
</g>
		<g transform="matrix(1 0 0 1 -194.9 432.7)"  >
<path style="stroke: rgb(0,0,0); stroke-width: 0.1; stroke-dasharray: none; stroke-linecap: butt; stroke-dashoffset: 0; stroke-linejoin: miter; stroke-miterlimit: 4; fill: rgb(102,102,102); fill-rule: nonzero; opacity: 1;"  transform=" translate(-305.1, -932.7)" d="M 305.1 911.3 c 11.8 0 21.4 9.6 21.4 21.4 s -9.6 21.4 -21.4 21.4 c -11.8 0 -21.4 -9.6 -21.4 -21.4 S 293.3 911.3 305.1 911.3 z" stroke-linecap="round" />
</g>
		<g transform="matrix(1 0 0 1 -150.34 367.66)"  >
<path style="stroke: rgb(0,0,0); stroke-width: 0.1; stroke-dasharray: none; stroke-linecap: butt; stroke-dashoffset: 0; stroke-linejoin: miter; stroke-miterlimit: 4; fill: rgb(204,204,204); fill-rule: nonzero; opacity: 1;"  transform=" translate(-349.66, -867.66)" d="M 377.9 810 c 7.8 4.2 18.8 5.9 32.2 4.9 c 0.8 0 -87.2 68.2 -101.8 104.1 c -1.9 4.7 -6.9 7.4 -11.8 5.9 c -0.2 0 -0.3 -0.1 -0.5 -0.2 c -5.7 -1.7 -8.4 -8.1 -5.8 -13.4 C 307 876.1 372.7 812.7 377.9 810 z" stroke-linecap="round" />
</g>
		<g transform="matrix(1 0 0 1 21.23 329.76)"  >
<path style="stroke: rgb(0,0,0); stroke-width: 0.1; stroke-dasharray: none; stroke-linecap: butt; stroke-dashoffset: 0; stroke-linejoin: miter; stroke-miterlimit: 4; fill: rgb(128,128,128); fill-rule: nonzero; opacity: 1;"  transform=" translate(-521.23, -829.76)" d="M 595.9 826.7 c 4.7 2.7 -0.1 8 0 13.5 c 0 9.3 -0.9 16.9 -11.1 17 c -10.3 0 -11.2 -7.5 -11.3 -16.9 c 0 -4.3 -5.6 -8.3 -2.7 -11.3 c 0.2 -0.2 0.4 -0.5 0.7 -0.7 c 0 0 -90.7 -11.7 -109.6 -7.5 c -5.8 -4.1 -11.6 -7.7 -17.4 -10.7 C 493.5 792.4 562.7 807.9 595.9 826.7 z" stroke-linecap="round" />
</g>
		<g transform="matrix(1 0 0 1 84 339.7)"  >
<path style="stroke: rgb(0,0,0); stroke-width: 0.1; stroke-dasharray: none; stroke-linecap: butt; stroke-dashoffset: 0; stroke-linejoin: miter; stroke-miterlimit: 4; fill: rgb(102,102,102); fill-rule: nonzero; opacity: 1;"  transform=" translate(-584, -839.7)" d="M 584 821.9 c 9.8 0 17.8 8 17.8 17.8 c 0 9.8 -8 17.8 -17.8 17.8 c -9.8 0 -17.8 -8 -17.8 -17.8 C 566.2 829.9 574.2 821.9 584 821.9 z" stroke-linecap="round" />
</g>
		<g transform="matrix(1 0 0 1 22 309.53)"  >
<path style="stroke: rgb(0,0,0); stroke-width: 0.1; stroke-dasharray: none; stroke-linecap: butt; stroke-dashoffset: 0; stroke-linejoin: miter; stroke-miterlimit: 4; fill: rgb(204,204,204); fill-rule: nonzero; opacity: 1;"  transform=" translate(-522, -809.53)" d="M 444 790.6 l 0.3 -0.5 c 109.9 -10.1 155.7 40.2 155.7 40.2 c -19.6 -9.3 -70.1 -33.1 -155.7 -20.3 c 2.9 -1.6 5.1 -3.4 6.4 -5.4 C 453.9 799.7 451 794.6 444 790.6 z" stroke-linecap="round" />
</g>
		<g transform="matrix(1 0 0 1 -20.05 384)"  >
<path style="stroke: rgb(0,0,0); stroke-width: 0.1; stroke-dasharray: none; stroke-linecap: butt; stroke-dashoffset: 0; stroke-linejoin: miter; stroke-miterlimit: 4; fill: rgb(128,128,128); fill-rule: nonzero; opacity: 1;"  transform=" translate(-479.95, -884)" d="M 542.4 922 c 1.7 3.7 3.3 7.3 3.3 11.5 c 0 10.8 -9.5 19.5 -21.3 19.6 c -11.8 0.1 -21.4 -8.7 -21.4 -19.5 c 0 -0.9 0.1 -1.8 0.2 -2.6 c 0.3 -2.8 1.4 -5.4 3 -7.7 c 0 -0.1 -32.5 -55.2 -92 -93.2 v -13.5 c 0.9 -0.3 31.3 -1.3 32.2 -1.7 C 491.2 834.9 535.5 907.3 542.4 922 z" stroke-linecap="round" />
</g>
		<g transform="matrix(1 0 0 1 24.1 432.65)"  >
<path style="stroke: rgb(0,0,0); stroke-width: 0.1; stroke-dasharray: none; stroke-linecap: butt; stroke-dashoffset: 0; stroke-linejoin: miter; stroke-miterlimit: 4; fill: rgb(102,102,102); fill-rule: nonzero; opacity: 1;"  transform=" translate(-524.1, -932.65)" d="M 524.1 911.3 c 11.8 0 21.4 9.6 21.4 21.4 S 536 954 524.1 954 c -11.8 0 -21.4 -9.6 -21.4 -21.4 S 512.3 911.3 524.1 911.3 z" stroke-linecap="round" />
</g>
		<g transform="matrix(1 0 0 1 -20.76 367.71)"  >
<path style="stroke: rgb(0,0,0); stroke-width: 0.1; stroke-dasharray: none; stroke-linecap: butt; stroke-dashoffset: 0; stroke-linejoin: miter; stroke-miterlimit: 4; fill: rgb(204,204,204); fill-rule: nonzero; opacity: 1;"  transform=" translate(-479.24, -867.71)" d="M 451 810 c 5.2 2.7 70.9 66.1 87.7 101.4 c 2.6 5.4 -0.1 11.7 -5.8 13.4 c -0.2 0.1 -0.3 0.1 -0.5 0.2 c -4.9 1.5 -9.9 -1.2 -11.8 -5.9 C 505.9 883.2 418 814.9 418.8 815 C 432.2 816 443.1 814.2 451 810 z" stroke-linecap="round" />
</g>
		<g transform="matrix(1 0 0 1 -81.5 303.9)"  >
<path style="stroke: rgb(0,0,0); stroke-width: 0.1; stroke-dasharray: none; stroke-linecap: butt; stroke-dashoffset: 0; stroke-linejoin: miter; stroke-miterlimit: 4; fill: rgb(128,128,128); fill-rule: nonzero; opacity: 1;"  transform=" translate(-418.5, -803.9)" d="M 418.5 785 c 26.7 0 48.3 8.5 48.3 18.9 c 0 10.4 -21.6 18.9 -48.3 18.9 c -26.7 0 -48.3 -8.4 -48.3 -18.9 C 370.2 793.5 391.8 785 418.5 785 z" stroke-linecap="round" />
</g>
		<g transform="matrix(1 0 0 1 -81.5 299)"  >
<path style="stroke: rgb(0,0,0); stroke-width: 0.1; stroke-dasharray: none; stroke-linecap: butt; stroke-dashoffset: 0; stroke-linejoin: miter; stroke-miterlimit: 4; fill: rgb(204,204,204); fill-rule: nonzero; opacity: 1;"  transform=" translate(-418.5, -799)" d="M 418.5 780.1 c 26.7 0 48.3 8.5 48.3 18.9 c 0 10.4 -21.6 18.9 -48.3 18.9 c -26.7 0 -48.3 -8.4 -48.3 -18.9 C 370.2 788.5 391.8 780.1 418.5 780.1 z" stroke-linecap="round" />
</g>
		<g transform="matrix(1 0 0 1 46.02 226.79)"  >
<path style="stroke: rgb(0,0,0); stroke-width: 0.1; stroke-dasharray: none; stroke-linecap: butt; stroke-dashoffset: 0; stroke-linejoin: miter; stroke-miterlimit: 4; fill: rgb(255,123,172); fill-rule: nonzero; opacity: 1;"  transform=" translate(-546.02, -726.79)" d="M 482.3 677.2 c 7.9 0 33.8 33.1 54.8 42.9 c 30.1 14 26.9 -21.1 26.9 -21.1 s 25.3 -9.3 50.4 -11.6 c 3.1 -0.3 6.3 1.7 5.8 5 c -0.3 2.3 -10.8 39.6 -45.2 56.9 c -8.1 4.1 -16.6 7.4 -25.2 4.2 l -49 -22.5 l 11.1 42.2 c -5 5.9 -10.9 1.8 -10.9 1.8 s -2.6 -14.6 -21.5 -47.8 C 460.7 694.3 482.2 677.3 482.3 677.2 z" stroke-linecap="round" />
</g>
		<g transform="matrix(1 0 0 1 31 41.46)"  >
<path style="stroke: rgb(0,0,0); stroke-width: 0.1; stroke-dasharray: none; stroke-linecap: butt; stroke-dashoffset: 0; stroke-linejoin: miter; stroke-miterlimit: 4; fill: rgb(226,191,159); fill-rule: nonzero; opacity: 1;"  transform=" translate(-531, -541.46)" d="M 464.6 376.6 c 21.5 -8.7 132.8 -44.6 132.8 14.9 c 0 59.4 -62.4 251 -59.6 274.9 c 2.2 18.9 21.2 30.8 34.6 36.9 c 6 2.7 7.4 11 2.3 15.3 c -17.4 14.3 -47.1 1.8 -57.6 -10 c -14.7 -16.6 -34.8 -31.4 -34.8 -31.4 c 11.8 -13.7 12.7 -50 14.1 -116.8 c 1.5 -66.7 23.5 -116.7 23.5 -116.7 l -17.7 11.4 L 464.6 376.6 z" stroke-linecap="round" />
</g>
		<g transform="matrix(1 0 0 1 134.49 307.14)"  >
<path style="stroke: rgb(0,0,0); stroke-width: 0.1; stroke-dasharray: none; stroke-linecap: butt; stroke-dashoffset: 0; stroke-linejoin: miter; stroke-miterlimit: 4; fill: rgb(255,123,172); fill-rule: nonzero; opacity: 1;"  transform=" translate(-634.49, -807.14)" d="M 570.8 757.5 c 7.9 0 33.8 33.1 54.8 42.9 c 30.1 14 26.9 -21.1 26.9 -21.1 s 25.3 -9.3 50.4 -11.6 c 3.1 -0.3 6.3 1.8 5.8 5 c -0.3 2.3 -10.8 39.6 -45.2 56.9 c -8.1 4.1 -16.6 7.4 -25.2 4.3 l -49 -22.5 l 11.1 42.2 c -5 5.9 -10.9 1.8 -10.9 1.8 S 587 841 568 807.8 C 549.1 774.6 570.6 757.7 570.8 757.5 z" stroke-linecap="round" />
</g>
		<g transform="matrix(1 0 0 1 108.4 113.59)"  >
<path style="stroke: rgb(0,0,0); stroke-width: 0.1; stroke-dasharray: none; stroke-linecap: butt; stroke-dashoffset: 0; stroke-linejoin: miter; stroke-miterlimit: 4; fill: rgb(239,202,165); fill-rule: nonzero; opacity: 1;"  transform=" translate(-608.4, -613.59)" d="M 531 440.1 c 21.5 -8.7 154.8 -50.5 154.8 31.8 c 0 59.5 -62.4 251 -59.6 274.9 c 2.2 18.9 21.2 30.8 34.6 36.9 c 6 2.7 7.4 11.1 2.3 15.3 c -17.4 14.3 -47.1 1.8 -57.6 -9.9 c -14.7 -16.6 -34.8 -31.4 -34.8 -31.4 c 11.8 -13.7 12.7 -50 14.1 -116.8 c 1.5 -66.7 23.5 -116.7 23.5 -116.7 l -17.7 11.4 L 531 440.1 z" stroke-linecap="round" />
</g>
		<g transform="matrix(1 0 0 1 -81.2 242.3)"  >
<path style="stroke: rgb(0,0,0); stroke-width: 0.1; stroke-dasharray: none; stroke-linecap: butt; stroke-dashoffset: 0; stroke-linejoin: miter; stroke-miterlimit: 4; fill: rgb(77,77,77); fill-rule: nonzero; opacity: 1;"  transform=" translate(-418.8, -742.3)" d="M 438.8 803.2 c 0 0 -3.9 4.2 -20.7 4.2 c -14.5 0 -19.3 -4.2 -19.3 -4.2 v -126 h 40 V 803.2 z" stroke-linecap="round" />
</g>
		<g transform="matrix(1 0 0 1 58.1 62.4)"  >
<polygon style="stroke: rgb(0,0,0); stroke-width: 0.1; stroke-dasharray: none; stroke-linecap: butt; stroke-dashoffset: 0; stroke-linejoin: miter; stroke-miterlimit: 4; fill: rgb(102,102,102); fill-rule: nonzero; opacity: 1;"  points="-76.6,98.6 -95.3,-98.6 95.3,10.4 " />
</g>
		<g transform="matrix(1 0 0 1 -35.36 -2.33)"  >
<path style="stroke: rgb(0,0,0); stroke-width: 0.1; stroke-dasharray: none; stroke-linecap: butt; stroke-dashoffset: 0; stroke-linejoin: miter; stroke-miterlimit: 4; fill: rgb(0,113,188); fill-rule: nonzero; opacity: 1;"  transform=" translate(-464.64, -497.67)" d="M 351 446.3 c 0.6 0.5 70.1 69.5 123.1 19.7 l 8.9 -76.4 c 0 0 44.3 39.9 62.7 52.7 c 60.8 42.1 45.5 94 45.5 94 c -78.8 66.2 -154.7 96.6 -219 39 C 306.7 516.6 351 446.3 351 446.3 L 351 446.3 z" stroke-linecap="round" />
</g>
		<g transform="matrix(1 0 0 1 -84.29 -142.04)"  >
<path style="stroke: rgb(0,0,0); stroke-width: 0.1; stroke-dasharray: none; stroke-linecap: butt; stroke-dashoffset: 0; stroke-linejoin: miter; stroke-miterlimit: 4; fill: rgb(224,254,254); fill-rule: nonzero; opacity: 1;"  transform=" translate(-415.71, -357.96)" d="M 378.5 232.1 c 13.3 1.2 24.4 6.5 24.4 6.5 s 19.8 13.3 52.9 31.5 c 21.8 12 50.5 60.2 50.5 86.9 c 0 26.4 -23.3 32.6 -23.3 32.6 l -8.9 76.4 C 420.9 516.1 351 446.3 351 446.3 c 0 -44.9 -55.6 -159.1 -3.8 -205.6 C 356.3 232.5 368.1 231.1 378.5 232.1 z" stroke-linecap="round" />
</g>
		<g transform="matrix(1 0 0 1 -65.99 -338.75)"  >
<path style="stroke: rgb(0,0,0); stroke-width: 0.1; stroke-dasharray: none; stroke-linecap: butt; stroke-dashoffset: 0; stroke-linejoin: miter; stroke-miterlimit: 4; fill: rgb(239,202,165); fill-rule: nonzero; opacity: 1;"  transform=" translate(-434.01, -161.25)" d="M 432.8 79.5 c 32.3 0 58.4 14.3 63.4 45.4 c 1.8 11.2 -1.1 21.6 1.3 36.4 c 4 25.1 -16 60.3 -37.6 77.5 c -3.3 2.6 -7.3 4 -11.5 4.2 c -8 0.3 -78.4 -38.5 -78.4 -64.7 v -35 h 0 c 0 -0.3 0 -0.7 0 -1 C 369.9 107.6 398.1 79.5 432.8 79.5 z" stroke-linecap="round" />
</g>
		<g transform="matrix(1 0 0 1 -83.01 -254.13)"  >
<path style="stroke: rgb(0,0,0); stroke-width: 0.1; stroke-dasharray: none; stroke-linecap: butt; stroke-dashoffset: 0; stroke-linejoin: miter; stroke-miterlimit: 4; fill: rgb(96,56,19); fill-rule: nonzero; opacity: 1;"  transform=" translate(-416.99, -245.87)" d="M 425.1 46 c 42.6 0 76.8 35.6 76.8 49.3 c 0 29.7 -27.3 33 -40.8 42.2 c -15.2 10.3 -17.6 66.8 6.6 109.6 c 18.9 33.4 41.3 55.4 38.3 105.6 c -10.6 -50.2 -44.6 -79.3 -64.9 -79.3 c -24.1 0 -44.7 51.9 -44.7 159.3 c 0 20.6 -64.7 25.3 -64.7 -51.1 c 0 -53.5 -13.1 -200.6 8.2 -270.2 C 354.1 64.8 399.4 46 425.1 46 z" stroke-linecap="round" />
</g>
		<g transform="matrix(1 0 0 1 12.1 -183.7)"  >
<path style="stroke: rgb(0,0,0); stroke-width: 0.1; stroke-dasharray: none; stroke-linecap: butt; stroke-dashoffset: 0; stroke-linejoin: miter; stroke-miterlimit: 4; fill: rgb(224,254,254); fill-rule: nonzero; opacity: 1;"  transform=" translate(-512.1, -316.3)" d="M 444.2 271.5 c 41 15 97 34.3 143.1 30.2 c 15.8 -0.6 29.7 10.2 30.7 25.3 c 0 0.3 0 0.7 0.1 1 c 1.1 15 -11.3 30.5 -28.8 31.6 c -50.7 3.1 -108.3 5.6 -154 -9.8 c -16.1 -5.4 -28.5 -12.9 -29.2 -35.2 c -0.2 -5 0 -11.3 1 -14.4 C 413.4 280.9 429.8 267.1 444.2 271.5 z" stroke-linecap="round" />
</g>
		<g transform="matrix(1 0 0 1 212.38 -260.65)"  >
<path style="stroke: rgb(0,0,0); stroke-width: 0.1; stroke-dasharray: none; stroke-linecap: butt; stroke-dashoffset: 0; stroke-linejoin: miter; stroke-miterlimit: 4; fill: rgb(239,202,165); fill-rule: nonzero; opacity: 1;"  transform=" translate(-712.38, -239.35)" d="M 721.5 186.9 c 5.8 -4.1 13.3 -3.9 13.3 -3.9 l 23.8 2.1 c 0.4 3.9 -4.3 8.3 -8.9 8.1 c -1.6 -0.1 -15.9 0.8 -15.9 0.8 s -4.1 1.5 -3.8 4.5 c 0.1 0.7 9.1 3.4 14.4 2.2 c 8.9 -2.1 26.7 -10.2 26.7 -10.2 s 12.4 -5.7 7.7 8.6 c -4.6 14.3 -2.1 17.6 -11.7 27.4 c -9.6 9.9 -41 10.2 -44 10.7 c -5.3 0.9 -31.5 36.9 -52.9 58.5 l -25.3 -31.1 c 0 0 52.2 -47.1 65.9 -58.7 C 716.7 201 715.8 191 721.5 186.9 z" stroke-linecap="round" />
</g>
		<g transform="matrix(1 0 0 1 141.26 -211.11)"  >
<path style="stroke: rgb(0,0,0); stroke-width: 0.1; stroke-dasharray: none; stroke-linecap: butt; stroke-dashoffset: 0; stroke-linejoin: miter; stroke-miterlimit: 4; fill: rgb(224,254,254); fill-rule: nonzero; opacity: 1;"  transform=" translate(-641.25, -288.89)" d="M 574.4 307.4 c 30.8 -16 84.3 -55.4 113.4 -87.9 c 11.7 14.9 21.6 23.7 33.4 29.4 c -31.2 36.5 -83.5 88 -117.9 105.9 c -13.2 7.7 -31.7 1.9 -37.6 -10.3 c -0.1 -0.2 -1.7 -3 -1.8 -3.2 C 557.9 329.1 562.7 314.3 574.4 307.4 z" stroke-linecap="round" />
</g>
		<g transform="matrix(1 0 0 1 -128.55 105.78)"  >
<path style="stroke: rgb(0,0,0); stroke-width: 0.1; stroke-dasharray: none; stroke-linecap: butt; stroke-dashoffset: 0; stroke-linejoin: miter; stroke-miterlimit: 4; fill: rgb(102,102,102); fill-rule: nonzero; opacity: 1;"  transform=" translate(-371.45, -605.78)" d="M 489.3 696.6 c -23 13.7 -50.6 13.1 -73.1 -1.6 l -138.7 -90.8 c -28.5 -18.6 -46 -52.8 -46 -89.7 l 0 -9.4 l 279.9 178.4 L 489.3 696.6 z" stroke-linecap="round" />
</g>
		<g transform="matrix(1 0 0 1 -163.36 -59.97)"  >
<path style="stroke: rgb(0,0,0); stroke-width: 0.1; stroke-dasharray: none; stroke-linecap: butt; stroke-dashoffset: 0; stroke-linejoin: miter; stroke-miterlimit: 4; fill: rgb(102,102,102); fill-rule: nonzero; opacity: 1;"  transform=" translate(-336.64, -440.03)" d="M 224.3 215.8 c 6.1 -9.4 18.1 -11.3 32.3 -3.9 l 136.2 82.4 c 19.6 10.3 37.1 37.3 39.3 60.6 l 21 317.8 L 254.5 557.2 c -13.2 -7.7 -21.8 -21.5 -22.7 -36.8 l -11.5 -285 C 219.7 227.2 221.3 220.6 224.3 215.8 L 224.3 215.8 z" stroke-linecap="round" />
</g>
		<g transform="matrix(1 0 0 1 -56.25 -52.81)"  >
<path style="stroke: rgb(0,0,0); stroke-width: 0.1; stroke-dasharray: none; stroke-linecap: butt; stroke-dashoffset: 0; stroke-linejoin: miter; stroke-miterlimit: 4; fill: rgb(77,77,77); fill-rule: nonzero; opacity: 1;"  transform=" translate(-443.75, -447.19)" d="M 296.4 198.1 l 132.3 83.2 c 19.1 10.2 36.2 36.8 38.6 59.6 l 24.4 303.6 l -0.4 0.3 l 0.1 0.1 l 142.2 -73.5 c 13.5 -6.7 29.4 3.1 29.4 18.2 v 0.5 c 0 7.5 -4.1 14.4 -10.7 17.9 l -159.8 88.5 c -17.6 9.4 -39 -3.3 -39.2 -23.3 l 0 -0.4 l -21 -317.8 c -2.3 -23.3 -19.7 -50.3 -39.3 -60.6 l -136.2 -82.4 c -14.2 -7.5 -26.2 -5.5 -32.3 3.9 C 231.2 198 280.4 189.5 296.4 198.1 z" stroke-linecap="round" />
</g>
</g>
</g>
</svg>