<?xml version="1.0" encoding="UTF-8" standalone="no" ?>
<!DOCTYPE svg PUBLIC "-//W3C//DTD SVG 1.1//EN" "http://www.w3.org/Graphics/SVG/1.1/DTD/svg11.dtd">
<svg xmlns="http://www.w3.org/2000/svg" xmlns:xlink="http://www.w3.org/1999/xlink" version="1.1" width="120" height="120" viewBox="0 0 120 120" xml:space="preserve">
<desc>Created with Fabric.js 3.6.6</desc>
<defs>
</defs>
<g transform="matrix(0.11 0 0 0.11 60.78 67.4)"  >
<g style=""   >
		<g transform="matrix(1 0 0 1 31.28 -31.7)"  >
<path style="stroke: rgb(0,0,0); stroke-width: 0.1; stroke-dasharray: none; stroke-linecap: butt; stroke-dashoffset: 0; stroke-linejoin: miter; stroke-miterlimit: 4; fill: rgb(247,182,146); fill-rule: nonzero; opacity: 1;"  transform=" translate(-531.28, -468.3)" d="M 528.1 493.2 c 0.8 -19.9 0.9 -37.6 -0.5 -46.8 c -0.1 -0.3 -0.1 -0.6 -0.1 -0.9 l 1.4 -0.2 c 1.7 -0.7 3.7 -1.2 5.6 -1.9 c -0.5 9.6 1.4 18.6 0.1 28.3 C 534.1 478.5 530.5 485.9 528.1 493.2 z" stroke-linecap="round" />
</g>
		<g transform="matrix(1 0 0 1 23.2 -215.75)"  >
<path style="stroke: rgb(0,0,0); stroke-width: 0.1; stroke-dasharray: none; stroke-linecap: butt; stroke-dashoffset: 0; stroke-linejoin: miter; stroke-miterlimit: 4; fill: rgb(119,171,201); fill-rule: nonzero; opacity: 1;"  transform=" translate(-523.2, -284.25)" d="M 513.2 318.2 c 5.7 -26.7 12.4 -56.2 17.6 -64.9 l -0.2 -0.2 c 0.8 -0.9 1.6 -1.8 2.4 -2.8 l 0.2 0.2 c -1.4 19.2 -1.4 41.3 -5.7 60.5 C 522.8 313.5 517.5 315.5 513.2 318.2 z" stroke-linecap="round" />
</g>
		<g transform="matrix(1 0 0 1 73.15 -202.05)"  >
<path style="stroke: rgb(0,0,0); stroke-width: 0.1; stroke-dasharray: none; stroke-linecap: butt; stroke-dashoffset: 0; stroke-linejoin: miter; stroke-miterlimit: 4; fill: rgb(224,201,182); fill-rule: nonzero; opacity: 1;"  transform=" translate(-573.15, -297.95)" d="M 574.4 253.9 C 574.4 253.9 574.4 253.9 574.4 253.9 c -9.2 5.4 -17.4 11.3 -23.9 17.5 c -4.4 13 -10.7 26.6 -16.8 40.2 c -0.3 1 -0.6 2.1 -1.1 3.1 c -0.2 0.1 -0.3 0.3 -0.5 0.5 c -1.1 2.6 -2.3 5.1 -3.4 7.7 c 2.3 0.7 4.4 1.7 7.4 2.7 c 0.1 -0.1 0.1 -0.1 0.2 -0.1 c 3.9 -2.6 7.9 -4.8 12.2 -6.9 l -0.1 -0.1 c 3 -2.5 10 -5 12.2 -0.7 l -0.4 0.2 c -1 0.7 -2.1 1.3 -3.2 1.9 l 0.1 0.1 c 0 3.6 -2 6.1 -4.6 8.7 l 0.6 0.8 c -6.3 4.9 -12.8 9.8 -18.6 15.1 l 0.2 0.3 c -1.9 1.3 -3.6 2.2 -5.2 2.9 c -3.7 1.7 -7 1.9 -10.7 0.8 c -1.7 5.1 -5.3 16.3 -7.2 19.1 c 4.8 -4.5 10.3 -8.8 16.1 -13 c 16 -11.2 35 -21 50.9 -30.6 c 0.5 -0.8 0.9 -1.7 1.5 -2.5 c 3.7 -6.4 7.5 -13.1 11.4 -19.7 c 18.1 -30.9 36.5 -61.4 43.2 -73.7 C 616.6 233.5 593.6 242.5 574.4 253.9 z" stroke-linecap="round" />
</g>
		<g transform="matrix(1 0 0 1 7.8 -284.5)"  >
<path style="stroke: rgb(0,0,0); stroke-width: 0.1; stroke-dasharray: none; stroke-linecap: butt; stroke-dashoffset: 0; stroke-linejoin: miter; stroke-miterlimit: 4; fill: rgb(152,211,238); fill-rule: nonzero; opacity: 1;"  transform=" translate(-507.8, -215.5)" d="M 485.9 153.6 c 2.4 -0.4 4.7 -0.5 6.9 -0.3 c -0.5 0.3 -0.9 0.7 -1.4 0.9 c 15.9 1.6 19.1 19 22.4 32.4 l 0.7 -0.2 c 1 4.9 3.4 9.6 6.3 14.2 c 7 11.1 17 21.7 18.8 34 c 0.2 1.2 0.3 2.4 0.4 3.6 c -1.3 4.1 -3.9 8.3 -7 12 c -0.8 1 -1.6 1.9 -2.4 2.8 c -1.3 1.4 -2.6 2.7 -3.9 3.9 c -11.1 5.6 -20.1 15.1 -30.5 20.9 l -0.1 -0.3 c 3.5 -29.4 -14.7 -37.4 -17.4 -54.8 c -0.1 -0.5 -0.1 -0.9 -0.2 -1.4 c 0 -10 10.5 -35.9 21.2 -29.5 c -3.6 -10.9 -12.4 -22.8 -24.1 -26.6 C 479.8 163.1 483.3 159.3 485.9 153.6 z" stroke-linecap="round" />
</g>
		<g transform="matrix(1 0 0 1 22.5 -100)"  >
<path style="stroke: rgb(0,0,0); stroke-width: 0.1; stroke-dasharray: none; stroke-linecap: butt; stroke-dashoffset: 0; stroke-linejoin: miter; stroke-miterlimit: 4; fill: rgb(119,171,201); fill-rule: nonzero; opacity: 1;"  transform=" translate(-522.5, -400)" d="M 511.5 367.6 c 4.8 -4.5 10.3 -8.8 16.1 -13 c 3.4 29.2 6.8 57.8 7 87.7 c 0 0.1 0 0.2 0 0.3 c 0 0.3 -0.1 0.5 -0.1 0.7 c -2 0.6 -3.9 1.2 -5.6 1.9 l -1.4 0.2 c -4.1 -26.4 -10.1 -51.7 -17.1 -77.4 c 0.1 -0.2 0.1 -0.4 0.2 -0.7 L 511.5 367.6 z" stroke-linecap="round" />
</g>
		<g transform="matrix(1 0 0 1 6.49 342.15)"  >
<path style="stroke: rgb(0,0,0); stroke-width: 0.1; stroke-dasharray: none; stroke-linecap: butt; stroke-dashoffset: 0; stroke-linejoin: miter; stroke-miterlimit: 4; fill: rgb(247,182,146); fill-rule: nonzero; opacity: 1;"  transform=" translate(-506.49, -842.15)" d="M 531.1 880.3 c -5.7 -19.1 -13.7 -38.2 -18.5 -57.3 l -0.3 0.1 c -0.2 -1.5 -0.4 -3 -0.4 -4.3 c -0.4 -4.1 -0.7 -8.2 -1 -12.3 c -0.1 -2.1 -0.2 -4.3 -0.3 -6.4 c -8.4 4.5 -17.8 6.9 -26.5 5.7 c -0.7 2 -1.5 4.1 -2.3 6.1 c 4.2 21.9 20.2 55.6 33.2 72.3 c 3.1 -1.8 6.3 -2.7 9.8 -3.2 c 0.3 0 0.5 -0.1 0.8 -0.1 C 527.5 880.6 529.3 880.5 531.1 880.3 C 531.2 880.4 531.2 880.4 531.1 880.3 z" stroke-linecap="round" />
</g>
		<g transform="matrix(1 0 0 1 12.35 -144)"  >
<path style="stroke: rgb(0,0,0); stroke-width: 0.1; stroke-dasharray: none; stroke-linecap: butt; stroke-dashoffset: 0; stroke-linejoin: miter; stroke-miterlimit: 4; fill: rgb(119,171,201); fill-rule: nonzero; opacity: 1;"  transform=" translate(-512.35, -356)" d="M 510.4 368 c -1.3 -4.9 -2.7 -9.8 -4.1 -14.7 c -0.1 -0.3 -0.2 -0.7 -0.3 -1 v 0 c 0.4 -1.9 0.9 -4 1.4 -6.3 c 0.1 -0.7 0.3 -1.3 0.4 -2 l 1.1 0.1 c 3.9 2.2 7 3.7 9.8 4.5 c -1.7 5.1 -5.3 16.3 -7.2 19.1 l -0.9 -0.3 C 510.5 367.6 510.5 367.8 510.4 368 z" stroke-linecap="round" />
</g>
		<g transform="matrix(1 0 0 1 -38.1 -121.11)"  >
<path style="stroke: rgb(0,0,0); stroke-width: 0.1; stroke-dasharray: none; stroke-linecap: butt; stroke-dashoffset: 0; stroke-linejoin: miter; stroke-miterlimit: 4; fill: rgb(37,47,48); fill-rule: nonzero; opacity: 1;"  transform=" translate(-461.9, -378.89)" d="M 422.7 384.8 c 1.3 0.6 2.5 1.1 3.8 1.5 c 0.1 0.1 0.2 0.1 0.3 0.1 c 18.2 6.5 41.3 3.3 58.5 -7.1 c 8 -4.9 14.7 -11.3 18.9 -19 c 0.5 -1.9 1 -4.1 1.5 -6.6 c 0.2 -0.2 0.4 -0.3 0.6 -0.4 c 1.4 4.9 2.8 9.8 4.1 14.7 c -2.1 6 -5.9 11.4 -10.8 16 c -3.3 3.1 -7 5.8 -11.1 8.1 c -1.7 1 -3.4 1.9 -5.2 2.7 c -9.4 4.6 -19.9 7.5 -30 8.9 c -17.1 2.2 -32.8 -0.2 -39.2 -7.8 h -0.7 c 0 -2.7 0.2 -5.2 0.4 -7.7 C 416.7 387.1 419.7 385.9 422.7 384.8 z" stroke-linecap="round" />
</g>
		<g transform="matrix(1 0 0 1 6 -147)"  >
<path style="stroke: rgb(0,0,0); stroke-width: 0.1; stroke-dasharray: none; stroke-linecap: butt; stroke-dashoffset: 0; stroke-linejoin: miter; stroke-miterlimit: 4; fill: rgb(37,47,48); fill-rule: nonzero; opacity: 1;"  transform=" translate(-506, -353)" d="M 505.7 353.7 c 0.1 -0.5 0.2 -0.9 0.3 -1.4 c 0.1 0.3 0.2 0.7 0.3 1 C 506.1 353.4 505.9 353.5 505.7 353.7 z" stroke-linecap="round" />
</g>
		<g transform="matrix(1 0 0 1 7.45 -206.75)"  >
<path style="stroke: rgb(0,0,0); stroke-width: 0.1; stroke-dasharray: none; stroke-linecap: butt; stroke-dashoffset: 0; stroke-linejoin: miter; stroke-miterlimit: 4; fill: rgb(135,205,234); fill-rule: nonzero; opacity: 1;"  transform=" translate(-507.45, -293.25)" d="M 505.1 326.9 c -6.5 2.6 -13.6 4.7 -21.1 6.6 c 1.3 -18.8 3.3 -35.1 7.2 -53.1 c 1.4 -0.7 2.8 -1.5 4.3 -2.2 c 0.3 -0.1 0.5 -0.3 0.8 -0.4 c 10.3 -5.8 19.4 -15.3 30.5 -20.9 c 1.3 -1.2 2.7 -2.5 3.9 -3.9 l 0.2 0.2 c -5.2 8.7 -11.8 38.2 -17.6 64.9 c -3.5 2.2 -6.4 4.9 -7.9 8.8 L 505.1 326.9 z" stroke-linecap="round" />
</g>
		<g transform="matrix(1 0 0 1 -4.05 -145.58)"  >
<path style="stroke: rgb(0,0,0); stroke-width: 0.1; stroke-dasharray: none; stroke-linecap: butt; stroke-dashoffset: 0; stroke-linejoin: miter; stroke-miterlimit: 4; fill: rgb(137,203,240); fill-rule: nonzero; opacity: 1;"  transform=" translate(-495.95, -354.43)" d="M 505.7 353.7 c -6.8 4.5 -14 8.2 -21.3 11.6 c -0.1 -2.9 -0.3 -5.9 -0.4 -9 c 7.6 -3.9 15 -7.8 22.2 -11.8 c 0 0 1.3 -1.2 1.7 -0.9 c -0.5 2.2 -1.5 6.7 -1.9 8.6 v 0 C 505.9 352.7 505.8 353.2 505.7 353.7 z" stroke-linecap="round" />
</g>
		<g transform="matrix(1 0 0 1 31.98 -172.16)"  >
<path style="stroke: rgb(0,0,0); stroke-width: 0.1; stroke-dasharray: none; stroke-linecap: butt; stroke-dashoffset: 0; stroke-linejoin: miter; stroke-miterlimit: 4; fill: rgb(247,182,146); fill-rule: nonzero; opacity: 1;"  transform=" translate(-531.98, -327.84)" d="M 560.6 317.7 c -2.2 -4.3 -9.2 -1.8 -12.2 0.7 l 0.1 0.1 c -4.3 2.1 -8.3 4.3 -12.2 6.9 c -0.1 0 -0.1 0.1 -0.2 0.1 c -3 -1.1 -5.2 -2.1 -7.4 -2.7 c -1.5 -0.5 -3.1 -0.9 -5.1 -1.2 c 3.2 -1.3 5.8 -4 8.5 -6.5 c 0.5 -1.2 1.1 -2.4 1.6 -3.5 c 0.5 -2 0.6 -3.9 0.4 -5.2 c -1.9 1.7 -4.1 3.2 -6.5 4.5 c -4.6 2.5 -9.9 4.5 -14.2 7.3 c -3.5 2.2 -6.4 4.9 -7.9 8.8 l -0.3 -0.1 c -1.7 1.1 -2.1 4.3 -1.7 7.7 c 0.1 0.5 0.1 1 0.2 1.5 c 0.5 3.2 1.6 6.4 2.7 8.4 c 0.6 -0.3 1.1 -0.6 1.7 -0.9 c -0.1 0.1 -0.1 0.3 -0.1 0.4 l 1.1 0.1 c 3.9 2.2 7 3.7 9.8 4.5 c 3.7 1.1 7 0.9 10.7 -0.8 c 1.6 -0.7 3.3 -1.7 5.2 -2.9 l -0.2 -0.3 c 5.8 -5.3 12.2 -10.2 18.6 -15.1 l -0.6 -0.8 c 2.6 -2.6 4.6 -5.1 4.6 -8.7 l -0.1 -0.1 c 1.1 -0.6 2.1 -1.3 3.2 -1.9 L 560.6 317.7 z" stroke-linecap="round" />
</g>
		<g transform="matrix(1 0 0 1 -5.05 -153.8)"  >
<path style="stroke: rgb(0,0,0); stroke-width: 0.1; stroke-dasharray: none; stroke-linecap: butt; stroke-dashoffset: 0; stroke-linejoin: miter; stroke-miterlimit: 4; fill: rgb(155,219,248); fill-rule: nonzero; opacity: 1;"  transform=" translate(-494.95, -346.2)" d="M 503.5 336.1 c 0.5 3.2 1.6 6.4 2.7 8.4 c -7.2 4 -14.7 7.9 -22.2 11.8 c -0.1 -3.7 -0.3 -7.4 -0.3 -11 c 6.6 -2.1 12.9 -4.7 18.4 -8.5 C 502.8 336.8 503.2 336.5 503.5 336.1 z" stroke-linecap="round" />
</g>
		<g transform="matrix(1 0 0 1 -5.67 -163.9)"  >
<path style="stroke: rgb(0,0,0); stroke-width: 0.1; stroke-dasharray: none; stroke-linecap: butt; stroke-dashoffset: 0; stroke-linejoin: miter; stroke-miterlimit: 4; fill: rgb(177,219,238); fill-rule: nonzero; opacity: 1;"  transform=" translate(-494.33, -336.1)" d="M 483.9 333.5 c 7.5 -1.9 14.6 -4.1 21.1 -6.6 c -1.7 1.1 -2.1 4.3 -1.7 7.7 c 0.1 0.5 0.1 1 0.2 1.5 c -0.4 0.4 -0.8 0.7 -1.4 0.7 c -5.5 3.8 -11.8 6.4 -18.4 8.5 c -0.1 -4 0 -7.9 0.2 -11.3 C 483.9 333.8 483.9 333.6 483.9 333.5 z" stroke-linecap="round" />
</g>
		<g transform="matrix(1 0 0 1 6.15 -322.95)"  >
<path style="stroke: rgb(0,0,0); stroke-width: 0.1; stroke-dasharray: none; stroke-linecap: butt; stroke-dashoffset: 0; stroke-linejoin: miter; stroke-miterlimit: 4; fill: rgb(119,171,201); fill-rule: nonzero; opacity: 1;"  transform=" translate(-506.15, -177.05)" d="M 491.4 154.3 c 0.5 -0.3 1 -0.6 1.4 -0.9 c 14.3 1.3 23.5 15.2 25.7 31.5 l 0.5 -0.1 c 0.7 5.3 1 10.6 1.9 15.9 c -2.9 -4.6 -5.2 -9.3 -6.3 -14.2 l -0.7 0.2 C 510.5 173.3 507.3 155.9 491.4 154.3 z" stroke-linecap="round" />
</g>
		<g transform="matrix(1 0 0 1 -3.2 86.97)"  >
<path style="stroke: rgb(0,0,0); stroke-width: 0.1; stroke-dasharray: none; stroke-linecap: butt; stroke-dashoffset: 0; stroke-linejoin: miter; stroke-miterlimit: 4; fill: rgb(43,51,52); fill-rule: nonzero; opacity: 1;"  transform=" translate(-496.8, -586.97)" d="M 521.2 590.2 c 0.5 -4.8 5.2 -55.8 6.9 -97.1 c 0.8 -19.9 0.9 -37.6 -0.5 -46.8 c -0.1 -0.3 -0.1 -0.6 -0.1 -0.9 c -4.1 -26.4 -10.1 -51.7 -17.1 -77.4 c -2.1 6 -5.9 11.4 -10.8 16 c -3.3 3.1 -7 5.8 -11.1 8.1 c -1.7 1 -3.4 1.9 -5.2 2.7 c 0 23.6 0 48.7 -0.9 72.5 c -0.1 2.1 -0.2 4.2 -0.3 6.3 h 0.3 c -0.5 32.5 -8 76.7 -10.5 94.9 c -0.9 9 -2.1 18.2 -3.5 27.4 c 0.6 14.2 1.5 28.5 1.8 42.7 c -10.2 42.6 -3.1 70.3 0.5 96.6 c 2.1 15.2 6 30.1 8.8 45.2 c 0 9.1 -1.4 17.3 -5.2 21.9 c 3.2 1.8 6.6 2.9 10 3.3 c 8.8 1.3 18.1 -1.2 26.5 -5.7 c 0.7 -0.4 1.5 -0.8 2.2 -1.2 c 3 -1.7 5.8 -3.7 8.5 -5.9 c -7.8 -11.1 -8.8 -30.5 -9 -46.8 c 1.4 -18.4 3.3 -36.6 4.6 -54.4 C 519.7 657.7 521.1 624.3 521.2 590.2 z" stroke-linecap="round" />
</g>
		<g transform="matrix(1 0 0 1 -13.7 361.1)"  >
<path style="stroke: rgb(0,0,0); stroke-width: 0.1; stroke-dasharray: none; stroke-linecap: butt; stroke-dashoffset: 0; stroke-linejoin: miter; stroke-miterlimit: 4; fill: rgb(30,139,195); fill-rule: nonzero; opacity: 1;"  transform=" translate(-486.3, -861.1)" d="M 489.5 876.5 c -1.9 0.8 -3.9 1.9 -6.1 2.2 c 0 -8.4 -0.3 -17 -0.3 -25.6 c 0 -3.2 0.1 -6.5 0.2 -9.6 c 2 4.4 3.9 9.7 5.9 15.4 C 487.8 864.1 488.6 871.4 489.5 876.5 z" stroke-linecap="round" />
</g>
		<g transform="matrix(1 0 0 1 -3.2 -388.85)"  >
<path style="stroke: rgb(0,0,0); stroke-width: 0.1; stroke-dasharray: none; stroke-linecap: butt; stroke-dashoffset: 0; stroke-linejoin: miter; stroke-miterlimit: 4; fill: rgb(65,31,44); fill-rule: nonzero; opacity: 1;"  transform=" translate(-496.8, -111.15)" d="M 492.8 153.3 c -2.2 -0.2 -4.5 -0.1 -6.9 0.3 c 0.7 -1.5 1.4 -3.2 1.9 -5.1 c 6.5 -21.3 5.9 -48.7 2.8 -72.1 c 2.7 -2.3 5.2 -4.8 7.6 -7.7 c 16.4 21.6 8.9 49.5 -2.5 72.3 c -0.2 3.1 1.8 5.5 5.2 4.4 C 499 148.1 496 151.2 492.8 153.3 z" stroke-linecap="round" />
</g>
		<g transform="matrix(1 0 0 1 -4.85 -133.5)"  >
<path style="stroke: rgb(0,0,0); stroke-width: 0.1; stroke-dasharray: none; stroke-linecap: butt; stroke-dashoffset: 0; stroke-linejoin: miter; stroke-miterlimit: 4; fill: rgb(135,205,234); fill-rule: nonzero; opacity: 1;"  transform=" translate(-495.15, -366.5)" d="M 504.2 360.3 c -4.3 7.7 -10.9 14.2 -18.9 19 c -0.2 -3.4 -0.5 -8.4 -0.8 -14 c 7.3 -3.4 14.4 -7 21.3 -11.6 C 505.2 356.2 504.7 358.4 504.2 360.3 z" stroke-linecap="round" />
</g>
		<g transform="matrix(1 0 0 1 8.49 356.42)"  >
<path style="stroke: rgb(0,0,0); stroke-width: 0.1; stroke-dasharray: none; stroke-linecap: butt; stroke-dashoffset: 0; stroke-linejoin: miter; stroke-miterlimit: 4; fill: rgb(23,29,29); fill-rule: nonzero; opacity: 1;"  transform=" translate(-508.48, -856.42)" d="M 479.1 876.5 c 0 -19.3 -9.3 -39.9 0 -58.4 L 479 818 c 1.1 -1.9 2.1 -4.1 2.9 -6.2 c 4.2 21.9 20.2 55.6 33.2 72.3 c 3.1 -1.8 6.3 -2.7 9.8 -3.2 c 0.3 0 0.5 -0.1 0.8 -0.1 c 1.8 -0.2 3.7 -0.4 5.5 -0.4 c 0 0 0 0 0.1 0 c 3.6 3.3 10.7 9.2 10.7 11.8 c -0.7 9 -24.6 9.3 -32.7 8.6 c -9 -9.1 -14.8 -26.9 -20.1 -42 c -2 -5.7 -3.9 -11 -5.9 -15.4 c -0.1 3.2 -0.2 6.4 -0.2 9.6 c 0 8.6 0.3 17.2 0.3 25.6 c -0.3 0 -0.6 0.1 -0.9 0.1 C 481.4 878.1 480.2 877.4 479.1 876.5 L 479.1 876.5 z" stroke-linecap="round" />
</g>
		<g transform="matrix(1 0 0 1 -15.95 -305.95)"  >
<path style="stroke: rgb(0,0,0); stroke-width: 0.1; stroke-dasharray: none; stroke-linecap: butt; stroke-dashoffset: 0; stroke-linejoin: miter; stroke-miterlimit: 4; fill: rgb(214,234,243); fill-rule: nonzero; opacity: 1;"  transform=" translate(-484.05, -194.05)" d="M 469.4 183.9 c 0 0 -0.1 0.1 -0.1 0.1 c -0.6 -5.1 -0.7 -11 -0.8 -16.2 c 2.5 -0.4 4.9 -1.2 7 -2.5 c 11.7 3.8 20.4 15.7 24.1 26.6 c -10.7 -6.4 -21.2 19.5 -21.2 29.5 c 0.1 0.5 0.1 0.9 0.2 1.4 l -0.4 0 c -1.1 -5.7 -2.3 -14.2 -3.2 -22.7 c -0.7 -6.7 -1.3 -13.3 -1.4 -18.5 C 472.1 182.3 470.7 183 469.4 183.9 z" stroke-linecap="round" />
</g>
		<g transform="matrix(1 0 0 1 -44.12 -241.16)"  >
<path style="stroke: rgb(0,0,0); stroke-width: 0.1; stroke-dasharray: none; stroke-linecap: butt; stroke-dashoffset: 0; stroke-linejoin: miter; stroke-miterlimit: 4; fill: rgb(145,213,245); fill-rule: nonzero; opacity: 1;"  transform=" translate(-455.88, -258.84)" d="M 464.7 217.6 c 4.3 1.3 8.9 3.3 13.8 6.3 c -0.1 -0.3 -0.1 -0.7 -0.2 -1 l 0.4 0 c 2.7 17.3 20.9 25.3 17.4 54.8 l 0.1 0.3 c -0.3 0.1 -0.5 0.3 -0.8 0.4 c -1.4 0.7 -2.8 1.5 -4.3 2.2 c -8.2 4.3 -16.4 8.4 -24.3 13.5 c -6.7 3 -13.2 5.1 -19.5 6 c -31.2 -0.1 -37.9 -29.3 -27.6 -54.9 c 3.9 1.4 6.8 4.3 10 6.4 c 5 -8.9 5 -17.8 13.9 -24.9 C 449 222.3 457.5 217.2 464.7 217.6 L 464.7 217.6 z" stroke-linecap="round" />
</g>
		<g transform="matrix(1 0 0 1 -48.45 -340.3)"  >
<path style="stroke: rgb(0,0,0); stroke-width: 0.1; stroke-dasharray: none; stroke-linecap: butt; stroke-dashoffset: 0; stroke-linejoin: miter; stroke-miterlimit: 4; fill: rgb(86,51,61); fill-rule: nonzero; opacity: 1;"  transform=" translate(-451.55, -159.7)" d="M 454.6 156.7 c -0.8 2.5 -2.3 4.5 -4.3 6 c -0.7 -0.9 -1.3 -1.9 -1.8 -2.8 C 450.5 159.5 452.5 158.4 454.6 156.7 z" stroke-linecap="round" />
</g>
		<g transform="matrix(1 0 0 1 -43.95 -122.47)"  >
<path style="stroke: rgb(0,0,0); stroke-width: 0.1; stroke-dasharray: none; stroke-linecap: butt; stroke-dashoffset: 0; stroke-linejoin: miter; stroke-miterlimit: 4; fill: rgb(151,209,235); fill-rule: nonzero; opacity: 1;"  transform=" translate(-456.05, -377.53)" d="M 485.3 379.3 c -17.1 10.4 -40.3 13.6 -58.5 7.1 c 12 3 28.3 -8.1 38.6 -12.5 c 6.5 -2.9 12.8 -5.6 19.1 -8.6 C 484.7 370.9 485.1 375.9 485.3 379.3 z" stroke-linecap="round" />
</g>
		<g transform="matrix(1 0 0 1 -46.9 -306.2)"  >
<path style="stroke: rgb(0,0,0); stroke-width: 0.1; stroke-dasharray: none; stroke-linecap: butt; stroke-dashoffset: 0; stroke-linejoin: miter; stroke-miterlimit: 4; fill: rgb(247,182,146); fill-rule: nonzero; opacity: 1;"  transform=" translate(-453.1, -193.8)" d="M 478.2 222.8 c -1.1 -5.7 -2.3 -14.2 -3.2 -22.7 c -0.7 -6.7 -1.3 -13.3 -1.4 -18.5 c -1.5 0.6 -2.9 1.3 -4.2 2.2 c 0 0 -0.1 0.1 -0.1 0.1 c -0.6 -5.1 -0.7 -11 -0.8 -16.2 c -4.5 0.8 -9.4 0.3 -14.3 -1.1 c -1.8 -0.5 -3.7 -1.2 -5.5 -2 l -0.3 -0.7 c -1.3 0.7 -2.7 1.3 -4.1 1.8 c -3.7 1.2 -7.7 1.7 -11.2 2 c 1.7 1.8 4.6 3.3 7.4 4.3 c -4.4 1.4 -8.6 2 -12.8 2 v 0 c 0.1 0.5 0.2 1 0.3 1.5 c 1.5 7.8 1.7 12.6 2.8 19.7 c 6.8 1.8 15.9 6.2 24.3 11 c 10.7 6.2 20.4 13.3 23.4 17.5 C 478.4 223.5 478.3 223.2 478.2 222.8 z" stroke-linecap="round" />
</g>
		<g transform="matrix(1 0 0 1 -53.15 -433.13)"  >
<path style="stroke: rgb(0,0,0); stroke-width: 0.1; stroke-dasharray: none; stroke-linecap: butt; stroke-dashoffset: 0; stroke-linejoin: miter; stroke-miterlimit: 4; fill: rgb(65,31,44); fill-rule: nonzero; opacity: 1;"  transform=" translate(-446.85, -66.87)" d="M 508.9 44.3 c -5.1 6.4 -12.3 9.2 -20.4 9.8 c 2.9 -1.1 5.5 -3.1 6.6 -6 c -2.2 1.2 -4.7 1.8 -7.2 1.9 c -8 -9.6 -20.7 -15.6 -33.8 -18.6 c -11.8 -2.7 -26.9 -2.3 -37.2 3 c -6.4 3.2 -13.5 7.4 -19.7 13.3 c -5 4.7 -9.5 10.4 -12.6 17.4 h 0 c 0.1 0.5 0.2 1.1 0.3 1.6 c 3 16.5 18 30.3 34.5 35.4 c 1.7 0.5 3.5 1 5.2 1.3 c 0.1 0 0.2 0.1 0.3 0.1 c 0.5 0.1 1 0.1 1.6 0.2 c 2.9 0.3 6.3 0.4 10.2 0.1 c 8.5 -0.6 19.4 -3 31.8 -8.7 c -19.7 1.1 -21.9 0.2 -29.8 -2.3 c 21.3 -1.7 38.4 -4.7 51.9 -16 c 2.7 -2.3 5.2 -4.8 7.6 -7.7 c -0.1 -0.2 -0.3 -0.4 -0.5 -0.6 c 3 -2.2 4.5 -5.3 6.1 -8.8 c 0.2 -0.4 0.3 -0.8 0.5 -1.2 c 2 -4.2 2.2 -10.2 4.8 -13.9 H 508.9 z" stroke-linecap="round" />
</g>
		<g transform="matrix(1 0 0 1 -39.99 -187)"  >
<path style="stroke: rgb(0,0,0); stroke-width: 0.1; stroke-dasharray: none; stroke-linecap: butt; stroke-dashoffset: 0; stroke-linejoin: miter; stroke-miterlimit: 4; fill: rgb(131,208,244); fill-rule: nonzero; opacity: 1;"  transform=" translate(-460.02, -313)" d="M 429 299.3 c 5.9 1.5 12 1.7 18.3 0.7 c 6.3 -0.9 12.8 -3 19.5 -6 c 7.9 -5.1 16.1 -9.3 24.3 -13.5 c -3.9 18 -5.8 34.3 -7.2 53.1 c -16 4.2 -33.7 7.5 -50 11.9 c -0.5 -7.6 -3.2 -16.5 -4.2 -24 C 428.3 313.8 429.3 306.9 429 299.3 z" stroke-linecap="round" />
</g>
		<g transform="matrix(1 0 0 1 -46.45 -128.48)"  >
<path style="stroke: rgb(0,0,0); stroke-width: 0.1; stroke-dasharray: none; stroke-linecap: butt; stroke-dashoffset: 0; stroke-linejoin: miter; stroke-miterlimit: 4; fill: rgb(137,203,240); fill-rule: nonzero; opacity: 1;"  transform=" translate(-453.55, -371.52)" d="M 465.4 373.8 c -10.3 4.5 -26.6 15.6 -38.6 12.5 c -0.1 0 -0.2 0 -0.3 -0.1 c -1.3 -0.4 -2.6 -1 -3.8 -1.5 c 21 -8.5 41.6 -18.3 61.3 -28.5 c 0.1 3.1 0.3 6.1 0.4 9 C 478.2 368.2 471.8 370.9 465.4 373.8 z" stroke-linecap="round" />
</g>
		<g transform="matrix(1 0 0 1 -66.34 124.99)"  >
<path style="stroke: rgb(0,0,0); stroke-width: 0.1; stroke-dasharray: none; stroke-linecap: butt; stroke-dashoffset: 0; stroke-linejoin: miter; stroke-miterlimit: 4; fill: rgb(43,51,52); fill-rule: nonzero; opacity: 1;"  transform=" translate(-433.66, -624.99)" d="M 483.3 394.9 c -9.4 4.6 -19.9 7.5 -30 8.9 c -17.1 2.2 -32.8 -0.2 -39.2 -7.8 h -0.7 c -24.3 29.3 -30.6 71.3 -29.2 107.7 c 1.4 38.5 10.7 73.5 17.8 111.3 c 2 11.1 1.7 23.5 3.3 34.8 c 0 0.1 0 0.1 0 0.2 c 0.2 0.8 0.4 1.7 0.4 2.6 c 0 0 0 0 0 0.1 c 0.8 11.1 -8.4 27.8 -10.9 37.2 c -5 21.4 -5.7 42.8 -6.4 64.9 c -0.9 21.6 5.6 43.8 12.6 65.7 c 0.8 9.4 -0.9 18.6 -6.7 26.6 c 3.9 2.3 8.1 4 12.5 5.2 c 6.9 1.9 14.1 2.6 21.4 2.7 c 2.1 0.1 4.2 0.1 6.3 0 c 4.5 -0.1 8.9 -0.3 13.2 -0.5 c -7.5 -10.8 -5.9 -34 -6.8 -46.3 c -0.5 -5.2 0.1 -14.1 0.1 -19 v 0 c 1.5 -10 3.3 -19.9 5.2 -30 c 7.8 -42.1 10 -84.9 16.4 -127.7 c 2 -11.7 4 -23.6 5.8 -35.4 c 1.4 -9.2 2.6 -18.3 3.5 -27.4 c 2.5 -18.1 10 -62.4 10.5 -94.9 h -0.3 c 0.1 -2.1 0.2 -4.2 0.3 -6.3 C 483.2 443.6 483.3 418.4 483.3 394.9 z" stroke-linecap="round" />
</g>
		<g transform="matrix(1 0 0 1 -80.65 -180.7)"  >
<path style="stroke: rgb(0,0,0); stroke-width: 0.1; stroke-dasharray: none; stroke-linecap: butt; stroke-dashoffset: 0; stroke-linejoin: miter; stroke-miterlimit: 4; fill: rgb(126,206,243); fill-rule: nonzero; opacity: 1;"  transform=" translate(-419.35, -319.3)" d="M 429.7 321.4 c 1 7.6 3.7 16.4 4.2 24 c -7.7 2.1 -15.2 4.5 -22.1 7.3 c -1.7 -9 -4 -17.8 -7 -26.6 c 0.5 -13.5 1.2 -27.6 2 -40.2 c 7.1 7.1 14.5 11.4 22.2 13.4 C 429.3 306.9 428.3 313.8 429.7 321.4 z" stroke-linecap="round" />
</g>
		<g transform="matrix(1 0 0 1 -42.61 -377.65)"  >
<path style="stroke: rgb(0,0,0); stroke-width: 0.1; stroke-dasharray: none; stroke-linecap: butt; stroke-dashoffset: 0; stroke-linejoin: miter; stroke-miterlimit: 4; fill: rgb(247,182,146); fill-rule: nonzero; opacity: 1;"  transform=" translate(-457.39, -122.35)" d="M 490.6 76.5 c -13.5 11.3 -30.6 14.3 -51.9 16 c 7.9 2.5 10.1 3.4 29.8 2.3 c -12.5 5.7 -23.3 8.1 -31.8 8.7 c -3.9 0.3 -7.3 0.2 -10.2 -0.1 c 0 0 -0.1 0.1 -0.1 0.1 c -5.2 5.6 -5.5 17.2 -2.7 28.4 c 3.8 15.6 13.7 30.6 24.8 28 c 2 -0.5 4 -1.5 6.1 -3.2 c -0.8 2.5 -2.3 4.5 -4.3 6 c -0.6 0.5 -1.3 0.9 -1.9 1.3 l 0.3 0.7 c 1.8 0.8 3.7 1.5 5.5 2 c 5 1.5 9.8 1.9 14.3 1.1 c 2.5 -0.4 4.9 -1.2 7 -2.5 c 4.2 -2.3 7.8 -6.1 10.3 -11.7 c 0.7 -1.5 1.4 -3.2 1.9 -5.1 C 494.3 127.2 493.7 99.9 490.6 76.5 z" stroke-linecap="round" />
</g>
		<g transform="matrix(1 0 0 1 -54.75 -292.3)"  >
<path style="stroke: rgb(0,0,0); stroke-width: 0.1; stroke-dasharray: none; stroke-linecap: butt; stroke-dashoffset: 0; stroke-linejoin: miter; stroke-miterlimit: 4; fill: rgb(214,234,243); fill-rule: nonzero; opacity: 1;"  transform=" translate(-445.25, -207.7)" d="M 428.3 239.7 C 417.1 226 414.5 209.1 412 191 c 0 -0.1 0 -0.2 0 -0.3 c 0.5 -0.4 0.9 -0.8 1.3 -1.3 c 1.7 -2 9.6 -10.4 14.7 -13.7 c 1.5 7.8 1.7 12.6 2.8 19.7 c 6.8 1.8 15.9 6.2 24.3 11 c 10.7 6.2 20.4 13.3 23.4 17.5 c -4.8 -3 -9.5 -5.1 -13.8 -6.3 C 443.8 211.5 430 224.3 428.3 239.7 z" stroke-linecap="round" />
</g>
		<g transform="matrix(1 0 0 1 -73.65 -254.29)"  >
<path style="stroke: rgb(0,0,0); stroke-width: 0.1; stroke-dasharray: none; stroke-linecap: butt; stroke-dashoffset: 0; stroke-linejoin: miter; stroke-miterlimit: 4; fill: rgb(140,207,242); fill-rule: nonzero; opacity: 1;"  transform=" translate(-426.35, -245.71)" d="M 443.6 226.5 c -8.9 7.1 -8.9 16 -13.9 24.9 c -3.2 -2.1 -6.1 -5 -10 -6.4 c -10.3 25.6 -3.6 54.8 27.6 54.9 c -6.3 1 -12.4 0.8 -18.3 -0.7 c -7.7 -2 -15 -6.3 -22.2 -13.4 c 1.2 -18.9 2.7 -34.6 4.2 -40.1 h 0.4 c 0.2 -6.7 -0.7 -14.4 -3 -21.2 v 0 c -3.5 -10.8 -10.3 -19.5 -20.4 -18.7 c 6.9 -5.5 14.8 -10.1 22.8 -14.3 c 0.4 -0.2 0.8 -0.4 1.2 -0.6 c 2.6 18.1 5.2 35 16.3 48.8 c 1.8 -15.4 15.5 -28.3 36.4 -22.2 l 0 0.1 C 457.5 217.2 449 222.3 443.6 226.5 z" stroke-linecap="round" />
</g>
		<g transform="matrix(1 0 0 1 -67.64 -198.55)"  >
<path style="stroke: rgb(0,0,0); stroke-width: 0.1; stroke-dasharray: none; stroke-linecap: butt; stroke-dashoffset: 0; stroke-linejoin: miter; stroke-miterlimit: 4; fill: rgb(166,222,248); fill-rule: nonzero; opacity: 1;"  transform=" translate(-432.35, -301.45)" d="M 433.9 345.4 c 16.4 -4.4 34 -7.7 50 -11.9 c 0 0.1 0 0.3 0 0.4 c -0.2 3.4 -0.2 7.3 -0.2 11.3 c -10.2 3.3 -21 5.5 -30.5 9.4 c -10.3 4.3 -20.7 8.9 -31.4 12.5 c -8.6 2.9 -19.3 4.7 -26 10.7 c -1.1 -2.5 -0.7 -5.4 0 -8.2 c -3.9 2.1 -6.8 4.6 -8.6 8.9 h -0.4 c -1.4 -13.2 -4.3 -26.7 -5.3 -40.3 c -2.2 -21.4 1.4 -42.5 3.2 -63.9 c 1.1 -11.8 0.7 -24.9 6.1 -36 c 2.7 -5.6 10.5 -15.4 17.6 -13.7 v 0 c 2.3 6.8 3.3 14.5 3 21.2 H 411 c -1.5 5.5 -2.9 21.1 -4.2 40.1 c -0.8 12.6 -1.5 26.7 -2 40.2 c -0.4 10.8 -0.7 21.1 -0.7 30.1 c 2.5 -1.3 5 -2.4 7.7 -3.5 C 418.7 349.9 426.2 347.5 433.9 345.4 z" stroke-linecap="round" />
</g>
		<g transform="matrix(1 0 0 1 -78 397.25)"  >
<path style="stroke: rgb(0,0,0); stroke-width: 0.1; stroke-dasharray: none; stroke-linecap: butt; stroke-dashoffset: 0; stroke-linejoin: miter; stroke-miterlimit: 4; fill: rgb(247,182,146); fill-rule: nonzero; opacity: 1;"  transform=" translate(-422, -897.25)" d="M 434.1 870.3 c 0 -2.6 0 -5.2 0.1 -7.8 c 0.1 -2.5 0.1 -5 0.3 -7.5 c -2.1 0 -4.2 0 -6.3 0 c -7.2 -0.1 -14.5 -0.8 -21.4 -2.7 c 0.1 1.1 0.2 2.1 0.2 3.1 c -0.6 8.6 -3.3 16.1 -5 23.9 c 0 0 0 0 0 0 c 1.4 20.8 12.7 42.3 17 62.9 c 3.7 -2.1 7.8 -3.4 12 -3.9 c 1.5 -0.2 3 -0.3 4.6 -0.3 c 1.8 0 3.6 0.1 5.4 0.3 l 1 -0.1 C 438.7 915.7 437.7 891.5 434.1 870.3 z" stroke-linecap="round" />
</g>
		<g transform="matrix(1 0 0 1 -77.94 421.95)"  >
<path style="stroke: rgb(0,0,0); stroke-width: 0.1; stroke-dasharray: none; stroke-linecap: butt; stroke-dashoffset: 0; stroke-linejoin: miter; stroke-miterlimit: 4; fill: rgb(23,29,29); fill-rule: nonzero; opacity: 1;"  transform=" translate(-422.07, -921.95)" d="M 431 938.3 c 1.5 -0.2 3 -0.3 4.6 -0.3 c 1.8 0 3.6 0.1 5.4 0.3 l 1 -0.1 c 1.2 8.5 2.7 16.7 4.7 24.5 c -5 5 -11.1 6 -18.3 7.4 v 0.1 c -11 0.2 -16.3 -8.3 -19.6 -18.9 c -1.2 -0.2 -2.7 -0.3 -3.6 -0.4 c -5.7 -23.3 -12.4 -53.4 -3.3 -77.2 c -0.1 1.8 0 3.6 0.1 5.4 c 0 0 0 0 0 0 c 1.4 20.8 12.7 42.3 17 62.9 C 422.7 940.1 426.8 938.8 431 938.3 z" stroke-linecap="round" />
</g>
		<g transform="matrix(1 0 0 1 -75.25 -197.97)"  >
<path style="stroke: rgb(0,0,0); stroke-width: 0.1; stroke-dasharray: none; stroke-linecap: butt; stroke-dashoffset: 0; stroke-linejoin: miter; stroke-miterlimit: 4; fill: rgb(155,219,248); fill-rule: nonzero; opacity: 1;"  transform=" translate(-424.75, -302.02)" d="M 484 356.3 c -19.7 10.2 -40.3 20 -61.3 28.5 c -3 1.2 -6 2.4 -9 3.5 c -9.4 3.7 -18.9 7 -28.4 9.9 c -7.9 -1.9 -9.8 -13.3 -11.5 -22.9 c -0.3 -1.6 -0.6 -3.2 -0.9 -4.6 c -8 -42.3 -11.2 -91.2 -0.9 -135.7 c 1.2 -5.1 2.5 -10.2 4.1 -15.2 v 0 c 2.2 -4.7 5.3 -8.7 8.8 -11.3 l 0 0 c 1 -0.9 2.1 -1.8 3.1 -2.6 c 10.2 -0.8 16.9 7.9 20.4 18.7 c -7.1 -1.7 -14.9 8.1 -17.6 13.7 c -5.3 11.1 -5 24.3 -6.1 36 c -1.8 21.4 -5.4 42.5 -3.2 63.9 c 1.1 13.6 3.9 27.1 5.3 40.3 h 0.4 c 1.8 -4.3 4.6 -6.8 8.6 -8.9 c -0.7 2.8 -1.1 5.7 0 8.2 c 6.8 -6.1 17.5 -7.9 26 -10.7 c 10.7 -3.5 21.1 -8.2 31.4 -12.5 c 9.5 -3.9 20.3 -6.1 30.5 -9.4 C 483.8 348.9 483.9 352.6 484 356.3 z" stroke-linecap="round" />
</g>
		<g transform="matrix(1 0 0 1 -88.98 -379.8)"  >
<path style="stroke: rgb(0,0,0); stroke-width: 0.1; stroke-dasharray: none; stroke-linecap: butt; stroke-dashoffset: 0; stroke-linejoin: miter; stroke-miterlimit: 4; fill: rgb(65,31,44); fill-rule: nonzero; opacity: 1;"  transform=" translate(-411.01, -120.2)" d="M 448.5 159.9 c -11.1 2.6 -20.9 -12.4 -24.8 -28 c -2.7 -11.2 -2.4 -22.8 2.7 -28.4 c -0.5 -0.1 -1 -0.2 -1.5 -0.3 c -0.1 0 -0.2 0 -0.3 -0.1 c -2.1 -0.3 -3.8 -0.8 -5.2 -1.3 c -16.6 -5.1 -31.6 -18.9 -34.5 -35.4 l -0.7 0.1 c -10 8 -13 21.3 -12.4 35 c 0.3 8.2 1.9 16.6 4.1 24 c 7.4 25.4 26.7 48.7 51.8 48.5 c 4.1 0 8.4 -0.7 12.8 -2 c -2.7 -0.9 -5.7 -2.4 -7.4 -4.3 c 3.5 -0.3 7.5 -0.8 11.2 -2 c 1.4 -0.5 2.8 -1.1 4.1 -1.8 c 0.7 -0.4 1.3 -0.8 1.9 -1.3 C 449.6 161.9 449 160.9 448.5 159.9 z" stroke-linecap="round" />
</g>
</g>
</g>
<g transform="matrix(0.03 -0.01 0.01 0.03 32.57 19.97)"  >
<g style=""   >
		<g transform="matrix(1 0 0 1 -0.2 184.7)"  >
<path style="stroke: rgb(45,45,45); stroke-width: 6; stroke-dasharray: none; stroke-linecap: butt; stroke-dashoffset: 0; stroke-linejoin: round; stroke-miterlimit: 10; fill: rgb(255,125,112); fill-rule: nonzero; opacity: 1;"  transform=" translate(-499.8, -684.7)" d="M 564.2 698.8 c 0 -0.1 0 -0.2 0 -0.2 c 0 -0.3 0 -0.6 0 -0.9 c 0 -0.5 0 -0.9 -0.1 -1.4 c 0 -0.1 0 -0.3 0 -0.4 c 0 -0.3 -0.1 -0.7 -0.1 -1 c 0 -0.3 0 -0.7 -0.1 -1 c 0 -0.2 -0.1 -0.5 -0.1 -0.7 c 0 -0.3 -0.1 -0.7 -0.1 -1 c 0 -0.2 0 -0.5 -0.1 -0.7 c 0 -0.4 -0.1 -0.7 -0.2 -1.1 c 0 -0.3 -0.1 -0.6 -0.1 -0.9 c 0 -0.1 0 -0.3 -0.1 -0.4 c -0.1 -0.6 -0.2 -1.3 -0.3 -1.9 c 0 -0.1 0 -0.3 -0.1 -0.4 c 0 0 0 0 0 -0.1 c -0.2 -0.8 -0.3 -1.6 -0.5 -2.4 c 0 -0.1 0 -0.2 -0.1 -0.2 c -0.1 -0.3 -0.1 -0.5 -0.2 -0.8 c -0.1 -0.5 -0.2 -0.9 -0.3 -1.4 c 0 -0.2 -0.1 -0.4 -0.1 -0.6 c -0.1 -0.3 -0.2 -0.6 -0.3 -1 c -0.1 -0.3 -0.2 -0.6 -0.2 -0.9 c -0.1 -0.3 -0.2 -0.6 -0.3 -1 c -0.1 -0.3 -0.2 -0.6 -0.3 -0.9 c 0 -0.2 -0.1 -0.3 -0.1 -0.5 c -0.2 -0.6 -0.4 -1.1 -0.5 -1.7 c -0.1 -0.2 -0.1 -0.4 -0.2 -0.6 c 0 0 0 -0.1 0 -0.1 c -0.3 -0.8 -0.5 -1.5 -0.8 -2.3 c 0 -0.1 -0.1 -0.2 -0.1 -0.3 c -0.1 -0.2 -0.2 -0.5 -0.3 -0.7 c -0.2 -0.4 -0.3 -0.9 -0.5 -1.3 c -0.1 -0.3 -0.2 -0.5 -0.3 -0.8 c -0.1 -0.3 -0.2 -0.6 -0.3 -0.8 c -0.1 -0.2 -0.2 -0.4 -0.3 -0.6 c -0.2 -0.5 -0.4 -1.1 -0.7 -1.6 c -0.1 -0.2 -0.1 -0.3 -0.2 -0.5 c 0 -0.1 0 -0.1 -0.1 -0.2 c -0.3 -0.8 -0.7 -1.5 -1.1 -2.3 c 0 -0.1 -0.1 -0.2 -0.1 -0.2 c -0.1 -0.3 -0.3 -0.6 -0.4 -0.9 c -0.2 -0.5 -0.5 -1 -0.7 -1.4 c -0.1 -0.2 -0.2 -0.3 -0.2 -0.5 c -0.3 -0.5 -0.5 -1 -0.8 -1.5 c -0.2 -0.4 -0.4 -0.7 -0.5 -1.1 c -0.1 -0.1 -0.1 -0.3 -0.2 -0.4 c -0.6 -1.2 -1.3 -2.4 -2 -3.6 c -0.1 -0.2 -0.2 -0.4 -0.3 -0.6 c -0.1 -0.3 -0.3 -0.5 -0.4 -0.7 c -0.5 -0.8 -1 -1.6 -1.5 -2.4 c -0.2 -0.4 -0.5 -0.8 -0.7 -1.2 c -0.5 -0.7 -1 -1.5 -1.4 -2.2 c -0.2 -0.2 -0.3 -0.5 -0.5 -0.7 c -0.1 -0.1 -0.2 -0.2 -0.2 -0.3 c -0.8 -1.2 -1.7 -2.4 -2.5 -3.5 c 0 0 -0.1 -0.1 -0.1 -0.1 c -0.3 -0.4 -0.6 -0.8 -0.9 -1.2 c -0.3 -0.4 -0.6 -0.8 -0.9 -1.2 c 0 -0.1 -0.1 -0.1 -0.1 -0.2 c -0.6 -0.7 -1.2 -1.5 -1.8 -2.2 c 0 0 0 0 0 0 c 0 0 0 0 0 0 c -0.6 -0.7 -1.1 -1.4 -1.7 -2 c -0.1 -0.1 -0.1 -0.1 -0.2 -0.2 c -0.2 -0.2 -0.4 -0.5 -0.6 -0.7 c -0.3 -0.4 -0.6 -0.7 -1 -1.1 c -0.1 -0.1 -0.3 -0.3 -0.4 -0.4 c -0.3 -0.3 -0.5 -0.5 -0.8 -0.8 c -0.2 -0.2 -0.4 -0.5 -0.7 -0.7 c -0.2 -0.2 -0.4 -0.4 -0.6 -0.6 c -0.3 -0.3 -0.6 -0.6 -0.8 -0.8 c -0.2 -0.2 -0.3 -0.3 -0.5 -0.5 c -0.2 -0.2 -0.5 -0.5 -0.7 -0.7 c -0.3 -0.3 -0.6 -0.6 -0.9 -0.8 c -0.1 -0.1 -0.3 -0.2 -0.4 -0.4 c -0.3 -0.3 -0.6 -0.5 -0.9 -0.8 c -0.3 -0.3 -0.6 -0.5 -0.9 -0.8 c -0.1 -0.1 -0.2 -0.2 -0.3 -0.2 c -0.4 -0.3 -0.7 -0.6 -1.1 -0.9 c -0.3 -0.2 -0.6 -0.5 -0.9 -0.7 c -0.1 0 -0.1 -0.1 -0.2 -0.1 c -0.5 -0.4 -1 -0.7 -1.4 -1.1 c -0.2 -0.2 -0.4 -0.3 -0.6 -0.5 c 0 0 0 0 -0.1 -0.1 c -0.7 -0.5 -1.4 -1 -2.2 -1.5 c 0 0 0 0 0 0 c -0.2 -0.1 -0.3 -0.2 -0.5 -0.3 c -0.6 -0.4 -1.1 -0.8 -1.7 -1.1 c -0.1 0 -0.1 -0.1 -0.2 -0.1 c -0.3 -0.2 -0.6 -0.4 -0.9 -0.5 c -0.4 -0.3 -0.8 -0.5 -1.2 -0.7 c -0.2 -0.1 -0.4 -0.2 -0.5 -0.3 c -0.6 -0.3 -1.2 -0.7 -1.7 -1 c -0.1 -0.1 -0.3 -0.1 -0.4 -0.2 c -0.3 -0.2 -0.6 -0.3 -0.9 -0.5 c -0.3 -0.1 -0.6 -0.3 -0.8 -0.4 c -0.2 -0.1 -0.4 -0.2 -0.6 -0.3 c -0.3 -0.1 -0.6 -0.3 -0.9 -0.4 c -0.2 -0.1 -0.4 -0.2 -0.6 -0.3 c -0.3 -0.1 -0.6 -0.2 -0.9 -0.4 c -0.3 -0.1 -0.5 -0.2 -0.8 -0.3 c -0.1 0 -0.2 -0.1 -0.3 -0.1 c -0.5 -0.2 -0.9 -0.3 -1.3 -0.5 c -0.2 -0.1 -0.3 -0.1 -0.5 -0.2 c 0 0 -0.1 0 -0.1 0 c -0.6 -0.2 -1.3 -0.4 -1.9 -0.6 c 0 0 -0.1 0 -0.1 0 c -0.2 -0.1 -0.4 -0.1 -0.6 -0.2 c -0.4 -0.1 -0.8 -0.2 -1.2 -0.3 c -0.1 0 -0.2 0 -0.3 -0.1 c -0.3 -0.1 -0.5 -0.1 -0.8 -0.2 c -0.3 -0.1 -0.5 -0.1 -0.8 -0.2 c -0.2 0 -0.3 -0.1 -0.5 -0.1 c -0.3 -0.1 -0.6 -0.1 -0.8 -0.1 c -0.2 0 -0.4 -0.1 -0.5 -0.1 c -0.2 0 -0.4 0 -0.6 -0.1 c -0.3 0 -0.6 -0.1 -0.9 -0.1 c -0.1 0 -0.3 0 -0.4 0 c -0.2 0 -0.4 0 -0.7 0 c -0.3 0 -0.7 0 -1 0 c -0.1 0 -0.3 0 -0.4 0 c -0.2 0 -0.4 0 -0.6 0 c -0.4 0 -0.8 0 -1.3 0.1 c -0.1 0 -0.3 0 -0.4 0 c -0.3 0 -0.5 0.1 -0.8 0.1 c -0.1 0 -0.2 0 -0.3 0 c -0.5 0.1 -1 0.1 -1.5 0.2 c -0.1 0 -0.1 0 -0.2 0 c -0.2 0 -0.4 0.1 -0.6 0.2 c -0.4 0.1 -0.8 0.2 -1.2 0.3 c -0.2 0.1 -0.5 0.1 -0.7 0.2 c -0.2 0.1 -0.4 0.1 -0.6 0.2 c -0.2 0.1 -0.5 0.2 -0.7 0.3 c -0.1 0 -0.2 0.1 -0.3 0.1 c -0.5 0.2 -1.1 0.4 -1.6 0.7 c -0.1 0.1 -0.2 0.1 -0.3 0.2 c -0.5 0.3 -1.1 0.5 -1.6 0.9 c 0 0 0 0 0 0 L 435.4 641 c 0.5 -0.3 1.1 -0.6 1.6 -0.9 c 0.1 -0.1 0.2 -0.1 0.3 -0.2 c 0.5 -0.3 1 -0.5 1.6 -0.7 c 0.1 0 0.2 -0.1 0.3 -0.1 c 0.4 -0.2 0.8 -0.3 1.3 -0.4 c 0.2 -0.1 0.5 -0.1 0.7 -0.2 c 0.4 -0.1 0.8 -0.2 1.2 -0.3 c 0.2 -0.1 0.4 -0.1 0.6 -0.2 c 0.6 -0.1 1.1 -0.2 1.7 -0.3 c 0.1 0 0.2 0 0.3 0 c 0.4 0 0.8 -0.1 1.2 -0.1 c 0.4 0 0.8 0 1.3 -0.1 c 0.3 0 0.6 0 0.9 0 c 0.3 0 0.7 0 1 0 c 0.4 0 0.7 0 1.1 0.1 c 0.3 0 0.6 0.1 0.9 0.1 c 0.4 0 0.8 0.1 1.2 0.2 c 0.3 0 0.6 0.1 0.8 0.1 c 0.4 0.1 0.9 0.2 1.3 0.3 c 0.3 0.1 0.5 0.1 0.8 0.2 c 0.5 0.1 1 0.3 1.5 0.4 c 0.2 0.1 0.4 0.1 0.6 0.2 c 0.7 0.2 1.4 0.4 2.1 0.7 c 0.2 0.1 0.3 0.1 0.5 0.2 c 0.6 0.2 1.1 0.4 1.7 0.7 c 0.3 0.1 0.5 0.2 0.8 0.3 c 0.5 0.2 1 0.4 1.4 0.6 c 0.3 0.1 0.6 0.3 0.9 0.4 c 0.5 0.2 0.9 0.5 1.4 0.7 c 0.3 0.2 0.6 0.3 0.9 0.5 c 0.7 0.4 1.4 0.8 2.1 1.2 c 0.6 0.3 1.2 0.7 1.8 1.1 c 0.3 0.2 0.6 0.4 0.9 0.5 c 0.6 0.4 1.2 0.8 1.9 1.2 c 0.2 0.1 0.3 0.2 0.5 0.3 c 0.8 0.5 1.5 1.1 2.3 1.6 c 0.2 0.2 0.4 0.3 0.6 0.5 c 0.5 0.4 1.1 0.8 1.6 1.2 c 0.3 0.2 0.6 0.5 0.9 0.7 c 0.5 0.4 0.9 0.7 1.4 1.1 c 0.3 0.3 0.6 0.5 0.9 0.8 c 0.4 0.4 0.9 0.7 1.3 1.1 c 0.3 0.3 0.6 0.6 0.9 0.8 c 0.4 0.4 0.8 0.8 1.2 1.2 c 0.3 0.3 0.6 0.6 0.8 0.8 c 0.4 0.4 0.8 0.8 1.3 1.3 c 0.3 0.3 0.5 0.5 0.8 0.8 c 0.5 0.5 0.9 1 1.3 1.5 c 0.2 0.2 0.4 0.5 0.6 0.7 c 0.6 0.7 1.3 1.5 1.9 2.2 c 0 0 0 0 0 0 c 0.6 0.8 1.3 1.6 1.9 2.4 c 0.3 0.4 0.6 0.8 0.9 1.2 c 0.3 0.4 0.7 0.9 1 1.3 c 0.8 1.1 1.7 2.3 2.5 3.5 c 0.2 0.3 0.5 0.7 0.7 1 c 0.5 0.7 1 1.5 1.4 2.2 c 0.2 0.4 0.5 0.8 0.7 1.2 c 0.5 0.8 1 1.6 1.5 2.4 c 0.3 0.4 0.5 0.9 0.8 1.3 c 0.7 1.2 1.4 2.4 2 3.6 c 0.3 0.5 0.5 1 0.8 1.4 c 0.3 0.5 0.5 1 0.8 1.5 c 0.3 0.6 0.6 1.3 0.9 1.9 c 0.1 0.3 0.3 0.6 0.4 0.9 c 0.4 0.9 0.8 1.8 1.2 2.7 c 0.1 0.2 0.1 0.3 0.2 0.5 c 0.3 0.7 0.6 1.5 0.9 2.2 c 0.1 0.3 0.2 0.6 0.3 0.8 c 0.3 0.7 0.5 1.4 0.8 2.1 c 0.1 0.2 0.2 0.5 0.3 0.7 c 0.3 0.9 0.6 1.8 0.9 2.7 c 0.1 0.2 0.1 0.4 0.2 0.5 c 0.2 0.7 0.5 1.5 0.7 2.2 c 0.1 0.3 0.2 0.6 0.3 0.9 c 0.2 0.6 0.3 1.2 0.5 1.8 c 0.1 0.3 0.2 0.6 0.3 1 c 0.2 0.7 0.3 1.3 0.5 2 c 0.1 0.3 0.1 0.5 0.2 0.8 c 0.2 0.9 0.4 1.8 0.6 2.7 c 0 0.1 0 0.3 0.1 0.4 c 0.1 0.8 0.3 1.5 0.4 2.3 c 0 0.3 0.1 0.6 0.1 0.9 c 0.1 0.6 0.2 1.2 0.2 1.8 c 0 0.3 0.1 0.7 0.1 1 c 0.1 0.6 0.1 1.2 0.2 1.8 c 0 0.3 0.1 0.7 0.1 1 c 0 0.6 0.1 1.2 0.1 1.8 c 0 0.3 0 0.6 0 0.9 c 0 0.9 0 1.8 0 2.7 c 0 0.9 0 1.8 -0.1 2.7 c 0 0.2 0 0.4 0 0.6 c 0 0.6 -0.1 1.3 -0.1 1.9 c 0 0.3 -0.1 0.6 -0.1 0.9 c -0.1 0.5 -0.1 1 -0.2 1.5 c 0 0.3 -0.1 0.7 -0.1 1 c -0.1 0.4 -0.1 0.9 -0.2 1.3 c -0.1 0.4 -0.1 0.7 -0.2 1.1 c -0.1 0.4 -0.2 0.8 -0.3 1.2 c -0.1 0.4 -0.2 0.8 -0.3 1.2 c -0.1 0.4 -0.2 0.7 -0.3 1 c -0.1 0.5 -0.3 0.9 -0.5 1.4 c -0.1 0.3 -0.2 0.6 -0.3 0.8 c -0.3 0.8 -0.6 1.6 -1 2.3 c -0.3 0.6 -0.6 1.2 -0.9 1.7 c -0.1 0.1 -0.2 0.3 -0.2 0.4 c -0.2 0.4 -0.5 0.8 -0.7 1.2 c -0.1 0.2 -0.2 0.3 -0.3 0.5 c -0.2 0.4 -0.5 0.7 -0.8 1 c -0.1 0.2 -0.2 0.3 -0.4 0.5 c -0.3 0.4 -0.6 0.7 -0.9 1.1 c -0.1 0.1 -0.2 0.2 -0.3 0.3 c -0.4 0.4 -0.8 0.9 -1.3 1.3 c -0.1 0.1 -0.2 0.2 -0.3 0.3 c -0.3 0.3 -0.7 0.6 -1 0.9 c -0.2 0.1 -0.3 0.3 -0.5 0.4 c -0.3 0.3 -0.7 0.5 -1 0.8 c -0.2 0.1 -0.3 0.2 -0.5 0.3 c -0.5 0.3 -1 0.7 -1.6 1 l 46.2 -26.9 c 0.5 -0.3 1.1 -0.6 1.6 -1 c 0.2 -0.1 0.3 -0.2 0.5 -0.3 c 0.4 -0.2 0.7 -0.5 1 -0.8 c 0.2 -0.1 0.3 -0.2 0.5 -0.4 c 0.4 -0.3 0.7 -0.6 1 -0.9 c 0.1 -0.1 0.2 -0.2 0.3 -0.3 c 0.4 -0.4 0.9 -0.8 1.3 -1.3 c 0.1 -0.1 0.2 -0.2 0.3 -0.3 c 0.3 -0.4 0.6 -0.7 0.9 -1.1 c 0.1 -0.2 0.2 -0.3 0.4 -0.5 c 0.3 -0.3 0.5 -0.7 0.8 -1 c 0.1 -0.2 0.2 -0.3 0.3 -0.5 c 0.1 -0.1 0.1 -0.2 0.2 -0.2 c 0.2 -0.3 0.4 -0.6 0.6 -1 c 0.1 -0.1 0.2 -0.3 0.2 -0.4 c 0.3 -0.5 0.6 -1.1 0.8 -1.6 c 0 0 0 0 0 -0.1 c 0.4 -0.7 0.7 -1.5 1 -2.3 c 0 -0.1 0.1 -0.1 0.1 -0.2 c 0.1 -0.2 0.1 -0.4 0.2 -0.6 c 0.2 -0.5 0.3 -0.9 0.5 -1.4 c 0 -0.1 0.1 -0.2 0.1 -0.3 c 0.1 -0.2 0.1 -0.5 0.2 -0.7 c 0.1 -0.4 0.2 -0.8 0.3 -1.2 c 0 -0.1 0.1 -0.3 0.1 -0.4 c 0.1 -0.3 0.1 -0.5 0.2 -0.8 c 0.1 -0.4 0.1 -0.7 0.2 -1.1 c 0 -0.1 0.1 -0.3 0.1 -0.4 c 0.1 -0.3 0.1 -0.6 0.1 -0.9 c 0.1 -0.3 0.1 -0.7 0.1 -1 c 0 -0.1 0 -0.2 0 -0.3 c 0 -0.4 0.1 -0.8 0.1 -1.2 c 0 -0.3 0.1 -0.6 0.1 -0.9 c 0 -0.1 0 -0.1 0 -0.2 c 0 -0.5 0.1 -1.1 0.1 -1.7 c 0 -0.2 0 -0.4 0 -0.6 c 0 0 0 0 0 -0.1 c 0 -0.8 0.1 -1.6 0.1 -2.5 c 0 0 0 -0.1 0 -0.1 C 564.2 700.5 564.2 699.6 564.2 698.8 z" stroke-linecap="round" />
</g>
		<g transform="matrix(1 0 0 1 -30.4 199.82)"  >
<path style="stroke: rgb(45,45,45); stroke-width: 6; stroke-dasharray: none; stroke-linecap: butt; stroke-dashoffset: 0; stroke-linejoin: round; stroke-miterlimit: 10; fill: rgb(255,197,0); fill-rule: nonzero; opacity: 1;"  transform=" translate(-469.6, -699.82)" d="M 469.5 644.3 c 13.4 7.7 24.8 19.8 34.3 36.2 c 9.5 16.4 14.2 32.3 14.1 47.7 c 0 15 -4.8 25.2 -14.3 30.6 c -9.5 5.4 -21 4.3 -34.4 -3.5 c -13.4 -7.7 -24.8 -19.8 -34 -36 c -9.3 -16.3 -13.9 -31.9 -13.9 -46.9 c 0 -15.4 4.7 -25.9 14.1 -31.4 C 444.7 635.4 456.1 636.5 469.5 644.3 z" stroke-linecap="round" />
</g>
		<g transform="matrix(1 0 0 1 33.3 92.6)"  >
<path style="stroke: rgb(45,45,45); stroke-width: 6; stroke-dasharray: none; stroke-linecap: butt; stroke-dashoffset: 0; stroke-linejoin: round; stroke-miterlimit: 10; fill: rgb(6,170,231); fill-rule: nonzero; opacity: 1;"  transform=" translate(-533.3, -592.6)" d="M 565.6 560.5 l -46.2 26.9 c -3.9 2.3 -7.3 4.9 -10 7.9 c -0.4 0.5 -0.8 1 -1.2 1.5 c -0.1 0.1 -0.2 0.3 -0.3 0.5 c -0.3 0.4 -0.6 0.8 -0.8 1.2 c -0.1 0.1 -0.1 0.2 -0.2 0.3 c 0 0.1 -0.1 0.2 -0.1 0.2 c -0.2 0.3 -0.3 0.5 -0.5 0.8 c -0.1 0.2 -0.3 0.4 -0.4 0.7 c -0.2 0.3 -0.3 0.6 -0.5 0.9 c -0.1 0.2 -0.2 0.3 -0.3 0.5 c 0 0.1 -0.1 0.1 -0.1 0.2 c -0.1 0.2 -0.2 0.3 -0.2 0.5 c -0.1 0.3 -0.3 0.7 -0.4 1 c -0.1 0.2 -0.2 0.4 -0.2 0.6 c -0.1 0.2 -0.1 0.3 -0.2 0.5 c 0 0.1 -0.1 0.2 -0.1 0.3 c -0.3 0.7 -0.5 1.5 -0.7 2.2 c 0 0 0 0.1 0 0.1 c 0 0 0 0 0 0 c -0.2 0.8 -0.4 1.5 -0.6 2.3 c 0 0.1 0 0.2 -0.1 0.3 c 0 0.1 -0.1 0.3 -0.1 0.4 c -0.1 0.6 -0.2 1.2 -0.4 1.8 c 0 0.2 -0.1 0.3 -0.1 0.4 c 0 0.1 0 0.2 0 0.3 c -0.1 0.8 -0.3 1.6 -0.4 2.4 c 0 0 0 0 0 0.1 c 0 0 0 0 0 0 c -0.1 0.8 -0.2 1.7 -0.3 2.6 c 0 0.1 0 0.2 0 0.3 c 0 0.2 0 0.4 0 0.5 c 0 0.7 -0.1 1.3 -0.1 2 c 0 0.2 0 0.3 0 0.5 c 0 0.1 0 0.3 0 0.4 c 0 0.8 0 1.6 -0.1 2.5 c 0 0.1 0 0.2 0 0.4 c 0 0.1 0 0.1 0 0.2 l 0 0 v 0 l 46.2 -26.9 c 0 -0.2 0 -0.4 0 -0.5 c 0 -0.8 0 -1.7 0.1 -2.5 c 0 -0.3 0 -0.6 0 -0.9 c 0 -0.7 0.1 -1.3 0.1 -2 c 0 -0.3 0 -0.5 0.1 -0.8 c 0.1 -0.9 0.2 -1.7 0.3 -2.6 c 0 0 0 0 0 -0.1 c 0.1 -0.8 0.2 -1.6 0.4 -2.4 c 0 -0.2 0.1 -0.5 0.1 -0.7 c 0.1 -0.6 0.2 -1.2 0.4 -1.8 c 0.1 -0.2 0.1 -0.5 0.2 -0.7 c 0.2 -0.8 0.4 -1.6 0.6 -2.3 c 0 0 0 -0.1 0 -0.1 c 0.2 -0.8 0.5 -1.5 0.7 -2.2 c 0.1 -0.3 0.2 -0.5 0.3 -0.8 c 0.1 -0.2 0.2 -0.4 0.2 -0.6 c 0.1 -0.3 0.3 -0.7 0.4 -1 c 0.1 -0.2 0.2 -0.3 0.2 -0.5 c 0.1 -0.2 0.2 -0.5 0.4 -0.7 c 0.1 -0.3 0.3 -0.6 0.5 -0.9 c 0.1 -0.2 0.3 -0.4 0.4 -0.7 c 0.2 -0.3 0.3 -0.6 0.5 -0.8 c 0.1 -0.2 0.2 -0.3 0.3 -0.5 c 0.3 -0.4 0.5 -0.8 0.8 -1.2 c 0.1 -0.2 0.2 -0.3 0.3 -0.5 c 0.4 -0.5 0.8 -1 1.2 -1.5 c 1.7 -1.9 3.6 -3.6 5.8 -5.2 C 562.8 562.2 564.1 561.3 565.6 560.5 L 565.6 560.5 C 565.6 560.5 565.6 560.5 565.6 560.5 z" stroke-linecap="round" />
</g>
		<g transform="matrix(1 0 0 1 -9.2 -19.8)"  >
<path style="stroke: rgb(45,45,45); stroke-width: 6; stroke-dasharray: none; stroke-linecap: butt; stroke-dashoffset: 0; stroke-linejoin: round; stroke-miterlimit: 10; fill: rgb(255,197,0); fill-rule: nonzero; opacity: 1;"  transform=" translate(-490.8, -480.2)" d="M 517.2 465 C 517.2 465 517.2 465 517.2 465 c -1.2 0.4 -2.3 0.8 -3.4 1.3 c -0.3 0.1 -0.6 0.3 -0.9 0.4 c -0.8 0.4 -1.6 0.7 -2.4 1.1 c -0.3 0.1 -0.6 0.3 -0.9 0.4 c -1 0.5 -2.1 1.1 -3 1.6 l -46.2 26.9 c 1 -0.6 2 -1.1 3 -1.6 c 0.3 -0.2 0.6 -0.3 0.9 -0.4 c 0.8 -0.4 1.6 -0.7 2.4 -1.1 c 0.3 -0.1 0.6 -0.3 0.9 -0.4 c 1.1 -0.5 2.2 -0.9 3.4 -1.3 c 1.3 -0.5 2.6 -0.9 4 -1.3 l 46.2 -26.9 C 519.9 464.1 518.5 464.5 517.2 465 z" stroke-linecap="round" />
</g>
		<g transform="matrix(1 0 0 1 12.4 -26.8)"  >
<polygon style="stroke: rgb(45,45,45); stroke-width: 6; stroke-dasharray: none; stroke-linecap: butt; stroke-dashoffset: 0; stroke-linejoin: round; stroke-miterlimit: 10; fill: rgb(255,197,0); fill-rule: nonzero; opacity: 1;"  points="-37.4,17.4 8.8,-9.5 37.4,-17.4 -8.8,9.4 " />
</g>
		<g transform="matrix(1 0 0 1 -46.45 -117)"  >
<path style="stroke: rgb(45,45,45); stroke-width: 6; stroke-dasharray: none; stroke-linecap: butt; stroke-dashoffset: 0; stroke-linejoin: round; stroke-miterlimit: 10; fill: rgb(6,170,231); fill-rule: nonzero; opacity: 1;"  transform=" translate(-453.55, -383)" d="M 438.8 366.5 c -0.7 0.4 -1.4 0.9 -2.1 1.3 c -0.7 0.5 -1.4 1.1 -2 1.6 c -0.2 0.2 -0.4 0.3 -0.6 0.5 c -0.5 0.4 -0.9 0.9 -1.4 1.3 c -0.2 0.2 -0.4 0.4 -0.5 0.5 c -0.6 0.6 -1.1 1.3 -1.7 2 c 0 0 0 0 0 0 c -0.5 0.7 -1 1.4 -1.5 2.1 c -0.1 0.1 -0.1 0.2 -0.2 0.2 c -0.1 0.2 -0.3 0.5 -0.4 0.7 c -0.2 0.3 -0.3 0.5 -0.5 0.8 c -0.2 0.4 -0.4 0.7 -0.6 1.1 c -0.1 0.3 -0.3 0.5 -0.4 0.8 c 0 0.1 -0.1 0.1 -0.1 0.2 c -0.1 0.1 -0.1 0.3 -0.2 0.4 c -0.3 0.7 -0.6 1.4 -0.9 2.2 c -0.1 0.1 -0.1 0.3 -0.2 0.4 c 0 0.1 -0.1 0.2 -0.1 0.4 c -0.2 0.6 -0.4 1.2 -0.6 1.9 c -0.1 0.2 -0.1 0.4 -0.2 0.5 c 0 0.1 0 0.1 0 0.2 c -0.2 0.7 -0.4 1.4 -0.6 2.2 c 0 0.1 -0.1 0.2 -0.1 0.3 c 0 0 0 0 0 0 c -0.2 0.8 -0.4 1.7 -0.5 2.6 c 0 0 0 0 0 0 c -0.1 0.4 -0.1 0.8 -0.2 1.2 c -0.1 0.5 -0.1 0.9 -0.2 1.4 c 0 0 0 0 0 0 c -0.1 0.7 -0.2 1.4 -0.2 2.1 c 0 0.2 0 0.4 -0.1 0.5 c 0 0 0 0 0 0 c -0.1 0.9 -0.1 1.8 -0.2 2.7 c 0 0 0 0 0 0 c 0 0.3 0 0.6 0 0.9 c 0 0.6 0 1.3 0 1.9 c 0 0.1 0 0.1 0 0.2 c 0 0.7 0 1.4 0 2.1 c 0 0.2 0 0.5 0 0.7 c 0 0.4 0 0.9 0 1.3 c 0 0.3 0 0.5 0 0.8 c 0 0.4 0 0.8 0 1.2 c 0 0.3 0 0.5 0 0.8 c 0 0.4 0 0.7 0 1.1 c 0 0.1 0 0.2 0 0.3 c 0 0.1 0 0.2 0 0.3 c 0 0.9 0.1 1.8 0.1 2.6 c 0 0.1 0 0.2 0 0.3 c 0 0.8 0.1 1.6 0.1 2.4 c 0 0.1 0 0.1 0 0.2 c 0 0 0 0.1 0 0.1 c 0 0.6 0.1 1.2 0.1 1.8 c 0 0.2 0 0.3 0 0.5 c 0 0.4 0.1 0.9 0.1 1.3 c 0 0.1 0 0.2 0 0.3 c 0 0.1 0 0.2 0 0.3 c 0 0.3 0.1 0.5 0.1 0.8 c 0 0.2 0 0.4 0.1 0.6 c 0 0.3 0.1 0.5 0.1 0.8 c 0 0.1 0 0.3 0 0.4 c 0 0 0 0.1 0 0.1 c 0.1 0.6 0.2 1.3 0.3 1.9 c 0 0.1 0 0.1 0 0.2 c 0 0.1 0 0.1 0 0.2 c 0.1 0.5 0.2 0.9 0.2 1.3 c 0 0 0 0.1 0 0.1 c 0 0 0 0.1 0 0.1 c 0 0 0 0 0 0 l 46.2 -26.9 c 0 -0.1 0 -0.1 0 -0.2 c -0.1 -0.4 -0.2 -0.9 -0.2 -1.4 c 0 -0.1 0 -0.2 -0.1 -0.4 c -0.1 -0.6 -0.2 -1.2 -0.3 -1.9 c 0 -0.2 0 -0.3 -0.1 -0.5 c 0 -0.2 -0.1 -0.5 -0.1 -0.8 c 0 -0.2 0 -0.4 -0.1 -0.6 c 0 -0.3 -0.1 -0.5 -0.1 -0.8 c 0 -0.2 0 -0.4 -0.1 -0.6 c 0 -0.4 -0.1 -0.9 -0.1 -1.3 c 0 -0.1 0 -0.3 0 -0.4 c 0 -0.6 -0.1 -1.2 -0.1 -1.8 c 0 -0.1 0 -0.2 0 -0.3 c 0 -0.8 -0.1 -1.6 -0.1 -2.4 c 0 -0.1 0 -0.2 0 -0.3 c 0 -0.8 -0.1 -1.7 -0.1 -2.6 c 0 -0.2 0 -0.4 0 -0.6 c 0 -0.4 0 -0.7 0 -1.1 c 0 -0.3 0 -0.5 0 -0.8 c 0 -0.4 0 -0.8 0 -1.2 c 0 -0.3 0 -0.5 0 -0.8 c 0 -0.4 0 -0.9 0 -1.3 c 0 -0.2 0 -0.5 0 -0.7 c 0 -0.7 0 -1.4 0 -2.1 c 0 -0.7 0 -1.4 0 -2.1 c 0 -0.3 0 -0.6 0 -0.8 c 0 -0.9 0.1 -1.9 0.2 -2.8 c 0 -0.2 0 -0.3 0 -0.5 c 0.1 -0.7 0.1 -1.5 0.2 -2.2 c 0.1 -0.5 0.1 -0.9 0.2 -1.4 c 0.1 -0.4 0.1 -0.8 0.2 -1.2 c 0.2 -0.9 0.3 -1.7 0.5 -2.6 c 0 -0.1 0.1 -0.3 0.1 -0.4 c 0.2 -0.7 0.4 -1.4 0.6 -2.1 c 0.1 -0.2 0.1 -0.5 0.2 -0.7 c 0.2 -0.6 0.4 -1.3 0.6 -1.9 c 0.1 -0.3 0.2 -0.5 0.3 -0.8 c 0.3 -0.7 0.6 -1.5 0.9 -2.2 c 0.1 -0.2 0.2 -0.4 0.3 -0.6 c 0.1 -0.3 0.3 -0.5 0.4 -0.8 c 0.2 -0.4 0.4 -0.7 0.6 -1.1 c 0.2 -0.3 0.3 -0.5 0.5 -0.8 c 0.2 -0.3 0.4 -0.6 0.6 -0.9 c 0.5 -0.7 1 -1.4 1.5 -2.1 c 0 0 0 0 0 0 c 0.5 -0.7 1.1 -1.3 1.7 -2 c 0.2 -0.2 0.4 -0.4 0.5 -0.5 c 0.4 -0.5 0.9 -0.9 1.4 -1.3 c 0.2 -0.2 0.4 -0.3 0.6 -0.5 c 0.6 -0.6 1.3 -1.1 2 -1.6 c 0.7 -0.5 1.4 -0.9 2.1 -1.3 L 438.8 366.5 z" stroke-linecap="round" />
</g>
		<g transform="matrix(1 0 0 1 30.05 -32.2)"  >
<path style="stroke: rgb(0,0,0); stroke-width: 0.1; stroke-dasharray: none; stroke-linecap: butt; stroke-dashoffset: 0; stroke-linejoin: miter; stroke-miterlimit: 4; fill: rgb(255,197,0); fill-rule: nonzero; opacity: 1;"  transform=" translate(-530.05, -467.8)" d="M 556.4 453 l -46.2 26.9 c -2 1.1 -4.2 2.1 -6.5 2.7 l 46.2 -26.9 C 552.2 455.1 554.4 454.2 556.4 453 z" stroke-linecap="round" />
</g>
		<g transform="matrix(1 0 0 1 27.6 -31.15)" clip-path="url(#CLIPPATH_30)"  >
<clipPath id="CLIPPATH_30" >
	<path transform="matrix(1 0 0 1 2.45 -1.05) translate(-530.05, -467.8)" d="M 556.4 453 l -46.2 26.9 c -2 1.1 -4.2 2.1 -6.5 2.7 l 46.2 -26.9 C 552.2 455.1 554.4 454.2 556.4 453 z" stroke-linecap="round" />
</clipPath>
<path style="stroke: rgb(45,45,45); stroke-width: 6; stroke-dasharray: none; stroke-linecap: butt; stroke-dashoffset: 0; stroke-linejoin: round; stroke-miterlimit: 10; fill: rgb(255,197,0); fill-rule: nonzero; opacity: 1;"  transform=" translate(-527.6, -468.85)" d="M 503.6 482.6 l 46.2 -26.9 c 0.6 -0.2 1.2 -0.4 1.8 -0.6 l -46.2 26.9 C 504.8 482.3 504.2 482.5 503.6 482.6" stroke-linecap="round" />
</g>
		<g transform="matrix(1 0 0 1 30.8 -32.45)" clip-path="url(#CLIPPATH_31)"  >
<clipPath id="CLIPPATH_31" >
	<path transform="matrix(1 0 0 1 -0.75 0.25) translate(-530.05, -467.8)" d="M 556.4 453 l -46.2 26.9 c -2 1.1 -4.2 2.1 -6.5 2.7 l 46.2 -26.9 C 552.2 455.1 554.4 454.2 556.4 453 z" stroke-linecap="round" />
</clipPath>
<path style="stroke: rgb(45,45,45); stroke-width: 6; stroke-dasharray: none; stroke-linecap: butt; stroke-dashoffset: 0; stroke-linejoin: round; stroke-miterlimit: 10; fill: rgb(255,197,0); fill-rule: nonzero; opacity: 1;"  transform=" translate(-530.8, -467.55)" d="M 505.3 482.1 l 46.2 -26.9 c 1.7 -0.6 3.3 -1.3 4.8 -2.2 l -46.2 26.9 C 508.6 480.7 507 481.5 505.3 482.1" stroke-linecap="round" />
</g>
		<g transform="matrix(1 0 0 1 30.05 -32.2)"  >
<path style="stroke: rgb(45,45,45); stroke-width: 6; stroke-dasharray: none; stroke-linecap: butt; stroke-dashoffset: 0; stroke-linejoin: round; stroke-miterlimit: 10; fill: none; fill-rule: nonzero; opacity: 1;"  transform=" translate(-530.05, -467.8)" d="M 556.4 453 l -46.2 26.9 c -2 1.1 -4.2 2.1 -6.5 2.7 l 46.2 -26.9 C 552.2 455.1 554.4 454.2 556.4 453 z" stroke-linecap="round" />
</g>
		<g transform="matrix(1 0 0 1 17.6 -97.4)"  >
<path style="stroke: rgb(45,45,45); stroke-width: 6; stroke-dasharray: none; stroke-linecap: butt; stroke-dashoffset: 0; stroke-linejoin: round; stroke-miterlimit: 10; fill: rgb(255,125,112); fill-rule: nonzero; opacity: 1;"  transform=" translate(-517.6, -402.6)" d="M 656.1 464.7 c 0 -0.1 0 -0.2 0 -0.4 c 0 -1.5 0 -3 -0.1 -4.4 c 0 -0.2 0 -0.4 0 -0.6 c 0 -0.2 0 -0.3 0 -0.5 c 0 -1.5 -0.1 -3 -0.2 -4.5 c 0 0 0 -0.1 0 -0.1 c 0 -0.1 0 -0.3 0 -0.4 c -0.1 -1.3 -0.2 -2.7 -0.3 -4 c 0 -0.2 0 -0.4 0 -0.6 c 0 -0.1 0 -0.3 0 -0.4 c -0.1 -1.5 -0.3 -2.9 -0.5 -4.4 c 0 -0.1 0 -0.1 0 -0.2 c 0 -0.2 -0.1 -0.4 -0.1 -0.5 c -0.2 -1.3 -0.3 -2.5 -0.5 -3.8 c 0 -0.2 -0.1 -0.4 -0.1 -0.6 c 0 -0.1 -0.1 -0.3 -0.1 -0.4 c -0.2 -1.5 -0.5 -2.9 -0.8 -4.4 c 0 -0.1 0 -0.1 0 -0.2 c 0 -0.2 -0.1 -0.4 -0.1 -0.5 c -0.2 -1.3 -0.5 -2.6 -0.8 -3.9 c 0 -0.2 -0.1 -0.4 -0.1 -0.6 c 0 -0.1 -0.1 -0.3 -0.1 -0.4 c -0.3 -1.5 -0.7 -3 -1 -4.5 c 0 -0.1 0 -0.1 0 -0.2 c 0 -0.2 -0.1 -0.4 -0.1 -0.5 c -0.3 -1.3 -0.7 -2.6 -1 -3.9 c -0.1 -0.2 -0.1 -0.4 -0.2 -0.6 c 0 -0.1 -0.1 -0.3 -0.1 -0.4 c -0.4 -1.5 -0.9 -3 -1.3 -4.5 c 0 -0.1 0 -0.1 -0.1 -0.2 c -0.1 -0.2 -0.1 -0.4 -0.2 -0.6 c -0.4 -1.3 -0.8 -2.6 -1.2 -3.8 c -0.1 -0.2 -0.1 -0.4 -0.2 -0.7 c -0.1 -0.2 -0.1 -0.3 -0.2 -0.5 c -0.5 -1.5 -1 -2.9 -1.5 -4.4 c 0 0 0 -0.1 0 -0.1 c 0 -0.1 -0.1 -0.2 -0.1 -0.4 c -0.5 -1.3 -1 -2.6 -1.5 -4 c -0.1 -0.2 -0.1 -0.4 -0.2 -0.6 c -0.1 -0.2 -0.2 -0.4 -0.3 -0.6 c -0.5 -1.2 -1 -2.4 -1.5 -3.6 c -0.1 -0.2 -0.2 -0.4 -0.2 -0.6 c 0 -0.1 -0.1 -0.1 -0.1 -0.2 c -0.6 -1.5 -1.2 -2.9 -1.9 -4.4 c -0.1 -0.1 -0.1 -0.3 -0.2 -0.4 c -0.1 -0.2 -0.2 -0.5 -0.3 -0.7 c -0.6 -1.3 -1.1 -2.5 -1.7 -3.8 c -0.1 -0.2 -0.2 -0.5 -0.3 -0.7 c 0 -0.1 -0.1 -0.2 -0.2 -0.3 c -0.8 -1.6 -1.6 -3.3 -2.4 -4.9 c -0.1 -0.1 -0.1 -0.3 -0.2 -0.4 c -0.2 -0.4 -0.4 -0.9 -0.7 -1.3 c -0.3 -0.5 -0.5 -1 -0.8 -1.5 c -0.3 -0.7 -0.7 -1.3 -1 -2 c -0.2 -0.5 -0.5 -1 -0.8 -1.4 c -0.1 -0.1 -0.1 -0.3 -0.2 -0.4 c -0.1 -0.2 -0.2 -0.4 -0.4 -0.7 c -0.7 -1.3 -1.4 -2.5 -2.1 -3.8 c -0.2 -0.4 -0.4 -0.8 -0.6 -1.2 c -0.9 -1.5 -1.7 -3.1 -2.6 -4.6 c 0 -0.1 -0.1 -0.1 -0.1 -0.2 c -0.4 -0.7 -0.8 -1.4 -1.3 -2.1 c -0.2 -0.4 -0.5 -0.8 -0.7 -1.2 c -0.7 -1.2 -1.4 -2.3 -2.1 -3.5 c -1.3 -2.1 -2.7 -4.3 -4.1 -6.4 c -0.3 -0.5 -0.7 -1 -1 -1.5 c -0.3 -0.5 -0.6 -1 -1 -1.5 c -1.1 -1.6 -2.1 -3.1 -3.2 -4.7 c -0.1 -0.2 -0.2 -0.3 -0.3 -0.5 c -0.9 -1.3 -1.8 -2.6 -2.8 -3.8 c -0.3 -0.5 -0.7 -0.9 -1.1 -1.4 c -0.7 -0.9 -1.4 -1.9 -2.2 -2.8 c -0.5 -0.6 -1 -1.3 -1.5 -2 c -0.5 -0.6 -1 -1.2 -1.5 -1.8 c -0.6 -0.8 -1.2 -1.5 -1.9 -2.3 c -0.4 -0.5 -0.7 -0.9 -1.1 -1.4 c -0.8 -0.9 -1.5 -1.8 -2.3 -2.7 c -0.5 -0.6 -1.1 -1.3 -1.6 -1.9 c -0.2 -0.2 -0.4 -0.5 -0.6 -0.7 c -1.3 -1.5 -2.7 -3 -4 -4.5 c -0.2 -0.2 -0.5 -0.5 -0.7 -0.8 c 0 0 -0.1 -0.1 -0.1 -0.1 c -1.7 -1.9 -3.5 -3.7 -5.2 -5.5 c -0.1 -0.1 -0.2 -0.2 -0.3 -0.3 c -0.7 -0.7 -1.5 -1.5 -2.2 -2.2 c -1.1 -1.1 -2.2 -2.2 -3.3 -3.2 c -0.1 -0.1 -0.3 -0.3 -0.4 -0.4 c -1 -1 -2.1 -1.9 -3.1 -2.9 c -0.9 -0.8 -1.8 -1.7 -2.7 -2.5 c -0.2 -0.2 -0.4 -0.4 -0.6 -0.6 c -0.2 -0.2 -0.5 -0.4 -0.8 -0.7 c -1.8 -1.6 -3.6 -3.2 -5.5 -4.8 c -0.1 -0.1 -0.3 -0.2 -0.4 -0.4 c -0.2 -0.2 -0.4 -0.4 -0.7 -0.5 c -2.1 -1.7 -4.2 -3.4 -6.3 -5.1 c 0 0 0 0 0 0 c 0 0 -0.1 -0.1 -0.1 -0.1 c -2.1 -1.7 -4.3 -3.3 -6.4 -4.9 c -0.3 -0.2 -0.5 -0.4 -0.8 -0.6 c -0.2 -0.1 -0.3 -0.3 -0.5 -0.4 c -1.9 -1.4 -3.9 -2.8 -5.8 -4.2 c -0.4 -0.3 -0.8 -0.6 -1.2 -0.8 c -0.5 -0.3 -0.9 -0.6 -1.3 -0.9 c -1.7 -1.2 -3.4 -2.3 -5.2 -3.5 c -0.4 -0.2 -0.7 -0.5 -1.1 -0.7 c -0.9 -0.6 -1.8 -1.2 -2.7 -1.8 c -1.2 -0.8 -2.4 -1.5 -3.6 -2.2 c -0.3 -0.2 -0.6 -0.4 -0.9 -0.5 c -1.8 -1.1 -3.5 -2.1 -5.3 -3.2 c -0.8 -0.5 -1.6 -0.9 -2.4 -1.4 c -1.1 -0.7 -2.3 -1.3 -3.4 -1.9 c -0.4 -0.2 -0.7 -0.4 -1.1 -0.6 c -0.5 -0.3 -1.1 -0.6 -1.6 -0.9 c -0.2 -0.1 -0.4 -0.2 -0.6 -0.3 c -0.6 -0.3 -1.3 -0.7 -1.9 -1 c -0.6 -0.3 -1.2 -0.6 -1.7 -0.9 c -0.6 -0.3 -1.3 -0.6 -1.9 -0.9 c -0.4 -0.2 -0.8 -0.4 -1.2 -0.6 c -0.2 -0.1 -0.3 -0.2 -0.5 -0.2 c -0.6 -0.3 -1.1 -0.5 -1.7 -0.8 c -0.6 -0.3 -1.2 -0.6 -1.8 -0.9 c -0.5 -0.3 -1.1 -0.5 -1.6 -0.8 c -0.4 -0.2 -0.8 -0.4 -1.2 -0.5 c -0.2 -0.1 -0.4 -0.2 -0.6 -0.3 c -0.5 -0.2 -1 -0.4 -1.5 -0.7 c -0.6 -0.3 -1.2 -0.5 -1.8 -0.8 c -0.5 -0.2 -1 -0.4 -1.5 -0.6 c -0.3 -0.1 -0.7 -0.3 -1 -0.4 c -0.3 -0.1 -0.6 -0.2 -0.8 -0.3 c -0.5 -0.2 -0.9 -0.4 -1.4 -0.5 c -0.6 -0.2 -1.2 -0.5 -1.8 -0.7 c -0.5 -0.2 -0.9 -0.3 -1.4 -0.5 c -0.2 -0.1 -0.4 -0.2 -0.7 -0.2 c -0.4 -0.1 -0.8 -0.3 -1.2 -0.4 c -0.4 -0.1 -0.8 -0.3 -1.3 -0.4 c -0.6 -0.2 -1.3 -0.4 -1.9 -0.6 c -0.4 -0.1 -0.8 -0.2 -1.1 -0.4 c -0.1 0 -0.2 -0.1 -0.3 -0.1 c -0.7 -0.2 -1.4 -0.4 -2 -0.6 c -0.2 -0.1 -0.5 -0.1 -0.7 -0.2 c -1 -0.3 -1.9 -0.5 -2.8 -0.8 c 0 0 -0.1 0 -0.1 0 c -0.3 -0.1 -0.5 -0.1 -0.8 -0.2 c -0.7 -0.2 -1.4 -0.3 -2.1 -0.5 c -0.4 -0.1 -0.7 -0.2 -1.1 -0.2 c -0.5 -0.1 -0.9 -0.2 -1.4 -0.3 c -0.2 0 -0.3 -0.1 -0.4 -0.1 c -0.4 -0.1 -0.8 -0.1 -1.2 -0.2 c -0.6 -0.1 -1.1 -0.2 -1.7 -0.3 c -0.4 -0.1 -0.8 -0.1 -1.2 -0.2 c -0.3 0 -0.6 -0.1 -0.9 -0.1 c -0.2 0 -0.5 -0.1 -0.7 -0.1 c -0.4 -0.1 -0.9 -0.1 -1.3 -0.2 c -0.5 -0.1 -1 -0.1 -1.5 -0.2 c -0.4 0 -0.8 -0.1 -1.3 -0.1 c -0.2 0 -0.4 0 -0.6 -0.1 c -0.3 0 -0.5 0 -0.8 0 c -0.5 0 -0.9 -0.1 -1.4 -0.1 c -0.5 0 -0.9 0 -1.4 0 c -0.5 0 -0.9 0 -1.4 0 c -0.2 0 -0.4 0 -0.6 0 c -0.2 0 -0.5 0 -0.7 0 c -0.5 0 -1.1 0 -1.6 0 c -0.4 0 -0.8 0 -1.2 0.1 c -0.5 0 -1.1 0.1 -1.6 0.1 c -0.2 0 -0.5 0 -0.7 0 c -0.1 0 -0.3 0 -0.4 0.1 c -0.8 0.1 -1.5 0.2 -2.3 0.3 c -0.3 0 -0.5 0.1 -0.8 0.1 c -1 0.1 -2 0.3 -2.9 0.5 c 0 0 -0.1 0 -0.1 0 c -0.7 0.1 -1.4 0.3 -2.2 0.5 c -0.2 0 -0.4 0.1 -0.5 0.1 c -0.6 0.1 -1.2 0.3 -1.8 0.5 c -0.3 0.1 -0.5 0.1 -0.8 0.2 c -0.5 0.2 -1 0.3 -1.5 0.5 c -0.3 0.1 -0.5 0.2 -0.8 0.2 c -0.1 0 -0.3 0.1 -0.4 0.1 c -0.3 0.1 -0.6 0.2 -0.9 0.4 c -0.3 0.1 -0.6 0.2 -1 0.4 c -0.5 0.2 -0.9 0.4 -1.4 0.6 c -0.3 0.1 -0.6 0.2 -0.9 0.4 c -0.5 0.2 -1 0.5 -1.5 0.7 c -0.2 0.1 -0.5 0.2 -0.7 0.3 c -0.7 0.4 -1.5 0.7 -2.2 1.1 c -0.4 0.2 -0.8 0.5 -1.2 0.7 l -46.2 26.9 c 0.4 -0.2 0.8 -0.5 1.2 -0.7 c 0.7 -0.4 1.4 -0.8 2.2 -1.1 c 0.2 -0.1 0.5 -0.2 0.7 -0.3 c 0.5 -0.2 1 -0.5 1.5 -0.7 c 0.3 -0.1 0.6 -0.2 0.9 -0.4 c 0.5 -0.2 0.9 -0.4 1.4 -0.6 c 0.3 -0.1 0.6 -0.2 1 -0.4 c 0.5 -0.2 0.9 -0.3 1.4 -0.5 c 0.3 -0.1 0.5 -0.2 0.8 -0.2 c 0.5 -0.2 1 -0.3 1.5 -0.5 c 0.3 -0.1 0.5 -0.1 0.8 -0.2 c 0.6 -0.2 1.2 -0.3 1.8 -0.5 c 0.2 0 0.3 -0.1 0.5 -0.1 c 0.8 -0.2 1.5 -0.3 2.3 -0.5 c 1 -0.2 2 -0.4 2.9 -0.5 c 0.3 0 0.5 -0.1 0.8 -0.1 c 0.7 -0.1 1.5 -0.2 2.3 -0.3 c 0.4 0 0.8 -0.1 1.2 -0.1 c 0.5 0 1.1 -0.1 1.6 -0.1 c 0.4 0 0.8 0 1.2 -0.1 c 0.5 0 1.1 0 1.6 0 c 0.4 0 0.9 0 1.3 0 c 0.5 0 0.9 0 1.4 0 c 0.5 0 0.9 0 1.4 0 c 0.5 0 0.9 0 1.4 0.1 c 0.5 0 1 0.1 1.5 0.1 c 0.4 0 0.8 0.1 1.3 0.1 c 0.5 0 1 0.1 1.5 0.2 c 0.4 0 0.9 0.1 1.3 0.2 c 0.5 0.1 1.1 0.1 1.6 0.2 c 0.4 0.1 0.8 0.1 1.2 0.2 c 0.6 0.1 1.1 0.2 1.7 0.3 c 0.4 0.1 0.8 0.1 1.2 0.2 c 0.6 0.1 1.2 0.2 1.8 0.4 c 0.4 0.1 0.7 0.1 1.1 0.2 c 0.7 0.2 1.4 0.3 2.1 0.5 c 0.3 0.1 0.5 0.1 0.8 0.2 c 1 0.2 2 0.5 3 0.8 c 0.2 0.1 0.5 0.1 0.7 0.2 c 0.8 0.2 1.5 0.4 2.3 0.7 c 0.4 0.1 0.7 0.2 1.1 0.4 c 0.6 0.2 1.3 0.4 1.9 0.6 c 0.4 0.1 0.8 0.3 1.2 0.4 c 0.6 0.2 1.2 0.4 1.9 0.6 c 0.4 0.2 0.9 0.3 1.4 0.5 c 0.6 0.2 1.2 0.5 1.8 0.7 c 0.5 0.2 0.9 0.4 1.4 0.5 c 0.6 0.2 1.2 0.5 1.8 0.7 c 0.5 0.2 1 0.4 1.5 0.6 c 0.6 0.3 1.2 0.5 1.8 0.8 c 0.5 0.2 1 0.4 1.5 0.6 c 0.6 0.3 1.2 0.5 1.8 0.8 c 0.5 0.2 1.1 0.5 1.6 0.8 c 0.6 0.3 1.2 0.6 1.8 0.9 c 0.5 0.3 1.1 0.5 1.7 0.8 c 0.6 0.3 1.2 0.6 1.7 0.9 c 0.6 0.3 1.2 0.6 1.9 0.9 c 0.6 0.3 1.2 0.6 1.7 0.9 c 0.6 0.3 1.3 0.7 1.9 1 c 0.7 0.4 1.5 0.8 2.2 1.2 c 0.4 0.2 0.7 0.4 1.1 0.6 c 1.1 0.6 2.3 1.3 3.4 1.9 c 2.6 1.5 5.2 3 7.7 4.6 c 0.3 0.2 0.6 0.4 0.9 0.5 c 2.1 1.3 4.3 2.7 6.4 4 c 0.4 0.2 0.7 0.5 1.1 0.7 c 2.2 1.4 4.4 2.9 6.5 4.4 c 0.4 0.3 0.8 0.6 1.2 0.8 c 2.1 1.5 4.3 3 6.4 4.6 c 0.3 0.2 0.5 0.4 0.8 0.6 c 2.2 1.6 4.3 3.2 6.4 4.9 c 0 0 0.1 0.1 0.1 0.1 c 2.1 1.7 4.3 3.4 6.3 5.1 c 0.2 0.2 0.4 0.4 0.7 0.5 c 2 1.7 4 3.4 5.9 5.1 c 0.3 0.2 0.5 0.4 0.8 0.7 c 1.1 1 2.2 2.1 3.4 3.1 c 1 1 2.1 1.9 3.1 2.9 c 1.3 1.2 2.5 2.4 3.7 3.7 c 0.7 0.7 1.5 1.4 2.2 2.2 c 1.9 1.9 3.8 3.9 5.6 5.8 c 0.2 0.2 0.4 0.5 0.7 0.7 c 1.6 1.7 3.1 3.4 4.6 5.2 c 0.5 0.6 1.1 1.3 1.6 1.9 c 1.2 1.4 2.3 2.7 3.4 4.1 c 0.6 0.8 1.2 1.5 1.9 2.3 c 1 1.3 2 2.5 3 3.8 c 0.7 0.9 1.4 1.9 2.2 2.8 c 1.3 1.7 2.6 3.5 3.8 5.2 c 0.1 0.2 0.2 0.3 0.3 0.5 c 1.4 2 2.8 4.1 4.2 6.2 c 0.3 0.5 0.7 1 1 1.5 c 1.4 2.1 2.7 4.2 4.1 6.4 c 0.7 1.2 1.4 2.3 2.1 3.5 c 0.2 0.4 0.4 0.8 0.7 1.1 c 0.5 0.8 0.9 1.6 1.4 2.3 c 0.9 1.5 1.8 3.1 2.6 4.6 c 0.2 0.4 0.4 0.8 0.6 1.2 c 0.7 1.3 1.4 2.5 2.1 3.8 c 0.2 0.4 0.4 0.7 0.6 1.1 c 0.3 0.5 0.5 1 0.7 1.4 c 0.3 0.7 0.7 1.3 1 2 c 0.3 0.5 0.5 1 0.8 1.5 c 0.3 0.6 0.6 1.1 0.9 1.7 c 0.8 1.6 1.6 3.3 2.4 4.9 c 0.2 0.3 0.3 0.7 0.5 1 c 0.6 1.3 1.2 2.5 1.7 3.8 c 0.2 0.4 0.3 0.7 0.5 1.1 c 0.6 1.5 1.3 2.9 1.9 4.4 c 0.1 0.3 0.2 0.5 0.3 0.8 c 0.5 1.2 1 2.4 1.5 3.6 c 0.2 0.4 0.3 0.8 0.5 1.2 c 0.5 1.3 1 2.6 1.5 4 c 0.1 0.1 0.1 0.3 0.2 0.4 c 0.5 1.5 1 2.9 1.5 4.4 c 0.1 0.4 0.3 0.8 0.4 1.1 c 0.4 1.3 0.8 2.6 1.2 3.8 c 0.1 0.2 0.2 0.5 0.2 0.7 c 0.5 1.5 0.9 3 1.3 4.5 c 0.1 0.4 0.2 0.7 0.3 1.1 c 0.4 1.3 0.7 2.6 1 3.9 c 0.1 0.2 0.1 0.5 0.2 0.7 c 0.4 1.5 0.7 3 1 4.5 c 0.1 0.4 0.2 0.7 0.2 1.1 c 0.3 1.3 0.5 2.6 0.8 3.9 c 0 0.2 0.1 0.5 0.1 0.7 c 0.3 1.5 0.5 2.9 0.8 4.4 c 0.1 0.4 0.1 0.7 0.2 1.1 c 0.2 1.3 0.4 2.5 0.5 3.8 c 0 0.2 0.1 0.5 0.1 0.7 c 0.2 1.5 0.3 2.9 0.5 4.4 c 0 0.3 0.1 0.7 0.1 1 c 0.1 1.3 0.2 2.7 0.3 4 c 0 0.2 0 0.4 0 0.6 c 0.1 1.5 0.2 3 0.2 4.5 c 0 0.3 0 0.7 0 1 c 0 1.5 0.1 3 0.1 4.4 c 0 0.2 0 0.5 0 0.7 c 0 1.8 -0.1 3.6 -0.1 5.4 c 0 0.2 0 0.3 0 0.5 c -0.1 1.8 -0.2 3.5 -0.3 5.2 c 0 0.3 0 0.6 -0.1 0.8 c -0.1 1.7 -0.3 3.3 -0.5 4.9 c -0.1 0.4 -0.1 0.9 -0.2 1.3 c -0.1 0.4 -0.1 0.9 -0.2 1.3 c -0.1 0.6 -0.2 1.1 -0.3 1.7 c -0.1 0.4 -0.1 0.8 -0.2 1.3 c -0.1 0.5 -0.2 1.1 -0.3 1.6 c -0.1 0.4 -0.2 0.9 -0.3 1.3 c -0.1 0.5 -0.2 1 -0.3 1.5 c -0.1 0.4 -0.2 0.9 -0.3 1.3 c -0.1 0.5 -0.2 0.9 -0.3 1.4 c -0.1 0.5 -0.2 1 -0.4 1.5 c -0.1 0.4 -0.2 0.9 -0.4 1.3 c -0.1 0.5 -0.3 1 -0.4 1.5 c -0.1 0.4 -0.2 0.8 -0.3 1.2 c -0.2 0.6 -0.4 1.2 -0.5 1.7 c -0.1 0.4 -0.3 0.8 -0.4 1.2 c -0.2 0.6 -0.4 1.1 -0.6 1.6 c -0.1 0.4 -0.3 0.7 -0.4 1.1 c -0.3 0.8 -0.6 1.5 -0.9 2.3 c -0.1 0.2 -0.2 0.5 -0.3 0.7 c -0.4 1 -0.8 1.9 -1.3 2.9 c -0.1 0.1 -0.1 0.3 -0.2 0.4 c -0.5 1.1 -1.1 2.2 -1.7 3.3 c -0.1 0.2 -0.2 0.3 -0.3 0.5 c -0.6 1.1 -1.3 2.2 -1.9 3.2 c -0.1 0.2 -0.3 0.4 -0.4 0.7 c -0.6 1 -1.3 2 -2 2.9 c -0.1 0.1 -0.1 0.1 -0.2 0.2 c -0.6 0.9 -1.3 1.7 -2 2.6 c -0.2 0.2 -0.3 0.4 -0.5 0.6 c -0.7 0.9 -1.5 1.7 -2.2 2.6 c -0.1 0.1 -0.3 0.3 -0.4 0.4 c -0.7 0.7 -1.4 1.5 -2.1 2.2 c -0.2 0.2 -0.3 0.3 -0.5 0.5 c -0.8 0.8 -1.7 1.5 -2.5 2.3 c -0.2 0.2 -0.4 0.3 -0.6 0.5 c -0.8 0.7 -1.6 1.3 -2.4 1.9 c -0.1 0.1 -0.2 0.2 -0.4 0.3 c -0.9 0.7 -1.9 1.3 -2.8 2 c -0.2 0.1 -0.5 0.3 -0.7 0.4 c -1 0.6 -2 1.3 -3 1.9 c 0 0 0 0 0 0 l 0 0 c 0 0 0 0 0 0 l 46.2 -26.9 c 1 -0.6 2 -1.2 3 -1.9 c 0.2 -0.1 0.5 -0.3 0.7 -0.4 c 1 -0.6 1.9 -1.3 2.8 -2 c 0.1 -0.1 0.2 -0.2 0.4 -0.3 c 0.8 -0.6 1.6 -1.3 2.4 -1.9 c 0.2 -0.2 0.4 -0.3 0.6 -0.5 c 0.9 -0.7 1.7 -1.5 2.5 -2.3 c 0.2 -0.2 0.3 -0.3 0.5 -0.5 c 0.7 -0.7 1.4 -1.4 2.1 -2.2 c 0.1 -0.1 0.3 -0.3 0.4 -0.4 c 0.8 -0.8 1.5 -1.7 2.2 -2.6 c 0.2 -0.2 0.3 -0.4 0.5 -0.6 c 0.7 -0.8 1.3 -1.7 2 -2.6 c 0.1 -0.1 0.1 -0.1 0.2 -0.2 c 0.7 -0.9 1.3 -1.9 2 -2.9 c 0.1 -0.1 0.2 -0.2 0.2 -0.3 c 0.1 -0.1 0.1 -0.2 0.2 -0.3 c 0.7 -1.1 1.3 -2.1 1.9 -3.2 c 0.1 -0.2 0.2 -0.3 0.3 -0.5 c 0.6 -1.1 1.1 -2.2 1.7 -3.3 c 0 -0.1 0.1 -0.2 0.1 -0.3 c 0 0 0 -0.1 0.1 -0.1 c 0.4 -0.9 0.9 -1.9 1.3 -2.9 c 0.1 -0.2 0.2 -0.5 0.3 -0.7 c 0.3 -0.7 0.6 -1.5 0.9 -2.3 c 0.1 -0.2 0.1 -0.3 0.2 -0.5 c 0.1 -0.2 0.1 -0.4 0.2 -0.6 c 0.2 -0.5 0.4 -1.1 0.6 -1.6 c 0.1 -0.4 0.3 -0.8 0.4 -1.2 c 0.2 -0.6 0.4 -1.1 0.5 -1.7 c 0.1 -0.3 0.2 -0.5 0.2 -0.8 c 0 -0.1 0.1 -0.2 0.1 -0.4 c 0.1 -0.5 0.3 -1 0.4 -1.5 c 0.1 -0.4 0.2 -0.9 0.4 -1.3 c 0.1 -0.5 0.2 -1 0.4 -1.5 c 0.1 -0.3 0.2 -0.7 0.3 -1 c 0 -0.1 0 -0.2 0.1 -0.3 c 0.1 -0.4 0.2 -0.9 0.3 -1.3 c 0.1 -0.5 0.2 -1 0.3 -1.6 c 0.1 -0.4 0.2 -0.9 0.2 -1.3 c 0.1 -0.4 0.1 -0.7 0.2 -1.1 c 0 -0.2 0 -0.3 0.1 -0.5 c 0.1 -0.4 0.1 -0.8 0.2 -1.3 c 0.1 -0.6 0.2 -1.1 0.3 -1.7 c 0.1 -0.4 0.1 -0.9 0.2 -1.3 c 0 -0.3 0.1 -0.6 0.1 -0.9 c 0 -0.1 0 -0.3 0 -0.4 c 0.2 -1.6 0.4 -3.3 0.5 -4.9 c 0 -0.1 0 -0.2 0 -0.3 c 0 -0.2 0 -0.3 0 -0.5 c 0.1 -1.7 0.2 -3.4 0.3 -5.2 c 0 0 0 -0.1 0 -0.1 c 0 -0.1 0 -0.2 0 -0.4 c 0.1 -1.8 0.1 -3.6 0.1 -5.4 C 656.1 465 656.1 464.9 656.1 464.7 z" stroke-linecap="round" />
</g>
		<g transform="matrix(1 0 0 1 -23.25 -55.38)"  >
<path style="stroke: rgb(45,45,45); stroke-width: 6; stroke-dasharray: none; stroke-linecap: butt; stroke-dashoffset: 0; stroke-linejoin: round; stroke-miterlimit: 10; fill: rgb(255,197,0); fill-rule: nonzero; opacity: 1;"  transform=" translate(-476.75, -444.62)" d="M 574.3 381.4 c 23.8 38.6 35.6 75.2 35.5 109.8 c -0.1 45.8 -18.3 73.9 -54.5 84.3 l -21.3 5.7 c -10.8 3.2 -19 7.9 -24.7 14 c -5.6 6.2 -8.4 15.9 -8.5 29.2 l -66.5 -38.4 c -1.5 -9 -2.2 -18.8 -2.2 -29.5 c 0.1 -35.9 14.3 -57.9 42.7 -66 l 28.6 -7.9 c 13.4 -3.8 20.2 -14.9 20.2 -33.3 c 0 -13.7 -4.2 -27.8 -12.7 -42.4 c -8.5 -14.6 -20.8 -26.5 -36.8 -35.7 c -15.6 -9 -28.1 -10.1 -37.5 -3.3 c -9.3 6.8 -14 18.2 -14.1 34 c 0 10.7 0.5 18.9 1.6 24.7 l -78.2 -48.4 c -1.5 -9 -2.2 -18.4 -2.2 -28.2 c 0.1 -38.9 12 -64.9 35.7 -78 c 23.7 -13.1 55.3 -8.2 94.8 14.5 C 517.3 311.2 550.6 342.9 574.3 381.4 z" stroke-linecap="round" />
</g>
</g>
</g>
<g transform="matrix(0.03 0.01 -0.01 0.03 74 12)"  >
<g style=""   >
		<g transform="matrix(1 0 0 1 -0.2 184.7)"  >
<path style="stroke: rgb(45,45,45); stroke-width: 6; stroke-dasharray: none; stroke-linecap: butt; stroke-dashoffset: 0; stroke-linejoin: round; stroke-miterlimit: 10; fill: rgb(255,125,112); fill-rule: nonzero; opacity: 1;"  transform=" translate(-499.8, -684.7)" d="M 564.2 698.8 c 0 -0.1 0 -0.2 0 -0.2 c 0 -0.3 0 -0.6 0 -0.9 c 0 -0.5 0 -0.9 -0.1 -1.4 c 0 -0.1 0 -0.3 0 -0.4 c 0 -0.3 -0.1 -0.7 -0.1 -1 c 0 -0.3 0 -0.7 -0.1 -1 c 0 -0.2 -0.1 -0.5 -0.1 -0.7 c 0 -0.3 -0.1 -0.7 -0.1 -1 c 0 -0.2 0 -0.5 -0.1 -0.7 c 0 -0.4 -0.1 -0.7 -0.2 -1.1 c 0 -0.3 -0.1 -0.6 -0.1 -0.9 c 0 -0.1 0 -0.3 -0.1 -0.4 c -0.1 -0.6 -0.2 -1.3 -0.3 -1.9 c 0 -0.1 0 -0.3 -0.1 -0.4 c 0 0 0 0 0 -0.1 c -0.2 -0.8 -0.3 -1.6 -0.5 -2.4 c 0 -0.1 0 -0.2 -0.1 -0.2 c -0.1 -0.3 -0.1 -0.5 -0.2 -0.8 c -0.1 -0.5 -0.2 -0.9 -0.3 -1.4 c 0 -0.2 -0.1 -0.4 -0.1 -0.6 c -0.1 -0.3 -0.2 -0.6 -0.3 -1 c -0.1 -0.3 -0.2 -0.6 -0.2 -0.9 c -0.1 -0.3 -0.2 -0.6 -0.3 -1 c -0.1 -0.3 -0.2 -0.6 -0.3 -0.9 c 0 -0.2 -0.1 -0.3 -0.1 -0.5 c -0.2 -0.6 -0.4 -1.1 -0.5 -1.7 c -0.1 -0.2 -0.1 -0.4 -0.2 -0.6 c 0 0 0 -0.1 0 -0.1 c -0.3 -0.8 -0.5 -1.5 -0.8 -2.3 c 0 -0.1 -0.1 -0.2 -0.1 -0.3 c -0.1 -0.2 -0.2 -0.5 -0.3 -0.7 c -0.2 -0.4 -0.3 -0.9 -0.5 -1.3 c -0.1 -0.3 -0.2 -0.5 -0.3 -0.8 c -0.1 -0.3 -0.2 -0.6 -0.3 -0.8 c -0.1 -0.2 -0.2 -0.4 -0.3 -0.6 c -0.2 -0.5 -0.4 -1.1 -0.7 -1.6 c -0.1 -0.2 -0.1 -0.3 -0.2 -0.5 c 0 -0.1 0 -0.1 -0.1 -0.2 c -0.3 -0.8 -0.7 -1.5 -1.1 -2.3 c 0 -0.1 -0.1 -0.2 -0.1 -0.2 c -0.1 -0.3 -0.3 -0.6 -0.4 -0.9 c -0.2 -0.5 -0.5 -1 -0.7 -1.4 c -0.1 -0.2 -0.2 -0.3 -0.2 -0.5 c -0.3 -0.5 -0.5 -1 -0.8 -1.5 c -0.2 -0.4 -0.4 -0.7 -0.5 -1.1 c -0.1 -0.1 -0.1 -0.3 -0.2 -0.4 c -0.6 -1.2 -1.3 -2.4 -2 -3.6 c -0.1 -0.2 -0.2 -0.4 -0.3 -0.6 c -0.1 -0.3 -0.3 -0.5 -0.4 -0.7 c -0.5 -0.8 -1 -1.6 -1.5 -2.4 c -0.2 -0.4 -0.5 -0.8 -0.7 -1.2 c -0.5 -0.7 -1 -1.5 -1.4 -2.2 c -0.2 -0.2 -0.3 -0.5 -0.5 -0.7 c -0.1 -0.1 -0.2 -0.2 -0.2 -0.3 c -0.8 -1.2 -1.7 -2.4 -2.5 -3.5 c 0 0 -0.1 -0.1 -0.1 -0.1 c -0.3 -0.4 -0.6 -0.8 -0.9 -1.2 c -0.3 -0.4 -0.6 -0.8 -0.9 -1.2 c 0 -0.1 -0.1 -0.1 -0.1 -0.2 c -0.6 -0.7 -1.2 -1.5 -1.8 -2.2 c 0 0 0 0 0 0 c 0 0 0 0 0 0 c -0.6 -0.7 -1.1 -1.4 -1.7 -2 c -0.1 -0.1 -0.1 -0.1 -0.2 -0.2 c -0.2 -0.2 -0.4 -0.5 -0.6 -0.7 c -0.3 -0.4 -0.6 -0.7 -1 -1.1 c -0.1 -0.1 -0.3 -0.3 -0.4 -0.4 c -0.3 -0.3 -0.5 -0.5 -0.8 -0.8 c -0.2 -0.2 -0.4 -0.5 -0.7 -0.7 c -0.2 -0.2 -0.4 -0.4 -0.6 -0.6 c -0.3 -0.3 -0.6 -0.6 -0.8 -0.8 c -0.2 -0.2 -0.3 -0.3 -0.5 -0.5 c -0.2 -0.2 -0.5 -0.5 -0.7 -0.7 c -0.3 -0.3 -0.6 -0.6 -0.9 -0.8 c -0.1 -0.1 -0.3 -0.2 -0.4 -0.4 c -0.3 -0.3 -0.6 -0.5 -0.9 -0.8 c -0.3 -0.3 -0.6 -0.5 -0.9 -0.8 c -0.1 -0.1 -0.2 -0.2 -0.3 -0.2 c -0.4 -0.3 -0.7 -0.6 -1.1 -0.9 c -0.3 -0.2 -0.6 -0.5 -0.9 -0.7 c -0.1 0 -0.1 -0.1 -0.2 -0.1 c -0.5 -0.4 -1 -0.7 -1.4 -1.1 c -0.2 -0.2 -0.4 -0.3 -0.6 -0.5 c 0 0 0 0 -0.1 -0.1 c -0.7 -0.5 -1.4 -1 -2.2 -1.5 c 0 0 0 0 0 0 c -0.2 -0.1 -0.3 -0.2 -0.5 -0.3 c -0.6 -0.4 -1.1 -0.8 -1.7 -1.1 c -0.1 0 -0.1 -0.1 -0.2 -0.1 c -0.3 -0.2 -0.6 -0.4 -0.9 -0.5 c -0.4 -0.3 -0.8 -0.5 -1.2 -0.7 c -0.2 -0.1 -0.4 -0.2 -0.5 -0.3 c -0.6 -0.3 -1.2 -0.7 -1.7 -1 c -0.1 -0.1 -0.3 -0.1 -0.4 -0.2 c -0.3 -0.2 -0.6 -0.3 -0.9 -0.5 c -0.3 -0.1 -0.6 -0.3 -0.8 -0.4 c -0.2 -0.1 -0.4 -0.2 -0.6 -0.3 c -0.3 -0.1 -0.6 -0.3 -0.9 -0.4 c -0.2 -0.1 -0.4 -0.2 -0.6 -0.3 c -0.3 -0.1 -0.6 -0.2 -0.9 -0.4 c -0.3 -0.1 -0.5 -0.2 -0.8 -0.3 c -0.1 0 -0.2 -0.1 -0.3 -0.1 c -0.5 -0.2 -0.9 -0.3 -1.3 -0.5 c -0.2 -0.1 -0.3 -0.1 -0.5 -0.2 c 0 0 -0.1 0 -0.1 0 c -0.6 -0.2 -1.3 -0.4 -1.9 -0.6 c 0 0 -0.1 0 -0.1 0 c -0.2 -0.1 -0.4 -0.1 -0.6 -0.2 c -0.4 -0.1 -0.8 -0.2 -1.2 -0.3 c -0.1 0 -0.2 0 -0.3 -0.1 c -0.3 -0.1 -0.5 -0.1 -0.8 -0.2 c -0.3 -0.1 -0.5 -0.1 -0.8 -0.2 c -0.2 0 -0.3 -0.1 -0.5 -0.1 c -0.3 -0.1 -0.6 -0.1 -0.8 -0.1 c -0.2 0 -0.4 -0.1 -0.5 -0.1 c -0.2 0 -0.4 0 -0.6 -0.1 c -0.3 0 -0.6 -0.1 -0.9 -0.1 c -0.1 0 -0.3 0 -0.4 0 c -0.2 0 -0.4 0 -0.7 0 c -0.3 0 -0.7 0 -1 0 c -0.1 0 -0.3 0 -0.4 0 c -0.2 0 -0.4 0 -0.6 0 c -0.4 0 -0.8 0 -1.3 0.1 c -0.1 0 -0.3 0 -0.4 0 c -0.3 0 -0.5 0.1 -0.8 0.1 c -0.1 0 -0.2 0 -0.3 0 c -0.5 0.1 -1 0.1 -1.5 0.2 c -0.1 0 -0.1 0 -0.2 0 c -0.2 0 -0.4 0.1 -0.6 0.2 c -0.4 0.1 -0.8 0.2 -1.2 0.3 c -0.2 0.1 -0.5 0.1 -0.7 0.2 c -0.2 0.1 -0.4 0.1 -0.6 0.2 c -0.2 0.1 -0.5 0.2 -0.7 0.3 c -0.1 0 -0.2 0.1 -0.3 0.1 c -0.5 0.2 -1.1 0.4 -1.6 0.7 c -0.1 0.1 -0.2 0.1 -0.3 0.2 c -0.5 0.3 -1.1 0.5 -1.6 0.9 c 0 0 0 0 0 0 L 435.4 641 c 0.5 -0.3 1.1 -0.6 1.6 -0.9 c 0.1 -0.1 0.2 -0.1 0.3 -0.2 c 0.5 -0.3 1 -0.5 1.6 -0.7 c 0.1 0 0.2 -0.1 0.3 -0.1 c 0.4 -0.2 0.8 -0.3 1.3 -0.4 c 0.2 -0.1 0.5 -0.1 0.7 -0.2 c 0.4 -0.1 0.8 -0.2 1.2 -0.3 c 0.2 -0.1 0.4 -0.1 0.6 -0.2 c 0.6 -0.1 1.1 -0.2 1.7 -0.3 c 0.1 0 0.2 0 0.3 0 c 0.4 0 0.8 -0.1 1.2 -0.1 c 0.4 0 0.8 0 1.3 -0.1 c 0.3 0 0.6 0 0.9 0 c 0.3 0 0.7 0 1 0 c 0.4 0 0.7 0 1.1 0.1 c 0.3 0 0.6 0.1 0.9 0.1 c 0.4 0 0.8 0.1 1.2 0.2 c 0.3 0 0.6 0.1 0.8 0.1 c 0.4 0.1 0.9 0.2 1.3 0.3 c 0.3 0.1 0.5 0.1 0.8 0.2 c 0.5 0.1 1 0.3 1.5 0.4 c 0.2 0.1 0.4 0.1 0.6 0.2 c 0.7 0.2 1.4 0.4 2.1 0.7 c 0.2 0.1 0.3 0.1 0.5 0.2 c 0.6 0.2 1.1 0.4 1.7 0.7 c 0.3 0.1 0.5 0.2 0.8 0.3 c 0.5 0.2 1 0.4 1.4 0.6 c 0.3 0.1 0.6 0.3 0.9 0.4 c 0.5 0.2 0.9 0.5 1.4 0.7 c 0.3 0.2 0.6 0.3 0.9 0.5 c 0.7 0.4 1.4 0.8 2.1 1.2 c 0.6 0.3 1.2 0.7 1.8 1.1 c 0.3 0.2 0.6 0.4 0.9 0.5 c 0.6 0.4 1.2 0.8 1.9 1.2 c 0.2 0.1 0.3 0.2 0.5 0.3 c 0.8 0.5 1.5 1.1 2.3 1.6 c 0.2 0.2 0.4 0.3 0.6 0.5 c 0.5 0.4 1.1 0.8 1.6 1.2 c 0.3 0.2 0.6 0.5 0.9 0.7 c 0.5 0.4 0.9 0.7 1.4 1.1 c 0.3 0.3 0.6 0.5 0.9 0.8 c 0.4 0.4 0.9 0.7 1.3 1.1 c 0.3 0.3 0.6 0.6 0.9 0.8 c 0.4 0.4 0.8 0.8 1.2 1.2 c 0.3 0.3 0.6 0.6 0.8 0.8 c 0.4 0.4 0.8 0.8 1.3 1.3 c 0.3 0.3 0.5 0.5 0.8 0.8 c 0.5 0.5 0.9 1 1.3 1.5 c 0.2 0.2 0.4 0.5 0.6 0.7 c 0.6 0.7 1.3 1.5 1.9 2.2 c 0 0 0 0 0 0 c 0.6 0.8 1.3 1.6 1.9 2.4 c 0.3 0.4 0.6 0.8 0.9 1.2 c 0.3 0.4 0.7 0.9 1 1.3 c 0.8 1.1 1.7 2.3 2.5 3.5 c 0.2 0.3 0.5 0.7 0.7 1 c 0.5 0.7 1 1.5 1.4 2.2 c 0.2 0.4 0.5 0.8 0.7 1.2 c 0.5 0.8 1 1.6 1.5 2.4 c 0.3 0.4 0.5 0.9 0.8 1.3 c 0.7 1.2 1.4 2.4 2 3.6 c 0.3 0.5 0.5 1 0.8 1.4 c 0.3 0.5 0.5 1 0.8 1.5 c 0.3 0.6 0.6 1.3 0.9 1.9 c 0.1 0.3 0.3 0.6 0.4 0.9 c 0.4 0.9 0.8 1.8 1.2 2.7 c 0.1 0.2 0.1 0.3 0.2 0.5 c 0.3 0.7 0.6 1.5 0.9 2.2 c 0.1 0.3 0.2 0.6 0.3 0.8 c 0.3 0.7 0.5 1.4 0.8 2.1 c 0.1 0.2 0.2 0.5 0.3 0.7 c 0.3 0.9 0.6 1.8 0.9 2.7 c 0.1 0.2 0.1 0.4 0.2 0.5 c 0.2 0.7 0.5 1.5 0.7 2.2 c 0.1 0.3 0.2 0.6 0.3 0.9 c 0.2 0.6 0.3 1.2 0.5 1.8 c 0.1 0.3 0.2 0.6 0.3 1 c 0.2 0.7 0.3 1.3 0.5 2 c 0.1 0.3 0.1 0.5 0.2 0.8 c 0.2 0.9 0.4 1.8 0.6 2.7 c 0 0.1 0 0.3 0.1 0.4 c 0.1 0.8 0.3 1.5 0.4 2.3 c 0 0.3 0.1 0.6 0.1 0.9 c 0.1 0.6 0.2 1.2 0.2 1.8 c 0 0.3 0.1 0.7 0.1 1 c 0.1 0.6 0.1 1.2 0.2 1.8 c 0 0.3 0.1 0.7 0.1 1 c 0 0.6 0.1 1.2 0.1 1.8 c 0 0.3 0 0.6 0 0.9 c 0 0.9 0 1.8 0 2.7 c 0 0.9 0 1.8 -0.1 2.7 c 0 0.2 0 0.4 0 0.6 c 0 0.6 -0.1 1.3 -0.1 1.9 c 0 0.3 -0.1 0.6 -0.1 0.9 c -0.1 0.5 -0.1 1 -0.2 1.5 c 0 0.3 -0.1 0.7 -0.1 1 c -0.1 0.4 -0.1 0.9 -0.2 1.3 c -0.1 0.4 -0.1 0.7 -0.2 1.1 c -0.1 0.4 -0.2 0.8 -0.3 1.2 c -0.1 0.4 -0.2 0.8 -0.3 1.2 c -0.1 0.4 -0.2 0.7 -0.3 1 c -0.1 0.5 -0.3 0.9 -0.5 1.4 c -0.1 0.3 -0.2 0.6 -0.3 0.8 c -0.3 0.8 -0.6 1.6 -1 2.3 c -0.3 0.6 -0.6 1.2 -0.9 1.7 c -0.1 0.1 -0.2 0.3 -0.2 0.4 c -0.2 0.4 -0.5 0.8 -0.7 1.2 c -0.1 0.2 -0.2 0.3 -0.3 0.5 c -0.2 0.4 -0.5 0.7 -0.8 1 c -0.1 0.2 -0.2 0.3 -0.4 0.5 c -0.3 0.4 -0.6 0.7 -0.9 1.1 c -0.1 0.1 -0.2 0.2 -0.3 0.3 c -0.4 0.4 -0.8 0.9 -1.3 1.3 c -0.1 0.1 -0.2 0.2 -0.3 0.3 c -0.3 0.3 -0.7 0.6 -1 0.9 c -0.2 0.1 -0.3 0.3 -0.5 0.4 c -0.3 0.3 -0.7 0.5 -1 0.8 c -0.2 0.1 -0.3 0.2 -0.5 0.3 c -0.5 0.3 -1 0.7 -1.6 1 l 46.2 -26.9 c 0.5 -0.3 1.1 -0.6 1.6 -1 c 0.2 -0.1 0.3 -0.2 0.5 -0.3 c 0.4 -0.2 0.7 -0.5 1 -0.8 c 0.2 -0.1 0.3 -0.2 0.5 -0.4 c 0.4 -0.3 0.7 -0.6 1 -0.9 c 0.1 -0.1 0.2 -0.2 0.3 -0.3 c 0.4 -0.4 0.9 -0.8 1.3 -1.3 c 0.1 -0.1 0.2 -0.2 0.3 -0.3 c 0.3 -0.4 0.6 -0.7 0.9 -1.1 c 0.1 -0.2 0.2 -0.3 0.4 -0.5 c 0.3 -0.3 0.5 -0.7 0.8 -1 c 0.1 -0.2 0.2 -0.3 0.3 -0.5 c 0.1 -0.1 0.1 -0.2 0.2 -0.2 c 0.2 -0.3 0.4 -0.6 0.6 -1 c 0.1 -0.1 0.2 -0.3 0.2 -0.4 c 0.3 -0.5 0.6 -1.1 0.8 -1.6 c 0 0 0 0 0 -0.1 c 0.4 -0.7 0.7 -1.5 1 -2.3 c 0 -0.1 0.1 -0.1 0.1 -0.2 c 0.1 -0.2 0.1 -0.4 0.2 -0.6 c 0.2 -0.5 0.3 -0.9 0.5 -1.4 c 0 -0.1 0.1 -0.2 0.1 -0.3 c 0.1 -0.2 0.1 -0.5 0.2 -0.7 c 0.1 -0.4 0.2 -0.8 0.3 -1.2 c 0 -0.1 0.1 -0.3 0.1 -0.4 c 0.1 -0.3 0.1 -0.5 0.2 -0.8 c 0.1 -0.4 0.1 -0.7 0.2 -1.1 c 0 -0.1 0.1 -0.3 0.1 -0.4 c 0.1 -0.3 0.1 -0.6 0.1 -0.9 c 0.1 -0.3 0.1 -0.7 0.1 -1 c 0 -0.1 0 -0.2 0 -0.3 c 0 -0.4 0.1 -0.8 0.1 -1.2 c 0 -0.3 0.1 -0.6 0.1 -0.9 c 0 -0.1 0 -0.1 0 -0.2 c 0 -0.5 0.1 -1.1 0.1 -1.7 c 0 -0.2 0 -0.4 0 -0.6 c 0 0 0 0 0 -0.1 c 0 -0.8 0.1 -1.6 0.1 -2.5 c 0 0 0 -0.1 0 -0.1 C 564.2 700.5 564.2 699.6 564.2 698.8 z" stroke-linecap="round" />
</g>
		<g transform="matrix(1 0 0 1 -30.4 199.82)"  >
<path style="stroke: rgb(45,45,45); stroke-width: 6; stroke-dasharray: none; stroke-linecap: butt; stroke-dashoffset: 0; stroke-linejoin: round; stroke-miterlimit: 10; fill: rgb(255,197,0); fill-rule: nonzero; opacity: 1;"  transform=" translate(-469.6, -699.82)" d="M 469.5 644.3 c 13.4 7.7 24.8 19.8 34.3 36.2 c 9.5 16.4 14.2 32.3 14.1 47.7 c 0 15 -4.8 25.2 -14.3 30.6 c -9.5 5.4 -21 4.3 -34.4 -3.5 c -13.4 -7.7 -24.8 -19.8 -34 -36 c -9.3 -16.3 -13.9 -31.9 -13.9 -46.9 c 0 -15.4 4.7 -25.9 14.1 -31.4 C 444.7 635.4 456.1 636.5 469.5 644.3 z" stroke-linecap="round" />
</g>
		<g transform="matrix(1 0 0 1 33.3 92.6)"  >
<path style="stroke: rgb(45,45,45); stroke-width: 6; stroke-dasharray: none; stroke-linecap: butt; stroke-dashoffset: 0; stroke-linejoin: round; stroke-miterlimit: 10; fill: rgb(6,170,231); fill-rule: nonzero; opacity: 1;"  transform=" translate(-533.3, -592.6)" d="M 565.6 560.5 l -46.2 26.9 c -3.9 2.3 -7.3 4.9 -10 7.9 c -0.4 0.5 -0.8 1 -1.2 1.5 c -0.1 0.1 -0.2 0.3 -0.3 0.5 c -0.3 0.4 -0.6 0.8 -0.8 1.2 c -0.1 0.1 -0.1 0.2 -0.2 0.3 c 0 0.1 -0.1 0.2 -0.1 0.2 c -0.2 0.3 -0.3 0.5 -0.5 0.8 c -0.1 0.2 -0.3 0.4 -0.4 0.7 c -0.2 0.3 -0.3 0.6 -0.5 0.9 c -0.1 0.2 -0.2 0.3 -0.3 0.5 c 0 0.1 -0.1 0.1 -0.1 0.2 c -0.1 0.2 -0.2 0.3 -0.2 0.5 c -0.1 0.3 -0.3 0.7 -0.4 1 c -0.1 0.2 -0.2 0.4 -0.2 0.6 c -0.1 0.2 -0.1 0.3 -0.2 0.5 c 0 0.1 -0.1 0.2 -0.1 0.3 c -0.3 0.7 -0.5 1.5 -0.7 2.2 c 0 0 0 0.1 0 0.1 c 0 0 0 0 0 0 c -0.2 0.8 -0.4 1.5 -0.6 2.3 c 0 0.1 0 0.2 -0.1 0.3 c 0 0.1 -0.1 0.3 -0.1 0.4 c -0.1 0.6 -0.2 1.2 -0.4 1.8 c 0 0.2 -0.1 0.3 -0.1 0.4 c 0 0.1 0 0.2 0 0.3 c -0.1 0.8 -0.3 1.6 -0.4 2.4 c 0 0 0 0 0 0.1 c 0 0 0 0 0 0 c -0.1 0.8 -0.2 1.7 -0.3 2.6 c 0 0.1 0 0.2 0 0.3 c 0 0.2 0 0.4 0 0.5 c 0 0.7 -0.1 1.3 -0.1 2 c 0 0.2 0 0.3 0 0.5 c 0 0.1 0 0.3 0 0.4 c 0 0.8 0 1.6 -0.1 2.5 c 0 0.1 0 0.2 0 0.4 c 0 0.1 0 0.1 0 0.2 l 0 0 v 0 l 46.2 -26.9 c 0 -0.2 0 -0.4 0 -0.5 c 0 -0.8 0 -1.7 0.1 -2.5 c 0 -0.3 0 -0.6 0 -0.9 c 0 -0.7 0.1 -1.3 0.1 -2 c 0 -0.3 0 -0.5 0.1 -0.8 c 0.1 -0.9 0.2 -1.7 0.3 -2.6 c 0 0 0 0 0 -0.1 c 0.1 -0.8 0.2 -1.6 0.4 -2.4 c 0 -0.2 0.1 -0.5 0.1 -0.7 c 0.1 -0.6 0.2 -1.2 0.4 -1.8 c 0.1 -0.2 0.1 -0.5 0.2 -0.7 c 0.2 -0.8 0.4 -1.6 0.6 -2.3 c 0 0 0 -0.1 0 -0.1 c 0.2 -0.8 0.5 -1.5 0.7 -2.2 c 0.1 -0.3 0.2 -0.5 0.3 -0.8 c 0.1 -0.2 0.2 -0.4 0.2 -0.6 c 0.1 -0.3 0.3 -0.7 0.4 -1 c 0.1 -0.2 0.2 -0.3 0.2 -0.5 c 0.1 -0.2 0.2 -0.5 0.4 -0.7 c 0.1 -0.3 0.3 -0.6 0.5 -0.9 c 0.1 -0.2 0.3 -0.4 0.4 -0.7 c 0.2 -0.3 0.3 -0.6 0.5 -0.8 c 0.1 -0.2 0.2 -0.3 0.3 -0.5 c 0.3 -0.4 0.5 -0.8 0.8 -1.2 c 0.1 -0.2 0.2 -0.3 0.3 -0.5 c 0.4 -0.5 0.8 -1 1.2 -1.5 c 1.7 -1.9 3.6 -3.6 5.8 -5.2 C 562.8 562.2 564.1 561.3 565.6 560.5 L 565.6 560.5 C 565.6 560.5 565.6 560.5 565.6 560.5 z" stroke-linecap="round" />
</g>
		<g transform="matrix(1 0 0 1 -9.2 -19.8)"  >
<path style="stroke: rgb(45,45,45); stroke-width: 6; stroke-dasharray: none; stroke-linecap: butt; stroke-dashoffset: 0; stroke-linejoin: round; stroke-miterlimit: 10; fill: rgb(255,197,0); fill-rule: nonzero; opacity: 1;"  transform=" translate(-490.8, -480.2)" d="M 517.2 465 C 517.2 465 517.2 465 517.2 465 c -1.2 0.4 -2.3 0.8 -3.4 1.3 c -0.3 0.1 -0.6 0.3 -0.9 0.4 c -0.8 0.4 -1.6 0.7 -2.4 1.1 c -0.3 0.1 -0.6 0.3 -0.9 0.4 c -1 0.5 -2.1 1.1 -3 1.6 l -46.2 26.9 c 1 -0.6 2 -1.1 3 -1.6 c 0.3 -0.2 0.6 -0.3 0.9 -0.4 c 0.8 -0.4 1.6 -0.7 2.4 -1.1 c 0.3 -0.1 0.6 -0.3 0.9 -0.4 c 1.1 -0.5 2.2 -0.9 3.4 -1.3 c 1.3 -0.5 2.6 -0.9 4 -1.3 l 46.2 -26.9 C 519.9 464.1 518.5 464.5 517.2 465 z" stroke-linecap="round" />
</g>
		<g transform="matrix(1 0 0 1 12.4 -26.8)"  >
<polygon style="stroke: rgb(45,45,45); stroke-width: 6; stroke-dasharray: none; stroke-linecap: butt; stroke-dashoffset: 0; stroke-linejoin: round; stroke-miterlimit: 10; fill: rgb(255,197,0); fill-rule: nonzero; opacity: 1;"  points="-37.4,17.4 8.8,-9.5 37.4,-17.4 -8.8,9.4 " />
</g>
		<g transform="matrix(1 0 0 1 -46.45 -117)"  >
<path style="stroke: rgb(45,45,45); stroke-width: 6; stroke-dasharray: none; stroke-linecap: butt; stroke-dashoffset: 0; stroke-linejoin: round; stroke-miterlimit: 10; fill: rgb(6,170,231); fill-rule: nonzero; opacity: 1;"  transform=" translate(-453.55, -383)" d="M 438.8 366.5 c -0.7 0.4 -1.4 0.9 -2.1 1.3 c -0.7 0.5 -1.4 1.1 -2 1.6 c -0.2 0.2 -0.4 0.3 -0.6 0.5 c -0.5 0.4 -0.9 0.9 -1.4 1.3 c -0.2 0.2 -0.4 0.4 -0.5 0.5 c -0.6 0.6 -1.1 1.3 -1.7 2 c 0 0 0 0 0 0 c -0.5 0.7 -1 1.4 -1.5 2.1 c -0.1 0.1 -0.1 0.2 -0.2 0.2 c -0.1 0.2 -0.3 0.5 -0.4 0.7 c -0.2 0.3 -0.3 0.5 -0.5 0.8 c -0.2 0.4 -0.4 0.7 -0.6 1.1 c -0.1 0.3 -0.3 0.5 -0.4 0.8 c 0 0.1 -0.1 0.1 -0.1 0.2 c -0.1 0.1 -0.1 0.3 -0.2 0.4 c -0.3 0.7 -0.6 1.4 -0.9 2.2 c -0.1 0.1 -0.1 0.3 -0.2 0.4 c 0 0.1 -0.1 0.2 -0.1 0.4 c -0.2 0.6 -0.4 1.2 -0.6 1.9 c -0.1 0.2 -0.1 0.4 -0.2 0.5 c 0 0.1 0 0.1 0 0.2 c -0.2 0.7 -0.4 1.4 -0.6 2.2 c 0 0.1 -0.1 0.2 -0.1 0.3 c 0 0 0 0 0 0 c -0.2 0.8 -0.4 1.7 -0.5 2.6 c 0 0 0 0 0 0 c -0.1 0.4 -0.1 0.8 -0.2 1.2 c -0.1 0.5 -0.1 0.9 -0.2 1.4 c 0 0 0 0 0 0 c -0.1 0.7 -0.2 1.4 -0.2 2.1 c 0 0.2 0 0.4 -0.1 0.5 c 0 0 0 0 0 0 c -0.1 0.9 -0.1 1.8 -0.2 2.7 c 0 0 0 0 0 0 c 0 0.3 0 0.6 0 0.9 c 0 0.6 0 1.3 0 1.9 c 0 0.1 0 0.1 0 0.2 c 0 0.7 0 1.4 0 2.1 c 0 0.2 0 0.5 0 0.7 c 0 0.4 0 0.9 0 1.3 c 0 0.3 0 0.5 0 0.8 c 0 0.4 0 0.8 0 1.2 c 0 0.3 0 0.5 0 0.8 c 0 0.4 0 0.7 0 1.1 c 0 0.1 0 0.2 0 0.3 c 0 0.1 0 0.2 0 0.3 c 0 0.9 0.1 1.8 0.1 2.6 c 0 0.1 0 0.2 0 0.3 c 0 0.8 0.1 1.6 0.1 2.4 c 0 0.1 0 0.1 0 0.2 c 0 0 0 0.1 0 0.1 c 0 0.6 0.1 1.2 0.1 1.8 c 0 0.2 0 0.3 0 0.5 c 0 0.4 0.1 0.9 0.1 1.3 c 0 0.1 0 0.2 0 0.3 c 0 0.1 0 0.2 0 0.3 c 0 0.3 0.1 0.5 0.1 0.8 c 0 0.2 0 0.4 0.1 0.6 c 0 0.3 0.1 0.5 0.1 0.8 c 0 0.1 0 0.3 0 0.4 c 0 0 0 0.1 0 0.1 c 0.1 0.6 0.2 1.3 0.3 1.9 c 0 0.1 0 0.1 0 0.2 c 0 0.1 0 0.1 0 0.2 c 0.1 0.5 0.2 0.9 0.2 1.3 c 0 0 0 0.1 0 0.1 c 0 0 0 0.1 0 0.1 c 0 0 0 0 0 0 l 46.2 -26.9 c 0 -0.1 0 -0.1 0 -0.2 c -0.1 -0.4 -0.2 -0.9 -0.2 -1.4 c 0 -0.1 0 -0.2 -0.1 -0.4 c -0.1 -0.6 -0.2 -1.2 -0.3 -1.9 c 0 -0.2 0 -0.3 -0.1 -0.5 c 0 -0.2 -0.1 -0.5 -0.1 -0.8 c 0 -0.2 0 -0.4 -0.1 -0.6 c 0 -0.3 -0.1 -0.5 -0.1 -0.8 c 0 -0.2 0 -0.4 -0.1 -0.6 c 0 -0.4 -0.1 -0.9 -0.1 -1.3 c 0 -0.1 0 -0.3 0 -0.4 c 0 -0.6 -0.1 -1.2 -0.1 -1.8 c 0 -0.1 0 -0.2 0 -0.3 c 0 -0.8 -0.1 -1.6 -0.1 -2.4 c 0 -0.1 0 -0.2 0 -0.3 c 0 -0.8 -0.1 -1.7 -0.1 -2.6 c 0 -0.2 0 -0.4 0 -0.6 c 0 -0.4 0 -0.7 0 -1.1 c 0 -0.3 0 -0.5 0 -0.8 c 0 -0.4 0 -0.8 0 -1.2 c 0 -0.3 0 -0.5 0 -0.8 c 0 -0.4 0 -0.9 0 -1.3 c 0 -0.2 0 -0.5 0 -0.7 c 0 -0.7 0 -1.4 0 -2.1 c 0 -0.7 0 -1.4 0 -2.1 c 0 -0.3 0 -0.6 0 -0.8 c 0 -0.9 0.1 -1.9 0.2 -2.8 c 0 -0.2 0 -0.3 0 -0.5 c 0.1 -0.7 0.1 -1.5 0.2 -2.2 c 0.1 -0.5 0.1 -0.9 0.2 -1.4 c 0.1 -0.4 0.1 -0.8 0.2 -1.2 c 0.2 -0.9 0.3 -1.7 0.5 -2.6 c 0 -0.1 0.1 -0.3 0.1 -0.4 c 0.2 -0.7 0.4 -1.4 0.6 -2.1 c 0.1 -0.2 0.1 -0.5 0.2 -0.7 c 0.2 -0.6 0.4 -1.3 0.6 -1.9 c 0.1 -0.3 0.2 -0.5 0.3 -0.8 c 0.3 -0.7 0.6 -1.5 0.9 -2.2 c 0.1 -0.2 0.2 -0.4 0.3 -0.6 c 0.1 -0.3 0.3 -0.5 0.4 -0.8 c 0.2 -0.4 0.4 -0.7 0.6 -1.1 c 0.2 -0.3 0.3 -0.5 0.5 -0.8 c 0.2 -0.3 0.4 -0.6 0.6 -0.9 c 0.5 -0.7 1 -1.4 1.5 -2.1 c 0 0 0 0 0 0 c 0.5 -0.7 1.1 -1.3 1.7 -2 c 0.2 -0.2 0.4 -0.4 0.5 -0.5 c 0.4 -0.5 0.9 -0.9 1.4 -1.3 c 0.2 -0.2 0.4 -0.3 0.6 -0.5 c 0.6 -0.6 1.3 -1.1 2 -1.6 c 0.7 -0.5 1.4 -0.9 2.1 -1.3 L 438.8 366.5 z" stroke-linecap="round" />
</g>
		<g transform="matrix(1 0 0 1 30.05 -32.2)"  >
<path style="stroke: rgb(0,0,0); stroke-width: 0.1; stroke-dasharray: none; stroke-linecap: butt; stroke-dashoffset: 0; stroke-linejoin: miter; stroke-miterlimit: 4; fill: rgb(255,197,0); fill-rule: nonzero; opacity: 1;"  transform=" translate(-530.05, -467.8)" d="M 556.4 453 l -46.2 26.9 c -2 1.1 -4.2 2.1 -6.5 2.7 l 46.2 -26.9 C 552.2 455.1 554.4 454.2 556.4 453 z" stroke-linecap="round" />
</g>
		<g transform="matrix(1 0 0 1 27.6 -31.15)" clip-path="url(#CLIPPATH_32)"  >
<clipPath id="CLIPPATH_32" >
	<path transform="matrix(1 0 0 1 2.45 -1.05) translate(-530.05, -467.8)" d="M 556.4 453 l -46.2 26.9 c -2 1.1 -4.2 2.1 -6.5 2.7 l 46.2 -26.9 C 552.2 455.1 554.4 454.2 556.4 453 z" stroke-linecap="round" />
</clipPath>
<path style="stroke: rgb(45,45,45); stroke-width: 6; stroke-dasharray: none; stroke-linecap: butt; stroke-dashoffset: 0; stroke-linejoin: round; stroke-miterlimit: 10; fill: rgb(255,197,0); fill-rule: nonzero; opacity: 1;"  transform=" translate(-527.6, -468.85)" d="M 503.6 482.6 l 46.2 -26.9 c 0.6 -0.2 1.2 -0.4 1.8 -0.6 l -46.2 26.9 C 504.8 482.3 504.2 482.5 503.6 482.6" stroke-linecap="round" />
</g>
		<g transform="matrix(1 0 0 1 30.8 -32.45)" clip-path="url(#CLIPPATH_33)"  >
<clipPath id="CLIPPATH_33" >
	<path transform="matrix(1 0 0 1 -0.75 0.25) translate(-530.05, -467.8)" d="M 556.4 453 l -46.2 26.9 c -2 1.1 -4.2 2.1 -6.5 2.7 l 46.2 -26.9 C 552.2 455.1 554.4 454.2 556.4 453 z" stroke-linecap="round" />
</clipPath>
<path style="stroke: rgb(45,45,45); stroke-width: 6; stroke-dasharray: none; stroke-linecap: butt; stroke-dashoffset: 0; stroke-linejoin: round; stroke-miterlimit: 10; fill: rgb(255,197,0); fill-rule: nonzero; opacity: 1;"  transform=" translate(-530.8, -467.55)" d="M 505.3 482.1 l 46.2 -26.9 c 1.7 -0.6 3.3 -1.3 4.8 -2.2 l -46.2 26.9 C 508.6 480.7 507 481.5 505.3 482.1" stroke-linecap="round" />
</g>
		<g transform="matrix(1 0 0 1 30.05 -32.2)"  >
<path style="stroke: rgb(45,45,45); stroke-width: 6; stroke-dasharray: none; stroke-linecap: butt; stroke-dashoffset: 0; stroke-linejoin: round; stroke-miterlimit: 10; fill: none; fill-rule: nonzero; opacity: 1;"  transform=" translate(-530.05, -467.8)" d="M 556.4 453 l -46.2 26.9 c -2 1.1 -4.2 2.1 -6.5 2.7 l 46.2 -26.9 C 552.2 455.1 554.4 454.2 556.4 453 z" stroke-linecap="round" />
</g>
		<g transform="matrix(1 0 0 1 17.6 -97.4)"  >
<path style="stroke: rgb(45,45,45); stroke-width: 6; stroke-dasharray: none; stroke-linecap: butt; stroke-dashoffset: 0; stroke-linejoin: round; stroke-miterlimit: 10; fill: rgb(255,125,112); fill-rule: nonzero; opacity: 1;"  transform=" translate(-517.6, -402.6)" d="M 656.1 464.7 c 0 -0.1 0 -0.2 0 -0.4 c 0 -1.5 0 -3 -0.1 -4.4 c 0 -0.2 0 -0.4 0 -0.6 c 0 -0.2 0 -0.3 0 -0.5 c 0 -1.5 -0.1 -3 -0.2 -4.5 c 0 0 0 -0.1 0 -0.1 c 0 -0.1 0 -0.3 0 -0.4 c -0.1 -1.3 -0.2 -2.7 -0.3 -4 c 0 -0.2 0 -0.4 0 -0.6 c 0 -0.1 0 -0.3 0 -0.4 c -0.1 -1.5 -0.3 -2.9 -0.5 -4.4 c 0 -0.1 0 -0.1 0 -0.2 c 0 -0.2 -0.1 -0.4 -0.1 -0.5 c -0.2 -1.3 -0.3 -2.5 -0.5 -3.8 c 0 -0.2 -0.1 -0.4 -0.1 -0.6 c 0 -0.1 -0.1 -0.3 -0.1 -0.4 c -0.2 -1.5 -0.5 -2.9 -0.8 -4.4 c 0 -0.1 0 -0.1 0 -0.2 c 0 -0.2 -0.1 -0.4 -0.1 -0.5 c -0.2 -1.3 -0.5 -2.6 -0.8 -3.9 c 0 -0.2 -0.1 -0.4 -0.1 -0.6 c 0 -0.1 -0.1 -0.3 -0.1 -0.4 c -0.3 -1.5 -0.7 -3 -1 -4.5 c 0 -0.1 0 -0.1 0 -0.2 c 0 -0.2 -0.1 -0.4 -0.1 -0.5 c -0.3 -1.3 -0.7 -2.6 -1 -3.9 c -0.1 -0.2 -0.1 -0.4 -0.2 -0.6 c 0 -0.1 -0.1 -0.3 -0.1 -0.4 c -0.4 -1.5 -0.9 -3 -1.3 -4.5 c 0 -0.1 0 -0.1 -0.1 -0.2 c -0.1 -0.2 -0.1 -0.4 -0.2 -0.6 c -0.4 -1.3 -0.8 -2.6 -1.2 -3.8 c -0.1 -0.2 -0.1 -0.4 -0.2 -0.7 c -0.1 -0.2 -0.1 -0.3 -0.2 -0.5 c -0.5 -1.5 -1 -2.9 -1.5 -4.4 c 0 0 0 -0.1 0 -0.1 c 0 -0.1 -0.1 -0.2 -0.1 -0.4 c -0.5 -1.3 -1 -2.6 -1.5 -4 c -0.1 -0.2 -0.1 -0.4 -0.2 -0.6 c -0.1 -0.2 -0.2 -0.4 -0.3 -0.6 c -0.5 -1.2 -1 -2.4 -1.5 -3.6 c -0.1 -0.2 -0.2 -0.4 -0.2 -0.6 c 0 -0.1 -0.1 -0.1 -0.1 -0.2 c -0.6 -1.5 -1.2 -2.9 -1.9 -4.4 c -0.1 -0.1 -0.1 -0.3 -0.2 -0.4 c -0.1 -0.2 -0.2 -0.5 -0.3 -0.7 c -0.6 -1.3 -1.1 -2.5 -1.7 -3.8 c -0.1 -0.2 -0.2 -0.5 -0.3 -0.7 c 0 -0.1 -0.1 -0.2 -0.2 -0.3 c -0.8 -1.6 -1.6 -3.3 -2.4 -4.9 c -0.1 -0.1 -0.1 -0.3 -0.2 -0.4 c -0.2 -0.4 -0.4 -0.9 -0.7 -1.3 c -0.3 -0.5 -0.5 -1 -0.8 -1.5 c -0.3 -0.7 -0.7 -1.3 -1 -2 c -0.2 -0.5 -0.5 -1 -0.8 -1.4 c -0.1 -0.1 -0.1 -0.3 -0.2 -0.4 c -0.1 -0.2 -0.2 -0.4 -0.4 -0.7 c -0.7 -1.3 -1.4 -2.5 -2.1 -3.8 c -0.2 -0.4 -0.4 -0.8 -0.6 -1.2 c -0.9 -1.5 -1.7 -3.1 -2.6 -4.6 c 0 -0.1 -0.1 -0.1 -0.1 -0.2 c -0.4 -0.7 -0.8 -1.4 -1.3 -2.1 c -0.2 -0.4 -0.5 -0.8 -0.7 -1.2 c -0.7 -1.2 -1.4 -2.3 -2.1 -3.5 c -1.3 -2.1 -2.7 -4.3 -4.1 -6.4 c -0.3 -0.5 -0.7 -1 -1 -1.5 c -0.3 -0.5 -0.6 -1 -1 -1.5 c -1.1 -1.6 -2.1 -3.1 -3.2 -4.7 c -0.1 -0.2 -0.2 -0.3 -0.3 -0.5 c -0.9 -1.3 -1.8 -2.6 -2.8 -3.8 c -0.3 -0.5 -0.7 -0.9 -1.1 -1.4 c -0.7 -0.9 -1.4 -1.9 -2.2 -2.8 c -0.5 -0.6 -1 -1.3 -1.5 -2 c -0.5 -0.6 -1 -1.2 -1.5 -1.8 c -0.6 -0.8 -1.2 -1.5 -1.9 -2.3 c -0.4 -0.5 -0.7 -0.9 -1.1 -1.4 c -0.8 -0.9 -1.5 -1.8 -2.3 -2.7 c -0.5 -0.6 -1.1 -1.3 -1.6 -1.9 c -0.2 -0.2 -0.4 -0.5 -0.6 -0.7 c -1.3 -1.5 -2.7 -3 -4 -4.5 c -0.2 -0.2 -0.5 -0.5 -0.7 -0.8 c 0 0 -0.1 -0.1 -0.1 -0.1 c -1.7 -1.9 -3.5 -3.7 -5.2 -5.5 c -0.1 -0.1 -0.2 -0.2 -0.3 -0.3 c -0.7 -0.7 -1.5 -1.5 -2.2 -2.2 c -1.1 -1.1 -2.2 -2.2 -3.3 -3.2 c -0.1 -0.1 -0.3 -0.3 -0.4 -0.4 c -1 -1 -2.1 -1.9 -3.1 -2.9 c -0.9 -0.8 -1.8 -1.7 -2.7 -2.5 c -0.2 -0.2 -0.4 -0.4 -0.6 -0.6 c -0.2 -0.2 -0.5 -0.4 -0.8 -0.7 c -1.8 -1.6 -3.6 -3.2 -5.5 -4.8 c -0.1 -0.1 -0.3 -0.2 -0.4 -0.4 c -0.2 -0.2 -0.4 -0.4 -0.7 -0.5 c -2.1 -1.7 -4.2 -3.4 -6.3 -5.1 c 0 0 0 0 0 0 c 0 0 -0.1 -0.1 -0.1 -0.1 c -2.1 -1.7 -4.3 -3.3 -6.4 -4.9 c -0.3 -0.2 -0.5 -0.4 -0.8 -0.6 c -0.2 -0.1 -0.3 -0.3 -0.5 -0.4 c -1.9 -1.4 -3.9 -2.8 -5.8 -4.2 c -0.4 -0.3 -0.8 -0.6 -1.2 -0.8 c -0.5 -0.3 -0.9 -0.6 -1.3 -0.9 c -1.7 -1.2 -3.4 -2.3 -5.2 -3.5 c -0.4 -0.2 -0.7 -0.5 -1.1 -0.7 c -0.9 -0.6 -1.8 -1.2 -2.7 -1.8 c -1.2 -0.8 -2.4 -1.5 -3.6 -2.2 c -0.3 -0.2 -0.6 -0.4 -0.9 -0.5 c -1.8 -1.1 -3.5 -2.1 -5.3 -3.2 c -0.8 -0.5 -1.6 -0.9 -2.4 -1.4 c -1.1 -0.7 -2.3 -1.3 -3.4 -1.9 c -0.4 -0.2 -0.7 -0.4 -1.1 -0.6 c -0.5 -0.3 -1.1 -0.6 -1.6 -0.9 c -0.2 -0.1 -0.4 -0.2 -0.6 -0.3 c -0.6 -0.3 -1.3 -0.7 -1.9 -1 c -0.6 -0.3 -1.2 -0.6 -1.7 -0.9 c -0.6 -0.3 -1.3 -0.6 -1.9 -0.9 c -0.4 -0.2 -0.8 -0.4 -1.2 -0.6 c -0.2 -0.1 -0.3 -0.2 -0.5 -0.2 c -0.6 -0.3 -1.1 -0.5 -1.7 -0.8 c -0.6 -0.3 -1.2 -0.6 -1.8 -0.9 c -0.5 -0.3 -1.1 -0.5 -1.6 -0.8 c -0.4 -0.2 -0.8 -0.4 -1.2 -0.5 c -0.2 -0.1 -0.4 -0.2 -0.6 -0.3 c -0.5 -0.2 -1 -0.4 -1.5 -0.7 c -0.6 -0.3 -1.2 -0.5 -1.8 -0.8 c -0.5 -0.2 -1 -0.4 -1.5 -0.6 c -0.3 -0.1 -0.7 -0.3 -1 -0.4 c -0.3 -0.1 -0.6 -0.2 -0.8 -0.3 c -0.5 -0.2 -0.9 -0.4 -1.4 -0.5 c -0.6 -0.2 -1.2 -0.5 -1.8 -0.7 c -0.5 -0.2 -0.9 -0.3 -1.4 -0.5 c -0.2 -0.1 -0.4 -0.2 -0.7 -0.2 c -0.4 -0.1 -0.8 -0.3 -1.2 -0.4 c -0.4 -0.1 -0.8 -0.3 -1.3 -0.4 c -0.6 -0.2 -1.3 -0.4 -1.9 -0.6 c -0.4 -0.1 -0.8 -0.2 -1.1 -0.4 c -0.1 0 -0.2 -0.1 -0.3 -0.1 c -0.7 -0.2 -1.4 -0.4 -2 -0.6 c -0.2 -0.1 -0.5 -0.1 -0.7 -0.2 c -1 -0.3 -1.9 -0.5 -2.8 -0.8 c 0 0 -0.1 0 -0.1 0 c -0.3 -0.1 -0.5 -0.1 -0.8 -0.2 c -0.7 -0.2 -1.4 -0.3 -2.1 -0.5 c -0.4 -0.1 -0.7 -0.2 -1.1 -0.2 c -0.5 -0.1 -0.9 -0.2 -1.4 -0.3 c -0.2 0 -0.3 -0.1 -0.4 -0.1 c -0.4 -0.1 -0.8 -0.1 -1.2 -0.2 c -0.6 -0.1 -1.1 -0.2 -1.7 -0.3 c -0.4 -0.1 -0.8 -0.1 -1.2 -0.2 c -0.3 0 -0.6 -0.1 -0.9 -0.1 c -0.2 0 -0.5 -0.1 -0.7 -0.1 c -0.4 -0.1 -0.9 -0.1 -1.3 -0.2 c -0.5 -0.1 -1 -0.1 -1.5 -0.2 c -0.4 0 -0.8 -0.1 -1.3 -0.1 c -0.2 0 -0.4 0 -0.6 -0.1 c -0.3 0 -0.5 0 -0.8 0 c -0.5 0 -0.9 -0.1 -1.4 -0.1 c -0.5 0 -0.9 0 -1.4 0 c -0.5 0 -0.9 0 -1.4 0 c -0.2 0 -0.4 0 -0.6 0 c -0.2 0 -0.5 0 -0.7 0 c -0.5 0 -1.1 0 -1.6 0 c -0.4 0 -0.8 0 -1.2 0.1 c -0.5 0 -1.1 0.1 -1.6 0.1 c -0.2 0 -0.5 0 -0.7 0 c -0.1 0 -0.3 0 -0.4 0.1 c -0.8 0.1 -1.5 0.2 -2.3 0.3 c -0.3 0 -0.5 0.1 -0.8 0.1 c -1 0.1 -2 0.3 -2.9 0.5 c 0 0 -0.1 0 -0.1 0 c -0.7 0.1 -1.4 0.3 -2.2 0.5 c -0.2 0 -0.4 0.1 -0.5 0.1 c -0.6 0.1 -1.2 0.3 -1.8 0.5 c -0.3 0.1 -0.5 0.1 -0.8 0.2 c -0.5 0.2 -1 0.3 -1.5 0.5 c -0.3 0.1 -0.5 0.2 -0.8 0.2 c -0.1 0 -0.3 0.1 -0.4 0.1 c -0.3 0.1 -0.6 0.2 -0.9 0.4 c -0.3 0.1 -0.6 0.2 -1 0.4 c -0.5 0.2 -0.9 0.4 -1.4 0.6 c -0.3 0.1 -0.6 0.2 -0.9 0.4 c -0.5 0.2 -1 0.5 -1.5 0.7 c -0.2 0.1 -0.5 0.2 -0.7 0.3 c -0.7 0.4 -1.5 0.7 -2.2 1.1 c -0.4 0.2 -0.8 0.5 -1.2 0.7 l -46.2 26.9 c 0.4 -0.2 0.8 -0.5 1.2 -0.7 c 0.7 -0.4 1.4 -0.8 2.2 -1.1 c 0.2 -0.1 0.5 -0.2 0.7 -0.3 c 0.5 -0.2 1 -0.5 1.5 -0.7 c 0.3 -0.1 0.6 -0.2 0.9 -0.4 c 0.5 -0.2 0.9 -0.4 1.4 -0.6 c 0.3 -0.1 0.6 -0.2 1 -0.4 c 0.5 -0.2 0.9 -0.3 1.4 -0.5 c 0.3 -0.1 0.5 -0.2 0.8 -0.2 c 0.5 -0.2 1 -0.3 1.5 -0.5 c 0.3 -0.1 0.5 -0.1 0.8 -0.2 c 0.6 -0.2 1.2 -0.3 1.8 -0.5 c 0.2 0 0.3 -0.1 0.5 -0.1 c 0.8 -0.2 1.5 -0.3 2.3 -0.5 c 1 -0.2 2 -0.4 2.9 -0.5 c 0.3 0 0.5 -0.1 0.8 -0.1 c 0.7 -0.1 1.5 -0.2 2.3 -0.3 c 0.4 0 0.8 -0.1 1.2 -0.1 c 0.5 0 1.1 -0.1 1.6 -0.1 c 0.4 0 0.8 0 1.2 -0.1 c 0.5 0 1.1 0 1.6 0 c 0.4 0 0.9 0 1.3 0 c 0.5 0 0.9 0 1.4 0 c 0.5 0 0.9 0 1.4 0 c 0.5 0 0.9 0 1.4 0.1 c 0.5 0 1 0.1 1.5 0.1 c 0.4 0 0.8 0.1 1.3 0.1 c 0.5 0 1 0.1 1.5 0.2 c 0.4 0 0.9 0.1 1.3 0.2 c 0.5 0.1 1.1 0.1 1.6 0.2 c 0.4 0.1 0.8 0.1 1.2 0.2 c 0.6 0.1 1.1 0.2 1.7 0.3 c 0.4 0.1 0.8 0.1 1.2 0.2 c 0.6 0.1 1.2 0.2 1.8 0.4 c 0.4 0.1 0.7 0.1 1.1 0.2 c 0.7 0.2 1.4 0.3 2.1 0.5 c 0.3 0.1 0.5 0.1 0.8 0.2 c 1 0.2 2 0.5 3 0.8 c 0.2 0.1 0.5 0.1 0.7 0.2 c 0.8 0.2 1.5 0.4 2.3 0.7 c 0.4 0.1 0.7 0.2 1.1 0.4 c 0.6 0.2 1.3 0.4 1.9 0.6 c 0.4 0.1 0.8 0.3 1.2 0.4 c 0.6 0.2 1.2 0.4 1.9 0.6 c 0.4 0.2 0.9 0.3 1.4 0.5 c 0.6 0.2 1.2 0.5 1.8 0.7 c 0.5 0.2 0.9 0.4 1.4 0.5 c 0.6 0.2 1.2 0.5 1.8 0.7 c 0.5 0.2 1 0.4 1.5 0.6 c 0.6 0.3 1.2 0.5 1.8 0.8 c 0.5 0.2 1 0.4 1.5 0.6 c 0.6 0.3 1.2 0.5 1.8 0.8 c 0.5 0.2 1.1 0.5 1.6 0.8 c 0.6 0.3 1.2 0.6 1.8 0.9 c 0.5 0.3 1.1 0.5 1.7 0.8 c 0.6 0.3 1.2 0.6 1.7 0.9 c 0.6 0.3 1.2 0.6 1.9 0.9 c 0.6 0.3 1.2 0.6 1.7 0.9 c 0.6 0.3 1.3 0.7 1.9 1 c 0.7 0.4 1.5 0.8 2.2 1.2 c 0.4 0.2 0.7 0.4 1.1 0.6 c 1.1 0.6 2.3 1.3 3.4 1.9 c 2.6 1.5 5.2 3 7.7 4.6 c 0.3 0.2 0.6 0.4 0.9 0.5 c 2.1 1.3 4.3 2.7 6.4 4 c 0.4 0.2 0.7 0.5 1.1 0.7 c 2.2 1.4 4.4 2.9 6.5 4.4 c 0.4 0.3 0.8 0.6 1.2 0.8 c 2.1 1.5 4.3 3 6.4 4.6 c 0.3 0.2 0.5 0.4 0.8 0.6 c 2.2 1.6 4.3 3.2 6.4 4.9 c 0 0 0.1 0.1 0.1 0.1 c 2.1 1.7 4.3 3.4 6.3 5.1 c 0.2 0.2 0.4 0.4 0.7 0.5 c 2 1.7 4 3.4 5.9 5.1 c 0.3 0.2 0.5 0.4 0.8 0.7 c 1.1 1 2.2 2.1 3.4 3.1 c 1 1 2.1 1.9 3.1 2.9 c 1.3 1.2 2.5 2.4 3.7 3.7 c 0.7 0.7 1.5 1.4 2.2 2.2 c 1.9 1.9 3.8 3.9 5.6 5.8 c 0.2 0.2 0.4 0.5 0.7 0.7 c 1.6 1.7 3.1 3.4 4.6 5.2 c 0.5 0.6 1.1 1.3 1.6 1.9 c 1.2 1.4 2.3 2.7 3.4 4.1 c 0.6 0.8 1.2 1.5 1.9 2.3 c 1 1.3 2 2.5 3 3.8 c 0.7 0.9 1.4 1.9 2.2 2.8 c 1.3 1.7 2.6 3.5 3.8 5.2 c 0.1 0.2 0.2 0.3 0.3 0.5 c 1.4 2 2.8 4.1 4.2 6.2 c 0.3 0.5 0.7 1 1 1.5 c 1.4 2.1 2.7 4.2 4.1 6.4 c 0.7 1.2 1.4 2.3 2.1 3.5 c 0.2 0.4 0.4 0.8 0.7 1.1 c 0.5 0.8 0.9 1.6 1.4 2.3 c 0.9 1.5 1.8 3.1 2.6 4.6 c 0.2 0.4 0.4 0.8 0.6 1.2 c 0.7 1.3 1.4 2.5 2.1 3.8 c 0.2 0.4 0.4 0.7 0.6 1.1 c 0.3 0.5 0.5 1 0.7 1.4 c 0.3 0.7 0.7 1.3 1 2 c 0.3 0.5 0.5 1 0.8 1.5 c 0.3 0.6 0.6 1.1 0.9 1.7 c 0.8 1.6 1.6 3.3 2.4 4.9 c 0.2 0.3 0.3 0.7 0.5 1 c 0.6 1.3 1.2 2.5 1.7 3.8 c 0.2 0.4 0.3 0.7 0.5 1.1 c 0.6 1.5 1.3 2.9 1.9 4.4 c 0.1 0.3 0.2 0.5 0.3 0.8 c 0.5 1.2 1 2.4 1.5 3.6 c 0.2 0.4 0.3 0.8 0.5 1.2 c 0.5 1.3 1 2.6 1.5 4 c 0.1 0.1 0.1 0.3 0.2 0.4 c 0.5 1.5 1 2.9 1.5 4.4 c 0.1 0.4 0.3 0.8 0.4 1.1 c 0.4 1.3 0.8 2.6 1.2 3.8 c 0.1 0.2 0.2 0.5 0.2 0.7 c 0.5 1.5 0.9 3 1.3 4.5 c 0.1 0.4 0.2 0.7 0.3 1.1 c 0.4 1.3 0.7 2.6 1 3.9 c 0.1 0.2 0.1 0.5 0.2 0.7 c 0.4 1.5 0.7 3 1 4.5 c 0.1 0.4 0.2 0.7 0.2 1.1 c 0.3 1.3 0.5 2.6 0.8 3.9 c 0 0.2 0.1 0.5 0.1 0.7 c 0.3 1.5 0.5 2.9 0.8 4.4 c 0.1 0.4 0.1 0.7 0.2 1.1 c 0.2 1.3 0.4 2.5 0.5 3.8 c 0 0.2 0.1 0.5 0.1 0.7 c 0.2 1.5 0.3 2.9 0.5 4.4 c 0 0.3 0.1 0.7 0.1 1 c 0.1 1.3 0.2 2.7 0.3 4 c 0 0.2 0 0.4 0 0.6 c 0.1 1.5 0.2 3 0.2 4.5 c 0 0.3 0 0.7 0 1 c 0 1.5 0.1 3 0.1 4.4 c 0 0.2 0 0.5 0 0.7 c 0 1.8 -0.1 3.6 -0.1 5.4 c 0 0.2 0 0.3 0 0.5 c -0.1 1.8 -0.2 3.5 -0.3 5.2 c 0 0.3 0 0.6 -0.1 0.8 c -0.1 1.7 -0.3 3.3 -0.5 4.9 c -0.1 0.4 -0.1 0.9 -0.2 1.3 c -0.1 0.4 -0.1 0.9 -0.2 1.3 c -0.1 0.6 -0.2 1.1 -0.3 1.7 c -0.1 0.4 -0.1 0.8 -0.2 1.3 c -0.1 0.5 -0.2 1.1 -0.3 1.6 c -0.1 0.4 -0.2 0.9 -0.3 1.3 c -0.1 0.5 -0.2 1 -0.3 1.5 c -0.1 0.4 -0.2 0.9 -0.3 1.3 c -0.1 0.5 -0.2 0.9 -0.3 1.4 c -0.1 0.5 -0.2 1 -0.4 1.5 c -0.1 0.4 -0.2 0.9 -0.4 1.3 c -0.1 0.5 -0.3 1 -0.4 1.5 c -0.1 0.4 -0.2 0.8 -0.3 1.2 c -0.2 0.6 -0.4 1.2 -0.5 1.7 c -0.1 0.4 -0.3 0.8 -0.4 1.2 c -0.2 0.6 -0.4 1.1 -0.6 1.6 c -0.1 0.4 -0.3 0.7 -0.4 1.1 c -0.3 0.8 -0.6 1.5 -0.9 2.3 c -0.1 0.2 -0.2 0.5 -0.3 0.7 c -0.4 1 -0.8 1.9 -1.3 2.9 c -0.1 0.1 -0.1 0.3 -0.2 0.4 c -0.5 1.1 -1.1 2.2 -1.7 3.3 c -0.1 0.2 -0.2 0.3 -0.3 0.5 c -0.6 1.1 -1.3 2.2 -1.9 3.2 c -0.1 0.2 -0.3 0.4 -0.4 0.7 c -0.6 1 -1.3 2 -2 2.9 c -0.1 0.1 -0.1 0.1 -0.2 0.2 c -0.6 0.9 -1.3 1.7 -2 2.6 c -0.2 0.2 -0.3 0.4 -0.5 0.6 c -0.7 0.9 -1.5 1.7 -2.2 2.6 c -0.1 0.1 -0.3 0.3 -0.4 0.4 c -0.7 0.7 -1.4 1.5 -2.1 2.2 c -0.2 0.2 -0.3 0.3 -0.5 0.5 c -0.8 0.8 -1.7 1.5 -2.5 2.3 c -0.2 0.2 -0.4 0.3 -0.6 0.5 c -0.8 0.7 -1.6 1.3 -2.4 1.9 c -0.1 0.1 -0.2 0.2 -0.4 0.3 c -0.9 0.7 -1.9 1.3 -2.8 2 c -0.2 0.1 -0.5 0.3 -0.7 0.4 c -1 0.6 -2 1.3 -3 1.9 c 0 0 0 0 0 0 l 0 0 c 0 0 0 0 0 0 l 46.2 -26.9 c 1 -0.6 2 -1.2 3 -1.9 c 0.2 -0.1 0.5 -0.3 0.7 -0.4 c 1 -0.6 1.9 -1.3 2.8 -2 c 0.1 -0.1 0.2 -0.2 0.4 -0.3 c 0.8 -0.6 1.6 -1.3 2.4 -1.9 c 0.2 -0.2 0.4 -0.3 0.6 -0.5 c 0.9 -0.7 1.7 -1.5 2.5 -2.3 c 0.2 -0.2 0.3 -0.3 0.5 -0.5 c 0.7 -0.7 1.4 -1.4 2.1 -2.2 c 0.1 -0.1 0.3 -0.3 0.4 -0.4 c 0.8 -0.8 1.5 -1.7 2.2 -2.6 c 0.2 -0.2 0.3 -0.4 0.5 -0.6 c 0.7 -0.8 1.3 -1.7 2 -2.6 c 0.1 -0.1 0.1 -0.1 0.2 -0.2 c 0.7 -0.9 1.3 -1.9 2 -2.9 c 0.1 -0.1 0.2 -0.2 0.2 -0.3 c 0.1 -0.1 0.1 -0.2 0.2 -0.3 c 0.7 -1.1 1.3 -2.1 1.9 -3.2 c 0.1 -0.2 0.2 -0.3 0.3 -0.5 c 0.6 -1.1 1.1 -2.2 1.7 -3.3 c 0 -0.1 0.1 -0.2 0.1 -0.3 c 0 0 0 -0.1 0.1 -0.1 c 0.4 -0.9 0.9 -1.9 1.3 -2.9 c 0.1 -0.2 0.2 -0.5 0.3 -0.7 c 0.3 -0.7 0.6 -1.5 0.9 -2.3 c 0.1 -0.2 0.1 -0.3 0.2 -0.5 c 0.1 -0.2 0.1 -0.4 0.2 -0.6 c 0.2 -0.5 0.4 -1.1 0.6 -1.6 c 0.1 -0.4 0.3 -0.8 0.4 -1.2 c 0.2 -0.6 0.4 -1.1 0.5 -1.7 c 0.1 -0.3 0.2 -0.5 0.2 -0.8 c 0 -0.1 0.1 -0.2 0.1 -0.4 c 0.1 -0.5 0.3 -1 0.4 -1.5 c 0.1 -0.4 0.2 -0.9 0.4 -1.3 c 0.1 -0.5 0.2 -1 0.4 -1.5 c 0.1 -0.3 0.2 -0.7 0.3 -1 c 0 -0.1 0 -0.2 0.1 -0.3 c 0.1 -0.4 0.2 -0.9 0.3 -1.3 c 0.1 -0.5 0.2 -1 0.3 -1.6 c 0.1 -0.4 0.2 -0.9 0.2 -1.3 c 0.1 -0.4 0.1 -0.7 0.2 -1.1 c 0 -0.2 0 -0.3 0.1 -0.5 c 0.1 -0.4 0.1 -0.8 0.2 -1.3 c 0.1 -0.6 0.2 -1.1 0.3 -1.7 c 0.1 -0.4 0.1 -0.9 0.2 -1.3 c 0 -0.3 0.1 -0.6 0.1 -0.9 c 0 -0.1 0 -0.3 0 -0.4 c 0.2 -1.6 0.4 -3.3 0.5 -4.9 c 0 -0.1 0 -0.2 0 -0.3 c 0 -0.2 0 -0.3 0 -0.5 c 0.1 -1.7 0.2 -3.4 0.3 -5.2 c 0 0 0 -0.1 0 -0.1 c 0 -0.1 0 -0.2 0 -0.4 c 0.1 -1.8 0.1 -3.6 0.1 -5.4 C 656.1 465 656.1 464.9 656.1 464.7 z" stroke-linecap="round" />
</g>
		<g transform="matrix(1 0 0 1 -23.25 -55.38)"  >
<path style="stroke: rgb(45,45,45); stroke-width: 6; stroke-dasharray: none; stroke-linecap: butt; stroke-dashoffset: 0; stroke-linejoin: round; stroke-miterlimit: 10; fill: rgb(255,197,0); fill-rule: nonzero; opacity: 1;"  transform=" translate(-476.75, -444.62)" d="M 574.3 381.4 c 23.8 38.6 35.6 75.2 35.5 109.8 c -0.1 45.8 -18.3 73.9 -54.5 84.3 l -21.3 5.7 c -10.8 3.2 -19 7.9 -24.7 14 c -5.6 6.2 -8.4 15.9 -8.5 29.2 l -66.5 -38.4 c -1.5 -9 -2.2 -18.8 -2.2 -29.5 c 0.1 -35.9 14.3 -57.9 42.7 -66 l 28.6 -7.9 c 13.4 -3.8 20.2 -14.9 20.2 -33.3 c 0 -13.7 -4.2 -27.8 -12.7 -42.4 c -8.5 -14.6 -20.8 -26.5 -36.8 -35.7 c -15.6 -9 -28.1 -10.1 -37.5 -3.3 c -9.3 6.8 -14 18.2 -14.1 34 c 0 10.7 0.5 18.9 1.6 24.7 l -78.2 -48.4 c -1.5 -9 -2.2 -18.4 -2.2 -28.2 c 0.1 -38.9 12 -64.9 35.7 -78 c 23.7 -13.1 55.3 -8.2 94.8 14.5 C 517.3 311.2 550.6 342.9 574.3 381.4 z" stroke-linecap="round" />
</g>
</g>
</g>
</svg>