<svg width="375" height="148" viewBox="0 0 375 148" fill="none" xmlns="http://www.w3.org/2000/svg">
<path d="M25.7119 43.2779C25.9501 43.3857 26.1317 43.5089 26.2568 43.6474C26.4569 43.8691 26.5566 44.1353 26.5557 44.4461C26.5549 44.7569 26.4745 45.0706 26.3147 45.3873C26.0623 45.8872 25.754 46.2082 25.3897 46.3503C25.0379 46.5063 24.5715 46.4835 23.9907 46.2818C23.017 45.931 21.8707 45.2461 20.5518 44.2271C19.2412 43.1914 18.0167 42.0432 16.8783 40.7825C15.302 39.0368 14.1 37.3419 13.2722 35.6977C12.4528 34.0368 11.9906 32.4989 11.8858 31.0838C11.7935 29.6826 12.0124 28.4571 12.5423 27.4073C13.2658 25.9742 14.2239 25.1388 15.4167 24.9009C16.6304 24.6603 18.0264 25.0631 19.6046 26.1095C19.0095 25.0088 18.6927 23.8785 18.6541 22.7186C18.628 21.5726 18.8379 20.558 19.2837 19.6748C19.8894 18.475 20.7051 17.7286 21.7307 17.4356C22.7773 17.1397 23.9084 17.2752 25.124 17.8421C26.3397 18.4089 27.523 19.3297 28.6739 20.6043C30.2251 22.3222 31.1615 24.0605 31.4828 25.8194C31.8126 27.5615 31.62 29.1408 30.9049 30.5572C30.4086 31.5403 29.8672 32.1878 29.2807 32.4996C28.7152 32.8085 28.1822 32.6859 27.6818 32.1317C27.3315 31.7438 27.1068 31.339 27.0075 30.9174C26.9167 30.4791 26.9765 30.0517 27.1868 29.6351C27.3298 29.3518 27.5167 29.0781 27.7475 28.8141C28.0877 28.3335 28.3082 27.9932 28.4092 27.7933C28.712 27.1934 28.7871 26.5231 28.6344 25.7824C28.4901 25.0251 28.0239 24.21 27.2357 23.3372C26.1724 22.1596 25.1702 21.5174 24.2294 21.4108C23.2885 21.3041 22.5615 21.759 22.0484 22.7755C21.653 23.5587 21.5626 24.4718 21.7772 25.5148C22.0127 26.555 22.6621 27.7028 23.7252 28.9581C23.992 29.2796 24.1439 29.5776 24.1808 29.8523C24.2176 30.127 24.1478 30.4393 23.9711 30.7892C23.4159 31.889 22.7588 32.0316 21.9998 31.217C20.9446 30.1004 19.9846 29.3361 19.1199 28.9241C18.2677 28.5259 17.5464 28.4286 16.9561 28.6321C16.3866 28.8328 15.9463 29.2415 15.635 29.858C15.1135 30.8912 15.0809 32.0762 15.5373 33.4129C16.0021 34.7331 17.0227 36.2659 18.5989 38.0116C19.6373 39.1615 20.8118 40.2154 22.1226 41.1734C23.4543 42.1286 24.6507 42.8301 25.7119 43.2779Z" fill="#7B0086"/>
<path d="M28.0535 51.5711C27.5449 51.0767 27.3348 50.384 27.4232 49.4932C27.5249 48.6154 27.9085 47.4256 28.5741 45.9238C29.5572 43.7052 30.7388 41.8382 32.1189 40.3229C32.4587 39.9451 32.8116 39.7754 33.1776 39.8138C33.5645 39.8481 34.0056 40.106 34.5009 40.5874C34.7685 40.8476 34.937 41.0725 35.0063 41.2619C35.0755 41.4513 35.0572 41.6655 34.9514 41.9044C34.8303 42.1775 34.4577 42.6943 33.8334 43.4548C33.3971 44.0073 33.0253 44.5005 32.7181 44.9344C32.4109 45.3683 32.0642 45.9347 31.6779 46.6336C32.77 45.5953 33.7946 44.8821 34.7517 44.494C35.7089 44.1059 36.5354 43.9693 37.2314 44.0843C37.9407 44.2122 38.5162 44.4909 38.9579 44.9203C39.3862 45.3366 39.6431 45.794 39.7287 46.2923C39.8352 46.7865 39.7675 47.3067 39.5255 47.8528C39.3289 48.2966 38.8847 49.0612 38.1929 50.1469C37.5977 51.0578 37.052 51.9435 36.5558 52.8041C36.0671 53.6476 35.5694 54.641 35.0626 55.7844C34.7753 56.4329 34.4602 56.7982 34.1175 56.8801C33.7957 56.958 33.4006 56.7692 32.9321 56.3138C32.4905 55.8844 32.2335 55.4271 32.1613 54.9418C32.0891 54.4565 32.1816 53.9237 32.4387 53.3435C32.7412 52.6608 33.3341 51.6256 34.2172 50.2377C34.9829 49.0285 35.4489 48.2362 35.6153 47.8608C35.7363 47.5877 35.7232 47.3796 35.5759 47.2365C35.4019 47.0673 35.0257 47.1168 34.4474 47.3847C33.89 47.6486 33.236 48.0873 32.4854 48.7006C31.7482 49.327 31.0486 50.0631 30.3865 50.9089C29.8838 51.5679 29.4678 51.9448 29.1385 52.0398C28.8301 52.1307 28.4684 51.9745 28.0535 51.5711Z" fill="#7B0086"/>
<path d="M51.1502 61.9512C51.544 62.2948 51.5961 62.8309 51.3063 63.5594C50.7614 64.9296 49.6168 64.8539 47.8726 63.3322C47.5351 63.0377 47.0808 62.5362 46.51 61.8279C46.2651 63.0628 45.9368 64.3885 45.5251 65.8049C45.1343 67.2163 44.7699 68.3469 44.4319 69.1968C43.6868 71.0701 42.8716 72.2863 41.9861 72.8455C41.1006 73.4047 40.2569 73.3345 39.4552 72.635C38.4424 71.7514 38.0699 70.2348 38.3375 68.0852C38.6191 65.9478 39.4705 63.0926 40.8916 59.5194C42.216 56.1892 43.8461 53.0671 45.7818 50.1532C47.7384 47.2343 49.6681 45.0978 51.5707 43.7439C53.4943 42.3848 55.0679 42.2391 56.2917 43.3068C56.9528 43.8836 57.3213 44.6957 57.3973 45.7433C57.4873 46.8031 57.2874 47.9488 56.7977 49.1803C55.1765 53.2565 51.4343 55.9726 45.571 57.3289C44.7543 58.906 44.0907 60.3363 43.5802 61.6199C42.8697 63.4064 42.1911 65.2793 41.5446 67.2385C40.8911 69.215 40.6769 70.3015 40.902 70.4978C41.3239 70.866 41.8936 70.1481 42.6111 68.3442C43.1491 66.9913 43.5926 65.6142 43.9415 64.213C44.3044 62.8241 44.6386 61.3167 44.9442 59.6909C45.0198 59.4531 45.1899 59.216 45.4545 58.9795C45.7331 58.7553 46.0226 58.5991 46.323 58.5107C46.6234 58.4223 46.851 58.4456 47.0057 58.5806C47.287 58.826 47.6177 59.1379 47.9977 59.5162C48.1174 59.644 48.2617 59.7815 48.4305 59.9288C48.9931 60.4197 49.6432 60.9051 50.3807 61.385C50.5001 61.4658 50.6266 61.5528 50.7601 61.6459C50.8935 61.739 51.0236 61.8407 51.1502 61.9512ZM54.8242 45.496C54.571 45.2751 54.0441 45.528 53.2435 46.2547C52.457 46.9937 51.5325 48.0796 50.4701 49.5124C49.4146 50.9279 48.3669 52.4904 47.327 54.1999C49.08 53.6032 50.5969 52.7188 51.8778 51.5466C53.1656 50.3571 54.1131 49.0227 54.7204 47.5433C55.1412 46.4852 55.1758 45.8028 54.8242 45.496Z" fill="#7B0086"/>
<path d="M53.4607 72.9695C52.6219 72.3149 52.0784 71.3851 51.8303 70.1803C51.5968 68.9869 51.7085 67.7483 52.1652 66.4644C52.6658 65.0575 53.4105 63.9422 54.3992 63.1185C55.3942 62.2772 56.475 61.8287 57.6417 61.7731C58.8293 61.7114 59.9308 62.0767 60.9462 62.8692C61.2699 63.1219 61.4551 63.3676 61.5018 63.6062C61.5695 63.8388 61.5713 64.1773 61.5072 64.6216C61.8118 64.7695 62.1333 64.9755 62.4718 65.2396C62.8249 65.5153 63.0596 65.8333 63.1758 66.1936C63.292 66.554 63.2813 66.9276 63.1437 67.3145C62.9998 67.719 62.6759 68.3651 62.1721 69.2526C61.6285 70.1991 61.1374 71.1303 60.6987 72.0462C60.2663 72.9446 59.8342 74.0005 59.4024 75.214C59.1647 75.8823 58.8749 76.274 58.5331 76.3893C58.2122 76.4984 57.7943 76.3519 57.2792 75.95C56.7789 75.5595 56.4538 75.1259 56.3037 74.6493C56.1746 74.1665 56.2259 73.5998 56.4574 72.9491L56.6296 72.5442C55.6353 73.7006 54.579 73.8424 53.4607 72.9695ZM55.2695 70.977C55.6815 71.2986 56.1787 71.2486 56.7612 70.8268C57.3437 70.4051 58.0802 69.4183 58.9708 67.8663L60.3382 65.5293C59.7286 65.076 59.0693 64.9209 58.3603 65.0641C57.6576 65.1898 56.9952 65.5716 56.3734 66.2098C55.7515 66.8479 55.2653 67.6594 54.9149 68.6443C54.7272 69.1719 54.6642 69.6396 54.726 70.0473C54.8087 70.4489 54.9899 70.7588 55.2695 70.977Z" fill="#7B0086"/>
<path d="M65.7506 81.6321C65.1653 81.2313 64.8607 80.5902 64.8367 79.7087C64.8281 78.8378 65.0686 77.6183 65.558 76.0502C66.281 73.7337 67.2528 71.7282 68.4734 70.0336C68.7733 69.6118 69.1134 69.3905 69.4938 69.3698C69.8951 69.3418 70.3807 69.5229 70.9506 69.9131C71.2586 70.124 71.4603 70.3162 71.5558 70.4896C71.6512 70.6631 71.6599 70.8745 71.5821 71.124C71.4931 71.4091 71.1774 71.9715 70.6349 72.8112C70.2584 73.4185 69.9405 73.9578 69.6812 74.429C69.422 74.9003 69.1392 75.5069 68.8329 76.2488C69.8194 75.0643 70.7786 74.2072 71.7105 73.6774C72.6423 73.1476 73.4725 72.8834 74.2011 72.8848C74.9451 72.8968 75.5712 73.0768 76.0795 73.4248C76.5724 73.7623 76.8948 74.1669 77.0466 74.6385C77.2195 75.1029 77.2169 75.6202 77.039 76.1904C76.8944 76.6537 76.5371 77.4688 75.9673 78.6358C75.474 79.6173 75.0282 80.5664 74.6299 81.4832C74.2371 82.3821 73.8545 83.4285 73.4818 84.6224C73.2705 85.2995 72.9943 85.7052 72.6533 85.8393C72.3333 85.9663 71.9038 85.8452 71.3647 85.476C70.8564 85.128 70.534 84.7235 70.3976 84.2624C70.2611 83.8012 70.2874 83.2678 70.4765 82.6619C70.6989 81.9492 71.1738 80.847 71.9011 79.3553C72.5309 78.0563 72.9069 77.2108 73.0293 76.8188C73.1183 76.5337 73.0781 76.3331 72.9086 76.2171C72.7084 76.08 72.3289 76.1879 71.7702 76.5406C71.2324 76.8861 70.618 77.417 69.9271 78.1334C69.2515 78.8603 68.6286 79.6882 68.0583 80.6169C67.6275 81.3384 67.2493 81.7715 66.9237 81.9163C66.6191 82.0537 66.2281 81.959 65.7506 81.6321Z" fill="#7B0086"/>
<path d="M84.9443 81.6574C84.667 82.5388 84.4597 83.2317 84.3224 83.736C83.9692 85.0327 83.7482 86.0839 83.6593 86.8893C83.5913 87.6863 83.6494 88.3283 83.8336 88.8152C84.0386 89.2937 84.3895 89.6814 84.8863 89.9781C85.1427 90.1313 85.4717 90.2231 85.8733 90.2536C86.2749 90.2841 86.6592 90.2414 87.0261 90.1256C87.2514 90.0508 87.4522 90.066 87.6285 90.1713C87.8208 90.2862 87.9387 90.5032 87.9822 90.8224C88.0467 91.1331 88.0323 91.4596 87.9391 91.8018C87.8459 92.144 87.6911 92.4389 87.4746 92.6865C87.2741 92.9437 87.0243 93.1086 86.7251 93.1811C85.6809 93.4578 84.6299 93.2802 83.5723 92.6484C82.0499 91.7389 81.1299 90.3622 80.8122 88.5181C80.4995 86.656 80.657 84.5723 81.2848 82.2669C81.5006 81.4745 81.7429 80.6873 82.0117 79.9056L81.0742 79.3455C80.5935 79.0584 80.2919 78.763 80.1696 78.4596C80.0633 78.1658 80.069 77.8027 80.1867 77.3705C80.4614 76.3619 80.9593 76.0729 81.6804 76.5037L83.0505 77.3222C83.8625 75.5038 84.772 73.9426 85.7792 72.6386C86.7864 71.3347 87.8151 70.431 88.8651 69.9275C89.9312 69.4336 90.921 69.4594 91.8344 70.0051C92.5075 70.4071 92.9456 71.0563 93.1487 71.9524C93.3518 72.8486 93.3161 73.8009 93.0414 74.8095C92.2812 77.6012 90.5775 79.4104 87.9302 80.2372L90.6224 81.8455C90.8788 81.9986 91.0459 82.1717 91.1238 82.3648C91.2016 82.5579 91.1939 82.8256 91.1007 83.1678C90.7623 84.4105 89.6877 84.491 87.8769 83.4093L84.9443 81.6574ZM90.4792 72.2109C90.2388 72.0673 89.8732 72.2468 89.3823 72.7493C88.9124 73.2434 88.3769 74.0124 87.7759 75.0564C87.1958 76.092 86.619 77.2865 86.0454 78.6401C87.241 78.2864 88.2257 77.681 88.9994 76.8239C89.794 75.9584 90.3189 75.0574 90.5739 74.1208C90.8633 73.0582 90.8317 72.4215 90.4792 72.2109Z" fill="#7B0086"/>
<path d="M95.1685 99.33C94.307 98.8827 93.696 98.3206 93.3353 97.6438C92.9912 96.9756 92.8836 96.369 93.0126 95.8241C93.1244 95.3518 93.3785 95.0248 93.7749 94.8431C94.1714 94.6614 94.6761 94.7297 95.2891 95.048C95.5044 95.1598 95.7465 95.3161 96.0152 95.5168C96.3048 95.708 96.522 95.8514 96.6668 95.947C96.762 95.4661 96.768 94.9694 96.6846 94.457C96.6179 93.9532 96.4971 93.4417 96.3223 92.9227C96.1518 92.3854 95.985 91.9112 95.8219 91.5002C95.0546 92.3052 94.3304 92.9286 93.6492 93.3704C92.9845 93.8208 92.2787 94.209 91.5318 94.5351C91.1562 94.7072 90.8028 94.7073 90.4715 94.5352C90.2064 94.3976 90.0147 94.1859 89.8963 93.9001C89.7822 93.5961 89.7617 93.2897 89.8348 92.9809C89.9208 92.6176 90.1163 92.3417 90.4213 92.1534L90.8476 91.8851C92.0511 91.123 92.9794 90.4628 93.6324 89.9044C94.0553 89.5325 94.5018 89.0606 94.972 88.4888C95.4588 87.9257 96.099 87.1465 96.8926 86.1512C97.3966 85.5153 98.1455 85.4555 99.1395 85.9716C99.6034 86.2125 99.9157 86.4256 100.076 86.6111C100.237 86.7965 100.294 86.9891 100.247 87.1889C100.221 87.2979 100.147 87.4533 100.025 87.655C99.9025 87.8568 99.7555 88.0456 99.5836 88.2215C99.1306 88.7206 98.8504 89.1972 98.7429 89.6513C98.6784 89.9238 98.6903 90.2665 98.7786 90.6795C98.8834 91.1011 99.0601 91.6518 99.3084 92.3315C99.658 93.3696 99.9008 94.23 100.037 94.9126C100.194 95.5856 100.197 96.24 100.047 96.8758C99.866 97.6387 99.5284 98.2792 99.0336 98.7975C98.5598 99.3061 97.9835 99.6188 97.3048 99.7355C96.6261 99.8523 95.914 99.7171 95.1685 99.33Z" fill="#7B0086"/>
<path d="M119.495 108.83C118.285 108.391 117.24 107.68 116.36 106.698C115.499 105.721 114.885 104.542 114.518 103.16C114.155 101.759 114.107 100.248 114.375 98.6275C114.838 95.8282 115.836 93.4475 117.369 91.4855C118.906 89.5051 120.907 88.2009 123.373 87.5728C125.842 86.9263 128.639 87.1695 131.762 88.3026C132.569 88.5954 133.419 88.9717 134.31 89.4317C135.218 89.8979 136.029 90.3968 136.741 90.9284C137.208 91.254 137.392 91.7114 137.295 92.3007C137.216 92.7796 136.966 93.1671 136.545 93.4634C136.141 93.766 135.711 93.8346 135.255 93.6691C135.115 93.6182 135.011 93.5708 134.944 93.5269C134.068 92.9749 133.313 92.5351 132.679 92.2075C132.048 91.8615 131.373 91.558 130.653 91.297C128.425 90.4886 126.435 90.372 124.684 90.9474C122.937 91.5042 121.523 92.5727 120.444 94.1527C119.364 95.7327 118.646 97.6001 118.29 99.7548C118.031 101.32 118.119 102.641 118.555 103.716C119.012 104.78 119.714 105.484 120.662 105.827C121.732 106.216 122.747 106.096 123.706 105.468C124.666 104.84 125.649 103.615 126.657 101.795C127.665 99.9738 128.786 97.4132 130.02 94.1127C130.211 93.6352 130.479 93.3617 130.825 93.2921C131.172 93.2225 131.608 93.2832 132.135 93.4742C133.38 93.9261 133.933 94.5757 133.793 95.4228C133.769 95.5702 133.712 95.7448 133.623 95.9467C132.871 97.5676 132.123 99.3946 131.377 101.428C130.653 103.449 130.197 105.021 130.012 106.144C129.847 107.139 129.867 107.917 130.072 108.48C130.28 109.023 130.673 109.4 131.252 109.61C131.814 109.814 132.381 109.815 132.954 109.613C133.529 109.392 134.283 108.943 135.213 108.265C135.466 108.084 135.724 108.041 135.988 108.137C136.216 108.219 136.373 108.393 136.459 108.659C136.563 108.931 136.583 109.26 136.519 109.647C136.4 110.365 136.139 110.876 135.736 111.178C134.696 111.953 133.717 112.476 132.798 112.748C131.879 113.02 130.822 112.939 129.629 112.506C128.401 112.061 127.47 111.333 126.838 110.322C126.208 109.294 125.909 108.063 125.942 106.63C124.171 109.013 122.022 109.747 119.495 108.83Z" fill="#7B0086"/>
<path d="M145.577 109.925C145.595 111.496 145.705 113.073 145.908 114.655C145.952 114.915 145.958 115.175 145.927 115.434C145.828 116.268 145.282 116.556 144.288 116.297C143.728 116.15 143.314 115.88 143.044 115.485C142.793 115.094 142.592 114.43 142.443 113.493L142.429 113.375C141.639 114.067 140.946 114.488 140.351 114.639C139.774 114.794 139.124 114.777 138.402 114.589C137.3 114.301 136.438 113.646 135.814 112.624C135.211 111.587 134.99 110.392 135.151 109.039C135.327 107.556 135.798 106.265 136.562 105.165C137.326 104.064 138.288 103.255 139.448 102.736C140.611 102.198 141.862 102.018 143.2 102.195C143.96 98.7814 144.973 95.9018 146.239 93.5566C147.523 91.216 148.968 90.2554 150.576 90.6748C151.353 90.8775 151.951 91.4062 152.371 92.2611C152.808 93.1206 152.94 94.2826 152.766 95.7469C152.523 97.7859 151.753 100.041 150.453 102.511C149.154 104.981 147.528 107.452 145.577 109.925ZM149.954 93.3219C149.43 93.1852 148.77 94.4273 147.974 97.0481C147.196 99.6736 146.534 102.578 145.988 105.761C148.522 101.835 149.955 98.4821 150.285 95.7017C150.369 94.9973 150.371 94.434 150.291 94.0118C150.229 93.5942 150.116 93.3643 149.954 93.3219ZM139.684 112.028C140.045 112.122 140.405 112.073 140.763 111.879C141.139 111.691 141.637 111.266 142.255 110.606C142.236 109.206 142.312 107.783 142.484 106.337C142.552 105.762 142.614 105.32 142.67 105.009C141.641 105.047 140.739 105.509 139.963 106.396C139.187 107.283 138.723 108.366 138.571 109.645C138.41 110.998 138.781 111.792 139.684 112.028Z" fill="#7B0086"/>
<path d="M154.696 118.081C153.612 117.883 152.707 117.445 151.981 116.765C151.274 116.069 150.765 115.24 150.454 114.277C150.142 113.314 150.029 112.321 150.114 111.297C150.232 109.884 150.593 108.675 151.198 107.671C151.824 106.652 152.612 105.917 153.562 105.467C154.515 104.999 155.551 104.867 156.671 105.071C157.755 105.268 158.659 105.716 159.384 106.415C160.11 107.095 160.629 107.916 160.941 108.88C161.252 109.843 161.366 110.836 161.281 111.859C161.163 113.273 160.792 114.489 160.167 115.508C159.543 116.509 158.746 117.242 157.775 117.707C156.824 118.157 155.798 118.281 154.696 118.081ZM155.249 115.122C155.874 115.236 156.426 114.987 156.905 114.376C157.403 113.768 157.707 112.804 157.817 111.483C157.902 110.46 157.782 109.654 157.458 109.066C157.134 108.479 156.715 108.138 156.201 108.044C155.54 107.924 154.96 108.167 154.462 108.775C153.984 109.368 153.689 110.334 153.578 111.674C153.49 112.734 153.609 113.549 153.935 114.118C154.26 114.687 154.698 115.022 155.249 115.122Z" fill="#7B0086"/>
<path d="M172.815 116.359C173.029 116.195 173.237 116.124 173.442 116.147C173.664 116.172 173.834 116.322 173.95 116.597C174.087 116.856 174.146 117.163 174.128 117.517C174.088 118.3 173.778 118.894 173.198 119.298C172.192 119.992 171.077 120.271 169.853 120.134C168.09 119.938 166.838 119.058 166.097 117.494C165.356 115.912 165.047 113.928 165.168 111.542C165.283 109.267 165.702 106.708 166.425 103.864C167.167 101.022 168.156 98.6195 169.394 96.6575C170.65 94.6977 172.067 93.8056 173.643 93.9812C174.534 94.0804 175.208 94.5773 175.667 95.472C176.144 96.3502 176.344 97.5629 176.266 99.1102C176.153 101.329 175.41 103.833 174.037 106.624C172.683 109.416 170.885 112.122 168.644 114.741C168.735 115.52 168.939 116.095 169.255 116.468C169.572 116.841 170.018 117.059 170.593 117.123C170.909 117.159 171.266 117.105 171.665 116.962C172.083 116.821 172.466 116.62 172.815 116.359ZM172.891 96.6814C172.464 96.6339 171.942 97.3539 171.326 98.8413C170.709 100.329 170.139 102.196 169.614 104.444C169.09 106.691 168.755 108.866 168.611 110.969C170.039 108.934 171.198 106.87 172.088 104.776C172.979 102.663 173.47 100.702 173.562 98.8935C173.634 97.4766 173.41 96.7393 172.891 96.6814Z" fill="#7B0086"/>
<path d="M187.258 115.617C187.5 115.628 187.684 115.748 187.81 115.978C187.955 116.209 188.023 116.52 188.015 116.912C188.002 117.584 187.832 118.155 187.505 118.626C186.966 119.406 186.264 120 185.397 120.41C184.548 120.821 183.537 121 182.362 120.947C180.572 120.868 179.193 120.274 178.227 119.166C177.26 118.04 176.795 116.562 176.833 114.733C176.859 113.446 177.153 112.263 177.716 111.186C178.28 110.09 179.044 109.237 180.008 108.626C180.991 108.016 182.089 107.738 183.301 107.792C184.382 107.84 185.243 108.205 185.882 108.888C186.522 109.551 186.831 110.433 186.809 111.535C186.782 112.822 186.294 113.912 185.342 114.804C184.41 115.677 182.829 116.336 180.599 116.778C181.029 117.657 181.775 118.119 182.838 118.167C183.603 118.201 184.231 118.051 184.723 117.718C185.234 117.386 185.824 116.814 186.494 116.004C186.723 115.734 186.978 115.605 187.258 115.617ZM182.77 110.514C182.08 110.484 181.484 110.859 180.983 111.64C180.5 112.421 180.248 113.382 180.225 114.52L180.223 114.576C181.329 114.364 182.204 114.01 182.849 113.516C183.493 113.022 183.823 112.429 183.837 111.739C183.844 111.384 183.747 111.099 183.546 110.885C183.364 110.653 183.105 110.529 182.77 110.514Z" fill="#7B0086"/>
<path d="M195.598 121.59C194.627 121.614 193.878 121.407 193.351 120.972C192.842 120.536 192.585 120.038 192.579 119.478C192.573 118.993 192.746 118.569 193.097 118.206C193.447 117.842 193.968 117.653 194.658 117.636C194.901 117.63 195.181 117.652 195.499 117.7C195.835 117.729 196.088 117.751 196.256 117.766C196.232 117.281 196.115 116.826 195.905 116.402C195.714 115.977 195.467 115.572 195.164 115.187C194.861 114.784 194.577 114.436 194.312 114.144C193.746 115.259 193.177 116.187 192.607 116.929C192.055 117.67 191.447 118.376 190.782 119.045C190.45 119.389 190.097 119.566 189.724 119.575C189.425 119.582 189.181 119.485 188.993 119.284C188.803 119.065 188.707 118.796 188.704 118.479C188.7 118.105 188.827 117.757 189.084 117.433L189.443 116.977C190.456 115.683 191.219 114.619 191.732 113.785C192.062 113.236 192.391 112.584 192.719 111.829C193.065 111.074 193.512 110.046 194.057 108.745C194.403 107.915 195.136 107.487 196.255 107.46C196.778 107.447 197.142 107.485 197.349 107.574C197.555 107.662 197.659 107.809 197.661 108.014C197.663 108.126 197.627 108.304 197.555 108.549C197.483 108.793 197.383 109.038 197.255 109.284C196.927 109.964 196.765 110.538 196.77 111.004C196.773 111.284 196.87 111.59 197.06 111.921C197.269 112.252 197.581 112.665 197.997 113.159C198.603 113.929 199.058 114.59 199.363 115.143C199.686 115.677 199.851 116.27 199.859 116.923C199.867 117.707 199.689 118.458 199.323 119.177C198.976 119.876 198.478 120.448 197.83 120.893C197.181 121.338 196.437 121.57 195.598 121.59Z" fill="#7B0086"/>
<path d="M208.819 120.139C207.054 120.302 205.647 119.918 204.6 118.985C203.571 118.031 203.021 116.706 202.949 115.009C202.886 113.498 203.127 112.147 203.674 110.954C204.221 109.761 204.955 108.813 205.877 108.11C206.799 107.407 207.781 107.008 208.822 106.911C209.844 106.817 210.647 107.051 211.23 107.615C211.832 108.159 212.153 108.906 212.193 109.857C212.226 110.641 212.077 111.319 211.747 111.893C211.435 112.464 211 112.776 210.443 112.828C210.089 112.86 209.798 112.803 209.568 112.656C209.356 112.507 209.244 112.283 209.231 111.985C209.226 111.854 209.238 111.703 209.268 111.532C209.298 111.361 209.321 111.237 209.337 111.161C209.418 110.872 209.453 110.607 209.443 110.364C209.433 110.122 209.36 109.941 209.224 109.823C209.107 109.703 208.937 109.653 208.714 109.673C208.287 109.713 207.895 109.946 207.54 110.372C207.184 110.779 206.908 111.32 206.713 111.993C206.517 112.666 206.436 113.395 206.469 114.178C206.514 115.241 206.762 116.033 207.213 116.553C207.682 117.052 208.316 117.265 209.115 117.191C209.747 117.133 210.315 116.893 210.82 116.472C211.343 116.049 211.85 115.45 212.34 114.674C212.551 114.374 212.796 114.211 213.075 114.185C213.316 114.163 213.507 114.257 213.647 114.469C213.805 114.679 213.892 114.98 213.909 115.372C213.937 116.043 213.803 116.636 213.508 117.15C213.039 117.98 212.405 118.665 211.607 119.207C210.808 119.731 209.879 120.041 208.819 120.139Z" fill="#7B0086"/>
<path d="M226.344 112.149C226.583 112.11 226.776 112.192 226.921 112.395C227.085 112.594 227.181 112.89 227.21 113.281C227.259 113.951 227.145 114.553 226.867 115.088C226.41 115.972 225.774 116.705 224.96 117.289C224.163 117.87 223.184 118.254 222.023 118.441C220.254 118.726 218.842 118.417 217.788 117.514C216.732 116.592 216.136 115.219 216.002 113.394C215.908 112.11 216.087 110.875 216.541 109.69C216.993 108.487 217.665 107.484 218.557 106.681C219.467 105.874 220.521 105.375 221.719 105.181C222.788 105.009 223.669 105.196 224.362 105.744C225.053 106.273 225.44 107.086 225.52 108.185C225.615 109.469 225.236 110.651 224.383 111.731C223.547 112.789 222.052 113.765 219.899 114.658C220.404 115.443 221.182 115.751 222.233 115.582C222.988 115.46 223.593 115.183 224.046 114.752C224.517 114.318 225.045 113.63 225.628 112.688C225.829 112.373 226.067 112.194 226.344 112.149ZM221.451 107.994C220.769 108.104 220.218 108.598 219.798 109.476C219.396 110.351 219.237 111.356 219.32 112.491L219.324 112.547C220.392 112.111 221.22 111.582 221.809 110.959C222.397 110.337 222.666 109.681 222.615 108.993C222.589 108.639 222.467 108.376 222.249 108.204C222.049 108.01 221.782 107.94 221.451 107.994Z" fill="#7B0086"/>
<path d="M231.943 116.65C231.252 116.813 230.722 116.558 230.351 115.884C229.999 115.206 229.734 114.051 229.559 112.418C229.299 110.005 229.388 107.633 229.826 105.303C229.932 104.726 230.153 104.274 230.49 103.947C230.844 103.597 231.357 103.343 232.029 103.184C232.392 103.098 232.652 103.085 232.807 103.143C232.962 103.201 233.054 103.361 233.082 103.62C233.114 103.917 233.05 104.618 232.889 105.721C232.787 106.507 232.712 107.191 232.663 107.773C232.614 108.356 232.597 109.064 232.612 109.898C233.04 108.16 233.572 106.702 234.209 105.524C234.846 104.345 235.496 103.459 236.158 102.865C236.839 102.266 237.479 101.896 238.078 101.755C238.66 101.617 239.113 101.672 239.437 101.919C239.778 102.143 239.981 102.552 240.045 103.146C240.097 103.628 240.095 104.561 240.039 105.945C239.979 107.12 239.95 108.231 239.95 109.277C239.949 110.305 240.016 111.441 240.15 112.684C240.226 113.389 240.135 113.934 239.879 114.318C239.638 114.68 239.2 114.936 238.564 115.086C237.965 115.227 237.512 115.173 237.205 114.922C236.899 114.67 236.712 114.229 236.644 113.598C236.564 112.856 236.559 111.601 236.629 109.833C236.687 108.297 236.694 107.325 236.65 106.917C236.618 106.62 236.503 106.495 236.303 106.542C236.067 106.598 235.764 106.993 235.396 107.727C235.045 108.438 234.697 109.358 234.352 110.486C234.026 111.609 233.788 112.77 233.637 113.966C233.532 114.886 233.359 115.535 233.121 115.915C232.898 116.272 232.506 116.517 231.943 116.65Z" fill="#7B0086"/>
<path d="M247.997 101.678C248.093 102.613 248.178 103.34 248.252 103.857C248.441 105.188 248.652 106.212 248.885 106.931C249.133 107.626 249.432 108.092 249.782 108.33C250.147 108.544 250.606 108.565 251.159 108.392C251.444 108.303 251.769 108.105 252.135 107.798C252.5 107.491 252.822 107.139 253.101 106.743C253.271 106.497 253.454 106.343 253.65 106.282C253.863 106.215 254.051 106.292 254.213 106.512C254.389 106.707 254.503 106.981 254.553 107.332C254.603 107.683 254.58 108.047 254.485 108.424C254.408 108.796 254.251 109.134 254.015 109.44C253.202 110.524 252.207 111.249 251.031 111.617C249.339 112.146 247.997 111.802 247.005 110.587C246.01 109.354 245.345 107.554 245.008 105.189C244.892 104.376 244.802 103.545 244.737 102.697L243.694 103.022C243.16 103.189 242.78 103.202 242.555 103.06C242.348 102.912 242.213 102.616 242.15 102.173C242.002 101.138 242.329 100.495 243.131 100.245L244.655 99.769C244.668 97.6415 244.867 95.6396 245.251 93.7631C245.635 91.8866 246.193 90.313 246.924 89.0423C247.673 87.7661 248.555 86.9694 249.57 86.6521C250.319 86.4184 250.955 86.5766 251.48 87.1268C252.005 87.677 252.342 88.4695 252.489 89.5044C252.897 92.3689 252.094 95.2255 250.08 98.0742L253.074 97.1392C253.359 97.0502 253.573 97.0508 253.716 97.1412C253.859 97.2317 253.956 97.4524 254.006 97.8035C254.187 99.0787 253.271 100.031 251.258 100.66L247.997 101.678ZM249.228 89.5387C248.96 89.6222 248.708 90.0679 248.469 90.8759C248.246 91.6599 248.071 92.7183 247.944 94.051C247.833 95.3598 247.786 96.7932 247.803 98.3514C248.72 97.0805 249.354 95.7822 249.705 94.4566C250.071 93.1069 250.185 91.9515 250.049 90.9905C249.893 89.9002 249.62 89.4163 249.228 89.5387Z" fill="#7B0086"/>
<path d="M263.015 108.178C262.109 108.526 261.373 108.574 260.808 108.32C260.26 108.06 259.938 107.654 259.841 107.102C259.758 106.624 259.851 106.147 260.12 105.67C260.39 105.194 260.847 104.831 261.492 104.583C261.718 104.496 261.985 104.423 262.29 104.365C262.611 104.281 262.851 104.218 263.011 104.176C262.909 103.705 262.726 103.294 262.46 102.945C262.212 102.589 261.914 102.272 261.568 101.993C261.218 101.696 260.896 101.447 260.6 101.246C260.25 102.539 259.868 103.648 259.454 104.572C259.057 105.49 258.601 106.392 258.087 107.277C257.831 107.728 257.529 108.021 257.18 108.155C256.902 108.262 256.658 108.248 256.448 108.113C256.235 107.959 256.101 107.726 256.046 107.414C255.982 107.046 256.044 106.659 256.233 106.252L256.496 105.681C257.235 104.062 257.777 102.754 258.123 101.757C258.343 101.104 258.546 100.349 258.73 99.4926C258.933 98.6299 259.184 97.4637 259.484 95.994C259.673 95.0577 260.291 94.3885 261.336 93.9865C261.824 93.7989 262.172 93.7142 262.379 93.7324C262.587 93.7507 262.709 93.8609 262.744 94.0632C262.763 94.1735 262.759 94.3615 262.731 94.6274C262.704 94.8932 262.65 95.1691 262.57 95.455C262.372 96.2375 262.314 96.8586 262.394 97.3182C262.443 97.594 262.583 97.8639 262.815 98.1279C263.065 98.3851 263.425 98.6882 263.895 99.0373C264.588 99.5951 265.122 100.096 265.498 100.541C265.887 100.96 266.139 101.491 266.251 102.135C266.387 102.907 266.341 103.709 266.115 104.542C265.904 105.35 265.53 106.082 264.994 106.74C264.459 107.397 263.799 107.876 263.015 108.178Z" fill="#7B0086"/>
<path d="M286.622 97.271C285.489 97.8851 284.388 98.1333 283.317 98.0155C282.262 97.8889 281.328 97.3881 280.517 96.5132C279.7 95.6201 279.095 94.3763 278.701 92.7816C278.02 90.0272 277.924 87.192 278.412 84.2759C278.896 81.3416 280.005 78.6027 281.74 76.059C283.47 73.4971 285.795 71.4241 288.716 69.8399C289.471 69.4305 290.29 69.0579 291.175 68.7219C292.076 68.3771 292.911 68.1402 293.679 68.0112C294.174 67.9069 294.493 68.1447 294.637 68.7246C294.753 69.1958 294.699 69.7287 294.474 70.3235C294.265 70.9094 293.948 71.318 293.521 71.5494C293.39 71.6206 293.289 71.665 293.219 71.6824C292.312 71.9278 291.544 72.1698 290.914 72.4085C290.28 72.6291 289.627 72.9218 288.954 73.2867C286.87 74.417 285.237 75.9399 284.054 77.8555C282.867 79.753 282.139 81.8126 281.87 84.0344C281.6 86.2562 281.727 88.4272 282.252 90.5474C282.633 92.0877 283.199 93.1368 283.951 93.6948C284.715 94.2258 285.54 94.2509 286.426 93.7703C287.427 93.2275 288.193 92.2983 288.724 90.9828C289.254 89.6674 289.581 87.8258 289.702 85.4581C289.824 83.0903 289.758 80.0022 289.505 76.1937C289.478 75.6329 289.59 75.1818 289.841 74.8404C290.091 74.499 290.462 74.1948 290.955 73.9278C292.12 73.2959 292.805 73.3967 293.011 74.2303C293.047 74.3752 293.067 74.5698 293.072 74.814C293.08 76.8031 293.168 78.9647 293.335 81.2988C293.515 83.6058 293.742 85.312 294.015 86.4174C294.257 87.3959 294.565 88.0405 294.94 88.3512C295.31 88.6437 295.765 88.6431 296.307 88.3494C296.832 88.0646 297.285 87.6029 297.667 86.9642C298.044 86.3075 298.478 85.3121 298.967 83.9783C299.101 83.6178 299.291 83.3708 299.537 83.2373C299.75 83.1216 299.941 83.1413 300.11 83.2964C300.295 83.4427 300.435 83.7061 300.529 84.0866C300.703 84.7934 300.686 85.4397 300.478 86.0255C299.938 87.5308 299.352 88.7734 298.72 89.7535C298.087 90.7335 297.213 91.5261 296.098 92.1313C294.949 92.7543 293.932 92.8947 293.048 92.5526C292.158 92.1923 291.458 91.3906 290.946 90.1476C290.426 93.6149 288.984 95.9894 286.622 97.271Z" fill="#7B0086"/>
<path d="M308.391 77.4462C309.001 78.8001 309.684 80.0849 310.44 81.3007C310.572 81.4923 310.675 81.7132 310.75 81.9636C310.991 82.7684 310.682 83.4523 309.823 84.0154C309.339 84.3328 308.919 84.4264 308.563 84.2964C308.222 84.1562 307.817 83.7374 307.347 83.0402L307.292 82.9482C306.95 84.1778 306.58 85.0944 306.181 85.6979C305.799 86.2912 305.295 86.7925 304.671 87.202C303.719 87.8265 302.81 87.9411 301.945 87.5458C301.09 87.1223 300.468 86.2578 300.078 84.9523C299.65 83.5215 299.52 82.024 299.687 80.4598C299.854 78.8956 300.283 77.427 300.974 76.0539C301.66 74.663 302.548 73.5134 303.639 72.6052C302.925 69.0305 302.608 65.7199 302.686 62.6735C302.781 59.6169 303.523 57.633 304.912 56.7219C305.583 56.2817 306.241 56.267 306.887 56.6779C307.548 57.0785 308.09 57.9852 308.512 59.3981C309.1 61.3654 309.366 63.94 309.309 67.1218C309.252 70.3036 308.946 73.7451 308.391 77.4462ZM305.44 59.5198C304.988 59.8167 304.954 61.4217 305.339 64.3348C305.741 67.2376 306.336 70.291 307.126 73.4951C307.575 68.0665 307.399 64.0108 306.597 61.3281C306.394 60.6485 306.181 60.1568 305.96 59.8529C305.754 59.5387 305.581 59.4277 305.44 59.5198ZM304.68 83.9551C304.992 83.7503 305.249 83.4217 305.45 82.9691C305.666 82.5064 305.886 81.742 306.108 80.6761C305.562 79.4729 305.08 78.1738 304.663 76.7788C304.497 76.2244 304.377 75.7901 304.302 75.4758C303.529 76.325 303.014 77.4436 302.756 78.8315C302.499 80.2195 302.555 81.5305 302.924 82.7645C303.314 84.0701 303.9 84.4669 304.68 83.9551Z" fill="#7B0086"/>
<path d="M318.083 78.4437C317.381 78.9701 316.699 79.0602 316.036 78.7139C315.382 78.3387 314.85 77.5506 314.44 76.3495C313.987 75.0248 313.648 73.7589 313.422 72.5519C313.191 71.3271 313.036 69.9677 312.957 68.4737C312.925 67.8318 313.004 67.2953 313.194 66.864C313.384 66.4328 313.771 65.9987 314.353 65.5619C314.682 65.3154 314.927 65.2092 315.088 65.2432C315.265 65.2661 315.396 65.4011 315.48 65.6484C315.529 65.7897 315.61 66.3282 315.723 67.2639C315.797 68.0294 315.88 68.7107 315.972 69.3078C316.307 71.3864 316.581 72.7348 316.792 73.353C316.919 73.7239 317.047 73.9608 317.176 74.0638C317.299 74.1491 317.443 74.1301 317.607 74.0069C317.831 73.8389 318.024 73.3611 318.186 72.5736C318.342 71.7684 318.423 70.6871 318.428 69.3296C318.442 67.9433 318.357 66.353 318.175 64.5588C318.114 63.9393 318.163 63.4251 318.323 63.0163C318.499 62.5962 318.833 62.2014 319.325 61.8317C319.654 61.5853 319.922 61.5176 320.129 61.6288C320.344 61.7111 320.522 61.9553 320.661 62.3616C320.812 62.8031 320.951 63.3201 321.078 63.9124C321.2 64.4871 321.32 65.085 321.438 65.7062C321.676 66.9487 321.91 68.0715 322.14 69.0749C322.365 70.0605 322.679 71.145 323.084 72.3284C323.313 72.9996 323.36 73.5749 323.224 74.0544C323.096 74.505 322.771 74.9264 322.249 75.3184C321.696 75.7329 321.251 75.8563 320.912 75.6888C320.582 75.4923 320.248 74.8996 319.91 73.9105C319.843 73.7162 319.71 73.2723 319.511 72.5787C319.68 74.0055 319.622 75.2361 319.338 76.2704C319.068 77.2936 318.65 78.018 318.083 78.4437Z" fill="#7B0086"/>
<path d="M333.638 61.5699C333.728 61.2635 333.852 61.0442 334.009 60.9121C334.18 60.768 334.363 60.7759 334.556 60.9359C334.758 61.0664 334.922 61.2973 335.048 61.6284C335.329 62.3605 335.338 63.1246 335.077 63.9207C334.621 65.2948 333.921 66.3782 332.978 67.1709C331.621 68.3119 330.364 68.4581 329.207 67.6095C328.044 66.7435 327.035 65.1949 326.181 62.9637C325.366 60.8371 324.659 58.2281 324.06 55.1365C323.475 52.0329 323.245 49.1387 323.369 46.4538C323.507 43.7568 324.183 41.8979 325.397 40.877C326.083 40.3005 326.769 40.2423 327.456 40.7024C328.15 41.1331 328.774 42.0718 329.328 43.5186C330.123 45.5929 330.573 48.3947 330.679 51.9241C330.798 55.4415 330.562 59.2122 329.969 63.2363C330.343 63.8669 330.718 64.231 331.096 64.3286C331.473 64.4262 331.883 64.2888 332.326 63.9164C332.569 63.7123 332.807 63.3969 333.041 62.9704C333.288 62.5318 333.487 62.065 333.638 61.5699ZM325.918 43.8619C325.589 44.1381 325.495 45.1738 325.635 46.9689C325.775 48.7639 326.098 50.8656 326.605 53.2739C327.112 55.6821 327.729 57.8831 328.455 59.8768C328.688 56.9846 328.714 54.2666 328.533 51.7227C328.345 49.1614 327.927 47.0354 327.279 45.3446C326.772 44.0198 326.318 43.5256 325.918 43.8619Z" fill="#7B0086"/>
<path d="M339.291 48.776C339.628 49.6606 339.899 50.3435 340.103 50.8246C340.628 52.0618 341.088 52.9881 341.483 53.6036C341.884 54.1891 342.266 54.5284 342.629 54.6215C342.999 54.6846 343.396 54.519 343.819 54.1247C344.038 53.9212 344.261 53.5936 344.489 53.1419C344.716 52.6903 344.895 52.2125 345.024 51.7086C345.101 51.3968 345.215 51.171 345.366 51.0311C345.529 50.8784 345.71 50.8779 345.908 51.0294C346.112 51.151 346.283 51.3751 346.422 51.7016C346.561 52.028 346.641 52.3968 346.663 52.8079C346.698 53.2062 346.658 53.6039 346.54 54.0009C346.143 55.4012 345.494 56.5211 344.592 57.3606C343.295 58.569 342.057 58.7743 340.88 57.9766C339.695 57.1616 338.636 55.6544 337.703 53.455C337.382 52.6989 337.078 51.9152 336.791 51.1038L335.991 51.8479C335.581 52.2295 335.261 52.3958 335.031 52.3467C334.814 52.2848 334.618 52.0477 334.443 51.6354C334.035 50.6731 334.138 49.9058 334.753 49.3334L335.921 48.2458C335.351 46.1394 334.973 44.0818 334.787 42.0729C334.602 40.0641 334.647 38.2841 334.923 36.7329C335.212 35.169 335.746 34.0246 336.525 33.2995C337.098 32.7653 337.684 32.6634 338.282 32.9939C338.88 33.3244 339.383 33.9708 339.791 34.933C340.921 37.5964 341.018 40.7429 340.081 44.3726L342.376 42.2356C342.594 42.0321 342.777 41.9459 342.924 41.9772C343.07 42.0084 343.213 42.1873 343.352 42.5137C343.855 43.6994 343.335 45.0109 341.791 46.4482L339.291 48.776ZM337.022 36.289C336.817 36.4798 336.723 37.0226 336.74 37.9172C336.764 38.7819 336.905 39.898 337.161 41.2656C337.424 42.6032 337.775 44.0378 338.216 45.5696C338.65 43.9428 338.835 42.4036 338.772 40.9522C338.715 39.4709 338.497 38.2835 338.118 37.39C337.687 36.3762 337.322 36.0092 337.022 36.289Z" fill="#7B0086"/>
<path d="M356.082 39.1885C356.251 39.0145 356.429 38.982 356.615 39.091C356.814 39.1867 356.997 39.412 357.164 39.7668C357.449 40.3752 357.584 41.0129 357.57 41.6798C357.546 42.7814 357.331 43.8429 356.923 44.8644C356.528 45.8724 355.921 46.7983 355.101 47.6418C353.853 48.9272 352.658 49.4431 351.516 49.1895C350.367 48.919 349.404 47.9557 348.627 46.2997C348.079 45.1337 347.761 43.858 347.67 42.4727C347.571 41.0705 347.715 39.7323 348.101 38.458C348.499 37.1703 349.121 36.0913 349.967 35.221C350.721 34.4444 351.465 34.1175 352.198 34.2403C352.922 34.3462 353.519 34.8977 353.987 35.8947C354.534 37.0607 354.681 38.4009 354.427 39.9153C354.178 41.3994 353.395 43.1832 352.077 45.2666C352.754 45.7225 353.463 45.5689 354.204 44.8057C354.738 44.2568 355.098 43.6477 355.285 42.9785C355.486 42.2959 355.635 41.3401 355.734 40.111C355.771 39.6969 355.887 39.3894 356.082 39.1885ZM350.801 38.0465C350.32 38.5419 350.08 39.327 350.083 40.4017C350.099 41.4631 350.349 42.5092 350.833 43.54L350.856 43.5907C351.513 42.5641 351.951 41.5867 352.171 40.6583C352.391 39.7299 352.355 38.953 352.061 38.3278C351.911 38.0067 351.72 37.8269 351.49 37.7883C351.265 37.7194 351.035 37.8055 350.801 38.0465Z" fill="#7B0086"/>
<path d="M366.312 37.0702C365.67 37.7983 365.074 38.1595 364.522 38.1536C363.983 38.1337 363.585 37.875 363.328 37.3776C363.105 36.9465 363.029 36.4404 363.101 35.8593C363.172 35.2782 363.437 34.7286 363.893 34.2106C364.054 34.0285 364.252 33.8434 364.487 33.6551C364.727 33.4362 364.906 33.272 365.026 33.1626C364.791 32.7455 364.506 32.4233 364.174 32.1959C363.853 31.9546 363.504 31.7718 363.126 31.6477C362.74 31.5069 362.392 31.4019 362.082 31.3326C362.205 32.745 362.243 33.9916 362.194 35.0723C362.158 36.139 362.068 37.2146 361.924 38.299C361.856 38.8495 361.699 39.2648 361.452 39.5449C361.254 39.7689 361.047 39.8597 360.829 39.8174C360.603 39.7584 360.417 39.588 360.271 39.3061C360.099 38.9745 360.027 38.5697 360.054 38.0918L360.089 37.4208C360.185 35.5232 360.217 34.0135 360.186 32.8919C360.159 32.159 360.086 31.3349 359.965 30.4196C359.856 29.4903 359.692 28.2436 359.47 26.6794C359.328 25.6838 359.627 24.7659 360.367 23.9258C360.713 23.5337 360.975 23.3021 361.154 23.231C361.332 23.1599 361.469 23.2155 361.563 23.3979C361.614 23.4974 361.671 23.6829 361.733 23.9545C361.795 24.2261 361.839 24.5186 361.864 24.8322C361.951 25.6812 362.101 26.3129 362.315 26.7274C362.444 26.9762 362.647 27.1797 362.925 27.3382C363.215 27.4826 363.612 27.6246 364.115 27.7643C364.87 28.0126 365.475 28.2735 365.929 28.5469C366.388 28.7897 366.767 29.2012 367.067 29.7816C367.427 30.478 367.647 31.2813 367.726 32.1914C367.808 33.0709 367.732 33.9464 367.498 34.8179C367.263 35.6893 366.868 36.4401 366.312 37.0702Z" fill="#7B0086"/>
</svg>
