<svg width="757" height="177" viewBox="0 0 757 177" fill="none" xmlns="http://www.w3.org/2000/svg">
<path d="M57.3291 81.2863C57.9753 81.2933 58.4833 81.3731 58.853 81.5256C59.4447 81.7697 59.7969 82.1746 59.9096 82.7404C60.0224 83.3061 59.9338 83.9403 59.644 84.6429C59.1863 85.7522 58.52 86.5807 57.645 87.1283C56.807 87.6913 55.6112 88.0201 54.0577 88.1148C51.4489 88.2501 48.2769 87.9151 44.5418 87.1098C40.8219 86.2674 37.2795 85.1522 33.9146 83.764C29.2555 81.8419 25.568 79.7148 22.8521 77.3828C20.1515 75.0138 18.406 72.5845 17.6157 70.095C16.8624 67.6207 16.9663 65.2188 17.9273 62.8892C19.2392 59.7092 21.3697 57.4294 24.3187 56.0498C27.32 54.6485 31.0233 54.2724 35.4287 54.9216C33.5064 53.3929 32.2816 51.5895 31.7543 49.5114C31.2639 47.4485 31.423 45.4371 32.2315 43.4773C33.3299 40.815 35.1305 38.8102 37.6335 37.4629C40.1887 36.094 43.1188 35.4421 46.4236 35.5074C49.7285 35.5728 53.0819 36.3071 56.4837 37.7106C61.0689 39.6022 64.0958 42.0193 65.5646 44.9618C67.0487 47.8674 67.1424 50.8917 65.8457 54.0347C64.9457 56.2164 63.8067 57.8234 62.4288 58.856C61.1031 59.8668 59.7007 60.0671 58.2217 59.4569C57.1863 59.0298 56.4644 58.4723 56.0558 57.7845C55.6625 57.0597 55.6565 56.2351 56.0379 55.3107C56.2972 54.6821 56.6718 54.0362 57.1618 53.3729C57.8501 52.229 58.2858 51.4351 58.4689 50.9914C59.018 49.6602 58.9612 48.3819 58.2985 47.1566C57.6509 45.8942 56.1624 44.7825 53.8329 43.8215C50.6898 42.5248 47.9008 42.1531 45.4658 42.7062C43.0308 43.2594 41.3481 44.6638 40.4175 46.9194C39.7005 48.6573 39.8082 50.3892 40.7404 52.1152C41.7248 53.8194 43.8027 55.3906 46.9739 56.8287C47.7721 57.2013 48.269 57.6226 48.4645 58.0927C48.66 58.5628 48.5976 59.1861 48.2772 59.9626C47.2704 62.4031 45.6501 63.1842 43.4162 62.3059C40.3166 61.1137 37.5898 60.4863 35.2357 60.4238C32.9186 60.3766 31.0461 60.7724 29.6183 61.6113C28.2427 62.4284 27.2727 63.521 26.7082 64.8892C25.7624 67.1818 26.1178 69.3621 27.7743 71.4301C29.4461 73.4612 32.6115 75.4377 37.2706 77.3599C40.3397 78.626 43.7201 79.6095 47.4118 80.3104C51.1557 80.9896 54.4615 81.3149 57.3291 81.2863Z" fill="#7B0086"/>
<path d="M50.9539 90.3665C49.528 89.84 48.7919 88.7154 48.7457 86.9928C48.7371 85.284 49.3423 82.7786 50.5616 79.4765C52.3627 74.5984 54.7679 70.2205 57.7773 66.3428C58.5168 65.3793 59.3519 64.7922 60.2825 64.5815C61.2644 64.3471 62.4496 64.4862 63.838 64.9988C64.5885 65.2759 65.0792 65.5637 65.3101 65.8622C65.541 66.1606 65.5595 66.5725 65.3655 67.0979C65.1439 67.6982 64.3636 68.9452 63.0249 70.8387C62.0955 72.2011 61.3104 73.4036 60.6696 74.4462C60.0288 75.4888 59.3286 76.8079 58.5689 78.4036C60.9987 75.6337 63.3569 73.5197 65.6435 72.0614C67.9302 70.6032 69.9645 69.7127 71.7466 69.39C73.5662 69.0811 75.0952 69.1553 76.3335 69.6125C77.5342 70.0558 78.3171 70.7073 78.6819 71.5669C79.0981 72.4028 79.0846 73.4211 78.6412 74.6219C78.281 75.5975 77.3957 77.36 75.9854 79.9093C74.765 82.0597 73.6613 84.1253 72.6741 86.106C71.7008 88.0491 70.75 90.2778 69.8218 92.7919C69.2953 94.2178 68.6141 95.1389 67.7782 95.5551C66.9936 95.9476 65.9447 95.9015 64.6314 95.4166C63.3931 94.9593 62.6103 94.3079 62.2829 93.4621C61.9556 92.6164 62.0275 91.5556 62.4985 90.2798C63.0527 88.7789 64.2298 86.3993 66.0298 83.141C67.5884 80.3054 68.5202 78.4748 68.825 77.6493C69.0467 77.0489 68.9511 76.6725 68.5384 76.5201C68.0506 76.34 67.1208 76.7216 65.7492 77.6649C64.4289 78.5845 62.9187 79.903 61.2186 81.6205C59.556 83.3518 58.0208 85.258 56.6128 87.3391C55.5488 88.9504 54.6177 89.971 53.8193 90.4011C53.0723 90.8075 52.1171 90.796 50.9539 90.3665Z" fill="#7B0086"/>
<path d="M106.681 91.6961C107.743 92.0531 108.006 93.0278 107.47 94.6202C106.463 97.6154 103.609 98.3225 98.9075 96.7415C97.9976 96.4355 96.7469 95.825 95.1556 94.91C94.858 97.4264 94.3763 100.176 93.7106 103.16C93.0956 106.118 92.4757 108.526 91.851 110.384C90.474 114.478 88.7586 117.383 86.7049 119.098C84.6512 120.813 82.5438 121.307 80.3827 120.58C77.6529 119.662 76.3506 117.072 76.4758 112.81C76.6389 108.56 78.0337 102.53 80.6601 94.7197C83.1081 87.4403 86.3652 80.3275 90.4314 73.3813C94.5482 66.4099 98.7939 60.9377 103.168 56.9649C107.594 52.9668 111.455 51.5225 114.754 52.6317C116.536 53.2309 117.652 54.4925 118.102 56.4164C118.59 58.353 118.382 60.6672 117.477 63.3591C114.48 72.2688 105.89 80.1833 91.7041 87.1026C90.0755 90.6907 88.7894 93.8875 87.8459 96.6931C86.5327 100.598 85.3203 104.643 84.2087 108.827C83.0844 113.048 82.8255 115.261 83.4321 115.465C84.5695 115.848 85.8012 114.068 87.1272 110.125C88.1217 107.167 88.8758 104.235 89.3895 101.327C89.9411 98.4316 90.392 95.3338 90.7423 92.0333C90.8702 91.5276 91.2322 90.9531 91.8284 90.3095C92.4626 89.6788 93.1406 89.1683 93.8627 88.7781C94.5847 88.3879 95.1543 88.2629 95.5713 88.4031C96.3296 88.6581 97.2268 89.002 98.2628 89.4349C98.5913 89.5875 98.983 89.7404 99.438 89.8934C100.955 90.4034 102.686 90.838 104.633 91.1974C104.949 91.2615 105.284 91.3319 105.638 91.4088C105.992 91.4856 106.34 91.5814 106.681 91.6961ZM111.666 57.8602C110.984 57.6307 109.742 58.5002 107.941 60.4687C106.177 62.4499 104.159 65.1895 101.885 68.6872C99.6243 72.1471 97.4197 75.8791 95.2714 79.8831C99.4647 77.453 103.001 74.6543 105.881 71.487C108.774 68.2818 110.787 65.0553 111.921 61.8075C112.699 59.4947 112.614 58.179 111.666 57.8602Z" fill="#7B0086"/>
<path d="M104.623 108.751C102.443 108.083 100.929 106.678 100.079 104.535C99.2681 102.404 99.2902 99.942 100.146 97.1501C101.083 94.0906 102.675 91.4199 104.922 89.1381C107.181 86.818 109.729 85.1931 112.566 84.2634C115.453 83.3072 118.216 83.2334 120.855 84.042C121.696 84.2998 122.198 84.6418 122.36 85.0681C122.572 85.4678 122.645 86.1176 122.578 87.0176C123.352 87.0873 124.179 87.2569 125.058 87.5264C125.976 87.8077 126.613 88.2539 126.97 88.8652C127.326 89.4765 127.376 90.2028 127.118 91.0442C126.848 91.9238 126.188 93.395 125.138 95.4578C124.002 97.6618 122.992 99.7996 122.106 101.871C121.232 103.904 120.391 106.24 119.582 108.879C119.137 110.332 118.509 111.29 117.698 111.753C116.936 112.189 115.887 112.202 114.548 111.792C113.248 111.394 112.366 110.789 111.904 109.978C111.491 109.14 111.501 108.014 111.935 106.599L112.273 105.698C110.08 108.624 107.53 109.642 104.623 108.751ZM108.636 103.642C109.707 103.971 110.911 103.524 112.247 102.302C113.584 101.08 115.183 98.6618 117.043 95.0482L119.908 89.5881C118.328 89.1459 116.688 89.3125 114.986 90.0879C113.296 90.8251 111.756 92.0268 110.367 93.693C108.978 95.3591 107.955 97.263 107.299 99.4048C106.947 100.552 106.888 101.496 107.121 102.237C107.405 102.951 107.909 103.42 108.636 103.642Z" fill="#7B0086"/>
<path d="M130.554 116.375C129.086 115.98 128.251 114.926 128.049 113.215C127.886 111.514 128.262 108.964 129.177 105.565C130.53 100.544 132.529 95.9662 135.175 91.8321C135.824 90.8056 136.602 90.1453 137.51 89.8513C138.467 89.529 139.66 89.5602 141.089 89.9451C141.861 90.1531 142.376 90.3953 142.633 90.6716C142.89 90.948 142.946 91.3565 142.8 91.8972C142.634 92.5152 141.97 93.8277 140.808 95.8346C140.005 97.2755 139.332 98.5442 138.789 99.6405C138.245 100.737 137.667 102.114 137.055 103.772C139.224 100.793 141.381 98.4745 143.526 96.8152C145.671 95.156 147.617 94.0851 149.362 93.6024C151.147 93.1301 152.676 93.0656 153.951 93.4088C155.187 93.7417 156.025 94.3196 156.466 95.1426C156.957 95.9375 157.035 96.9528 156.702 98.1888C156.432 99.193 155.71 101.028 154.536 103.695C153.515 105.947 152.603 108.104 151.799 110.166C151.006 112.189 150.261 114.495 149.564 117.082C149.168 118.55 148.573 119.529 147.779 120.019C147.033 120.481 145.984 120.53 144.632 120.166C143.358 119.823 142.519 119.245 142.116 118.432C141.714 117.62 141.689 116.557 142.043 115.244C142.459 113.699 143.416 111.222 144.914 107.814C146.209 104.849 146.972 102.942 147.2 102.092C147.367 101.474 147.238 101.108 146.813 100.994C146.311 100.858 145.419 101.323 144.139 102.386C142.907 103.421 141.522 104.871 139.985 106.736C138.486 108.61 137.129 110.648 135.915 112.848C135.002 114.549 134.167 115.649 133.41 116.15C132.703 116.622 131.751 116.697 130.554 116.375Z" fill="#7B0086"/>
<path d="M173.775 104.08C173.238 106.009 172.841 107.518 172.584 108.608C171.923 111.411 171.541 113.643 171.437 115.303C171.381 116.934 171.602 118.178 172.098 119.035C172.643 119.862 173.519 120.418 174.726 120.702C175.348 120.849 176.134 120.829 177.082 120.641C178.031 120.454 178.929 120.132 179.776 119.674C180.296 119.386 180.771 119.292 181.199 119.393C181.666 119.503 181.972 119.863 182.116 120.472C182.308 121.052 182.317 121.711 182.142 122.451C181.968 123.191 181.642 123.874 181.166 124.502C180.728 125.138 180.162 125.621 179.468 125.951C177.048 127.147 174.554 127.443 171.985 126.837C168.286 125.965 165.943 123.789 164.955 120.309C163.976 116.791 164.075 112.54 165.25 107.557C165.653 105.844 166.12 104.125 166.65 102.4L164.373 101.863C163.205 101.588 162.457 101.186 162.13 100.656C161.841 100.136 161.807 99.4092 162.028 98.4748C162.542 96.2946 163.675 95.4111 165.427 95.8242L168.756 96.6091C170.427 92.4826 172.362 88.8085 174.56 85.587C176.758 82.3654 179.059 79.9284 181.462 78.2759C183.904 76.6325 186.235 76.0725 188.454 76.5957C190.09 76.9813 191.204 78.0045 191.799 79.6653C192.394 81.3261 192.434 83.2466 191.92 85.4268C190.497 91.4613 186.727 96.1205 180.61 99.4043L187.151 100.947C187.774 101.093 188.19 101.335 188.398 101.672C188.606 102.009 188.623 102.547 188.449 103.287C187.815 105.973 185.299 106.798 180.899 105.76L173.775 104.08ZM185.556 81.8302C184.972 81.6925 184.135 82.2761 183.047 83.5812C182.006 84.8564 180.848 86.7202 179.571 89.1727C178.342 91.5953 177.142 94.3329 175.97 97.3855C178.735 95.9415 180.971 94.1263 182.679 91.9398C184.434 89.7235 185.551 87.6031 186.028 85.5786C186.57 83.2816 186.412 82.0321 185.556 81.8302Z" fill="#7B0086"/>
<path d="M193.539 132.812C191.502 132.391 190.033 131.597 189.13 130.43C188.267 129.271 187.957 128.104 188.2 126.929C188.411 125.91 188.965 125.106 189.863 124.516C190.761 123.925 191.935 123.78 193.385 124.08C193.894 124.185 194.469 124.365 195.111 124.62C195.8 124.845 196.316 125.013 196.661 125.125C196.832 124.098 196.796 123.09 196.551 122.1C196.346 121.118 196.015 120.151 195.558 119.199C195.11 118.207 194.676 117.342 194.257 116.601C192.565 118.661 190.954 120.33 189.423 121.606C187.932 122.891 186.34 124.073 184.646 125.152C183.795 125.711 182.978 125.91 182.195 125.748C181.568 125.618 181.103 125.298 180.801 124.786C180.506 124.235 180.428 123.626 180.566 122.96C180.728 122.177 181.152 121.509 181.838 120.956L182.796 120.174C185.501 117.956 187.581 116.099 189.034 114.602C189.974 113.612 190.958 112.406 191.987 110.985C193.056 109.572 194.457 107.636 196.191 105.176C197.292 103.607 199.017 103.065 201.367 103.551C202.464 103.778 203.208 104.034 203.598 104.319C203.989 104.604 204.139 104.962 204.05 105.392C204.001 105.627 203.846 105.983 203.584 106.46C203.322 106.937 203.001 107.402 202.622 107.854C201.625 109.119 201.026 110.24 200.823 111.22C200.702 111.807 200.764 112.494 201.01 113.28C201.295 114.074 201.759 115.089 202.402 116.325C203.315 118.23 203.964 119.834 204.347 121.139C204.778 122.413 204.852 123.735 204.568 125.106C204.228 126.751 203.512 128.237 202.421 129.563C201.377 130.859 200.077 131.815 198.519 132.433C196.962 133.05 195.302 133.176 193.539 132.812Z" fill="#7B0086"/>
<path d="M244.07 140.278C241.341 139.868 238.969 138.824 236.957 137.146C234.983 135.474 233.554 133.277 232.669 130.555C231.789 127.794 231.611 124.673 232.135 121.192C233.039 115.18 235.16 109.815 238.498 105.099C241.842 100.343 246.258 96.8005 251.745 94.4704C257.239 92.1007 263.506 91.4451 270.547 92.5036C272.366 92.7771 274.283 93.2069 276.299 93.793C278.354 94.3851 280.19 95.0859 281.807 95.8953C282.867 96.3783 283.302 97.2527 283.112 98.5184C282.957 99.5469 282.416 100.457 281.488 101.247C280.6 102.044 279.642 102.365 278.613 102.211C278.297 102.163 278.062 102.108 277.91 102.044C275.924 101.26 274.215 100.66 272.781 100.242C271.353 99.7844 269.828 99.4338 268.206 99.19C263.183 98.4348 258.727 99.0188 254.837 100.942C250.954 102.826 247.842 105.634 245.501 109.368C243.16 113.101 241.642 117.282 240.946 121.91C240.44 125.272 240.701 127.981 241.727 130.036C242.798 132.058 244.402 133.229 246.538 133.55C248.95 133.913 251.215 133.242 253.332 131.538C255.449 129.834 257.592 126.88 259.761 122.675C261.93 118.471 264.318 112.682 266.923 105.307C267.327 104.235 267.914 103.555 268.686 103.267C269.457 102.978 270.436 102.923 271.623 103.101C274.431 103.524 275.699 104.644 275.425 106.464C275.378 106.78 275.259 107.167 275.069 107.624C273.464 111.306 271.875 115.416 270.303 119.952C268.777 124.456 267.832 127.914 267.469 130.326C267.148 132.462 267.23 134.072 267.714 135.156C268.204 136.201 269.102 136.821 270.407 137.018C271.673 137.208 272.942 136.974 274.214 136.316C275.492 135.618 277.156 134.371 279.205 132.576C279.763 132.094 280.339 131.897 280.932 131.986C281.447 132.064 281.806 132.36 282.012 132.877C282.257 133.399 282.317 134.075 282.192 134.906C281.96 136.449 281.4 137.618 280.512 138.415C278.223 140.458 276.057 141.952 274.013 142.899C271.97 143.846 269.603 144.117 266.913 143.712C264.144 143.296 262.028 142.169 260.565 140.331C259.108 138.454 258.382 136.019 258.387 133.026C254.538 138.717 249.766 141.135 244.07 140.278Z" fill="#7B0086"/>
<path d="M285.722 131.705C285.789 135.014 286.058 138.305 286.531 141.58C286.631 142.114 286.65 142.66 286.586 143.216C286.383 145.005 285.188 145.775 283.002 145.526C281.77 145.386 280.855 144.939 280.256 144.187C279.697 143.439 279.246 142.099 278.902 140.168L278.869 139.923C277.146 141.619 275.633 142.715 274.328 143.211C273.064 143.711 271.637 143.87 270.047 143.69C267.622 143.414 265.717 142.291 264.331 140.322C262.989 138.317 262.483 135.864 262.813 132.963C263.175 129.784 264.185 126.919 265.844 124.371C267.503 121.822 269.602 119.826 272.141 118.384C274.685 116.902 277.428 116.147 280.37 116.12C281.98 108.694 284.154 102.319 286.894 96.9948C289.673 91.6749 292.831 89.2161 296.368 89.6186C298.077 89.8131 299.4 90.7486 300.337 92.4252C301.313 94.1063 301.622 96.5168 301.265 99.6565C300.768 104.028 299.113 109.013 296.302 114.611C293.492 120.209 289.965 125.907 285.722 131.705ZM295.048 95.3863C293.895 95.2552 292.468 98.0718 290.765 103.836C289.102 109.605 287.699 115.927 286.554 122.802C292.051 113.765 295.138 106.266 295.817 100.305C295.989 98.7945 295.983 97.6062 295.8 96.74C295.656 95.8782 295.406 95.427 295.048 95.3863ZM272.818 137.906C273.613 137.996 274.402 137.784 275.186 137.269C276.009 136.759 277.094 135.715 278.441 134.137C278.373 131.191 278.516 128.167 278.869 125.067C279.009 123.835 279.137 122.884 279.254 122.213C276.996 122.6 275.022 123.845 273.334 125.947C271.645 128.05 270.645 130.472 270.333 133.215C270.003 136.116 270.831 137.68 272.818 137.906Z" fill="#7B0086"/>
<path d="M305.012 147.111C302.66 146.918 300.694 146.175 299.115 144.881C297.578 143.552 296.47 141.895 295.789 139.913C295.109 137.931 294.859 135.844 295.038 133.651C295.287 130.621 296.066 127.976 297.375 125.715C298.727 123.418 300.434 121.692 302.495 120.536C304.559 119.341 306.808 118.843 309.239 119.042C311.592 119.235 313.556 119.998 315.132 121.331C316.712 122.625 317.842 124.263 318.522 126.245C319.202 128.227 319.453 130.314 319.273 132.507C319.025 135.537 318.224 138.2 316.872 140.498C315.523 142.755 313.796 144.48 311.692 145.672C309.631 146.827 307.404 147.307 305.012 147.111ZM306.199 140.706C307.555 140.817 308.751 140.173 309.789 138.773C310.867 137.377 311.522 135.263 311.754 132.433C311.934 130.24 311.671 128.553 310.965 127.371C310.259 126.19 309.348 125.553 308.232 125.461C306.796 125.344 305.54 125.983 304.462 127.38C303.428 128.74 302.793 130.855 302.557 133.725C302.371 135.998 302.633 137.705 303.342 138.847C304.051 139.988 305.003 140.608 306.199 140.706Z" fill="#7B0086"/>
<path d="M338.16 140.405C338.621 140.029 339.072 139.853 339.511 139.877C339.99 139.903 340.355 140.203 340.604 140.778C340.895 141.314 341.02 141.962 340.979 142.721C340.888 144.398 340.217 145.704 338.964 146.637C336.794 148.242 334.391 148.973 331.755 148.83C327.961 148.625 325.27 146.896 323.684 143.646C322.1 140.355 321.446 136.154 321.723 131.041C321.987 126.168 322.907 120.65 324.483 114.486C326.099 108.325 328.247 103.073 330.926 98.732C333.645 94.3928 336.702 92.3152 340.097 92.4993C342.014 92.6032 343.463 93.5831 344.444 95.4389C345.467 97.257 345.889 99.8235 345.709 103.139C345.451 107.892 343.834 113.332 340.858 119.46C337.922 125.59 334.032 131.588 329.187 137.455C329.378 139.107 329.813 140.313 330.493 141.071C331.173 141.829 332.132 142.241 333.37 142.308C334.049 142.345 334.819 142.186 335.68 141.832C336.58 141.481 337.407 141.005 338.16 140.405ZM338.457 98.3591C337.538 98.3093 336.41 99.9106 335.072 103.163C333.734 106.415 332.492 110.474 331.347 115.339C330.202 120.204 329.468 124.891 329.143 129.4C332.232 124.881 334.742 120.33 336.673 115.748C338.606 111.126 339.678 106.878 339.888 103.003C340.052 99.9678 339.575 98.4197 338.457 98.3591Z" fill="#7B0086"/>
<path d="M367.677 138.119C368.197 138.132 368.591 138.382 368.859 138.869C369.166 139.357 369.31 140.021 369.288 140.861C369.252 142.3 368.88 143.531 368.174 144.553C367.011 146.244 365.497 147.546 363.633 148.459C361.809 149.373 359.638 149.798 357.119 149.734C353.28 149.636 350.33 148.421 348.269 146.088C346.208 143.715 345.228 140.569 345.327 136.65C345.398 133.891 346.043 131.347 347.262 129.017C348.483 126.647 350.131 124.788 352.205 123.441C354.32 122.094 356.677 121.454 359.277 121.52C361.596 121.579 363.437 122.326 364.801 123.761C366.166 125.156 366.819 127.033 366.759 129.393C366.689 132.152 365.629 134.505 363.578 136.454C361.569 138.364 358.171 139.838 353.383 140.876C354.296 142.74 355.892 143.701 358.171 143.759C359.81 143.801 361.16 143.455 362.219 142.721C363.318 141.989 364.59 140.741 366.035 138.977C366.53 138.39 367.078 138.103 367.677 138.119ZM358.107 127.372C356.628 127.334 355.346 128.162 354.263 129.855C353.22 131.549 352.667 133.616 352.605 136.055L352.602 136.175C354.975 135.675 356.856 134.883 358.244 133.798C359.632 132.712 360.345 131.43 360.383 129.951C360.402 129.191 360.197 128.586 359.769 128.134C359.381 127.644 358.827 127.39 358.107 127.372Z" fill="#7B0086"/>
<path d="M384.633 151.253C382.553 151.261 380.952 150.787 379.828 149.832C378.744 148.876 378.2 147.798 378.195 146.598C378.191 145.558 378.568 144.657 379.325 143.894C380.082 143.131 381.2 142.746 382.68 142.741C383.2 142.739 383.801 142.796 384.481 142.914C385.201 142.991 385.742 143.049 386.102 143.087C386.058 142.048 385.814 141.069 385.37 140.15C384.967 139.232 384.444 138.354 383.8 137.516C383.157 136.639 382.554 135.881 381.991 135.243C380.761 137.608 379.528 139.573 378.294 141.138C377.1 142.702 375.786 144.187 374.351 145.593C373.634 146.316 372.876 146.679 372.076 146.682C371.436 146.684 370.915 146.466 370.513 146.028C370.111 145.549 369.909 144.97 369.906 144.29C369.903 143.49 370.18 142.749 370.738 142.067L371.514 141.104C373.704 138.375 375.355 136.129 376.468 134.365C377.184 133.202 377.898 131.819 378.612 130.216C379.366 128.613 380.337 126.43 381.527 123.665C382.28 121.902 383.856 121.016 386.256 121.007C387.376 121.002 388.157 121.099 388.598 121.298C389.038 121.496 389.26 121.815 389.261 122.255C389.262 122.495 389.184 122.875 389.026 123.396C388.868 123.917 388.65 124.437 388.372 124.959C387.657 126.401 387.302 127.623 387.306 128.623C387.308 129.223 387.511 129.882 387.914 130.6C388.356 131.319 389.02 132.216 389.904 133.293C391.19 134.968 392.156 136.404 392.801 137.602C393.485 138.759 393.83 140.038 393.836 141.438C393.842 143.118 393.448 144.719 392.654 146.242C391.9 147.725 390.824 148.929 389.428 149.855C388.032 150.78 386.433 151.246 384.633 151.253Z" fill="#7B0086"/>
<path d="M411.203 149.343C407.405 149.471 404.39 148.472 402.157 146.346C399.963 144.179 398.804 141.276 398.681 137.638C398.572 134.4 399.116 131.54 400.313 129.059C401.51 126.577 403.106 124.642 405.1 123.254C407.094 121.866 409.211 121.134 411.45 121.059C413.649 120.985 415.37 121.587 416.614 122.866C417.896 124.103 418.572 125.741 418.64 127.78C418.697 129.459 418.365 130.891 417.645 132.076C416.964 133.26 416.024 133.872 414.825 133.912C414.065 133.938 413.44 133.779 412.948 133.435C412.496 133.09 412.259 132.598 412.238 131.958C412.228 131.679 412.257 131.357 412.325 130.995C412.393 130.632 412.444 130.37 412.479 130.209C412.658 129.603 412.74 129.04 412.722 128.52C412.704 128 412.551 127.605 412.262 127.335C412.012 127.063 411.648 126.935 411.168 126.952C410.249 126.983 409.403 127.431 408.632 128.298C407.86 129.124 407.257 130.245 406.824 131.661C406.392 133.076 406.204 134.623 406.261 136.302C406.337 138.581 406.856 140.304 407.816 141.473C408.814 142.6 410.173 143.134 411.892 143.076C413.251 143.03 414.477 142.589 415.57 141.752C416.702 140.913 417.802 139.695 418.868 138.098C419.328 137.483 419.857 137.164 420.457 137.144C420.977 137.127 421.385 137.353 421.681 137.823C422.017 138.292 422.199 138.947 422.227 139.786C422.276 141.225 421.978 142.476 421.333 143.538C420.31 145.254 418.936 146.641 417.211 147.7C415.484 148.718 413.482 149.266 411.203 149.343Z" fill="#7B0086"/>
<path d="M449.294 135.344C449.813 135.311 450.227 135.524 450.538 135.985C450.888 136.444 451.09 137.092 451.143 137.931C451.236 139.368 450.976 140.627 450.364 141.708C449.356 143.497 447.965 144.929 446.19 146.005C444.456 147.078 442.331 147.695 439.816 147.857C435.984 148.103 432.937 147.156 430.675 145.016C428.411 142.837 427.153 139.791 426.902 135.879C426.725 133.125 427.14 130.533 428.147 128.104C429.15 125.634 430.625 123.636 432.572 122.108C434.558 120.578 436.848 119.729 439.443 119.563C441.758 119.414 443.659 119.993 445.146 121.301C446.63 122.568 447.448 124.38 447.599 126.735C447.776 129.489 446.93 131.928 445.062 134.052C443.232 136.134 439.979 137.906 435.303 139.368C436.379 141.143 438.055 141.957 440.33 141.811C441.966 141.706 443.279 141.241 444.269 140.416C445.298 139.589 446.453 138.232 447.735 136.346C448.175 135.716 448.695 135.382 449.294 135.344ZM438.801 125.496C437.324 125.591 436.122 126.53 435.194 128.313C434.307 130.093 433.941 132.201 434.097 134.636L434.105 134.756C436.424 134.046 438.227 133.088 439.512 131.883C440.798 130.679 441.393 129.338 441.298 127.861C441.249 127.102 440.991 126.518 440.524 126.107C440.094 125.653 439.52 125.45 438.801 125.496Z" fill="#7B0086"/>
<path d="M460.44 146.252C458.928 146.399 457.775 145.708 456.983 144.178C456.23 142.643 455.683 140.125 455.341 136.621C454.836 131.446 455.093 126.457 456.111 121.656C456.357 120.466 456.853 119.574 457.598 118.979C458.38 118.34 459.507 117.948 460.98 117.805C461.777 117.727 462.344 117.772 462.682 117.94C463.019 118.108 463.216 118.471 463.27 119.028C463.332 119.665 463.173 121.127 462.794 123.415C462.551 125.046 462.368 126.471 462.246 127.688C462.124 128.906 462.069 130.398 462.08 132.166C463.06 128.614 464.261 125.683 465.683 123.374C467.106 121.065 468.549 119.377 470.012 118.31C471.515 117.239 472.924 116.639 474.237 116.511C475.511 116.387 476.5 116.632 477.203 117.247C477.942 117.818 478.373 118.74 478.498 120.014C478.599 121.049 478.57 123.021 478.412 125.93C478.251 128.398 478.157 130.738 478.132 132.951C478.103 135.124 478.219 137.544 478.479 140.211C478.627 141.724 478.415 142.85 477.844 143.589C477.309 144.284 476.345 144.7 474.951 144.836C473.638 144.964 472.649 144.719 471.986 144.1C471.323 143.482 470.925 142.496 470.793 141.142C470.638 139.55 470.66 136.895 470.86 133.178C471.027 129.946 471.068 127.893 470.982 127.017C470.92 126.38 470.67 126.083 470.232 126.125C469.715 126.176 469.044 126.925 468.221 128.371C467.433 129.775 466.649 131.619 465.867 133.906C465.125 136.189 464.574 138.574 464.214 141.061C463.959 142.974 463.565 144.299 463.034 145.034C462.539 145.725 461.674 146.131 460.44 146.252Z" fill="#7B0086"/>
<path d="M496.551 119.508C496.729 121.501 496.889 123.054 497.033 124.164C497.403 127.02 497.832 129.244 498.32 130.834C498.843 132.38 499.488 133.466 500.255 134.093C501.056 134.675 502.072 134.886 503.301 134.727C503.936 134.645 504.664 134.349 505.485 133.839C506.307 133.329 507.033 132.711 507.665 131.984C508.05 131.531 508.461 131.276 508.897 131.219C509.373 131.158 509.786 131.386 510.136 131.906C510.52 132.38 510.761 132.995 510.858 133.748C510.956 134.502 510.892 135.256 510.667 136.012C510.482 136.762 510.123 137.413 509.589 137.966C507.748 139.939 505.517 141.095 502.899 141.434C499.131 141.922 496.171 140.712 494.02 137.804C491.863 134.857 490.456 130.844 489.799 125.767C489.573 124.021 489.404 122.248 489.292 120.448L486.971 120.748C485.781 120.902 484.94 120.789 484.447 120.409C483.994 120.024 483.705 119.356 483.582 118.404C483.294 116.182 484.043 114.956 485.828 114.725L489.22 114.286C489.329 109.835 489.844 105.715 490.765 101.925C491.686 98.1354 492.98 95.0437 494.647 92.6499C496.353 90.2509 498.336 88.9051 500.597 88.6123C502.263 88.3966 503.667 88.9609 504.81 90.3054C505.952 91.6499 506.667 93.4328 506.954 95.6543C507.75 101.803 505.865 107.492 501.299 112.722L507.963 111.859C508.598 111.777 509.072 111.856 509.386 112.098C509.7 112.34 509.905 112.838 510.003 113.591C510.357 116.328 508.293 117.987 503.811 118.568L496.551 119.508ZM499.73 94.5326C499.135 94.6097 498.559 95.4507 498 97.0557C497.476 98.6159 497.049 100.769 496.719 103.514C496.423 106.214 496.265 109.199 496.245 112.469C498.323 110.143 499.776 107.655 500.603 105.007C501.464 102.314 501.761 99.9366 501.494 97.8738C501.191 95.5334 500.603 94.4196 499.73 94.5326Z" fill="#7B0086"/>
<path d="M525.177 139.426C523.122 139.749 521.467 139.525 520.211 138.751C518.995 137.971 518.293 136.988 518.106 135.803C517.944 134.775 518.179 133.827 518.811 132.958C519.444 132.089 520.491 131.539 521.953 131.309C522.467 131.228 523.069 131.193 523.759 131.206C524.483 131.173 525.025 131.148 525.387 131.131C525.186 130.11 524.796 129.18 524.218 128.339C523.68 127.493 523.029 126.705 522.266 125.975C521.497 125.205 520.786 124.548 520.133 124.003C519.275 126.527 518.356 128.656 517.374 130.391C516.432 132.118 515.358 133.786 514.154 135.393C513.555 136.217 512.86 136.691 512.07 136.815C511.438 136.915 510.89 136.779 510.426 136.406C509.956 135.994 509.668 135.453 509.563 134.781C509.438 133.991 509.599 133.216 510.046 132.457L510.667 131.387C512.417 128.358 513.708 125.887 514.54 123.974C515.07 122.716 515.567 121.24 516.029 119.548C516.53 117.849 517.159 115.543 517.914 112.63C518.391 110.773 519.814 109.657 522.185 109.284C523.291 109.109 524.077 109.086 524.543 109.215C525.009 109.344 525.276 109.626 525.345 110.061C525.382 110.298 525.362 110.686 525.285 111.224C525.208 111.763 525.072 112.311 524.876 112.868C524.389 114.403 524.224 115.664 524.38 116.652C524.473 117.244 524.773 117.865 525.281 118.514C525.827 119.157 526.62 119.943 527.657 120.873C529.183 122.333 530.356 123.606 531.175 124.691C532.027 125.731 532.562 126.943 532.78 128.326C533.042 129.985 532.896 131.628 532.343 133.254C531.823 134.834 530.943 136.188 529.703 137.315C528.463 138.442 526.955 139.145 525.177 139.426Z" fill="#7B0086"/>
<path d="M575.095 128.596C572.396 129.174 569.809 129.033 567.334 128.173C564.898 127.304 562.786 125.752 560.997 123.517C559.201 121.243 557.934 118.385 557.196 114.944C555.922 108.999 556.016 103.231 557.477 97.6407C558.93 92.0113 561.813 87.139 566.126 83.0237C570.431 78.8694 576.064 76.0462 583.026 74.5542C584.826 74.1687 586.771 73.8948 588.864 73.7328C590.995 73.5623 592.961 73.5706 594.76 73.7578C595.922 73.836 596.637 74.5009 596.906 75.7524C597.124 76.7694 596.938 77.8114 596.348 78.8786C595.798 79.9375 595.014 80.5758 593.997 80.7938C593.685 80.8608 593.446 80.8916 593.281 80.886C591.146 80.8525 589.335 80.893 587.846 81.0076C586.348 81.0831 584.798 81.2926 583.194 81.6363C578.227 82.7008 574.263 84.8185 571.301 87.9895C568.332 91.1213 566.41 94.8468 565.535 99.1659C564.661 103.485 564.714 107.933 565.695 112.509C566.407 115.833 567.606 118.276 569.291 119.838C571.006 121.352 572.92 121.883 575.032 121.43C577.418 120.919 579.3 119.493 580.681 117.152C582.061 114.81 583.024 111.29 583.572 106.591C584.119 101.892 584.312 95.6328 584.15 87.8132C584.15 86.6678 584.46 85.8241 585.08 85.2821C585.7 84.7401 586.597 84.3433 587.77 84.0919C590.547 83.4968 592.129 84.0988 592.514 85.8979C592.581 86.2108 592.606 86.6145 592.59 87.109C592.386 91.1208 592.348 95.5265 592.477 100.326C592.636 105.078 592.971 108.647 593.483 111.033C593.935 113.145 594.579 114.623 595.415 115.467C596.242 116.271 597.3 116.535 598.591 116.259C599.843 115.99 600.948 115.324 601.906 114.26C602.856 113.156 603.973 111.403 605.258 109C605.61 108.352 606.079 107.965 606.666 107.84C607.175 107.731 607.616 107.881 607.99 108.292C608.404 108.694 608.699 109.306 608.875 110.128C609.202 111.653 609.09 112.945 608.539 114.004C607.118 116.722 605.617 118.885 604.039 120.491C602.46 122.097 600.341 123.186 597.682 123.756C594.944 124.342 592.567 124.034 590.549 122.83C588.524 121.586 586.986 119.564 585.936 116.762C584.34 123.444 580.727 127.389 575.095 128.596Z" fill="#7B0086"/>
<path d="M611.049 105.887C612.278 108.96 613.691 111.945 615.288 114.843C615.57 115.308 615.78 115.812 615.917 116.355C616.357 118.1 615.51 119.242 613.377 119.78C612.175 120.083 611.161 119.988 610.335 119.495C609.548 118.992 608.653 117.898 607.651 116.212L607.534 115.994C606.52 118.188 605.49 119.748 604.444 120.671C603.437 121.585 602.157 122.238 600.606 122.629C598.24 123.226 596.061 122.847 594.07 121.493C592.107 120.09 590.769 117.973 590.055 115.142C589.272 112.039 589.208 109.003 589.861 106.033C590.515 103.063 591.776 100.455 593.644 98.2105C595.501 95.9269 597.802 94.2535 600.545 93.1904C599.434 85.674 599.221 78.9417 599.907 72.9933C600.632 67.0351 602.721 63.6207 606.173 62.7502C607.841 62.3296 609.408 62.7387 610.876 63.9775C612.382 65.2065 613.521 67.353 614.294 70.417C615.37 74.6835 615.58 79.9315 614.923 86.1612C614.267 92.3909 612.975 98.9663 611.049 105.887ZM606.971 68.6131C605.846 68.8968 605.503 72.0359 605.942 78.0305C606.42 84.0153 607.336 90.426 608.689 97.2628C610.646 86.8685 610.891 78.7624 609.424 72.9446C609.053 71.4707 608.628 70.3608 608.151 69.6148C607.713 68.859 607.32 68.5251 606.971 68.6131ZM601.16 116.24C601.936 116.044 602.6 115.567 603.151 114.81C603.741 114.042 604.389 112.682 605.093 110.731C603.991 107.997 603.058 105.118 602.295 102.093C601.992 100.89 601.777 99.9546 601.649 99.2855C599.673 100.444 598.265 102.305 597.426 104.868C596.587 107.431 596.506 110.05 597.18 112.726C597.894 115.558 599.221 116.729 601.16 116.24Z" fill="#7B0086"/>
<path d="M630.836 114.566C629.03 115.088 627.359 114.779 625.822 113.641C624.313 112.453 623.181 110.553 622.426 107.94C621.593 105.058 621.025 102.37 620.72 99.8764C620.405 97.3444 620.301 94.6058 620.407 91.6604C620.459 90.3965 620.758 89.4149 621.305 88.7154C621.852 88.016 622.875 87.4498 624.374 87.0167C625.22 86.7724 625.835 86.7403 626.22 86.9205C626.644 87.0895 626.933 87.4431 627.089 87.9811C627.177 88.2885 627.266 89.3871 627.354 91.2769C627.381 92.8098 627.445 94.186 627.548 95.4054C627.945 99.6624 628.338 102.463 628.727 103.808C628.96 104.615 629.223 105.164 629.515 105.454C629.796 105.706 630.147 105.771 630.57 105.649C631.147 105.482 631.71 104.695 632.261 103.287C632.8 101.84 633.212 99.806 633.495 97.1843C633.806 94.513 633.92 91.3781 633.838 87.7795C633.812 86.5378 634.035 85.5784 634.505 84.9011C635.014 84.2128 635.902 83.6854 637.171 83.319C638.016 83.0747 638.678 83.1331 639.157 83.4943C639.664 83.806 640.045 84.4038 640.3 85.2876C640.578 86.2483 640.812 87.3465 641.002 88.5822C641.182 89.7794 641.353 91.0206 641.516 92.3058C641.843 94.8763 642.185 97.2131 642.543 99.3164C642.89 101.381 643.435 103.701 644.179 106.276C644.601 107.736 644.599 108.882 644.173 109.713C643.774 110.494 642.902 111.079 641.557 111.468C640.135 111.878 639.031 111.802 638.243 111.239C637.483 110.625 636.792 109.243 636.171 107.091C636.048 106.668 635.815 105.716 635.47 104.233C635.594 107.112 635.208 109.451 634.312 111.25C633.455 113.039 632.296 114.144 630.836 114.566Z" fill="#7B0086"/>
<path d="M667.99 93.9476C668.286 93.4319 668.644 93.1066 669.062 92.9717C669.519 92.8245 669.967 92.9745 670.405 93.4216C670.869 93.8184 671.218 94.3785 671.451 95.1019C671.966 96.701 671.806 98.1604 670.97 99.4802C669.518 101.755 667.535 103.298 665.023 104.107C661.406 105.273 658.275 104.621 655.631 102.153C652.974 99.6471 650.861 95.9575 649.291 91.0842C647.794 86.4393 646.679 80.9571 645.946 74.6375C645.251 68.3056 645.377 62.6335 646.326 57.6211C647.312 52.5964 649.424 49.5627 652.66 48.52C654.487 47.9312 656.191 48.3278 657.771 49.7099C659.377 51.0416 660.689 53.2875 661.707 56.4475C663.167 60.9781 663.603 66.637 663.016 73.424C662.467 80.1987 660.98 87.1917 658.555 94.403C659.324 95.8781 660.162 96.8479 661.068 97.3124C661.974 97.7769 663.018 97.819 664.198 97.4388C664.845 97.2302 665.507 96.8068 666.184 96.1685C666.899 95.5179 667.501 94.7776 667.99 93.9476ZM653.225 54.5786C652.349 54.8607 651.869 56.7597 651.783 60.2755C651.697 63.7912 651.989 68.0255 652.661 72.9783C653.332 77.9311 654.322 82.5709 655.633 86.8976C656.9 81.5722 657.616 76.4246 657.78 71.4549C657.932 66.4471 657.412 62.0967 656.223 58.4037C655.29 55.5102 654.291 54.2351 653.225 54.5786Z" fill="#7B0086"/>
<path d="M680.26 75.0549C680.85 76.9678 681.33 78.4524 681.702 79.5087C682.66 82.2251 683.543 84.3101 684.352 85.7638C685.185 87.1665 686.042 88.0944 686.923 88.5475C687.828 88.9496 688.865 88.9446 690.035 88.5325C690.639 88.3198 691.289 87.8786 691.986 87.2089C692.683 86.5391 693.265 85.7828 693.731 84.9399C694.013 84.4164 694.362 84.0816 694.777 83.9353C695.229 83.7758 695.681 83.9136 696.131 84.3487C696.606 84.7328 696.969 85.2833 697.222 86.0001C697.474 86.7169 697.569 87.468 697.507 88.2534C697.482 89.0256 697.266 89.7377 696.86 90.3898C695.47 92.7033 693.53 94.2987 691.04 95.1761C687.456 96.4389 684.309 95.8726 681.599 93.4772C678.875 91.0439 676.663 87.4128 674.961 82.5839C674.376 80.9239 673.841 79.2251 673.356 77.4875L671.149 78.2652C670.018 78.664 669.171 78.729 668.61 78.4603C668.086 78.1782 667.665 77.5845 667.346 76.679C666.602 74.5663 667.078 73.2109 668.776 72.6127L672.002 71.4761C671.181 67.1002 670.826 62.9631 670.936 59.0647C671.047 55.1663 671.668 51.8728 672.799 49.1842C673.967 46.4823 675.626 44.7525 677.777 43.9948C679.361 43.4365 680.852 43.6957 682.25 44.7726C683.647 45.8494 684.718 47.4442 685.462 49.5569C687.523 55.4045 686.865 61.3616 683.489 67.4283L689.827 65.195C690.431 64.9823 690.911 64.9615 691.268 65.1325C691.626 65.3036 691.93 65.7475 692.183 66.4643C693.1 69.0674 691.427 71.12 687.164 72.6222L680.26 75.0549ZM678.163 49.9658C677.597 50.1652 677.209 51.108 676.997 52.7942C676.81 54.4293 676.841 56.6237 677.09 59.3774C677.364 62.08 677.831 65.0324 678.493 68.2345C680.041 65.5261 680.943 62.7908 681.2 60.0285C681.481 57.2152 681.276 54.8277 680.585 52.8659C679.8 50.64 678.993 49.6733 678.163 49.9658Z" fill="#7B0086"/>
<path d="M717.316 72.5381C717.801 72.3516 718.261 72.4321 718.695 72.7796C719.165 73.1129 719.552 73.6715 719.853 74.4556C720.37 75.7997 720.497 77.0792 720.236 78.2939C719.807 80.3012 718.906 82.083 717.533 83.6392C716.198 85.1811 714.354 86.4041 712.001 87.3083C708.417 88.686 705.227 88.6911 702.43 87.3235C699.618 85.9185 697.51 83.3866 696.103 79.7276C695.113 77.1513 694.736 74.5537 694.972 71.9346C695.194 69.2782 696.005 66.9307 697.407 64.892C698.847 62.8389 700.78 61.346 703.206 60.4131C705.372 59.5807 707.359 59.5668 709.168 60.3713C710.963 61.1385 712.284 62.6235 713.131 64.8264C714.121 67.4026 714.041 69.9829 712.892 72.5673C711.766 75.1001 709.189 77.7617 705.162 80.5523C706.718 81.9253 708.561 82.2029 710.689 81.3848C712.22 80.7964 713.334 79.961 714.032 78.8784C714.768 77.7815 715.466 76.1419 716.127 73.9594C716.36 73.2272 716.756 72.7534 717.316 72.5381ZM704.364 66.2676C702.983 66.7986 702.115 68.0534 701.761 70.032C701.445 71.9963 701.725 74.1172 702.6 76.3947L702.643 76.5068C704.645 75.1373 706.08 73.6859 706.947 72.1525C707.815 70.6192 707.983 69.1617 707.452 67.7803C707.18 67.0709 706.759 66.5898 706.19 66.3369C705.645 66.0324 705.036 66.0093 704.364 66.2676Z" fill="#7B0086"/>
<path d="M738.006 78.1906C736.087 78.9934 734.426 79.1681 733.022 78.7148C731.655 78.246 730.74 77.4581 730.277 76.3511C729.876 75.3917 729.879 74.4148 730.287 73.4203C730.695 72.4259 731.581 71.643 732.946 71.0718C733.426 70.8711 734.003 70.6949 734.676 70.5431C735.371 70.339 735.893 70.186 736.24 70.0839C735.802 69.1399 735.202 68.3285 734.441 67.6496C733.717 66.9553 732.898 66.3442 731.983 65.8163C731.053 65.2515 730.206 64.782 729.443 64.4077C729.21 67.0634 728.822 69.3501 728.281 71.2679C727.776 73.1701 727.129 75.0449 726.341 76.8922C725.955 77.8343 725.393 78.4598 724.655 78.7685C724.064 79.0156 723.5 79.0133 722.961 78.7618C722.406 78.4734 721.998 78.0155 721.736 77.3882C721.427 76.6502 721.4 75.8595 721.654 75.016L722.003 73.8293C722.982 70.471 723.649 67.7638 724.003 65.7079C724.22 64.3599 724.351 62.809 724.398 61.0551C724.481 59.2857 724.544 56.8964 724.586 53.8871C724.608 51.9701 725.726 50.5485 727.94 49.6222C728.973 49.1899 729.731 48.9811 730.214 48.9958C730.697 49.0104 731.024 49.2207 731.194 49.6266C731.286 49.8481 731.359 50.2295 731.412 50.7709C731.465 51.3124 731.463 51.877 731.405 52.4648C731.297 54.0711 731.436 55.3355 731.822 56.258C732.053 56.8116 732.492 57.3432 733.139 57.853C733.823 58.3474 734.779 58.923 736.008 59.5796C737.837 60.6354 739.279 61.5933 740.332 62.4533C741.407 63.261 742.215 64.3106 742.755 65.6021C743.404 67.1519 743.652 68.7823 743.501 70.4933C743.371 72.152 742.838 73.6758 741.901 75.0649C740.965 76.4539 739.667 77.4958 738.006 78.1906Z" fill="#7B0086"/>
</svg>
