<svg width="375" height="136" viewBox="0 0 375 136" fill="none" xmlns="http://www.w3.org/2000/svg">
<path d="M28.2183 118.141C25.8772 120.31 23.754 121.502 21.8488 121.715C19.9336 121.906 18.4592 120.865 17.4255 118.593C16.8788 117.392 16.6286 116.319 16.6748 115.376C16.721 114.432 17.0698 113.659 17.7211 113.055C18.1963 112.615 18.6532 112.409 19.0916 112.437C19.53 112.466 19.8585 112.72 20.0772 113.201C20.276 113.638 20.4235 114.045 20.5198 114.421C20.5596 114.509 20.6115 114.678 20.6757 114.929C20.7575 115.164 20.8531 115.401 20.9624 115.641C21.4097 116.624 22.1387 116.989 23.1495 116.736C24.1779 116.466 25.4138 115.662 26.8573 114.324C28.3535 112.938 29.375 111.525 29.9217 110.087C30.4585 108.626 30.4536 107.295 29.9069 106.094C29.569 105.351 29.0871 104.897 28.4613 104.732C27.8256 104.545 27.1377 104.545 26.3978 104.734C25.6479 104.901 24.6256 105.212 23.3309 105.667C21.6773 106.267 20.2851 106.673 19.1542 106.882C18.0409 107.075 16.9476 106.955 15.8743 106.521C14.8086 106.049 13.9329 105.059 13.247 103.552C12.5314 101.979 12.2297 100.271 12.342 98.428C12.4719 96.5685 13.0165 94.7128 13.9758 92.861C14.9526 90.9929 16.3036 89.2595 18.0287 87.6607C19.3137 86.4698 20.6024 85.6171 21.8948 85.1025C23.1773 84.5661 24.3541 84.4848 25.4251 84.8587C26.5138 85.2163 27.3762 86.0941 28.0123 87.4922C28.6385 88.8684 28.9434 90.0611 28.927 91.0701C28.9106 92.0791 28.5768 92.8854 27.9255 93.489C27.4678 93.9131 27.001 94.0973 26.5251 94.0414C26.0669 93.9692 25.7284 93.6929 25.5097 93.2123C25.3209 92.7972 25.1733 92.3904 25.0671 91.992C24.8217 91.2877 24.6593 90.8482 24.5798 90.6734C24.1623 89.7559 23.4834 89.3913 22.543 89.5796C21.6026 89.7679 20.5955 90.3596 19.5218 91.3547C18.0079 92.7577 17.0052 94.1839 16.5135 95.6334C16.0295 97.0447 16.0708 98.373 16.6374 99.6182C17.0151 100.448 17.5405 100.971 18.2138 101.185C18.9046 101.384 19.6475 101.394 20.4425 101.216C21.2375 101.038 22.3138 100.708 23.6712 100.227C25.3172 99.6642 26.6692 99.2807 27.7274 99.0764C28.7857 98.8721 29.8101 98.9786 30.8008 99.3959C31.8091 99.7968 32.6263 100.685 33.2525 102.062C34.4254 104.639 34.5378 107.361 33.5896 110.228C32.6492 113.056 30.8587 115.694 28.2183 118.141Z" fill="#7B0086"/>
<path d="M47.342 100.771C45.6575 102.084 43.9623 102.824 42.2564 102.99C40.5694 103.141 38.9981 102.664 37.5425 101.558C36.0783 100.429 34.883 98.6544 33.9564 96.2337C32.6522 92.8268 32.0231 89.4175 32.0688 86.0058C32.1335 82.5794 32.7946 79.4592 34.0521 76.6452C35.3286 73.8164 37.0646 71.5461 39.2601 69.8343C40.9446 68.521 42.6304 67.7887 44.3174 67.6375C46.0233 67.4716 47.6084 67.9528 49.0725 69.0813C50.5281 70.1874 51.7192 71.9508 52.6458 74.3715C53.9499 77.7785 54.5696 81.1952 54.505 84.6216C54.4592 88.0332 53.7981 91.1534 52.5216 93.9822C51.2641 96.7962 49.5375 99.0591 47.342 100.771ZM46.1073 96.5823C47.5836 95.4312 48.6742 93.8824 49.3791 91.9359C50.1029 89.9746 50.403 87.8053 50.2794 85.4278C50.1472 83.028 49.6178 80.6177 48.6912 78.197C47.6702 75.5297 46.4248 73.8814 44.9551 73.252C43.4768 72.6002 41.9901 72.8572 40.4948 74.023C39.0375 75.1593 37.9563 76.7007 37.2515 78.6472C36.538 80.5713 36.2379 82.7407 36.3512 85.1553C36.4559 87.5474 36.9758 89.9651 37.911 92.4082C38.932 95.0755 40.1816 96.735 41.6599 97.3869C43.1296 98.0163 44.6121 97.7481 46.1073 96.5823Z" fill="#7B0086"/>
<path d="M67.6601 85.5289C65.953 86.6015 64.4999 86.8848 63.3007 86.3789C62.0943 85.8501 61.2153 84.6913 60.6635 82.9024C60.3522 81.8934 60.1058 80.5834 59.9243 78.9726L58.7792 67.9466C58.7633 67.7376 58.6991 67.1756 58.5867 66.2606C58.4945 65.3328 58.2999 64.3873 58.0028 63.4241C57.833 62.8737 57.6041 62.5248 57.316 62.3772C57.0482 62.217 56.7517 62.239 56.4266 62.4433C55.8169 62.8263 55.2082 63.6058 54.6005 64.7816C53.9858 65.9345 53.44 67.4683 52.9632 69.3832C52.8132 69.9977 52.5654 70.4135 52.2199 70.6306C51.9354 70.8094 51.6354 70.8199 51.3199 70.6622C51.0176 70.4688 50.8064 70.1772 50.6861 69.7873C50.4668 69.0764 50.5037 68.0949 50.7968 66.843C51.8792 62.3299 53.8124 59.1987 56.5964 57.4494C57.836 56.6705 58.9322 56.4883 59.8849 56.9027C60.8579 57.3044 61.5991 58.3308 62.1084 59.982C62.4692 61.1516 62.7306 62.2742 62.8926 63.3497C63.0545 64.4253 63.2245 65.9201 63.4026 67.8343L64.0947 74.9148C64.1178 75.1467 64.1598 75.5584 64.2209 76.1497C64.282 76.741 64.3564 77.2966 64.444 77.8165C64.5245 78.3135 64.6355 78.7913 64.777 79.25C65.0034 79.9839 65.3667 80.4538 65.8669 80.6597C66.3671 80.8656 66.9525 80.7579 67.6231 80.3365C68.8424 79.5704 69.8455 78.064 70.6323 75.8174C71.4395 73.558 71.8691 70.468 71.9213 66.5475C71.9867 62.5912 71.5288 57.8823 70.5475 52.4208C70.329 51.1618 70.2811 50.2199 70.4038 49.5953C70.5468 48.9578 71.0145 48.3901 71.8071 47.8922C72.5183 47.4453 73.121 47.3541 73.615 47.6186C74.109 47.8832 74.5223 48.5544 74.8548 49.6323C75.0458 50.2515 75.2258 51.1103 75.3949 52.2088C75.5842 53.2945 75.8262 54.8262 76.1209 56.8039C76.6547 60.6575 77.2117 64.1542 77.7921 67.294C78.0398 68.7263 78.2628 69.7635 78.4608 70.4057C78.7509 71.346 79.1566 71.9535 79.6781 72.2282C80.2127 72.4672 80.7951 72.3888 81.425 71.9929C82.0956 71.5716 82.6681 70.9107 83.1424 70.0103C83.6371 69.0972 84.1409 67.7813 84.654 66.0627C84.7988 65.5884 85.0236 65.2554 85.3284 65.0639C85.5926 64.8979 85.8383 64.9078 86.0654 65.0937C86.3129 65.2667 86.5109 65.5941 86.6594 66.0757C86.9353 66.9701 86.9616 67.8023 86.7382 68.5724C86.1272 70.6812 85.406 72.3937 84.5748 73.71C83.7436 75.0262 82.7589 76.0419 81.6209 76.7569C79.9343 77.8167 78.4953 78.1459 77.304 77.7445C76.1056 77.3202 75.2659 76.3283 74.7849 74.7688C74.516 73.8973 74.1551 72.0981 73.7021 69.3711C73.7259 73.3808 73.2279 76.7601 72.2078 79.5092C71.2081 82.2455 69.6922 84.2521 67.6601 85.5289Z" fill="#7B0086"/>
<path d="M92.1443 71.2327C89.2862 72.654 86.8553 73.2092 84.8515 72.8984C82.842 72.5642 81.5413 71.1847 80.9493 68.7599C80.6363 67.4776 80.6013 66.3968 80.8446 65.5177C81.0878 64.6385 81.607 64.0012 82.4021 63.6058C82.9823 63.3173 83.4949 63.2454 83.9399 63.3901C84.3849 63.5349 84.6701 63.8637 84.7953 64.3766C84.9091 64.8429 84.9765 65.267 84.9974 65.6488C85.0202 65.742 85.0385 65.9159 85.0525 66.1704C85.0879 66.4143 85.1369 66.6644 85.1996 66.9209C85.4557 67.9701 86.1299 68.5107 87.2222 68.5427C88.3359 68.5641 89.7739 68.1366 91.536 67.2604C93.3626 66.352 94.7063 65.2916 95.567 64.0792C96.4221 62.8435 96.693 61.5845 96.38 60.3022C96.1864 59.5094 95.785 58.9508 95.1756 58.6264C94.5605 58.2786 93.8529 58.0945 93.0526 58.0741C92.2467 58.0304 91.1308 58.0494 89.7048 58.131C87.8793 58.2544 86.3632 58.2632 85.1566 58.1573C83.9714 58.0407 82.8718 57.6332 81.8578 56.9347C80.8596 56.2022 80.1642 55.0316 79.7714 53.4229C79.3616 51.7442 79.4056 50.049 79.9034 48.3372C80.4227 46.6148 81.3678 45.0075 82.7386 43.5153C84.1309 42.0124 85.88 40.7374 87.986 39.6901C89.5547 38.91 91.0571 38.4505 92.4932 38.3115C93.9236 38.1493 95.1509 38.3887 96.1749 39.0299C97.2205 39.6604 97.9254 40.7217 98.2897 42.2139C98.6484 43.6827 98.7146 44.8917 98.4884 45.8408C98.2623 46.79 97.7516 47.4622 96.9565 47.8576C96.3978 48.1355 95.8795 48.1841 95.4016 48.0034C94.9452 47.812 94.6544 47.4598 94.5292 46.9469C94.421 46.5039 94.3536 46.0799 94.327 45.6748C94.2207 44.9432 94.1448 44.4842 94.0993 44.2977C93.8602 43.3185 93.2375 42.7915 92.2312 42.7167C91.2249 42.6419 90.0663 42.9304 88.7555 43.5823C86.9074 44.5013 85.5801 45.5797 84.7738 46.8173C83.9832 48.021 83.7501 49.2873 84.0746 50.6163C84.2909 51.5022 84.723 52.1371 85.371 52.5208C86.0404 52.8938 86.8024 53.1032 87.657 53.1488C88.5116 53.1945 89.687 53.1721 91.1831 53.0818C92.9928 52.9924 94.463 52.9933 95.5939 53.0846C96.7247 53.1759 97.7563 53.5519 98.6888 54.2125C99.6427 54.8624 100.299 55.9218 100.658 57.3906C101.329 60.1418 100.88 62.7444 99.3104 65.1983C97.7565 67.6183 95.3678 69.6297 92.1443 71.2327Z" fill="#7B0086"/>
<path d="M136.254 45.0551C136.55 44.9562 136.801 45.0222 137.007 45.2531C137.235 45.4764 137.39 45.8367 137.472 46.3341C137.624 47.2577 137.528 48.0642 137.185 48.7535C136.171 50.7665 135.113 52.2944 134.012 53.3372C132.933 54.3724 131.552 55.1716 129.867 55.7348C128.684 56.1305 127.566 56.3419 126.514 56.3689C125.462 56.3959 124.168 56.3413 122.633 56.205C121.239 56.0468 119.907 55.9799 118.639 56.0043C117.839 58.595 116.279 60.2785 113.957 61.0548C112.683 61.481 111.621 61.5236 110.773 61.1827C109.898 60.8257 109.383 60.1736 109.227 59.2263C109.037 58.0658 109.414 56.9278 110.359 55.8122C111.301 54.673 112.659 53.8065 114.435 53.2129L114.878 53.0644L113.796 42.5213C113.544 40.1074 113.633 38.0165 114.063 36.2488C114.493 34.4811 115.222 32.8508 116.249 31.358C117.141 30.0606 118.219 28.9505 119.484 28.0278C120.746 27.0815 122.127 26.3571 123.63 25.8548C126.088 25.0328 128.086 25.0642 129.624 25.9491C131.162 26.8339 132.105 28.342 132.455 30.4735C132.692 31.9181 132.635 33.1742 132.282 34.2416C131.925 35.2853 131.302 35.9555 130.415 36.2524C129.777 36.4655 129.251 36.479 128.837 36.2929C128.418 36.0831 128.16 35.6821 128.063 35.0901C128.028 34.8769 128.009 34.4709 128.007 33.8721C128.035 33.1633 128.006 32.5484 127.92 32.0274C127.757 31.0327 127.344 30.3463 126.682 29.9682C126.038 29.5588 125.148 29.5443 124.01 29.9249C122.007 30.5946 120.572 31.799 119.704 33.5379C118.834 35.2532 118.489 37.6168 118.672 40.6287L119.21 48.9553C119.283 50.1302 119.296 51.1625 119.25 52.0523C120.75 51.8257 122.639 51.6313 124.917 51.469C126.246 51.3744 127.264 51.284 127.97 51.1977C128.676 51.1115 129.291 50.9809 129.814 50.8058C131.135 50.3644 132.224 49.7627 133.084 49.0006C133.962 48.2073 134.739 47.1607 135.414 45.8607C135.632 45.4378 135.912 45.1693 136.254 45.0551Z" fill="#7B0086"/>
<path d="M157.17 42.2505C157.504 42.0266 157.788 41.8877 158.022 41.8338C158.396 41.7476 158.693 41.8261 158.913 42.0691C159.132 42.3122 159.268 42.6603 159.319 43.1134C159.4 43.8288 159.293 44.4774 158.999 45.059C158.728 45.6352 158.206 46.2204 157.434 46.8144C156.129 47.8 154.401 48.7488 152.248 49.6607C150.093 50.5487 147.951 51.2379 145.823 51.7282C142.876 52.4072 140.371 52.6417 138.308 52.432C136.242 52.1984 134.65 51.5985 133.533 50.6324C132.439 49.661 131.807 48.424 131.637 46.9216C131.405 44.8707 131.852 42.9816 132.976 41.2544C134.121 39.4979 135.92 38.0068 138.373 36.781C136.948 36.6934 135.803 36.2232 134.938 35.3701C134.097 34.5117 133.605 33.4505 133.462 32.1866C133.268 30.4695 133.623 28.8339 134.527 27.2798C135.452 25.6965 136.774 24.3397 138.494 23.2093C140.214 22.079 142.15 21.266 144.301 20.7703C147.201 20.1022 149.449 20.2449 151.045 21.1987C152.638 22.1285 153.549 23.607 153.778 25.6341C153.937 27.0411 153.81 28.2451 153.395 29.246C153.001 30.2177 152.336 30.8113 151.401 31.0268C150.746 31.1777 150.215 31.1531 149.809 30.9532C149.399 30.7294 149.161 30.3194 149.093 29.7232C149.048 29.3177 149.056 28.8631 149.119 28.3592C149.147 27.5453 149.145 26.9952 149.112 26.709C149.015 25.8505 148.621 25.2317 147.931 24.8525C147.237 24.4495 146.154 24.4177 144.68 24.7571C142.692 25.2151 141.151 26.0108 140.055 27.1441C138.959 28.2774 138.494 29.5714 138.658 31.0262C138.785 32.147 139.335 32.9747 140.307 33.5093C141.3 34.0146 142.818 34.0686 144.861 33.6714C145.378 33.5767 145.754 33.6124 145.989 33.7785C146.223 33.9447 146.369 34.2781 146.426 34.779C146.604 36.3529 145.993 37.3135 144.592 37.6606C142.656 38.1555 141.074 38.8016 139.844 39.5987C138.638 40.3905 137.787 41.2472 137.291 42.1689C136.816 43.0613 136.628 43.9487 136.728 44.8311C136.895 46.3097 137.7 47.2743 139.143 47.7249C140.583 48.1517 142.777 48.0256 145.724 47.3467C147.665 46.8995 149.685 46.2015 151.786 45.2527C153.907 44.2746 155.701 43.2739 157.17 42.2505Z" fill="#7B0086"/>
<path d="M163.72 48.8579C160.554 49.2654 157.981 48.9929 156.001 48.0404C154.02 47.064 152.95 45.3303 152.793 42.8393C152.709 41.5219 152.872 40.4868 153.28 39.7339C153.689 38.9811 154.333 38.548 155.214 38.4346C155.857 38.3519 156.391 38.4522 156.817 38.7354C157.243 39.0186 157.472 39.4237 157.506 39.9507C157.536 40.4297 157.527 40.8535 157.478 41.222C157.484 41.3178 157.471 41.4885 157.438 41.7341C157.43 41.9767 157.434 42.2298 157.45 42.4932C157.518 43.5711 158.105 44.3045 159.209 44.6936C160.337 45.0796 161.877 45.147 163.829 44.8957C165.853 44.6352 167.413 44.0722 168.51 43.2066C169.606 42.317 170.112 41.2135 170.029 39.8961C169.977 39.0817 169.671 38.4208 169.111 37.9134C168.55 37.382 167.864 36.9752 167.055 36.6931C166.243 36.387 165.105 36.0385 163.641 35.6475C161.763 35.1649 160.22 34.6753 159.013 34.1787C157.829 33.6791 156.786 32.932 155.883 31.9374C155.003 30.9159 154.51 29.5787 154.406 27.926C154.297 26.2015 154.652 24.6103 155.472 23.1525C156.316 21.6917 157.571 20.4797 159.238 19.5166C160.928 18.5504 162.94 17.9171 165.273 17.6168C167.011 17.3932 168.622 17.4513 170.107 17.7914C171.591 18.1075 172.795 18.7373 173.718 19.6809C174.666 20.6214 175.188 21.8581 175.285 23.3911C175.38 24.9001 175.226 26.0669 174.822 26.8916C174.418 27.7163 173.776 28.1853 172.895 28.2987C172.276 28.3784 171.741 28.2542 171.288 27.9261C170.859 27.5949 170.628 27.1659 170.595 26.6389C170.566 26.1838 170.575 25.7601 170.622 25.3676C170.648 24.6399 170.655 24.1802 170.643 23.9886C170.58 22.9826 170.043 22.2789 169.034 21.8776C168.025 21.4763 166.794 21.3691 165.342 21.556C163.295 21.8195 161.748 22.405 160.701 23.3124C159.677 24.1928 159.208 25.3157 159.295 26.681C159.352 27.5911 159.675 28.3343 160.263 28.9106C160.876 29.4838 161.612 29.9323 162.472 30.2562C163.333 30.5801 164.531 30.9449 166.069 31.3507C167.925 31.8603 169.419 32.344 170.552 32.8019C171.685 33.2598 172.665 33.9546 173.492 34.8865C174.342 35.8153 174.815 37.0343 174.911 38.5432C175.089 41.3696 174.156 43.6871 172.11 45.4959C170.087 47.2776 167.29 48.3982 163.72 48.8579Z" fill="#7B0086"/>
<path d="M199.568 47.5307C196.713 47.4689 194.235 46.8991 192.134 45.8213C190.034 44.7196 188.43 43.1966 187.323 41.2523C186.216 39.3079 185.676 37.0638 185.703 34.52C185.74 30.9922 186.433 27.8747 187.782 25.1674C189.155 22.4607 190.989 20.3881 193.284 18.9496C195.58 17.4871 198.119 16.786 200.903 16.8463C203.494 16.9025 205.454 17.6171 206.784 18.9902C208.113 20.3392 208.767 22.1057 208.743 24.2896C208.728 25.7535 208.451 26.9237 207.914 27.8002C207.401 28.6772 206.664 29.1053 205.704 29.0845C205.033 29.07 204.506 28.9025 204.126 28.5822C203.745 28.2619 203.558 27.8018 203.564 27.2018C203.567 26.9858 203.619 26.5909 203.721 26.017C203.873 25.3002 203.951 24.7258 203.955 24.2938C203.979 22.1099 202.827 20.9927 200.499 20.9423C198.915 20.908 197.398 21.3912 195.948 22.3919C194.497 23.3926 193.317 24.8913 192.408 26.888C191.499 28.8606 191.03 31.2269 191 33.9867C190.97 36.8665 191.75 39.1158 193.34 40.7346C194.931 42.3294 197.299 43.1608 200.442 43.2289C202.002 43.2627 203.575 43.1048 205.163 42.7552C206.775 42.382 208.557 41.8086 210.509 41.0347C210.871 40.8985 211.171 40.833 211.411 40.8383C211.795 40.8466 212.082 40.9968 212.27 41.289C212.459 41.5811 212.551 41.9552 212.547 42.4111C212.531 43.875 211.728 44.9378 210.137 45.5995C208.425 46.3065 206.644 46.82 204.792 47.1399C202.965 47.4363 201.224 47.5666 199.568 47.5307Z" fill="#7B0086"/>
<path d="M231.511 44.4538C231.877 44.3536 232.179 44.3181 232.417 44.3471C232.798 44.3936 233.075 44.5723 233.249 44.883C233.422 45.1937 233.495 45.5767 233.468 46.0319C233.425 46.7506 233.209 47.3397 232.822 47.7992C232.458 48.2616 231.847 48.6456 230.989 48.9511C229.543 49.4504 227.689 49.7671 225.425 49.9012C223.163 50.0112 220.947 49.934 218.779 49.6695C215.778 49.3033 213.284 48.6613 211.3 47.7434C209.316 46.8016 207.86 45.6707 206.931 44.3508C206.026 43.0337 205.619 41.6206 205.709 40.1113C205.833 38.051 206.593 36.3821 207.989 35.1045C209.411 33.8059 211.427 32.9901 214.039 32.6572C212.658 32.0784 211.617 31.2275 210.916 30.1043C210.24 28.984 209.939 27.789 210.015 26.5193C210.119 24.7944 210.746 23.3385 211.897 22.1517C213.073 20.9438 214.6 20.0924 216.477 19.5975C218.355 19.1026 220.389 18.9889 222.581 19.2563C225.535 19.6167 227.712 20.5338 229.111 22.0077C230.512 23.4577 231.152 25.2008 231.03 27.2372C230.945 28.6506 230.614 29.7686 230.037 30.5911C229.485 31.3925 228.733 31.7351 227.78 31.6188C227.113 31.5374 226.597 31.3297 226.233 30.9957C225.871 30.6378 225.707 30.1593 225.743 29.5604C225.768 29.1531 225.854 28.7172 226.002 28.2526C226.168 27.4765 226.26 26.9448 226.277 26.6573C226.329 25.7948 226.049 25.0608 225.437 24.4553C224.827 23.8258 223.771 23.4195 222.271 23.2364C220.246 22.9893 218.6 23.2229 217.333 23.9371C216.066 24.6514 215.389 25.7391 215.302 27.2005C215.234 28.3265 215.631 29.3161 216.492 30.1692C217.378 31.0013 218.855 31.5797 220.923 31.9044C221.446 31.9923 221.808 32.1571 222.01 32.3989C222.211 32.6407 222.297 33.0131 222.267 33.5162C222.172 35.0974 221.409 35.8128 219.978 35.6623C217.998 35.469 216.338 35.5439 214.998 35.8872C213.681 36.2333 212.701 36.7653 212.058 37.4833C211.441 38.1801 211.105 38.9718 211.052 39.8582C210.963 41.3435 211.586 42.5538 212.922 43.489C214.26 44.4002 216.429 45.039 219.431 45.4052C221.408 45.6465 223.506 45.6732 225.725 45.4854C227.97 45.2766 229.898 44.9327 231.511 44.4538Z" fill="#7B0086"/>
<path d="M260.198 50.6406C260.502 50.7121 260.719 50.9102 260.849 51.2348C261.003 51.5649 261.051 51.9803 260.993 52.4809C260.886 53.4107 260.578 54.0975 260.071 54.5414C258.79 55.66 257.533 56.466 256.3 56.9594C255.07 57.4288 253.672 57.4793 252.107 57.1106C250.588 56.753 249.34 56.0304 248.362 54.9429C247.407 53.8609 246.568 52.1938 245.845 49.9417C245.261 48.139 244.792 46.8038 244.436 45.9364C244.083 45.0451 243.704 44.3803 243.299 43.942C242.917 43.5092 242.415 43.1827 241.792 42.9626C241.641 43.4413 241.19 44.9515 240.44 47.4934C240.116 48.6414 239.915 49.3411 239.838 49.5923C239.436 50.9916 238.839 52.0021 238.047 52.6238C237.258 53.2216 236.151 53.3528 234.726 53.0171C233.161 52.6485 231.825 51.8562 230.718 50.6403C229.637 49.4061 228.865 47.8775 228.404 46.0545C227.946 44.2078 227.841 42.2115 228.089 40.0658C228.552 36.0605 229.629 32.7631 231.321 30.1736C233.035 27.5896 235.207 25.8235 237.836 24.8754C240.492 23.909 243.431 23.8054 246.655 24.5646C248.898 25.0928 250.738 25.8814 252.177 26.9305C253.615 27.9795 254.627 29.1972 255.21 30.5837C255.817 31.9756 256.032 33.4345 255.856 34.9604C255.702 36.2955 255.235 37.5325 254.455 38.6713C253.701 39.7919 252.649 40.6951 251.298 41.381C249.947 42.0668 248.356 42.4391 246.525 42.4978C247.611 43.0718 248.417 43.776 248.945 44.6105C249.472 45.4449 249.962 46.6012 250.415 48.0794C250.904 49.6639 251.425 50.8642 251.979 51.6803C252.556 52.502 253.265 53.0118 254.106 53.2099C254.853 53.3859 255.595 53.3034 256.33 52.9623C257.068 52.5974 258.023 51.9161 259.194 50.9184C259.513 50.6507 259.848 50.558 260.198 50.6406ZM236.961 41.788C236.166 41.6009 235.639 41.2809 235.38 40.8279C235.144 40.3804 235.053 39.9183 235.108 39.4414C235.174 38.8692 235.402 38.4575 235.791 38.2063C236.203 37.9605 236.643 37.8927 237.11 38.0027L237.986 38.209C238.63 35.9606 239.214 34.0286 239.736 32.4129C240.219 30.9348 241.29 30.391 242.949 30.7816C244.28 31.0953 244.876 31.86 244.735 33.0759C244.705 33.3382 244.67 33.5381 244.63 33.6756L242.892 39.3645C244.162 39.5901 245.342 39.5497 246.434 39.2435C247.548 38.9427 248.466 38.3751 249.186 37.5407C249.93 36.7117 250.374 35.6774 250.517 34.4377C250.691 32.9357 250.325 31.6372 249.42 30.5424C248.514 29.4475 247.092 28.6717 245.153 28.2151C242.864 27.6759 240.787 27.7868 238.924 28.5479C237.086 29.2906 235.556 30.6936 234.333 32.7567C233.114 34.7961 232.315 37.4488 231.937 40.7151C231.761 42.2409 231.761 43.5879 231.938 44.7562C232.115 45.9244 232.394 46.8349 232.774 47.4878C233.154 48.1407 233.543 48.5139 233.94 48.6074C234.244 48.679 234.507 48.5818 234.73 48.3158C234.976 48.0554 235.198 47.5933 235.394 46.9294L236.961 41.788Z" fill="#7B0086"/>
<path d="M272.046 33.0594C272.637 33.2601 273.111 33.5838 273.469 34.0305C273.83 34.4535 273.976 34.8781 273.904 35.3042C273.778 36.0617 273.448 36.6 272.915 36.9191C272.385 37.2145 271.7 37.2194 270.859 36.9339C269.541 36.4862 268.539 36.1584 267.854 35.9505C267.761 36.2191 267.343 37.428 266.601 39.5771C265.769 41.9712 265.261 43.4369 265.075 43.9742L263.583 48.3828C262.503 51.6929 261.62 54.4697 260.934 56.713C261.415 56.8514 262.065 57.0595 262.883 57.3374C264.087 57.7465 264.878 58.1901 265.254 58.6682C265.631 59.1462 265.764 59.7167 265.653 60.3795C265.55 60.995 265.225 61.4348 264.677 61.6988C264.151 61.9706 263.468 61.9636 262.627 61.6781C262.059 61.4851 261.165 61.1565 259.946 60.6924C258.818 60.2591 258.072 59.9807 257.708 59.8572C256.276 59.3709 254.687 58.9685 252.939 58.65C252.169 58.5137 251.625 58.3915 251.307 58.2834C250.807 58.1136 250.41 57.8288 250.117 57.4289C249.823 57.029 249.722 56.5569 249.813 56.0124C249.955 55.1602 250.429 54.6208 251.235 54.3943C252.041 54.1679 253.106 54.2667 254.428 54.6907L256.036 55.1993L256.268 54.4529C257.445 50.8504 258.289 48.3104 258.799 46.8329L260.325 42.4358C261.237 39.8441 262.118 37.1541 262.967 34.3658L260.098 33.4288C259.28 33.1509 258.734 32.8278 258.459 32.4593C258.211 32.0749 258.128 31.6341 258.211 31.137C258.48 29.5272 259.737 29.0413 261.984 29.6794C263.037 29.9871 264.314 30.3957 265.814 30.9051L272.046 33.0594Z" fill="#7B0086"/>
<path d="M276.403 67.904C273.475 66.6319 271.256 65.0264 269.746 63.0876C268.24 61.1253 267.748 58.9236 268.268 56.4826C268.544 55.1916 268.963 54.2967 269.527 53.7977C270.09 53.2988 270.779 53.2263 271.594 53.5802C272.188 53.8384 272.637 54.2132 272.941 54.7044C273.245 55.1956 273.342 55.6994 273.232 56.2158C273.132 56.6852 273.011 57.0816 272.87 57.405C272.85 57.4989 272.793 57.6536 272.699 57.8692C272.627 58.0944 272.563 58.336 272.508 58.5942C272.283 59.6505 272.61 60.652 273.491 61.5988C274.393 62.5552 275.747 63.4255 277.552 64.2099C279.423 65.0229 280.962 65.3069 282.168 65.0619C283.38 64.7934 284.124 64.0136 284.399 62.7227C284.569 61.9247 284.472 61.1388 284.108 60.365C283.749 59.5678 283.247 58.8236 282.6 58.1324C281.959 57.4177 281.038 56.4917 279.838 55.3545C278.293 53.9139 277.049 52.6423 276.106 51.5399C275.184 50.447 274.454 49.1933 273.914 47.7789C273.401 46.3505 273.317 44.8265 273.662 43.2069C274.023 41.517 274.762 40.1965 275.878 39.2456C277.017 38.3042 278.457 37.814 280.197 37.7751C281.959 37.7457 283.918 38.1997 286.076 39.1371C287.682 39.8354 289.102 40.7344 290.335 41.8343C291.572 42.9106 292.477 44.1374 293.049 45.5145C293.643 46.9012 293.78 48.3456 293.46 49.8478C293.144 51.3265 292.697 52.3505 292.119 52.9199C291.54 53.4893 290.844 53.597 290.029 53.2431C289.457 52.9944 289.013 52.5962 288.697 52.0485C288.403 51.5103 288.311 50.983 288.421 50.4667C288.516 50.0207 288.637 49.6243 288.783 49.2774C288.999 48.602 289.127 48.1704 289.167 47.9826C289.378 46.9968 289.087 46.0496 288.294 45.141C287.502 44.2325 286.434 43.4865 285.092 42.903C283.199 42.0804 281.666 41.8247 280.493 42.1358C279.347 42.433 278.632 43.2505 278.346 44.5884C278.156 45.4803 278.246 46.3532 278.618 47.2069C279.011 48.0702 279.547 48.8805 280.228 49.6377C280.908 50.395 281.879 51.3683 283.14 52.5577C284.658 54.0123 285.86 55.253 286.748 56.2798C287.635 57.3066 288.323 58.4777 288.812 59.793C289.323 61.118 289.421 62.5198 289.106 63.9985C288.515 66.7682 287.069 68.4737 284.767 69.115C282.493 69.7425 279.704 69.3388 276.403 67.904Z" fill="#7B0086"/>
<path d="M308.808 51.3413C309.359 51.6348 309.785 52.0341 310.087 52.5392C310.396 53.021 310.495 53.4709 310.386 53.8888C310.191 54.6318 309.821 55.1226 309.276 55.3611C308.737 55.5764 308.076 55.4752 307.292 55.0575C306.064 54.4027 305.129 53.9175 304.488 53.602C304.372 53.8581 303.854 55.0102 302.931 57.0585C301.9 59.3396 301.269 60.7362 301.038 61.2483L299.177 65.455C297.818 68.6196 296.7 71.2779 295.823 73.4297C296.274 73.6436 296.881 73.9537 297.643 74.3602C298.765 74.9585 299.485 75.5275 299.803 76.0671C300.12 76.6066 300.194 77.2015 300.023 77.8516C299.865 78.4552 299.509 78.8475 298.955 79.0283C298.422 79.2204 297.764 79.1076 296.98 78.6899C296.451 78.4077 295.62 77.9385 294.489 77.2824C293.442 76.6714 292.749 76.2756 292.411 76.095C291.076 75.3837 289.582 74.7324 287.926 74.141C287.197 73.8846 286.684 73.6773 286.388 73.5192C285.922 73.2708 285.566 72.9227 285.322 72.4747C285.077 72.0267 285.024 71.5357 285.164 71.0017C285.383 70.1659 285.892 69.6964 286.691 69.5933C287.49 69.4903 288.507 69.7545 289.742 70.3861L291.244 71.1473L291.54 70.4319C293.02 66.988 294.077 64.5619 294.711 63.1537L296.604 58.964C297.733 56.4965 298.84 53.9251 299.927 51.25L297.249 49.8622C296.487 49.4558 295.99 49.0458 295.761 48.6324C295.558 48.207 295.521 47.7505 295.649 47.2629C296.062 45.6841 297.321 45.3899 299.427 46.3802C300.414 46.8531 301.606 47.4622 303.004 48.2073L308.808 51.3413Z" fill="#7B0086"/>
<path d="M325.071 89.1585C325.417 89.2143 325.692 89.3067 325.894 89.4355C326.218 89.6417 326.418 89.9337 326.495 90.3117C326.571 90.6897 326.541 91.0963 326.405 91.5315C326.19 92.2188 325.856 92.7063 325.402 92.9941C324.968 93.2948 324.336 93.4144 323.506 93.3529C322.11 93.2342 320.4 92.764 318.375 91.9423C316.358 91.0977 314.427 90.0892 312.585 88.9167C310.033 87.2933 307.997 85.6133 306.477 83.8767C304.963 82.1173 303.96 80.3942 303.467 78.7077C302.995 77.034 302.984 75.4756 303.435 74.0324C304.051 72.0623 305.13 70.7443 306.673 70.0784C308.243 69.4025 310.219 69.4511 312.599 70.224C311.526 69.0744 310.819 67.801 310.479 66.4036C310.159 65.0191 310.188 63.7198 310.568 62.5057C311.083 60.8563 311.993 59.6915 313.298 59.0114C314.63 58.3212 316.183 58.1285 317.957 58.4333C319.731 58.7382 321.549 59.4833 323.412 60.6686C325.923 62.2662 327.613 64.083 328.481 66.1188C329.358 68.1318 329.491 70.1119 328.883 72.0591C328.461 73.4107 327.895 74.3685 327.184 74.9327C326.502 75.4868 325.755 75.5062 324.945 74.9908C324.378 74.6301 323.976 74.2092 323.738 73.7281C323.507 73.2242 323.481 72.6858 323.66 72.1131C323.781 71.7237 323.964 71.3321 324.209 70.9384C324.546 70.2468 324.758 69.7636 324.844 69.4887C325.101 68.664 325.035 67.8257 324.646 66.9739C324.264 66.0991 323.435 65.2559 322.16 64.4442C320.438 63.349 318.933 62.8852 317.642 63.0528C316.352 63.2204 315.489 64.003 315.052 65.4004C314.716 66.477 314.821 67.6153 315.369 68.815C315.944 70.0047 317.102 71.1944 318.842 72.3841C319.28 72.6904 319.558 73.0047 319.676 73.3268C319.794 73.6489 319.778 74.0505 319.627 74.5316C319.155 76.0436 318.308 76.4245 317.086 75.6743C315.391 74.6507 313.911 74.0252 312.647 73.7976C311.404 73.583 310.411 73.6926 309.668 74.1264C308.953 74.5503 308.463 75.186 308.199 76.0336C307.755 77.4539 308.006 78.9042 308.951 80.3846C309.904 81.842 311.656 83.3824 314.207 85.0058C315.888 86.0752 317.727 86.985 319.726 87.735C321.752 88.4751 323.534 88.9496 325.071 89.1585Z" fill="#7B0086"/>
<path d="M349.604 107.825C349.851 108.016 349.989 108.298 350.02 108.67C350.069 109.057 350.004 109.486 349.825 109.957C349.492 110.832 349.047 111.387 348.49 111.624C347.085 112.219 345.78 112.515 344.578 112.512C343.384 112.487 342.151 111.981 340.881 110.996C339.648 110.04 338.745 108.832 338.171 107.37C337.616 105.923 337.313 103.945 337.261 101.436C337.216 99.425 337.15 97.9212 337.062 96.924C336.984 95.9044 336.824 95.0979 336.583 94.5045C336.361 93.9257 336.007 93.4042 335.521 92.9399C335.266 93.3521 334.484 94.6633 333.176 96.8736C332.597 97.8775 332.242 98.4881 332.11 98.7054C331.4 99.9265 330.619 100.687 329.768 100.986C328.926 101.262 327.926 100.952 326.769 100.055C325.499 99.0696 324.537 97.7572 323.883 96.1178C323.258 94.4706 322.978 92.656 323.045 90.6742C323.12 88.6699 323.541 86.6584 324.31 84.6397C325.744 80.8715 327.532 78.0456 329.674 76.1621C331.835 74.2933 334.184 73.4132 336.722 73.5218C339.287 73.6227 341.879 74.6879 344.496 76.7173C346.317 78.129 347.72 79.6381 348.705 81.2445C349.691 82.8508 350.259 84.4539 350.412 86.0537C350.583 87.6682 350.396 89.1932 349.85 90.6287C349.371 91.8848 348.646 92.9199 347.673 93.7341C346.727 94.5405 345.576 95.0138 344.221 95.154C342.866 95.2943 341.382 95.0298 339.77 94.3608C340.569 95.3583 341.092 96.3734 341.337 97.4062C341.583 98.439 341.713 99.7747 341.728 101.413C341.747 103.171 341.893 104.562 342.166 105.587C342.458 106.627 342.945 107.411 343.628 107.941C344.235 108.411 344.903 108.625 345.632 108.58C346.37 108.513 347.378 108.22 348.657 107.701C349.004 107.563 349.32 107.605 349.604 107.825ZM331.607 89.8621C330.963 89.3621 330.585 88.8371 330.475 88.287C330.384 87.7517 330.424 87.2597 330.595 86.8111C330.8 86.2728 331.104 85.9569 331.508 85.8635C331.931 85.7847 332.332 85.8924 332.712 86.1866L333.423 86.738C334.563 84.7752 335.569 83.1005 336.441 81.7138C337.242 80.4471 338.317 80.3357 339.663 81.3798C340.744 82.2181 341.067 83.2092 340.632 84.3531C340.538 84.5998 340.456 84.7831 340.385 84.903L337.406 89.8263C338.456 90.5531 339.496 90.9821 340.527 91.1133C341.577 91.2592 342.523 91.0635 343.367 90.5262C344.229 90.0036 344.882 89.1592 345.326 87.9928C345.864 86.5797 345.879 85.1533 345.37 83.7134C344.862 82.2736 343.821 80.9434 342.247 79.7228C340.388 78.2816 338.548 77.5664 336.726 77.5773C334.931 77.5804 333.236 78.3571 331.638 79.9074C330.05 81.4353 328.67 83.7357 327.501 86.8086C326.954 88.2441 326.608 89.5734 326.462 90.7963C326.315 92.0193 326.324 93.0284 326.488 93.8237C326.652 94.619 326.896 95.1416 327.218 95.3916C327.465 95.5828 327.719 95.5914 327.982 95.4175C328.264 95.2583 328.576 94.8902 328.918 94.3132L331.607 89.8621Z" fill="#7B0086"/>
<path d="M349.359 120.529C347.018 118.359 345.391 116.076 344.48 113.678C343.579 111.259 343.645 108.914 344.679 106.642C345.225 105.44 345.81 104.678 346.433 104.354C347.056 104.031 347.693 104.171 348.344 104.774C348.819 105.215 349.137 105.727 349.297 106.31C349.457 106.893 349.428 107.425 349.209 107.905C349.01 108.342 348.81 108.7 348.608 108.979C348.568 109.066 348.481 109.203 348.346 109.389C348.229 109.591 348.116 109.812 348.007 110.052C347.56 111.035 347.623 112.134 348.196 113.349C348.787 114.58 349.805 115.864 351.248 117.202C352.744 118.589 354.064 119.346 355.207 119.474C356.36 119.58 357.21 119.032 357.757 117.83C358.095 117.088 358.189 116.275 358.04 115.391C357.902 114.486 357.621 113.59 357.2 112.702C356.788 111.792 356.173 110.586 355.355 109.083C354.298 107.171 353.472 105.521 352.878 104.132C352.302 102.759 351.934 101.284 351.775 99.7086C351.644 98.1272 351.921 96.5829 352.607 95.0756C353.322 93.5027 354.293 92.4146 355.518 91.8112C356.762 91.2241 358.171 91.1793 359.746 91.6767C361.34 92.1904 362.999 93.2467 364.724 94.8454C366.009 96.0363 367.079 97.3697 367.934 98.8454C368.799 100.299 369.33 101.8 369.526 103.349C369.74 104.914 369.529 106.395 368.893 107.793C368.266 109.17 367.627 110.052 366.975 110.441C366.322 110.83 365.67 110.723 365.019 110.119C364.561 109.695 364.253 109.162 364.096 108.518C363.955 107.892 363.995 107.338 364.213 106.857C364.402 106.442 364.603 106.084 364.814 105.784C365.165 105.177 365.381 104.787 365.46 104.612C365.878 103.695 365.835 102.661 365.332 101.512C364.829 100.362 364.04 99.2899 362.967 98.2947C361.453 96.8917 360.132 96.1645 359.004 96.1131C357.904 96.0562 357.07 96.6503 356.504 97.8955C356.126 98.7256 356.006 99.6232 356.142 100.588C356.296 101.57 356.592 102.542 357.029 103.507C357.466 104.471 358.115 105.74 358.976 107.314C360.005 109.231 360.801 110.838 361.362 112.134C361.923 113.431 362.272 114.81 362.408 116.271C362.561 117.749 362.325 119.176 361.699 120.552C360.526 123.13 358.829 124.383 356.609 124.313C354.416 124.238 351.999 122.976 349.359 120.529Z" fill="#7B0086"/>
</svg>
