<svg width="1020" height="295" viewBox="0 0 1020 295" fill="none" xmlns="http://www.w3.org/2000/svg">
<path d="M89.9597 235.844C82.5831 240.091 75.8779 242.106 69.8441 241.887C63.7783 241.613 59.0849 238.592 55.7637 232.824C54.0073 229.774 53.193 227.141 53.3207 224.926C53.4484 222.71 54.5384 221.012 56.5905 219.83C58.088 218.968 59.5318 218.654 60.9217 218.888C62.3117 219.121 63.3579 219.848 64.0605 221.068C64.6992 222.177 65.1748 223.196 65.4875 224.124C65.6152 224.346 65.7833 224.766 65.9917 225.384C66.2556 225.971 66.5631 226.569 66.9144 227.179C68.3515 229.675 70.6692 230.815 73.8676 230.598C77.1215 230.349 81.0224 228.915 85.5704 226.297C90.2848 223.582 93.4941 220.627 95.1984 217.43C96.8706 214.178 96.8286 211.026 95.0722 207.976C93.9864 206.09 92.4502 204.833 90.4636 204.204C88.4451 203.52 86.2652 203.262 83.9239 203.428C81.5508 203.539 78.317 203.887 74.2228 204.472C68.9941 205.267 64.5898 205.698 61.0098 205.765C57.4854 205.801 54.018 205.101 50.6078 203.668C47.2211 202.147 44.4261 199.473 42.2226 195.646C39.9233 191.652 38.9333 187.496 39.2526 183.177C39.6274 178.825 41.3165 174.64 44.3199 170.622C47.3788 166.571 51.6259 162.981 57.0613 159.851C61.1102 157.52 65.1775 155.991 69.2633 155.263C73.3172 154.48 77.0451 154.733 80.4469 156.024C83.9041 157.283 86.6546 159.687 88.6984 163.237C90.7103 166.731 91.7003 169.669 91.6684 172.051C91.6365 174.432 90.5944 176.214 88.5423 177.395C87.1002 178.226 85.6246 178.484 84.1153 178.172C82.6614 177.827 81.5833 177.045 80.8807 175.825C80.2739 174.771 79.7983 173.752 79.4537 172.769C78.6621 171.009 78.1385 169.908 77.8831 169.464C76.5418 167.135 74.3829 166.014 71.4064 166.103C68.4298 166.193 65.2499 167.211 61.8666 169.159C57.0968 171.905 53.9471 174.901 52.4177 178.144C50.9118 181.301 51.069 184.46 52.8892 187.621C54.1027 189.729 55.7784 191.164 57.9163 191.927C60.1097 192.658 62.4644 192.964 64.9804 192.845C67.4964 192.725 70.9007 192.353 75.1933 191.728C80.3985 191.02 84.6759 190.625 88.0256 190.543C91.3753 190.46 94.6241 191.101 97.7721 192.464C100.976 193.795 103.583 196.207 105.595 199.702C109.363 206.246 109.774 212.731 106.826 219.154C103.901 225.491 98.2793 231.054 89.9597 235.844Z" fill="#7B0086"/>
<path d="M145.669 206.409C140.559 208.925 135.372 210.052 130.107 209.791C124.899 209.501 120.001 207.739 115.413 204.505C110.797 201.214 106.962 196.467 103.909 190.266C99.6125 181.538 97.4036 173.067 97.2826 164.852C97.2191 156.608 99.0243 149.335 102.698 143.032C106.43 136.701 111.626 131.896 118.286 128.617C123.396 126.101 128.555 124.988 133.763 125.278C139.028 125.539 143.968 127.316 148.585 130.607C153.173 133.841 156.994 138.559 160.046 144.76C164.343 153.488 166.523 161.973 166.587 170.217C166.708 178.432 164.903 185.706 161.171 192.037C157.497 198.339 152.33 203.13 145.669 206.409ZM141.527 195.822C146.006 193.617 149.261 190.303 151.292 185.879C153.38 181.427 154.141 176.308 153.576 170.523C152.983 164.68 151.159 158.659 148.106 152.457C144.743 145.624 140.763 141.163 136.168 139.074C131.544 136.928 126.964 136.971 122.428 139.204C118.007 141.381 114.781 144.681 112.75 149.105C110.691 153.471 109.929 158.59 110.466 164.461C110.973 170.274 112.768 176.31 115.849 182.569C119.213 189.402 123.207 193.892 127.83 196.038C132.426 198.127 136.991 198.055 141.527 195.822Z" fill="#7B0086"/>
<path d="M188.087 187.814C183.119 189.868 178.801 190.06 175.133 188.391C171.44 186.662 168.641 183.491 166.734 178.878C165.658 176.275 164.735 172.952 163.963 168.908L158.976 141.26C158.899 140.738 158.627 139.327 158.161 137.027C157.754 134.702 157.037 132.297 156.01 129.813C155.423 128.394 154.688 127.451 153.803 126.986C152.977 126.496 152.091 126.447 151.145 126.838C149.37 127.571 147.655 129.285 145.998 131.978C144.316 134.612 142.896 138.212 141.736 142.777C141.372 144.243 140.688 145.184 139.682 145.599C138.854 145.942 137.956 145.863 136.987 145.363C136.054 144.779 135.379 143.985 134.963 142.979C134.206 141.146 134.178 138.733 134.881 135.742C137.491 124.968 142.848 117.906 150.951 114.557C154.559 113.066 157.82 112.998 160.736 114.356C163.711 115.688 166.078 118.484 167.838 122.743C169.085 125.759 170.027 128.625 170.664 131.339C171.302 134.053 172.022 137.807 172.826 142.599L175.899 160.339C176.001 160.92 176.185 161.952 176.451 163.434C176.718 164.917 177.019 166.316 177.355 167.631C177.667 168.888 178.067 170.107 178.556 171.29C179.338 173.183 180.494 174.471 182.023 175.155C183.552 175.838 185.293 175.777 187.245 174.97C190.793 173.503 193.589 170.132 195.633 164.855C197.735 159.554 198.588 152.068 198.192 142.398C197.831 132.644 195.794 120.848 192.082 107.008C191.25 103.821 190.973 101.476 191.253 99.9757C191.592 98.4505 192.915 97.2112 195.222 96.2577C197.292 95.4021 199.086 95.3875 200.605 96.2139C202.124 97.0404 203.458 98.8436 204.607 101.623C205.267 103.22 205.928 105.406 206.59 108.179C207.311 110.928 208.252 114.798 209.415 119.789C211.558 129.498 213.722 138.334 215.905 146.296C216.849 149.922 217.664 152.563 218.349 154.219C219.351 156.644 220.653 158.287 222.256 159.148C223.893 159.926 225.628 159.936 227.462 159.178C229.414 158.371 231.037 156.938 232.333 154.879C233.688 152.795 235.014 149.72 236.31 145.652C236.678 144.531 237.305 143.787 238.192 143.42C238.961 143.102 239.699 143.212 240.407 143.751C241.173 144.265 241.813 145.143 242.327 146.385C243.28 148.692 243.476 150.758 242.914 152.583C241.379 157.58 239.458 161.56 237.15 164.522C234.843 167.484 232.033 169.65 228.721 171.019C223.811 173.048 219.542 173.358 215.913 171.95C212.259 170.482 209.601 167.738 207.939 163.716C207.01 161.468 205.674 156.896 203.931 149.998C204.567 159.915 203.55 168.092 200.878 174.529C198.265 180.941 194.002 185.37 188.087 187.814Z" fill="#7B0086"/>
<path d="M242.898 167.955C234.824 170.652 227.853 171.294 221.983 169.881C216.092 168.408 212.092 164.514 209.983 158.201C208.868 154.863 208.593 152.121 209.158 149.975C209.724 147.829 211.129 146.381 213.375 145.631C215.014 145.083 216.492 145.062 217.807 145.567C219.123 146.072 220.004 146.993 220.45 148.328C220.856 149.542 221.12 150.635 221.242 151.606C221.323 151.849 221.404 152.294 221.486 152.942C221.628 153.569 221.81 154.217 222.033 154.884C222.946 157.616 224.991 159.193 228.169 159.616C231.407 160.019 235.515 159.389 240.493 157.726C245.652 156.002 249.385 153.743 251.69 150.949C253.975 148.093 254.56 144.997 253.445 141.658C252.755 139.594 251.5 138.057 249.677 137.046C247.835 135.975 245.75 135.288 243.422 134.986C241.074 134.623 237.836 134.322 233.707 134.082C228.425 133.822 224.023 133.37 220.501 132.724C217.039 132.059 213.78 130.685 210.723 128.602C207.706 126.438 205.498 123.262 204.098 119.074C202.638 114.703 202.494 110.433 203.665 106.263C204.897 102.073 207.384 98.3071 211.125 94.9652C214.928 91.6031 219.804 88.9284 225.753 86.941C230.184 85.4607 234.474 84.7697 238.623 84.8682C242.752 84.9059 246.355 85.8952 249.432 87.8361C252.571 89.7567 254.789 92.6594 256.086 96.5444C257.364 100.369 257.751 103.445 257.246 105.772C256.742 108.1 255.367 109.639 253.121 110.39C251.542 110.917 250.045 110.877 248.628 110.271C247.271 109.645 246.37 108.664 245.924 107.328C245.538 106.175 245.275 105.082 245.132 104.05C244.706 102.168 244.412 100.984 244.25 100.499C243.398 97.9493 241.505 96.4225 238.57 95.9185C235.635 95.4145 232.316 95.781 228.613 97.018C223.393 98.7619 219.711 101.072 217.567 103.947C215.464 106.741 214.991 109.868 216.147 113.328C216.917 115.635 218.274 117.375 220.218 118.547C222.222 119.7 224.469 120.467 226.959 120.85C229.449 121.233 232.859 121.544 237.19 121.784C242.432 122.125 246.703 122.588 250.002 123.172C253.302 123.757 256.358 125.03 259.173 126.991C262.048 128.932 264.124 131.815 265.402 135.639C267.795 142.802 266.909 149.238 262.743 154.949C258.618 160.578 252.003 164.913 242.898 167.955Z" fill="#7B0086"/>
<path d="M362.599 114.448C363.411 114.267 364.119 114.504 364.723 115.156C365.389 115.795 365.868 116.771 366.159 118.083C366.7 120.519 366.536 122.588 365.668 124.289C363.098 129.251 360.344 132.943 357.407 135.365C354.533 137.773 350.784 139.49 346.16 140.516C342.911 141.237 339.822 141.497 336.893 141.295C333.963 141.093 330.35 140.616 326.054 139.865C322.146 139.094 318.425 138.575 314.892 138.311C312.995 144.828 308.86 148.795 302.487 150.209C298.988 150.985 296.034 150.821 293.626 149.717C291.141 148.564 289.621 146.738 289.067 144.239C288.387 141.177 289.294 138.321 291.787 135.67C294.266 132.956 297.942 131.059 302.815 129.977L304.034 129.707L299.668 102.06C298.656 95.7288 298.637 90.3246 299.61 85.8474C300.583 81.3703 302.407 77.3272 305.08 73.7182C307.4 70.5812 310.264 67.9788 313.673 65.9111C317.068 63.7809 320.827 62.2582 324.951 61.3431C331.699 59.8455 337.273 60.4441 341.673 63.1387C346.074 65.8333 348.898 69.9922 350.146 75.6154C350.991 79.4267 350.991 82.672 350.143 85.3513C349.281 87.9681 347.632 89.5469 345.196 90.0876C343.446 90.4759 341.981 90.3748 340.802 89.7845C339.608 89.1316 338.837 88.0242 338.491 86.4622C338.366 85.8999 338.262 84.8412 338.179 83.2862C338.166 81.4536 338.007 79.85 337.702 78.4754C337.119 75.8513 335.881 73.9628 333.986 72.8099C332.14 71.5807 329.655 71.3128 326.531 72.0061C321.032 73.2263 317.186 75.9811 314.991 80.2705C312.782 84.4974 312.125 90.5435 313.018 98.4088L315.584 120.162C315.937 123.23 316.107 125.913 316.092 128.211C320.243 128.011 325.484 127.995 331.815 128.163C335.508 128.261 338.333 128.29 340.291 128.249C342.249 128.208 343.946 128.028 345.383 127.709C349.007 126.904 351.968 125.624 354.266 123.869C356.613 122.037 358.644 119.521 360.36 116.321C360.915 115.28 361.662 114.656 362.599 114.448Z" fill="#7B0086"/>
<path d="M423.246 110.277C424.137 109.752 424.899 109.441 425.532 109.344C426.544 109.19 427.361 109.453 427.983 110.135C428.606 110.817 429.009 111.759 429.192 112.961C429.483 114.859 429.255 116.544 428.509 118.018C427.826 119.482 426.46 120.921 424.41 122.335C420.949 124.677 416.326 126.841 410.544 128.826C404.752 130.747 398.977 132.148 393.22 133.028C385.249 134.247 378.439 134.382 372.791 133.433C367.133 132.42 362.733 130.535 359.592 127.779C356.515 125.012 354.671 121.636 354.062 117.65C353.23 112.209 354.264 107.325 357.163 102.997C360.116 98.5962 364.878 95.0193 371.449 92.2665C367.552 91.7617 364.383 90.3039 361.943 87.893C359.566 85.4725 358.121 82.5857 357.608 79.2327C356.912 74.6776 357.721 70.4427 360.036 66.5278C362.404 62.54 365.879 59.2247 370.46 56.582C375.042 53.9392 380.242 52.1728 386.063 51.2829C393.908 50.0835 400.052 50.892 404.497 53.7086C408.932 56.4619 411.561 60.5273 412.383 65.9048C412.954 69.6374 412.722 72.7805 411.688 75.3341C410.708 77.8148 408.953 79.2486 406.422 79.6355C404.651 79.9063 403.201 79.7396 402.072 79.1352C400.934 78.4675 400.244 77.3428 400.003 75.7612C399.838 74.6857 399.817 73.4911 399.94 72.1775C399.937 70.0414 399.878 68.5937 399.762 67.8346C399.414 65.557 398.279 63.8529 396.358 62.7223C394.427 61.5284 391.469 61.2361 387.484 61.8455C382.106 62.6677 377.978 64.4643 375.1 67.2351C372.222 70.006 371.078 73.321 371.668 77.1802C372.122 80.1536 373.701 82.4371 376.405 84.0308C379.163 85.5515 383.308 85.9859 388.841 85.3342C390.243 85.1846 391.272 85.351 391.928 85.8333C392.585 86.3156 393.014 87.2211 393.218 88.5497C393.856 92.7251 392.282 95.1347 388.496 95.7783C383.264 96.7077 379.01 98.1027 375.734 99.9633C372.521 101.814 370.283 103.904 369.02 106.234C367.812 108.491 367.386 110.789 367.744 113.13C368.344 117.053 370.633 119.746 374.612 121.209C378.581 122.609 384.552 122.7 392.523 121.481C397.774 120.678 403.218 119.231 408.854 117.139C414.544 114.974 419.342 112.686 423.246 110.277Z" fill="#7B0086"/>
<path d="M435.985 128.823C427.505 129.561 420.576 128.558 415.198 125.814C409.815 123.006 406.834 118.286 406.258 111.655C405.952 108.149 406.325 105.418 407.376 103.464C408.426 101.509 410.131 100.429 412.49 100.224C414.212 100.074 415.653 100.399 416.815 101.197C417.976 101.995 418.618 103.096 418.74 104.499C418.851 105.774 418.853 106.898 418.745 107.871C418.767 108.126 418.742 108.578 418.67 109.226C418.661 109.87 418.688 110.542 418.749 111.243C418.998 114.112 420.619 116.123 423.61 117.277C426.665 118.424 430.807 118.77 436.035 118.316C441.454 117.844 445.611 116.519 448.505 114.34C451.394 112.097 452.685 109.222 452.38 105.715C452.192 103.548 451.329 101.76 449.794 100.351C448.252 98.8795 446.385 97.725 444.192 96.8879C441.994 95.987 438.916 94.9379 434.957 93.7405C429.881 92.2549 425.706 90.7872 422.432 89.3375C419.222 87.8823 416.373 85.7853 413.887 83.0465C411.458 80.2384 410.053 76.6347 409.67 72.2353C409.27 67.6446 410.127 63.4587 412.239 59.6774C414.415 55.8905 417.712 52.8091 422.131 50.4332C426.613 48.0517 431.979 46.5892 438.227 46.0456C442.882 45.6406 447.215 45.9703 451.226 47.0347C455.232 48.0352 458.504 49.8384 461.044 52.4441C463.647 55.0443 465.126 58.3846 465.481 62.4652C465.83 66.482 465.488 69.5633 464.454 71.709C463.42 73.8547 461.724 75.0301 459.365 75.2354C457.707 75.3796 456.26 74.9916 455.024 74.0713C453.851 73.1454 453.204 71.9811 453.082 70.5784C452.976 69.367 452.975 68.2429 453.077 67.2061C453.102 65.2767 453.092 64.057 453.048 63.5469C452.815 60.869 451.33 58.9424 448.594 57.7672C445.858 56.5919 442.545 56.1734 438.656 56.5118C433.173 56.9889 429.053 58.3751 426.298 60.6706C423.601 62.8967 422.41 65.8269 422.726 69.4612C422.937 71.884 423.851 73.8924 425.467 75.4863C427.147 77.0747 429.153 78.3457 431.484 79.2992C433.816 80.2527 437.059 81.3517 441.214 82.5962C446.232 84.1512 450.277 85.5981 453.348 86.9369C456.42 88.2757 459.095 90.2272 461.374 92.7913C463.717 95.3499 465.063 98.6376 465.412 102.654C466.067 110.178 463.702 116.23 458.319 120.81C452.994 125.32 445.549 127.991 435.985 128.823Z" fill="#7B0086"/>
<path d="M533.828 126.02C526.213 125.924 519.607 124.464 514.01 121.641C508.414 118.754 504.145 114.732 501.202 109.574C498.259 104.416 496.83 98.4458 496.916 91.6624C497.035 82.2551 498.9 73.926 502.512 66.6751C506.188 59.425 511.091 53.8546 517.221 49.9637C523.351 46.0089 530.128 44.0785 537.551 44.1723C544.463 44.2597 549.688 46.1179 553.226 49.747C556.765 53.312 558.498 58.0063 558.425 63.8298C558.375 67.7335 557.632 70.8603 556.194 73.2104C554.82 75.5612 552.853 76.7204 550.293 76.688C548.501 76.6654 547.099 76.2316 546.085 75.3867C545.072 74.5418 544.575 73.3195 544.596 71.7196C544.603 71.1436 544.744 70.0893 545.02 68.5567C545.428 66.6417 545.639 65.1083 545.654 63.9564C545.728 58.1328 542.661 55.1818 536.453 55.1033C532.229 55.0499 528.18 56.3748 524.306 59.0781C520.431 61.7813 517.276 65.8057 514.84 71.1513C512.406 76.433 511.141 82.7535 511.048 90.1129C510.951 97.7923 513.02 103.771 517.254 108.049C521.489 112.263 527.798 114.423 536.182 114.529C540.341 114.581 544.54 114.122 548.776 113.152C553.078 112.118 557.834 110.546 563.045 108.436C564.01 108.064 564.812 107.882 565.452 107.89C566.476 107.903 567.239 108.297 567.741 109.071C568.244 109.846 568.487 110.841 568.472 112.057C568.422 115.96 566.274 118.813 562.027 120.616C557.458 122.542 552.704 123.954 547.764 124.852C542.889 125.686 538.244 126.076 533.828 126.02Z" fill="#7B0086"/>
<path d="M617.002 113.775C617.988 113.463 618.8 113.331 619.438 113.379C620.46 113.456 621.197 113.896 621.65 114.7C622.103 115.504 622.285 116.512 622.194 117.725C622.05 119.64 621.45 121.231 620.392 122.5C619.399 123.773 617.744 124.869 615.429 125.787C611.53 127.292 606.54 128.362 600.46 128.998C594.384 129.57 588.442 129.639 582.635 129.204C574.593 128.602 567.927 127.205 562.636 125.012C557.349 122.755 553.485 119.931 551.044 116.539C548.666 113.152 547.628 109.448 547.929 105.427C548.339 99.9387 550.443 95.4111 554.24 91.8446C558.105 88.219 563.549 85.8026 570.571 84.5953C566.886 83.2285 564.126 81.0965 562.289 78.1993C560.516 75.3069 559.756 72.1694 560.009 68.7869C560.353 64.1917 562.093 60.2466 565.227 56.9513C568.431 53.5971 572.561 51.1466 577.619 49.5998C582.676 48.053 588.141 47.4993 594.012 47.9388C601.926 48.5312 607.733 50.6986 611.431 54.4412C615.135 58.1199 616.784 62.6717 616.378 68.0965C616.096 71.862 615.165 74.8728 613.584 77.1291C612.072 79.3264 610.039 80.3295 607.486 80.1384C605.699 80.0046 604.324 79.5166 603.36 78.6743C602.401 77.7682 601.981 76.5174 602.101 74.9218C602.182 73.8369 602.43 72.6681 602.844 71.4156C603.321 69.3334 603.588 67.9093 603.646 67.1435C603.818 64.8459 603.095 62.9306 601.476 61.3975C599.863 59.8006 597.046 58.8517 593.025 58.5508C587.601 58.1447 583.175 58.9686 579.748 61.0226C576.321 63.0765 574.462 66.05 574.17 69.9431C573.946 72.9427 574.972 75.5226 577.249 77.6826C579.595 79.7835 583.537 81.1375 589.075 81.7446C590.474 81.9135 591.44 82.3067 591.971 82.9241C592.503 83.5414 592.718 84.5203 592.618 85.8605C592.302 90.0727 590.228 92.0674 586.394 91.8446C581.087 91.5758 576.628 91.9801 573.018 93.0576C569.471 94.1399 566.821 95.6744 565.068 97.661C563.383 99.5887 562.453 101.733 562.276 104.095C561.98 108.052 563.606 111.19 567.155 113.509C570.708 115.765 576.506 117.193 584.548 117.795C589.845 118.192 595.474 118.003 601.437 117.23C607.468 116.398 612.656 115.246 617.002 113.775Z" fill="#7B0086"/>
<path d="M690.425 121.775C691.249 121.895 691.827 122.367 692.16 123.191C692.556 124.025 692.657 125.107 692.464 126.437C692.105 128.907 691.219 130.783 689.804 132.065C686.23 135.297 682.744 137.701 679.346 139.276C675.958 140.789 672.142 141.237 667.898 140.621C663.781 140.023 660.427 138.404 657.836 135.764C655.308 133.133 653.136 128.937 651.322 123.177C649.857 118.566 648.67 115.16 647.761 112.959C646.862 110.694 645.875 109.031 644.8 107.969C643.789 106.917 642.442 106.172 640.759 105.733C640.313 107.026 638.977 111.101 636.753 117.956C635.786 121.049 635.189 122.935 634.961 123.613C633.766 127.385 632.067 130.177 629.864 131.992C627.669 133.742 624.64 134.337 620.777 133.776C616.533 133.159 612.944 131.377 610.01 128.428C607.147 125.426 605.152 121.579 604.022 116.888C602.902 112.133 602.756 106.906 603.584 101.206C605.13 90.5657 608.301 81.6489 613.096 74.4556C617.956 67.2715 624.005 62.1357 631.244 59.0483C638.555 55.9067 646.581 54.9708 655.321 56.2404C661.402 57.1236 666.367 58.7826 670.217 61.2173C674.067 63.6521 676.739 66.6271 678.233 70.1424C679.79 73.6669 680.275 77.4559 679.686 81.5093C679.171 85.0561 677.81 88.4153 675.603 91.587C673.469 94.7046 670.534 97.3179 666.8 99.4271C663.066 101.536 658.701 102.875 653.703 103.442C656.624 104.707 658.774 106.377 660.154 108.453C661.534 110.529 662.789 113.46 663.921 117.246C665.142 121.304 666.479 124.344 667.932 126.366C669.448 128.396 671.345 129.578 673.626 129.909C675.652 130.203 677.681 129.819 679.71 128.756C681.75 127.629 684.402 125.621 687.667 122.733C688.556 121.956 689.475 121.637 690.425 121.775ZM627.663 103.734C625.509 103.421 624.095 102.698 623.419 101.565C622.806 100.441 622.591 99.246 622.775 97.9793C622.996 96.4592 623.646 95.3249 624.725 94.5762C625.867 93.8367 627.071 93.559 628.338 93.743L630.713 94.088C632.628 88.0283 634.356 82.8145 635.895 78.4465C637.317 74.4493 640.276 72.7773 644.773 73.4305C648.383 73.9549 649.953 75.8322 649.484 79.0623C649.383 79.759 649.273 80.2927 649.154 80.6635L644.014 96.02C647.461 96.3268 650.684 95.9543 653.683 94.9024C656.744 93.8597 659.287 92.1595 661.311 89.802C663.398 87.4537 664.681 84.6328 665.16 81.3393C665.739 77.3492 664.833 74.0163 662.441 71.3406C660.048 68.665 656.224 66.9453 650.967 66.1817C644.76 65.2801 639.088 66.0406 633.95 68.4632C628.885 70.8317 624.613 74.8674 621.133 80.5704C617.662 86.21 615.296 93.3683 614.036 102.045C613.447 106.099 613.353 109.642 613.753 112.675C614.153 115.708 614.849 118.04 615.841 119.672C616.833 121.303 617.867 122.197 618.944 122.354C619.767 122.473 620.492 122.158 621.118 121.408C621.808 120.668 622.444 119.402 623.028 117.611L627.663 103.734Z" fill="#7B0086"/>
<path d="M722.478 70.0865C724.106 70.4293 725.398 71.1264 726.354 72.1779C727.323 73.1667 727.689 74.2247 727.452 75.352C727.03 77.3561 726.061 78.8526 724.545 79.8415C723.042 80.7678 721.131 80.987 718.814 80.4992C715.182 79.7346 712.42 79.1859 710.528 78.853C710.244 79.5782 708.969 82.8414 706.701 88.6427C704.163 95.1066 702.611 99.0636 702.044 100.514L697.481 112.405C694.165 121.321 691.447 128.794 689.328 134.822C690.656 135.037 692.448 135.381 694.703 135.856C698.022 136.554 700.184 137.467 701.189 138.595C702.195 139.722 702.513 141.162 702.144 142.916C701.801 144.544 700.853 145.784 699.301 146.634C697.811 147.498 695.908 147.686 693.59 147.198C692.025 146.868 689.564 146.285 686.209 145.448C683.104 144.663 681.05 144.166 680.048 143.955C676.102 143.124 671.709 142.559 666.867 142.259C664.734 142.137 663.229 141.984 662.352 141.799C660.975 141.509 659.895 140.89 659.114 139.941C658.333 138.991 658.094 137.796 658.397 136.356C658.871 134.101 660.243 132.559 662.51 131.728C664.778 130.897 667.735 130.833 671.38 131.535L675.815 132.37L676.532 130.363C680.145 120.659 682.73 113.813 684.289 109.824L688.946 97.9532C691.728 90.952 694.431 83.7054 697.055 76.2131L689.144 74.646C686.889 74.1714 685.396 73.4973 684.664 72.6239C684.008 71.701 683.819 70.5819 684.095 69.2668C684.992 65.0081 688.542 63.3681 694.745 64.347C697.652 64.8281 701.173 65.5037 705.306 66.3738L722.478 70.0865Z" fill="#7B0086"/>
<path d="M728.869 156.524C720.656 154.286 714.501 150.95 710.403 146.516C706.321 142.021 705.156 136.562 706.906 130.14C707.832 126.744 709.125 124.311 710.786 122.84C712.448 121.369 714.421 120.945 716.705 121.567C718.372 122.022 719.613 122.824 720.427 123.975C721.241 125.125 721.463 126.38 721.093 127.738C720.756 128.973 720.369 130.029 719.931 130.904C719.864 131.151 719.685 131.567 719.393 132.151C719.163 132.751 718.955 133.391 718.77 134.07C718.013 136.849 718.838 139.296 721.247 141.412C723.717 143.545 727.483 145.301 732.547 146.681C737.795 148.111 742.154 148.304 745.623 147.26C749.108 146.153 751.314 143.902 752.24 140.506C752.812 138.407 752.621 136.431 751.666 134.579C750.728 132.665 749.375 130.936 747.607 129.393C745.855 127.788 743.329 125.739 740.028 123.248C735.779 120.099 732.368 117.279 729.797 114.787C727.287 112.312 725.339 109.36 723.952 105.931C722.644 102.456 722.57 98.5889 723.731 94.3283C724.943 89.8825 727.193 86.2504 730.482 83.4321C733.833 80.6306 737.992 78.8786 742.959 78.1762C747.989 77.4905 753.529 77.9724 759.58 79.6217C764.088 80.8503 768.04 82.6571 771.436 85.0421C774.849 87.3654 777.297 90.1885 778.78 93.5112C780.324 96.8508 780.557 100.497 779.48 104.448C778.42 108.338 777.034 111.112 775.322 112.768C773.61 114.424 771.612 114.941 769.328 114.318C767.722 113.88 766.498 113.016 765.656 111.725C764.876 110.451 764.671 109.135 765.041 107.776C765.361 106.603 765.748 105.548 766.202 104.61C766.892 102.809 767.305 101.661 767.439 101.167C768.146 98.5732 767.419 96.2523 765.258 94.2038C763.096 92.1553 760.132 90.6178 756.366 89.5912C751.055 88.1439 746.711 88.0211 743.332 89.2228C740.031 90.3797 737.902 92.7179 736.942 96.2375C736.303 98.5839 736.466 100.784 737.432 102.839C738.459 104.91 739.902 106.795 741.76 108.496C743.619 110.196 746.282 112.349 749.752 114.953C753.923 118.146 757.218 120.901 759.638 123.219C762.057 125.537 763.893 128.293 765.146 131.487C766.46 134.697 766.587 138.247 765.526 142.137C763.54 149.424 759.23 154.285 752.596 156.723C746.04 159.115 738.131 159.049 728.869 156.524Z" fill="#7B0086"/>
<path d="M825.551 101.693C827.128 102.224 828.33 103.067 829.156 104.223C830.003 105.318 830.243 106.412 829.875 107.504C829.222 109.445 828.084 110.818 826.463 111.622C824.862 112.366 822.939 112.361 820.695 111.605C817.177 110.421 814.498 109.553 812.658 109.001C812.291 109.688 810.643 112.78 807.712 118.276C804.436 124.399 802.431 128.147 801.698 129.521L795.776 140.797C791.44 149.264 787.867 156.367 785.057 162.107C786.351 162.475 788.09 163.026 790.273 163.761C793.488 164.843 795.529 166.003 796.396 167.24C797.262 168.477 797.41 169.945 796.838 171.643C796.307 173.221 795.221 174.341 793.58 175.004C791.999 175.687 790.086 175.651 787.842 174.896C786.326 174.385 783.95 173.518 780.716 172.294C777.724 171.152 775.743 170.417 774.772 170.091C770.951 168.804 766.653 167.729 761.88 166.865C759.776 166.494 758.299 166.166 757.45 165.88C756.116 165.431 755.116 164.689 754.451 163.655C753.787 162.621 753.689 161.406 754.159 160.011C754.894 157.828 756.436 156.456 758.785 155.896C761.135 155.337 764.078 155.619 767.617 156.742L771.924 158.091L772.87 156.181C777.593 146.966 780.962 140.469 782.977 136.691L788.991 125.446C792.572 118.818 796.104 111.937 799.586 104.803L791.913 102.322C789.729 101.587 788.325 100.742 787.7 99.7894C787.157 98.7961 787.1 97.6626 787.528 96.3888C788.917 92.2642 792.634 91.0508 798.68 92.7485C801.511 93.5664 804.929 94.6492 808.932 95.9968L825.551 101.693Z" fill="#7B0086"/>
<path d="M866.837 186.582C867.871 186.581 868.685 186.698 869.28 186.935C870.231 187.315 870.802 187.956 870.993 188.859C871.185 189.762 871.055 190.778 870.605 191.908C869.894 193.691 868.844 195.029 867.454 195.922C866.124 196.839 864.218 197.388 861.734 197.569C857.563 197.836 852.482 197.36 846.49 196.143C840.523 194.867 834.834 193.151 829.424 190.994C821.933 188.008 815.993 184.676 811.603 180.997C807.237 177.258 804.398 173.405 803.086 169.437C801.833 165.493 801.953 161.648 803.446 157.903C805.484 152.79 808.849 149.102 813.541 146.838C818.316 144.539 824.233 143.866 831.294 144.821C828.189 142.412 826.195 139.55 825.312 136.235C824.488 132.944 824.704 129.723 825.96 126.572C827.666 122.292 830.508 119.05 834.487 116.847C838.549 114.607 843.224 113.508 848.513 113.55C853.802 113.591 859.181 114.702 864.65 116.882C872.022 119.82 876.911 123.629 879.317 128.309C881.747 132.929 881.955 137.766 879.941 142.819C878.543 146.327 876.751 148.92 874.566 150.598C872.465 152.241 870.225 152.588 867.847 151.64C866.182 150.977 865.017 150.099 864.35 149.006C863.707 147.854 863.681 146.535 864.274 145.049C864.677 144.038 865.264 142.997 866.035 141.927C867.114 140.083 867.796 138.805 868.08 138.092C868.934 135.951 868.818 133.907 867.734 131.96C866.674 129.952 864.271 128.202 860.526 126.709C855.473 124.695 851.003 124.154 847.118 125.085C843.233 126.017 840.568 128.296 839.122 131.922C838.009 134.717 838.214 137.486 839.738 140.229C841.346 142.937 844.7 145.411 849.802 147.651C851.086 148.232 851.889 148.896 852.211 149.644C852.532 150.393 852.444 151.391 851.947 152.64C850.383 156.563 847.805 157.844 844.215 156.482C839.233 154.634 834.858 153.682 831.091 153.627C827.383 153.596 824.394 154.265 822.126 155.635C819.941 156.968 818.41 158.735 817.533 160.935C816.064 164.621 816.674 168.102 819.364 171.379C822.078 174.596 827.18 177.698 834.67 180.684C839.605 182.651 845.032 184.16 850.952 185.21C856.955 186.225 862.25 186.682 866.837 186.582Z" fill="#7B0086"/>
<path d="M934.481 216.235C935.23 216.596 935.64 217.219 935.71 218.106C935.839 219.02 935.611 220.082 935.028 221.293C933.945 223.542 932.536 225.066 930.802 225.864C926.423 227.875 922.377 229.123 918.663 229.608C914.977 230.034 911.202 229.317 907.339 227.457C903.591 225.651 900.876 223.101 899.196 219.805C897.573 216.538 896.76 211.884 896.757 205.844C896.742 201.007 896.632 197.402 896.425 195.029C896.246 192.598 895.803 190.716 895.096 189.381C894.447 188.074 893.386 186.959 891.912 186.036C891.098 187.136 888.602 190.622 884.424 196.494C882.574 199.155 881.439 200.775 881.018 201.354C878.748 204.593 876.289 206.748 873.643 207.818C871.024 208.83 867.956 208.489 864.439 206.795C860.576 204.934 857.687 202.157 855.771 198.464C853.941 194.741 853.191 190.473 853.521 185.659C853.878 180.788 855.306 175.757 857.806 170.568C862.472 160.881 868.171 153.325 874.903 147.902C881.693 142.506 889.004 139.42 896.836 138.646C904.753 137.842 912.69 139.356 920.647 143.189C926.183 145.855 930.422 148.926 933.364 152.404C936.307 155.881 937.964 159.52 938.335 163.322C938.764 167.151 938.089 170.911 936.312 174.601C934.757 177.83 932.451 180.627 929.394 182.991C926.423 185.325 922.84 186.938 918.646 187.83C914.451 188.722 909.885 188.69 904.947 187.732C907.354 189.815 908.904 192.053 909.598 194.447C910.292 196.842 910.611 200.014 910.555 203.965C910.503 208.203 910.867 211.503 911.646 213.868C912.483 216.26 913.939 217.956 916.015 218.955C917.86 219.844 919.91 220.086 922.166 219.68C924.449 219.217 927.581 218.097 931.562 216.321C932.643 215.847 933.616 215.818 934.481 216.235ZM880.018 180.201C878.058 179.256 876.925 178.142 876.62 176.859C876.372 175.603 876.526 174.398 877.081 173.245C877.748 171.861 878.708 170.974 879.962 170.583C881.273 170.221 882.505 170.317 883.659 170.872L885.821 171.914C889.465 166.707 892.677 162.252 895.456 158.546C898.01 155.16 901.335 154.452 905.429 156.424C908.715 158.007 909.65 160.269 908.234 163.209C907.929 163.844 907.664 164.32 907.439 164.638L897.93 177.746C901.127 179.072 904.313 179.684 907.489 179.579C910.722 179.503 913.658 178.644 916.296 177.002C918.991 175.387 921.061 173.081 922.505 170.083C924.255 166.45 924.39 162.999 922.91 159.729C921.43 156.459 918.298 153.671 913.512 151.366C907.861 148.645 902.222 147.669 896.594 148.439C891.052 149.18 885.766 151.748 880.736 156.145C875.733 160.484 871.33 166.604 867.525 174.503C865.748 178.193 864.595 181.545 864.067 184.559C863.539 187.572 863.504 190.006 863.96 191.859C864.417 193.713 865.136 194.876 866.116 195.348C866.866 195.709 867.652 195.626 868.474 195.099C869.354 194.599 870.341 193.583 871.434 192.049L880.018 180.201Z" fill="#7B0086"/>
<path d="M926.271 239.728C918.894 235.481 913.786 230.693 910.946 225.365C908.137 219.982 908.394 214.406 911.715 208.638C913.471 205.587 915.339 203.561 917.319 202.56C919.299 201.558 921.315 201.648 923.367 202.829C924.865 203.692 925.861 204.782 926.357 206.102C926.853 207.421 926.75 208.691 926.047 209.911C925.408 211.02 924.766 211.943 924.121 212.679C923.993 212.901 923.714 213.257 923.284 213.748C922.909 214.271 922.546 214.837 922.195 215.447C920.758 217.943 920.936 220.52 922.729 223.177C924.578 225.866 927.776 228.52 932.324 231.139C937.039 233.853 941.206 235.145 944.826 235.014C948.479 234.827 951.183 233.209 952.939 230.158C954.025 228.273 954.341 226.313 953.887 224.279C953.465 222.19 952.595 220.175 951.275 218.234C949.988 216.237 948.064 213.615 945.502 210.368C942.19 206.245 939.606 202.652 937.75 199.59C935.95 196.56 934.814 193.21 934.342 189.541C933.957 185.848 934.866 182.089 937.07 178.262C939.369 174.268 942.466 171.325 946.362 169.433C950.314 167.572 954.781 166.932 959.764 167.512C964.803 168.124 970.04 169.994 975.476 173.124C979.525 175.455 982.889 178.205 985.57 181.373C988.283 184.486 989.935 187.837 990.526 191.427C991.174 195.049 990.475 198.635 988.431 202.185C986.419 205.679 984.376 208.01 982.3 209.178C980.224 210.346 978.16 210.339 976.108 209.158C974.666 208.328 973.701 207.181 973.214 205.719C972.782 204.289 972.917 202.964 973.62 201.743C974.227 200.69 974.869 199.767 975.546 198.975C976.671 197.407 977.36 196.401 977.616 195.958C978.957 193.628 978.842 191.199 977.271 188.669C975.699 186.14 973.222 183.901 969.839 181.953C965.069 179.206 960.897 177.986 957.324 178.292C953.838 178.574 951.185 180.296 949.365 183.458C948.151 185.565 947.751 187.735 948.165 189.967C948.634 192.231 949.551 194.421 950.918 196.537C952.284 198.653 954.315 201.41 957.011 204.809C960.236 208.955 962.725 212.456 964.478 215.312C966.231 218.167 967.309 221.298 967.71 224.705C968.167 228.144 967.39 231.611 965.378 235.105C961.61 241.649 956.208 245.26 949.173 245.935C942.224 246.587 934.591 244.518 926.271 239.728Z" fill="#7B0086"/>
</svg>
